#VRML V2.0 utf8
# 3D model generated by easyeda2kicad.py (https://github.com/uPesy/easyeda2kicad.py)

Shape{
    appearance Appearance {
        material  Material 	{
            diffuseColor 0.25098039215686274 0.25098039215686274 0.25098039215686274
            specularColor 0.12549019607843137 0.12549019607843137 0.12549019607843137
            ambientIntensity 0.251
            transparency 0.0
            shininess 0.5
        }
    }
    geometry IndexedFaceSet {
        ccw TRUE
        solid FALSE
        coord DEF co Coordinate {
            point [
                0.9203 0.6845 0.0394, 0.9203 -0.5244 0.0394, 0.7643 -0.5244 0.0394, 0.8813 -0.7235 0.0394, 0.7643 -0.7235 0.0394, 0.9203 -0.6845 0.0394, 0.5631 -0.3937 0.0394, 0.5709 -0.3937 0.0394, 0.6371 -0.5244 0.0394, -0.9009 0.7183 0.0394, -0.8963 0.7205 0.0394, -0.5709 0.3937 0.0394, 0.5631 -0.5244 0.0394, -0.0408 -0.3937 0.0394, -0.0408 -0.5244 0.0394, -0.5709 -0.3937 0.0394, -0.9203 -0.5244 0.0394, -0.9203 0.6845 0.0394, -0.919 0.6946 0.0394, -0.9173 0.6994 0.0394, -0.9151 0.704 0.0394, -0.9123 0.7083 0.0394, -0.9089 0.7121 0.0394, -0.9051 0.7154 0.0394, -0.8915 0.7221 0.0394, -0.8813 0.7235 0.0394, -0.0408 0.3937 0.0394, -0.0408 0.7235 0.0394, 0.5631 0.3937 0.0394, 0.5631 0.7235 0.0394, 0.5709 0.3937 0.0394, 0.6371 0.7235 0.0394, 0.7024 -0.5995 0.0394, 0.6947 -0.6041 0.0394, 0.7024 -0.5909 0.0394, 0.6947 -0.5244 0.0394, 0.7139 -0.5244 0.0394, 0.7115 -0.5246 0.0394, 0.7024 -0.527 0.0394, 0.7024 -0.5376 0.0394, 0.7112 -0.5338 0.0394, 0.7038 -0.5917 0.0394, 0.7208 -0.5325 0.0394, 0.7286 -0.5334 0.0394, 0.7345 -0.5355 0.0394, 0.7399 -0.5392 0.0394, 0.7447 -0.5444 0.0394, 0.7504 -0.5651 0.0394, 0.7496 -0.5736 0.0394, 0.7475 -0.5804 0.0394, 0.7299 -0.5951 0.0394, 0.7226 -0.5959 0.0394, 0.7357 -0.593 0.0394, 0.7405 -0.5897 0.0394, 0.7442 -0.5858 0.0394, 0.7121 -0.5948 0.0394, 0.7479 -0.5505 0.0394, 0.75 -0.5589 0.0394, 0.7477 -0.5969 0.0394, 0.7536 -0.5907 0.0394, 0.7643 -0.6041 0.0394, 0.7578 -0.5832 0.0394, 0.7568 -0.5456 0.0394, 0.7522 -0.5382 0.0394, 0.7451 -0.5314 0.0394, 0.7287 -0.6041 0.0394, 0.7337 -0.6036 0.0394, 0.7414 -0.6009 0.0394, 0.7376 -0.5271 0.0394, 0.7288 -0.5245 0.0394, 0.7268 -0.5244 0.0394, 0.7602 -0.5748 0.0394, 0.7609 -0.5657 0.0394, 0.7598 -0.5545 0.0394, 0.7108 -0.603 0.0394, 0.7187 -0.6041 0.0394, 0.6947 -0.7235 0.0394, 0.7219 -0.6045 0.0394, 0.724 -0.6046 0.0394, -0.919 -0.6946 0.0394, -0.8813 -0.7235 0.0394, -0.9173 -0.6994 0.0394, -0.8915 -0.7221 0.0394, -0.8963 -0.7205 0.0394, -0.9009 -0.7183 0.0394, -0.9151 -0.704 0.0394, -0.9123 -0.7083 0.0394, -0.9051 -0.7154 0.0394, -0.9089 -0.7121 0.0394, 0.9203 -0.6041 0.0394, 0.9009 -0.7183 0.0394, 0.8963 -0.7205 0.0394, 0.9151 -0.704 0.0394, 0.9173 -0.6994 0.0394, 0.919 -0.6946 0.0394, 0.8915 -0.7221 0.0394, 0.9051 -0.7154 0.0394, 0.9123 -0.7083 0.0394, 0.9089 -0.7121 0.0394, 0.7209 -0.5239 0.0394, 0.6947 0.7235 0.0394, 0.7643 0.7235 0.0394, 0.8813 0.7235 0.0394, 0.8915 0.7221 0.0394, 0.9173 0.6994 0.0394, 0.919 0.6946 0.0394, 0.8963 0.7205 0.0394, 0.9009 0.7183 0.0394, 0.9151 0.704 0.0394, 0.9123 0.7083 0.0394, 0.9051 0.7154 0.0394, 0.9089 0.7121 0.0394, -0.9203 -0.6845 0.0394, -0.9203 -0.6041 0.0394, -0.0408 -0.7235 0.0394, -0.0408 -0.6041 0.0394, 0.5631 -0.7235 0.0394, 0.5631 -0.6041 0.0394, 0.6371 -0.7235 0.0394, 0.6371 -0.6041 0.0394, 0.7677 -0.595 0.0394, 0.7677 -0.6036 0.0394, 0.808 -0.6036 0.0394, 0.7974 -0.595 0.0394, 0.7974 -0.5249 0.0394, 0.808 -0.5249 0.0394, 0.6467 -0.5249 0.0394, 0.687 -0.6036 0.0394, 0.687 -0.5249 0.0394, 0.6467 -0.5335 0.0394, 0.6448 -0.595 0.0394, 0.6448 -0.6036 0.0394, 0.6764 -0.5681 0.0394, 0.6764 -0.595 0.0394, 0.6486 -0.5681 0.0394, 0.6486 -0.5594 0.0394, 0.6764 -0.5594 0.0394, 0.6764 -0.5335 0.0394, 0.57 -0.582 0.0394, 0.5671 -0.5738 0.0394, 0.566 -0.5632 0.0394, 0.5745 -0.5891 0.0394, 0.5809 -0.5953 0.0394, 0.5892 -0.6 0.0394, 0.6072 -0.5249 0.0394, 0.5958 -0.5261 0.0394, 0.5866 -0.5293 0.0394, 0.578 -0.5351 0.0394, 0.5779 -0.5351 0.0394, 0.5724 -0.5413 0.0394, 0.5687 -0.5481 0.0394, 0.5666 -0.5558 0.0394, 0.5982 -0.6028 0.0394, 0.608 -0.6036 0.0394, 0.6294 -0.6036 0.0394, 0.6294 -0.5249 0.0394, 0.5007 -0.6036 0.0394, 0.5087 -0.5815 0.0394, 0.5412 -0.5815 0.0394, 0.5487 -0.6036 0.0394, 0.5603 -0.6036 0.0394, 0.4892 -0.6036 0.0394, 0.5199 -0.5249 0.0394, 0.5305 -0.5249 0.0394, 0.8307 0.7622 0.315, 0.8307 0.7677 0.3543, 0.9256 0.7677 0.3543, -0.9256 0.7677 0.3543, -0.8307 0.7677 0.3543, -0.8307 0.7622 0.315, -0.6693 0.7622 0.315, -0.6693 0.7677 0.3543, -0.3307 0.7677 0.3543, -0.3307 0.7622 0.315, -0.1693 0.7622 0.315, -0.1693 0.7677 0.3543, 0.1693 0.7677 0.3543, 0.1693 0.7622 0.315, 0.3307 0.7622 0.315, 0.6693 0.7622 0.315, 0.3307 0.7677 0.3543, 0.6693 0.7677 0.3543, 0.6693 0.7622 0.3937, 0.8861 0.7282 0.6354, 0.8307 0.7622 0.3937, 0.1693 0.7622 0.3937, -0.1693 0.7622 0.3937, 0.3307 0.7622 0.3937, -0.8861 0.7282 0.6354, -0.3307 0.7622 0.3937, -0.8307 0.7622 0.3937, -0.6693 0.7622 0.3937, 0.9256 -0.7677 0.3543, 0.8307 -0.7622 0.315, 0.8307 -0.7677 0.3543, -0.3307 -0.7622 0.315, -0.3307 -0.7677 0.3543, -0.6693 -0.7677 0.3543, 0.6693 -0.7622 0.315, -0.8307 -0.7677 0.3543, -0.9256 -0.7677 0.3543, -0.8307 -0.7622 0.315, -0.6693 -0.7622 0.315, -0.1693 -0.7622 0.315, 0.6693 -0.7677 0.3543, 0.3307 -0.7677 0.3543, 0.3307 -0.7622 0.315, 0.1693 -0.7622 0.315, 0.1693 -0.7677 0.3543, -0.1693 -0.7677 0.3543, -0.1693 -0.7622 0.3937, -0.9 -0.7422 0.5362, -0.8307 -0.7622 0.3937, -0.6693 -0.7622 0.3937, 0.3307 -0.7622 0.3937, 0.6693 -0.7622 0.3937, 0.1693 -0.7622 0.3937, -0.3307 -0.7622 0.3937, 0.8307 -0.7622 0.3937, 0.9 -0.7422 0.5362, 0.9646 0.7287 0.3543, 0.9646 -0.7287 0.3543, -0.9646 -0.7287 0.3543, -0.9646 0.7287 0.3543, 0.939 -0.7032 0.5362, 0.9251 -0.5715 0.6354, 0.9251 0.6892 0.6354, -0.9251 0.6892 0.6354, -0.9251 -0.5715 0.6354, -0.939 -0.7032 0.5362, -0.612 -0.3511 0.6693, 0.8861 -0.5715 0.6693, -0.6151 -0.3279 0.6693, 0.8861 0.6892 0.6693, -0.624 -0.3064 0.6693, -0.6383 -0.2878 0.6693, -0.7247 -0.4376 0.6693, -0.7463 -0.4286 0.6693, -0.8861 -0.5715 0.6693, -0.6151 -0.3743 0.6693, -0.624 -0.3959 0.6693, -0.6383 -0.4144 0.6693, -0.6568 -0.4286 0.6693, -0.6784 -0.4376 0.6693, -0.7015 -0.4406 0.6693, -0.7648 -0.4144 0.6693, -0.7791 -0.3959 0.6693, -0.788 -0.3743 0.6693, -0.791 -0.3511 0.6693, -0.788 -0.3279 0.6693, -0.8861 0.6892 0.6693, -0.7791 -0.3064 0.6693, -0.7648 -0.2878 0.6693, -0.7463 -0.2736 0.6693, -0.7247 -0.2647 0.6693, -0.7015 -0.2616 0.6693, -0.6784 -0.2647 0.6693, -0.6568 -0.2736 0.6693
            ]
        }
        coordIndex [
            0,1,2,-1,3,4,5,-1,6,7,8,-1,9,10,11,-1,6,12,13,-1,13,12,14,-1,13,14,15,-1,15,14,16,-1,15,16,11,-1,11,16,17,-1,11,17,18,-1,18,19,11,-1,11,19,20,-1,11,20,21,-1,21,22,11,-1,11,22,23,-1,11,23,9,-1,10,24,11,-1,11,24,25,-1,11,25,26,-1,26,25,27,-1,26,27,28,-1,28,27,29,-1,28,29,30,-1,30,29,31,-1,32,33,34,-1,34,33,35,-1,35,36,37,-1,37,38,35,-1,35,38,39,-1,35,39,34,-1,34,39,40,-1,34,40,41,-1,41,40,42,-1,41,42,43,-1,43,44,41,-1,41,44,45,-1,41,45,46,-1,47,48,41,-1,41,48,49,-1,50,51,52,-1,52,51,53,-1,49,54,41,-1,41,54,53,-1,41,53,55,-1,55,53,51,-1,46,56,41,-1,41,56,57,-1,41,57,47,-1,58,59,60,-1,60,59,61,-1,62,63,2,-1,2,63,64,-1,65,66,60,-1,60,66,67,-1,60,67,58,-1,64,68,2,-1,2,68,69,-1,2,69,70,-1,61,71,60,-1,60,71,72,-1,60,72,2,-1,2,72,73,-1,2,73,62,-1,32,74,33,-1,33,74,75,-1,33,75,76,-1,76,75,77,-1,76,77,4,-1,4,77,78,-1,79,80,81,-1,81,80,82,-1,82,83,81,-1,81,83,84,-1,81,84,85,-1,85,84,86,-1,86,84,87,-1,86,87,88,-1,5,4,89,-1,90,91,92,-1,92,91,93,-1,5,94,3,-1,3,94,93,-1,3,93,95,-1,95,93,91,-1,90,92,96,-1,96,92,97,-1,96,97,98,-1,99,100,70,-1,70,100,101,-1,70,101,2,-1,2,101,102,-1,2,102,0,-1,103,104,102,-1,102,104,105,-1,102,105,0,-1,103,106,104,-1,104,106,107,-1,104,107,108,-1,108,107,109,-1,109,107,110,-1,109,110,111,-1,79,112,80,-1,80,112,113,-1,80,113,114,-1,114,113,115,-1,114,115,116,-1,116,115,117,-1,116,117,118,-1,118,117,119,-1,118,119,76,-1,2,120,60,-1,60,120,121,-1,60,121,122,-1,123,120,124,-1,124,120,2,-1,124,2,125,-1,125,2,1,-1,125,1,122,-1,122,1,89,-1,122,89,60,-1,60,89,4,-1,60,4,65,-1,65,4,78,-1,126,8,35,-1,76,119,33,-1,33,119,127,-1,33,127,35,-1,35,127,128,-1,35,128,126,-1,126,129,8,-1,8,129,130,-1,8,130,119,-1,119,130,131,-1,119,131,127,-1,132,133,134,-1,134,133,130,-1,134,130,135,-1,135,130,129,-1,135,129,136,-1,136,129,137,-1,138,117,139,-1,139,117,140,-1,138,141,117,-1,117,141,142,-1,117,142,143,-1,6,8,12,-1,12,8,144,-1,12,144,145,-1,145,146,12,-1,12,146,147,-1,12,147,148,-1,148,149,12,-1,12,149,150,-1,12,150,151,-1,143,152,117,-1,117,152,153,-1,117,153,119,-1,119,153,154,-1,119,154,8,-1,8,154,155,-1,8,155,144,-1,156,157,158,-1,159,160,117,-1,117,160,12,-1,117,12,140,-1,140,12,151,-1,158,159,156,-1,156,159,117,-1,156,117,161,-1,161,117,115,-1,161,115,162,-1,113,16,115,-1,115,16,14,-1,115,14,162,-1,162,14,12,-1,162,12,163,-1,163,12,160,-1,7,30,8,-1,8,30,31,-1,8,31,35,-1,35,31,100,-1,35,100,36,-1,36,100,99,-1,164,165,166,-1,167,168,169,-1,170,171,172,-1,173,174,27,-1,172,173,170,-1,170,173,27,-1,170,27,169,-1,169,27,25,-1,169,25,167,-1,174,175,176,-1,174,176,27,-1,27,176,177,-1,27,177,29,-1,29,177,178,-1,29,178,31,-1,31,178,179,-1,179,178,180,-1,179,180,181,-1,166,102,164,-1,164,102,101,-1,164,101,179,-1,179,101,100,-1,179,100,31,-1,182,183,184,-1,184,183,166,-1,184,166,165,-1,176,175,185,-1,185,175,186,-1,181,180,182,-1,182,180,187,-1,182,187,183,-1,183,187,185,-1,183,185,188,-1,188,185,186,-1,188,186,189,-1,168,167,190,-1,190,167,188,-1,190,188,191,-1,191,188,189,-1,191,189,171,-1,171,189,172,-1,3,192,193,-1,193,192,194,-1,195,196,197,-1,198,114,116,-1,199,200,201,-1,201,200,80,-1,201,80,202,-1,197,202,195,-1,195,202,80,-1,195,80,203,-1,203,80,114,-1,116,118,198,-1,198,118,76,-1,198,76,193,-1,193,76,4,-1,193,4,3,-1,204,205,198,-1,198,205,206,-1,198,206,114,-1,114,206,207,-1,114,207,203,-1,203,207,208,-1,203,208,209,-1,210,209,208,-1,200,199,211,-1,211,199,212,-1,211,212,213,-1,205,204,214,-1,214,204,215,-1,208,216,210,-1,210,216,211,-1,210,211,217,-1,217,211,213,-1,217,213,196,-1,196,213,197,-1,194,192,218,-1,218,192,219,-1,218,219,215,-1,215,219,211,-1,215,211,214,-1,214,211,216,-1,0,220,1,-1,1,220,221,-1,1,221,89,-1,89,221,5,-1,222,223,17,-1,17,16,222,-1,222,16,113,-1,222,113,112,-1,224,221,225,-1,225,221,220,-1,225,220,226,-1,227,223,228,-1,228,223,222,-1,228,222,229,-1,230,231,232,-1,232,231,233,-1,232,233,234,-1,234,233,235,-1,236,237,238,-1,230,239,231,-1,231,239,240,-1,231,240,241,-1,241,242,231,-1,231,242,243,-1,231,243,238,-1,238,243,244,-1,238,244,236,-1,237,245,238,-1,238,245,246,-1,238,246,247,-1,247,248,238,-1,238,248,249,-1,238,249,250,-1,250,249,251,-1,251,252,250,-1,250,252,253,-1,250,253,254,-1,254,255,250,-1,250,255,256,-1,250,256,233,-1,233,256,257,-1,233,257,235,-1,
        ]
    }
}
Shape{
    appearance Appearance {
        material  Material 	{
            diffuseColor 0.0 0.0 0.0
            specularColor 0.0 0.0 0.0
            ambientIntensity 0.0
            transparency 0.0
            shininess 0.5
        }
    }
    geometry IndexedFaceSet {
        ccw TRUE
        solid FALSE
        coord DEF co Coordinate {
            point [
                -0.612 -0.3511 0.6689, -0.612 -0.3511 0.6693, -0.6151 -0.3279 0.6689, -0.6151 -0.3279 0.6693, -0.624 -0.3064 0.6689, -0.624 -0.3064 0.6693, -0.6383 -0.2878 0.6689, -0.6383 -0.2878 0.6693, -0.6568 -0.2736 0.6689, -0.6568 -0.2736 0.6693, -0.6784 -0.2647 0.6689, -0.6784 -0.2647 0.6693, -0.7015 -0.2616 0.6689, -0.7015 -0.2616 0.6693, -0.7247 -0.2647 0.6689, -0.7247 -0.2647 0.6693, -0.7463 -0.2736 0.6689, -0.7463 -0.2736 0.6693, -0.7648 -0.2878 0.6689, -0.7648 -0.2878 0.6693, -0.7791 -0.3064 0.6689, -0.7791 -0.3064 0.6693, -0.788 -0.3279 0.6689, -0.788 -0.3279 0.6693, -0.791 -0.3511 0.6689, -0.791 -0.3511 0.6693, -0.788 -0.3743 0.6689, -0.788 -0.3743 0.6693, -0.7791 -0.3959 0.6689, -0.7791 -0.3959 0.6693, -0.7648 -0.4144 0.6689, -0.7648 -0.4144 0.6693, -0.7463 -0.4286 0.6689, -0.7463 -0.4286 0.6693, -0.7247 -0.4376 0.6689, -0.7247 -0.4376 0.6693, -0.7015 -0.4406 0.6689, -0.7015 -0.4406 0.6693, -0.6784 -0.4376 0.6689, -0.6784 -0.4376 0.6693, -0.6568 -0.4286 0.6689, -0.6568 -0.4286 0.6693, -0.6383 -0.4144 0.6689, -0.6383 -0.4144 0.6693, -0.624 -0.3959 0.6689, -0.624 -0.3959 0.6693, -0.6151 -0.3743 0.6689, -0.6151 -0.3743 0.6693, -0.7015 -0.3511 0.6689
            ]
        }
        coordIndex [
            0,1,2,-1,2,1,3,-1,2,3,4,-1,4,3,5,-1,4,5,6,-1,6,5,7,-1,6,7,8,-1,8,7,9,-1,8,9,10,-1,10,9,11,-1,10,11,12,-1,12,11,13,-1,12,13,14,-1,14,13,15,-1,14,15,16,-1,16,15,17,-1,16,17,18,-1,18,17,19,-1,18,19,20,-1,20,19,21,-1,20,21,22,-1,22,21,23,-1,22,23,24,-1,24,23,25,-1,24,25,26,-1,26,25,27,-1,26,27,28,-1,28,27,29,-1,28,29,30,-1,30,29,31,-1,30,31,32,-1,32,31,33,-1,32,33,34,-1,34,33,35,-1,34,35,36,-1,36,35,37,-1,36,37,38,-1,38,37,39,-1,38,39,40,-1,40,39,41,-1,40,41,42,-1,42,41,43,-1,42,43,44,-1,44,43,45,-1,44,45,46,-1,46,45,47,-1,46,47,0,-1,0,47,1,-1,44,46,48,-1,48,46,0,-1,48,0,2,-1,38,40,48,-1,48,40,42,-1,48,42,44,-1,32,34,48,-1,48,34,36,-1,48,36,38,-1,26,28,48,-1,48,28,30,-1,48,30,32,-1,20,22,48,-1,48,22,24,-1,48,24,26,-1,14,16,48,-1,48,16,18,-1,48,18,20,-1,8,10,48,-1,48,10,12,-1,48,12,14,-1,2,4,48,-1,48,4,6,-1,48,6,8,-1,
        ]
    }
}
Shape{
    appearance Appearance {
        material  Material 	{
            diffuseColor 0.25098039215686274 0.25098039215686274 0.25098039215686274
            specularColor 0.12549019607843137 0.12549019607843137 0.12549019607843137
            ambientIntensity 0.251
            transparency 0.0
            shininess 0.5
        }
    }
    geometry IndexedFaceSet {
        ccw TRUE
        solid FALSE
        coord DEF co Coordinate {
            point [
                -0.8861 -0.5952 0.6614, -0.9 -0.7269 0.5621, 0.8861 -0.5952 0.6614, 0.9 -0.7269 0.5621
            ]
        }
        coordIndex [
            0,1,2,-1,2,1,3,-1,
        ]
    }
}
Shape{
    appearance Appearance {
        material  Material 	{
            diffuseColor 1.0 1.0 1.0
            specularColor 0.5019607843137255 0.5019607843137255 0.5019607843137255
            ambientIntensity 1.0
            transparency 0.0
            shininess 0.5
        }
    }
    geometry IndexedFaceSet {
        ccw TRUE
        solid FALSE
        coord DEF co Coordinate {
            point [
                0.1693 -0.7622 0.3937, 0.1693 -0.7974 0.3937, 0.3307 -0.7622 0.3937, 0.3307 -0.7974 0.3937, 0.3307 -1.1811 0.0787, 0.3307 -0.9487 0.0787, 0.1693 -1.1811 0.0787, 0.1693 -0.9487 0.0787, 0.3307 -1.1811 0.0, 0.1693 -1.1811 0.0, 0.3307 -0.9487 0.0, 0.1693 -0.9487 0.0, 0.1693 -0.926 0.0027, 0.3307 -0.926 0.0027, 0.1693 -0.9046 0.0105, 0.3307 -0.9046 0.0105, 0.1693 -0.8855 0.023, 0.3307 -0.8855 0.023, 0.1693 -0.8698 0.0396, 0.3307 -0.8698 0.0396, 0.1693 -0.8584 0.0594, 0.3307 -0.8584 0.0594, 0.1693 -0.8518 0.0813, 0.3307 -0.8518 0.0813, 0.3307 -0.8129 0.3019, 0.1693 -0.8129 0.3019, 0.3307 -0.8119 0.3054, 0.1693 -0.8119 0.3054, 0.3307 -0.81 0.3086, 0.1693 -0.81 0.3086, 0.3307 -0.8075 0.3113, 0.1693 -0.8075 0.3113, 0.3307 -0.8045 0.3133, 0.1693 -0.8045 0.3133, 0.3307 -0.801 0.3145, 0.1693 -0.801 0.3145, 0.3307 -0.7974 0.315, 0.1693 -0.7974 0.315, 0.3307 -0.7622 0.315, 0.1693 -0.7622 0.315, 0.1693 -0.8192 0.3912, 0.3307 -0.8192 0.3912, 0.1693 -0.8398 0.3837, 0.3307 -0.8398 0.3837, 0.1693 -0.8581 0.3716, 0.3307 -0.8581 0.3716, 0.1693 -0.8732 0.3556, 0.3307 -0.8732 0.3556, 0.1693 -0.8842 0.3366, 0.3307 -0.8842 0.3366, 0.1693 -0.8904 0.3156, 0.3307 -0.8904 0.3156, 0.3307 -0.9293 0.095, 0.1693 -0.9293 0.095, 0.3307 -0.9307 0.0906, 0.1693 -0.9307 0.0906, 0.3307 -0.9329 0.0867, 0.1693 -0.9329 0.0867, 0.3307 -0.9361 0.0833, 0.1693 -0.9361 0.0833, 0.3307 -0.9399 0.0808, 0.1693 -0.9399 0.0808, 0.3307 -0.9442 0.0793, 0.1693 -0.9442 0.0793, 0.3307 -0.7677 0.3543, 0.1693 -0.7677 0.3543, 0.8307 -1.1811 0.0787, 0.8307 -0.9487 0.0787, 0.6693 -1.1811 0.0787, 0.6693 -0.9487 0.0787, 0.8307 -1.1811 0.0, 0.6693 -1.1811 0.0, 0.8307 -0.9487 0.0, 0.6693 -0.9487 0.0, 0.6693 -0.926 0.0027, 0.8307 -0.926 0.0027, 0.6693 -0.9046 0.0105, 0.8307 -0.9046 0.0105, 0.6693 -0.8855 0.023, 0.8307 -0.8855 0.023, 0.6693 -0.8698 0.0396, 0.8307 -0.8698 0.0396, 0.6693 -0.8584 0.0594, 0.8307 -0.8584 0.0594, 0.6693 -0.8518 0.0813, 0.8307 -0.8518 0.0813, 0.8307 -0.8129 0.3019, 0.6693 -0.8129 0.3019, 0.8307 -0.8119 0.3054, 0.6693 -0.8119 0.3054, 0.8307 -0.81 0.3086, 0.6693 -0.81 0.3086, 0.8307 -0.8075 0.3113, 0.6693 -0.8075 0.3113, 0.8307 -0.8045 0.3133, 0.6693 -0.8045 0.3133, 0.8307 -0.801 0.3145, 0.6693 -0.801 0.3145, 0.8307 -0.7974 0.315, 0.6693 -0.7974 0.315, 0.8307 -0.7622 0.315, 0.6693 -0.7622 0.315, 0.6693 -0.7622 0.3937, 0.6693 -0.7974 0.3937, 0.8307 -0.7622 0.3937, 0.8307 -0.7974 0.3937, 0.6693 -0.8192 0.3912, 0.8307 -0.8192 0.3912, 0.6693 -0.8398 0.3837, 0.8307 -0.8398 0.3837, 0.6693 -0.8581 0.3716, 0.8307 -0.8581 0.3716, 0.6693 -0.8732 0.3556, 0.8307 -0.8732 0.3556, 0.6693 -0.8842 0.3366, 0.8307 -0.8842 0.3366, 0.6693 -0.8904 0.3156, 0.8307 -0.8904 0.3156, 0.8307 -0.9293 0.095, 0.6693 -0.9293 0.095, 0.8307 -0.7677 0.3543, 0.8307 -0.9442 0.0793, 0.8307 -0.9399 0.0808, 0.8307 -0.9361 0.0833, 0.8307 -0.9329 0.0867, 0.8307 -0.9307 0.0906, 0.6693 -0.9307 0.0906, 0.6693 -0.9329 0.0867, 0.6693 -0.9361 0.0833, 0.6693 -0.9399 0.0808, 0.6693 -0.9442 0.0793, 0.6693 -0.7677 0.3543, -0.1693 -1.1811 0.0787, -0.1693 -0.9487 0.0787, -0.3307 -1.1811 0.0787, -0.3307 -0.9487 0.0787, -0.1693 -1.1811 0.0, -0.3307 -1.1811 0.0, -0.1693 -0.9487 0.0, -0.3307 -0.9487 0.0, -0.3307 -0.926 0.0027, -0.1693 -0.926 0.0027, -0.3307 -0.9046 0.0105, -0.1693 -0.9046 0.0105, -0.3307 -0.8855 0.023, -0.1693 -0.8855 0.023, -0.3307 -0.8698 0.0396, -0.1693 -0.8698 0.0396, -0.3307 -0.8584 0.0594, -0.1693 -0.8584 0.0594, -0.3307 -0.8518 0.0813, -0.1693 -0.8518 0.0813, -0.1693 -0.8129 0.3019, -0.3307 -0.8129 0.3019, -0.1693 -0.8119 0.3054, -0.3307 -0.8119 0.3054, -0.1693 -0.81 0.3086, -0.3307 -0.81 0.3086, -0.1693 -0.8075 0.3113, -0.3307 -0.8075 0.3113, -0.1693 -0.8045 0.3133, -0.3307 -0.8045 0.3133, -0.1693 -0.801 0.3145, -0.3307 -0.801 0.3145, -0.1693 -0.7974 0.315, -0.3307 -0.7974 0.315, -0.1693 -0.7622 0.315, -0.3307 -0.7622 0.315, -0.3307 -0.7622 0.3937, -0.3307 -0.7974 0.3937, -0.1693 -0.7622 0.3937, -0.1693 -0.7974 0.3937, -0.3307 -0.8192 0.3912, -0.1693 -0.8192 0.3912, -0.3307 -0.8398 0.3837, -0.1693 -0.8398 0.3837, -0.3307 -0.8581 0.3716, -0.1693 -0.8581 0.3716, -0.3307 -0.8732 0.3556, -0.1693 -0.8732 0.3556, -0.3307 -0.8842 0.3366, -0.1693 -0.8842 0.3366, -0.3307 -0.8904 0.3156, -0.1693 -0.8904 0.3156, -0.1693 -0.9293 0.095, -0.3307 -0.9293 0.095, -0.1693 -0.7677 0.3543, -0.1693 -0.9442 0.0793, -0.1693 -0.9399 0.0808, -0.1693 -0.9361 0.0833, -0.1693 -0.9329 0.0867, -0.1693 -0.9307 0.0906, -0.3307 -0.9307 0.0906, -0.3307 -0.9329 0.0867, -0.3307 -0.9361 0.0833, -0.3307 -0.9399 0.0808, -0.3307 -0.9442 0.0793, -0.3307 -0.7677 0.3543, -0.6693 -1.1811 0.0787, -0.6693 -0.9487 0.0787, -0.8307 -1.1811 0.0787, -0.8307 -0.9487 0.0787, -0.6693 -1.1811 0.0, -0.8307 -1.1811 0.0, -0.6693 -0.9487 0.0, -0.8307 -0.9487 0.0, -0.8307 -0.926 0.0027, -0.6693 -0.926 0.0027, -0.8307 -0.9046 0.0105, -0.6693 -0.9046 0.0105, -0.8307 -0.8855 0.023, -0.6693 -0.8855 0.023, -0.8307 -0.8698 0.0396, -0.6693 -0.8698 0.0396, -0.8307 -0.8584 0.0594, -0.6693 -0.8584 0.0594, -0.8307 -0.8518 0.0813, -0.6693 -0.8518 0.0813, -0.6693 -0.8129 0.3019, -0.8307 -0.8129 0.3019, -0.6693 -0.8119 0.3054, -0.8307 -0.8119 0.3054, -0.6693 -0.81 0.3086, -0.8307 -0.81 0.3086, -0.6693 -0.8075 0.3113, -0.8307 -0.8075 0.3113, -0.6693 -0.8045 0.3133, -0.8307 -0.8045 0.3133, -0.6693 -0.801 0.3145, -0.8307 -0.801 0.3145, -0.6693 -0.7974 0.315, -0.8307 -0.7974 0.315, -0.6693 -0.7622 0.315, -0.8307 -0.7622 0.315, -0.8307 -0.7622 0.3937, -0.8307 -0.7974 0.3937, -0.6693 -0.7622 0.3937, -0.6693 -0.7974 0.3937, -0.8307 -0.8192 0.3912, -0.6693 -0.8192 0.3912, -0.8307 -0.8398 0.3837, -0.6693 -0.8398 0.3837, -0.8307 -0.8581 0.3716, -0.6693 -0.8581 0.3716, -0.8307 -0.8732 0.3556, -0.6693 -0.8732 0.3556, -0.8307 -0.8842 0.3366, -0.6693 -0.8842 0.3366, -0.8307 -0.8904 0.3156, -0.6693 -0.8904 0.3156, -0.6693 -0.9293 0.095, -0.8307 -0.9293 0.095, -0.6693 -0.7677 0.3543, -0.6693 -0.9442 0.0793, -0.6693 -0.9399 0.0808, -0.6693 -0.9361 0.0833, -0.6693 -0.9329 0.0867, -0.6693 -0.9307 0.0906, -0.8307 -0.9307 0.0906, -0.8307 -0.9329 0.0867, -0.8307 -0.9361 0.0833, -0.8307 -0.9399 0.0808, -0.8307 -0.9442 0.0793, -0.8307 -0.7677 0.3543, 0.3307 0.9487 0.0787, 0.3307 1.1811 0.0787, 0.1693 0.9487 0.0787, 0.1693 1.1811 0.0787, 0.3307 1.1811 0.0, 0.1693 1.1811 0.0, 0.3307 0.9487 0.0, 0.1693 0.9487 0.0, 0.3307 0.8518 0.0813, 0.1693 0.8518 0.0813, 0.1693 0.8584 0.0594, 0.3307 0.8584 0.0594, 0.1693 0.8698 0.0396, 0.3307 0.8698 0.0396, 0.1693 0.8855 0.023, 0.3307 0.8855 0.023, 0.1693 0.9046 0.0105, 0.3307 0.9046 0.0105, 0.1693 0.926 0.0027, 0.3307 0.926 0.0027, 0.3307 0.8129 0.3019, 0.1693 0.8129 0.3019, 0.3307 0.7974 0.315, 0.1693 0.7974 0.315, 0.3307 0.801 0.3145, 0.1693 0.801 0.3145, 0.3307 0.8045 0.3133, 0.1693 0.8045 0.3133, 0.3307 0.8075 0.3113, 0.1693 0.8075 0.3113, 0.3307 0.81 0.3086, 0.1693 0.81 0.3086, 0.3307 0.8119 0.3054, 0.1693 0.8119 0.3054, 0.3307 0.7622 0.315, 0.1693 0.7622 0.315, 0.1693 0.7974 0.3937, 0.1693 0.7622 0.3937, 0.3307 0.7974 0.3937, 0.3307 0.7622 0.3937, 0.3307 0.8904 0.3156, 0.1693 0.8904 0.3156, 0.1693 0.8842 0.3366, 0.3307 0.8842 0.3366, 0.1693 0.8732 0.3556, 0.3307 0.8732 0.3556, 0.1693 0.8581 0.3716, 0.3307 0.8581 0.3716, 0.1693 0.8398 0.3837, 0.3307 0.8398 0.3837, 0.1693 0.8192 0.3912, 0.3307 0.8192 0.3912, 0.3307 0.9293 0.095, 0.1693 0.9293 0.095, 0.3307 0.7677 0.3543, 0.3307 0.9442 0.0793, 0.3307 0.9399 0.0808, 0.3307 0.9361 0.0833, 0.3307 0.9329 0.0867, 0.3307 0.9307 0.0906, 0.1693 0.9442 0.0793, 0.1693 0.9399 0.0808, 0.1693 0.9361 0.0833, 0.1693 0.9329 0.0867, 0.1693 0.9307 0.0906, 0.1693 0.7677 0.3543, 0.8307 0.9487 0.0787, 0.8307 1.1811 0.0787, 0.6693 0.9487 0.0787, 0.6693 1.1811 0.0787, 0.8307 1.1811 0.0, 0.6693 1.1811 0.0, 0.8307 0.9487 0.0, 0.6693 0.9487 0.0, 0.8307 0.8518 0.0813, 0.6693 0.8518 0.0813, 0.6693 0.8584 0.0594, 0.8307 0.8584 0.0594, 0.6693 0.8698 0.0396, 0.8307 0.8698 0.0396, 0.6693 0.8855 0.023, 0.8307 0.8855 0.023, 0.6693 0.9046 0.0105, 0.8307 0.9046 0.0105, 0.6693 0.926 0.0027, 0.8307 0.926 0.0027, 0.8307 0.8129 0.3019, 0.6693 0.8129 0.3019, 0.8307 0.7974 0.315, 0.6693 0.7974 0.315, 0.8307 0.801 0.3145, 0.6693 0.801 0.3145, 0.8307 0.8045 0.3133, 0.6693 0.8045 0.3133, 0.8307 0.8075 0.3113, 0.6693 0.8075 0.3113, 0.8307 0.81 0.3086, 0.6693 0.81 0.3086, 0.8307 0.8119 0.3054, 0.6693 0.8119 0.3054, 0.8307 0.7622 0.315, 0.6693 0.7622 0.315, 0.6693 0.7974 0.3937, 0.6693 0.7622 0.3937, 0.8307 0.7974 0.3937, 0.8307 0.7622 0.3937, 0.8307 0.8904 0.3156, 0.6693 0.8904 0.3156, 0.6693 0.8842 0.3366, 0.8307 0.8842 0.3366, 0.6693 0.8732 0.3556, 0.8307 0.8732 0.3556, 0.6693 0.8581 0.3716, 0.8307 0.8581 0.3716, 0.6693 0.8398 0.3837, 0.8307 0.8398 0.3837, 0.6693 0.8192 0.3912, 0.8307 0.8192 0.3912, 0.8307 0.9293 0.095, 0.6693 0.9293 0.095, 0.8307 0.7677 0.3543, 0.8307 0.9442 0.0793, 0.8307 0.9399 0.0808, 0.8307 0.9361 0.0833, 0.8307 0.9329 0.0867, 0.8307 0.9307 0.0906, 0.6693 0.9442 0.0793, 0.6693 0.9399 0.0808, 0.6693 0.9361 0.0833, 0.6693 0.9329 0.0867, 0.6693 0.9307 0.0906, 0.6693 0.7677 0.3543, -0.1693 0.9487 0.0787, -0.1693 1.1811 0.0787, -0.3307 0.9487 0.0787, -0.3307 1.1811 0.0787, -0.1693 1.1811 0.0, -0.3307 1.1811 0.0, -0.1693 0.9487 0.0, -0.3307 0.9487 0.0, -0.1693 0.8518 0.0813, -0.3307 0.8518 0.0813, -0.3307 0.8584 0.0594, -0.1693 0.8584 0.0594, -0.3307 0.8698 0.0396, -0.1693 0.8698 0.0396, -0.3307 0.8855 0.023, -0.1693 0.8855 0.023, -0.3307 0.9046 0.0105, -0.1693 0.9046 0.0105, -0.3307 0.926 0.0027, -0.1693 0.926 0.0027, -0.1693 0.8129 0.3019, -0.3307 0.8129 0.3019, -0.1693 0.7974 0.315, -0.3307 0.7974 0.315, -0.1693 0.801 0.3145, -0.3307 0.801 0.3145, -0.1693 0.8045 0.3133, -0.3307 0.8045 0.3133, -0.1693 0.8075 0.3113, -0.3307 0.8075 0.3113, -0.1693 0.81 0.3086, -0.3307 0.81 0.3086, -0.1693 0.8119 0.3054, -0.3307 0.8119 0.3054, -0.1693 0.7622 0.315, -0.3307 0.7622 0.315, -0.3307 0.7974 0.3937, -0.3307 0.7622 0.3937, -0.1693 0.7974 0.3937, -0.1693 0.7622 0.3937, -0.1693 0.8904 0.3156, -0.3307 0.8904 0.3156, -0.3307 0.8842 0.3366, -0.1693 0.8842 0.3366, -0.3307 0.8732 0.3556, -0.1693 0.8732 0.3556, -0.3307 0.8581 0.3716, -0.1693 0.8581 0.3716, -0.3307 0.8398 0.3837, -0.1693 0.8398 0.3837, -0.3307 0.8192 0.3912, -0.1693 0.8192 0.3912, -0.1693 0.9293 0.095, -0.3307 0.9293 0.095, -0.1693 0.7677 0.3543, -0.1693 0.9442 0.0793, -0.1693 0.9399 0.0808, -0.1693 0.9361 0.0833, -0.1693 0.9329 0.0867, -0.1693 0.9307 0.0906, -0.3307 0.9442 0.0793, -0.3307 0.9399 0.0808, -0.3307 0.9361 0.0833, -0.3307 0.9329 0.0867, -0.3307 0.9307 0.0906, -0.3307 0.7677 0.3543, -0.6693 0.9487 0.0787, -0.6693 1.1811 0.0787, -0.8307 0.9487 0.0787, -0.8307 1.1811 0.0787, -0.6693 1.1811 0.0, -0.8307 1.1811 0.0, -0.6693 0.9487 0.0, -0.8307 0.9487 0.0, -0.6693 0.8518 0.0813, -0.8307 0.8518 0.0813, -0.8307 0.8584 0.0594, -0.6693 0.8584 0.0594, -0.8307 0.8698 0.0396, -0.6693 0.8698 0.0396, -0.8307 0.8855 0.023, -0.6693 0.8855 0.023, -0.8307 0.9046 0.0105, -0.6693 0.9046 0.0105, -0.8307 0.926 0.0027, -0.6693 0.926 0.0027, -0.6693 0.8129 0.3019, -0.8307 0.8129 0.3019, -0.6693 0.7974 0.315, -0.8307 0.7974 0.315, -0.6693 0.801 0.3145, -0.8307 0.801 0.3145, -0.6693 0.8045 0.3133, -0.8307 0.8045 0.3133, -0.6693 0.8075 0.3113, -0.8307 0.8075 0.3113, -0.6693 0.81 0.3086, -0.8307 0.81 0.3086, -0.6693 0.8119 0.3054, -0.8307 0.8119 0.3054, -0.6693 0.7622 0.315, -0.8307 0.7622 0.315, -0.8307 0.7974 0.3937, -0.8307 0.7622 0.3937, -0.6693 0.7974 0.3937, -0.6693 0.7622 0.3937, -0.6693 0.8904 0.3156, -0.8307 0.8904 0.3156, -0.8307 0.8842 0.3366, -0.6693 0.8842 0.3366, -0.8307 0.8732 0.3556, -0.6693 0.8732 0.3556, -0.8307 0.8581 0.3716, -0.6693 0.8581 0.3716, -0.8307 0.8398 0.3837, -0.6693 0.8398 0.3837, -0.8307 0.8192 0.3912, -0.6693 0.8192 0.3912, -0.6693 0.9293 0.095, -0.8307 0.9293 0.095, -0.6693 0.7677 0.3543, -0.6693 0.9442 0.0793, -0.6693 0.9399 0.0808, -0.6693 0.9361 0.0833, -0.6693 0.9329 0.0867, -0.6693 0.9307 0.0906, -0.8307 0.9442 0.0793, -0.8307 0.9399 0.0808, -0.8307 0.9361 0.0833, -0.8307 0.9329 0.0867, -0.8307 0.9307 0.0906, -0.8307 0.7677 0.3543
            ]
        }
        coordIndex [
            0,1,2,-1,2,1,3,-1,4,5,6,-1,6,5,7,-1,8,4,9,-1,9,4,6,-1,10,8,11,-1,11,8,9,-1,10,11,12,-1,10,12,13,-1,13,12,14,-1,13,14,15,-1,15,14,16,-1,15,16,17,-1,17,16,18,-1,17,18,19,-1,19,18,20,-1,19,20,21,-1,21,20,22,-1,21,22,23,-1,24,23,25,-1,25,23,22,-1,24,25,26,-1,26,25,27,-1,26,27,28,-1,28,27,29,-1,28,29,30,-1,30,29,31,-1,30,31,32,-1,32,31,33,-1,32,33,34,-1,34,33,35,-1,34,35,36,-1,36,35,37,-1,38,36,39,-1,39,36,37,-1,3,1,40,-1,3,40,41,-1,41,40,42,-1,41,42,43,-1,43,42,44,-1,43,44,45,-1,45,44,46,-1,45,46,47,-1,47,46,48,-1,47,48,49,-1,49,48,50,-1,49,50,51,-1,52,51,53,-1,53,51,50,-1,52,53,54,-1,54,53,55,-1,54,55,56,-1,56,55,57,-1,56,57,58,-1,58,57,59,-1,58,59,60,-1,60,59,61,-1,60,61,62,-1,62,61,63,-1,62,63,5,-1,5,63,7,-1,2,3,64,-1,64,3,41,-1,41,43,64,-1,64,43,45,-1,64,45,47,-1,30,32,47,-1,47,32,34,-1,47,34,64,-1,64,34,36,-1,64,36,38,-1,4,8,5,-1,5,8,10,-1,5,10,62,-1,62,10,13,-1,62,13,60,-1,60,13,15,-1,60,15,58,-1,58,15,17,-1,58,17,56,-1,56,17,19,-1,56,19,54,-1,54,19,21,-1,54,21,52,-1,52,21,23,-1,52,23,51,-1,51,23,24,-1,51,24,49,-1,49,24,26,-1,49,26,47,-1,47,26,28,-1,47,28,30,-1,42,65,44,-1,44,65,46,-1,42,40,65,-1,65,40,1,-1,65,1,0,-1,46,35,33,-1,35,46,37,-1,37,46,65,-1,37,65,39,-1,9,6,11,-1,11,6,7,-1,11,7,12,-1,12,7,63,-1,12,63,14,-1,14,63,61,-1,14,61,16,-1,16,61,59,-1,16,59,18,-1,18,59,57,-1,18,57,20,-1,20,57,55,-1,20,55,22,-1,22,55,53,-1,22,53,25,-1,25,53,50,-1,25,50,27,-1,27,50,48,-1,27,48,29,-1,29,48,46,-1,29,46,31,-1,31,46,33,-1,66,67,68,-1,68,67,69,-1,70,66,71,-1,71,66,68,-1,72,70,73,-1,73,70,71,-1,72,73,74,-1,72,74,75,-1,75,74,76,-1,75,76,77,-1,77,76,78,-1,77,78,79,-1,79,78,80,-1,79,80,81,-1,81,80,82,-1,81,82,83,-1,83,82,84,-1,83,84,85,-1,86,85,87,-1,87,85,84,-1,86,87,88,-1,88,87,89,-1,88,89,90,-1,90,89,91,-1,90,91,92,-1,92,91,93,-1,92,93,94,-1,94,93,95,-1,94,95,96,-1,96,95,97,-1,96,97,98,-1,98,97,99,-1,100,98,101,-1,101,98,99,-1,102,103,104,-1,104,103,105,-1,105,103,106,-1,105,106,107,-1,107,106,108,-1,107,108,109,-1,109,108,110,-1,109,110,111,-1,111,110,112,-1,111,112,113,-1,113,112,114,-1,113,114,115,-1,115,114,116,-1,115,116,117,-1,118,117,119,-1,119,117,116,-1,104,105,120,-1,120,105,107,-1,107,109,120,-1,120,109,111,-1,120,111,113,-1,92,94,113,-1,113,94,96,-1,113,96,120,-1,120,96,98,-1,120,98,100,-1,66,70,67,-1,67,70,72,-1,67,72,121,-1,121,72,75,-1,121,75,122,-1,122,75,77,-1,122,77,123,-1,123,77,79,-1,123,79,124,-1,124,79,81,-1,124,81,125,-1,125,81,83,-1,125,83,118,-1,118,83,85,-1,118,85,117,-1,117,85,86,-1,117,86,115,-1,115,86,88,-1,115,88,113,-1,113,88,90,-1,113,90,92,-1,118,119,125,-1,125,119,126,-1,125,126,124,-1,124,126,127,-1,124,127,123,-1,123,127,128,-1,123,128,122,-1,122,128,129,-1,122,129,121,-1,121,129,130,-1,121,130,67,-1,67,130,69,-1,108,131,110,-1,110,131,112,-1,108,106,131,-1,131,106,103,-1,131,103,102,-1,112,97,95,-1,97,112,99,-1,99,112,131,-1,99,131,101,-1,71,68,73,-1,73,68,69,-1,73,69,74,-1,74,69,130,-1,74,130,76,-1,76,130,129,-1,76,129,78,-1,78,129,128,-1,78,128,80,-1,80,128,127,-1,80,127,82,-1,82,127,126,-1,82,126,84,-1,84,126,119,-1,84,119,87,-1,87,119,116,-1,87,116,89,-1,89,116,114,-1,89,114,91,-1,91,114,112,-1,91,112,93,-1,93,112,95,-1,132,133,134,-1,134,133,135,-1,136,132,137,-1,137,132,134,-1,138,136,139,-1,139,136,137,-1,138,139,140,-1,138,140,141,-1,141,140,142,-1,141,142,143,-1,143,142,144,-1,143,144,145,-1,145,144,146,-1,145,146,147,-1,147,146,148,-1,147,148,149,-1,149,148,150,-1,149,150,151,-1,152,151,153,-1,153,151,150,-1,152,153,154,-1,154,153,155,-1,154,155,156,-1,156,155,157,-1,156,157,158,-1,158,157,159,-1,158,159,160,-1,160,159,161,-1,160,161,162,-1,162,161,163,-1,162,163,164,-1,164,163,165,-1,166,164,167,-1,167,164,165,-1,168,169,170,-1,170,169,171,-1,171,169,172,-1,171,172,173,-1,173,172,174,-1,173,174,175,-1,175,174,176,-1,175,176,177,-1,177,176,178,-1,177,178,179,-1,179,178,180,-1,179,180,181,-1,181,180,182,-1,181,182,183,-1,184,183,185,-1,185,183,182,-1,170,171,186,-1,186,171,173,-1,173,175,186,-1,186,175,177,-1,186,177,179,-1,158,160,179,-1,179,160,162,-1,179,162,186,-1,186,162,164,-1,186,164,166,-1,132,136,133,-1,133,136,138,-1,133,138,187,-1,187,138,141,-1,187,141,188,-1,188,141,143,-1,188,143,189,-1,189,143,145,-1,189,145,190,-1,190,145,147,-1,190,147,191,-1,191,147,149,-1,191,149,184,-1,184,149,151,-1,184,151,183,-1,183,151,152,-1,183,152,181,-1,181,152,154,-1,181,154,179,-1,179,154,156,-1,179,156,158,-1,184,185,191,-1,191,185,192,-1,191,192,190,-1,190,192,193,-1,190,193,189,-1,189,193,194,-1,189,194,188,-1,188,194,195,-1,188,195,187,-1,187,195,196,-1,187,196,133,-1,133,196,135,-1,174,197,176,-1,176,197,178,-1,174,172,197,-1,197,172,169,-1,197,169,168,-1,178,163,161,-1,163,178,165,-1,165,178,197,-1,165,197,167,-1,137,134,139,-1,139,134,135,-1,139,135,140,-1,140,135,196,-1,140,196,142,-1,142,196,195,-1,142,195,144,-1,144,195,194,-1,144,194,146,-1,146,194,193,-1,146,193,148,-1,148,193,192,-1,148,192,150,-1,150,192,185,-1,150,185,153,-1,153,185,182,-1,153,182,155,-1,155,182,180,-1,155,180,157,-1,157,180,178,-1,157,178,159,-1,159,178,161,-1,198,199,200,-1,200,199,201,-1,202,198,203,-1,203,198,200,-1,204,202,205,-1,205,202,203,-1,204,205,206,-1,204,206,207,-1,207,206,208,-1,207,208,209,-1,209,208,210,-1,209,210,211,-1,211,210,212,-1,211,212,213,-1,213,212,214,-1,213,214,215,-1,215,214,216,-1,215,216,217,-1,218,217,219,-1,219,217,216,-1,218,219,220,-1,220,219,221,-1,220,221,222,-1,222,221,223,-1,222,223,224,-1,224,223,225,-1,224,225,226,-1,226,225,227,-1,226,227,228,-1,228,227,229,-1,228,229,230,-1,230,229,231,-1,232,230,233,-1,233,230,231,-1,234,235,236,-1,236,235,237,-1,237,235,238,-1,237,238,239,-1,239,238,240,-1,239,240,241,-1,241,240,242,-1,241,242,243,-1,243,242,244,-1,243,244,245,-1,245,244,246,-1,245,246,247,-1,247,246,248,-1,247,248,249,-1,250,249,251,-1,251,249,248,-1,236,237,252,-1,252,237,239,-1,239,241,252,-1,252,241,243,-1,252,243,245,-1,224,226,245,-1,245,226,228,-1,245,228,252,-1,252,228,230,-1,252,230,232,-1,198,202,199,-1,199,202,204,-1,199,204,253,-1,253,204,207,-1,253,207,254,-1,254,207,209,-1,254,209,255,-1,255,209,211,-1,255,211,256,-1,256,211,213,-1,256,213,257,-1,257,213,215,-1,257,215,250,-1,250,215,217,-1,250,217,249,-1,249,217,218,-1,249,218,247,-1,247,218,220,-1,247,220,245,-1,245,220,222,-1,245,222,224,-1,250,251,257,-1,257,251,258,-1,257,258,256,-1,256,258,259,-1,256,259,255,-1,255,259,260,-1,255,260,254,-1,254,260,261,-1,254,261,253,-1,253,261,262,-1,253,262,199,-1,199,262,201,-1,240,263,242,-1,242,263,244,-1,240,238,263,-1,263,238,235,-1,263,235,234,-1,244,229,227,-1,229,244,231,-1,231,244,263,-1,231,263,233,-1,203,200,205,-1,205,200,201,-1,205,201,206,-1,206,201,262,-1,206,262,208,-1,208,262,261,-1,208,261,210,-1,210,261,260,-1,210,260,212,-1,212,260,259,-1,212,259,214,-1,214,259,258,-1,214,258,216,-1,216,258,251,-1,216,251,219,-1,219,251,248,-1,219,248,221,-1,221,248,246,-1,221,246,223,-1,223,246,244,-1,223,244,225,-1,225,244,227,-1,264,265,266,-1,266,265,267,-1,265,268,267,-1,267,268,269,-1,268,270,269,-1,269,270,271,-1,272,273,274,-1,272,274,275,-1,275,274,276,-1,275,276,277,-1,277,276,278,-1,277,278,279,-1,279,278,280,-1,279,280,281,-1,281,280,282,-1,281,282,283,-1,283,282,271,-1,283,271,270,-1,272,284,273,-1,273,284,285,-1,286,287,288,-1,288,287,289,-1,288,289,290,-1,290,289,291,-1,290,291,292,-1,292,291,293,-1,292,293,294,-1,294,293,295,-1,294,295,296,-1,296,295,297,-1,296,297,284,-1,284,297,285,-1,286,298,287,-1,287,298,299,-1,300,301,302,-1,302,301,303,-1,304,305,306,-1,304,306,307,-1,307,306,308,-1,307,308,309,-1,309,308,310,-1,309,310,311,-1,311,310,312,-1,311,312,313,-1,313,312,314,-1,313,314,315,-1,315,314,300,-1,315,300,302,-1,304,316,305,-1,305,316,317,-1,313,318,311,-1,311,318,309,-1,313,315,318,-1,318,315,302,-1,318,302,303,-1,309,288,290,-1,288,309,286,-1,286,309,318,-1,286,318,298,-1,268,265,270,-1,270,265,264,-1,270,264,283,-1,283,264,319,-1,283,319,281,-1,281,319,320,-1,281,320,279,-1,279,320,321,-1,279,321,277,-1,277,321,322,-1,277,322,275,-1,275,322,323,-1,275,323,272,-1,272,323,316,-1,272,316,284,-1,284,316,304,-1,284,304,296,-1,296,304,307,-1,296,307,294,-1,294,307,309,-1,294,309,292,-1,292,309,290,-1,264,266,319,-1,319,266,324,-1,319,324,320,-1,320,324,325,-1,320,325,321,-1,321,325,326,-1,321,326,322,-1,322,326,327,-1,322,327,323,-1,323,327,328,-1,323,328,316,-1,316,328,317,-1,301,300,329,-1,329,300,314,-1,314,312,329,-1,329,312,310,-1,329,310,308,-1,293,291,308,-1,308,291,289,-1,308,289,329,-1,329,289,287,-1,329,287,299,-1,267,269,266,-1,266,269,271,-1,266,271,324,-1,324,271,282,-1,324,282,325,-1,325,282,280,-1,325,280,326,-1,326,280,278,-1,326,278,327,-1,327,278,276,-1,327,276,328,-1,328,276,274,-1,328,274,317,-1,317,274,273,-1,317,273,305,-1,305,273,285,-1,305,285,306,-1,306,285,297,-1,306,297,308,-1,308,297,295,-1,308,295,293,-1,330,331,332,-1,332,331,333,-1,331,334,333,-1,333,334,335,-1,334,336,335,-1,335,336,337,-1,338,339,340,-1,338,340,341,-1,341,340,342,-1,341,342,343,-1,343,342,344,-1,343,344,345,-1,345,344,346,-1,345,346,347,-1,347,346,348,-1,347,348,349,-1,349,348,337,-1,349,337,336,-1,338,350,339,-1,339,350,351,-1,352,353,354,-1,354,353,355,-1,354,355,356,-1,356,355,357,-1,356,357,358,-1,358,357,359,-1,358,359,360,-1,360,359,361,-1,360,361,362,-1,362,361,363,-1,362,363,350,-1,350,363,351,-1,352,364,353,-1,353,364,365,-1,366,367,368,-1,368,367,369,-1,370,371,372,-1,370,372,373,-1,373,372,374,-1,373,374,375,-1,375,374,376,-1,375,376,377,-1,377,376,378,-1,377,378,379,-1,379,378,380,-1,379,380,381,-1,381,380,366,-1,381,366,368,-1,370,382,371,-1,371,382,383,-1,379,384,377,-1,377,384,375,-1,379,381,384,-1,384,381,368,-1,384,368,369,-1,375,354,356,-1,354,375,352,-1,352,375,384,-1,352,384,364,-1,334,331,336,-1,336,331,330,-1,336,330,349,-1,349,330,385,-1,349,385,347,-1,347,385,386,-1,347,386,345,-1,345,386,387,-1,345,387,343,-1,343,387,388,-1,343,388,341,-1,341,388,389,-1,341,389,338,-1,338,389,382,-1,338,382,350,-1,350,382,370,-1,350,370,362,-1,362,370,373,-1,362,373,360,-1,360,373,375,-1,360,375,358,-1,358,375,356,-1,330,332,385,-1,385,332,390,-1,385,390,386,-1,386,390,391,-1,386,391,387,-1,387,391,392,-1,387,392,388,-1,388,392,393,-1,388,393,389,-1,389,393,394,-1,389,394,382,-1,382,394,383,-1,367,366,395,-1,395,366,380,-1,380,378,395,-1,395,378,376,-1,395,376,374,-1,359,357,374,-1,374,357,355,-1,374,355,395,-1,395,355,353,-1,395,353,365,-1,333,335,332,-1,332,335,337,-1,332,337,390,-1,390,337,348,-1,390,348,391,-1,391,348,346,-1,391,346,392,-1,392,346,344,-1,392,344,393,-1,393,344,342,-1,393,342,394,-1,394,342,340,-1,394,340,383,-1,383,340,339,-1,383,339,371,-1,371,339,351,-1,371,351,372,-1,372,351,363,-1,372,363,374,-1,374,363,361,-1,374,361,359,-1,396,397,398,-1,398,397,399,-1,397,400,399,-1,399,400,401,-1,400,402,401,-1,401,402,403,-1,404,405,406,-1,404,406,407,-1,407,406,408,-1,407,408,409,-1,409,408,410,-1,409,410,411,-1,411,410,412,-1,411,412,413,-1,413,412,414,-1,413,414,415,-1,415,414,403,-1,415,403,402,-1,404,416,405,-1,405,416,417,-1,418,419,420,-1,420,419,421,-1,420,421,422,-1,422,421,423,-1,422,423,424,-1,424,423,425,-1,424,425,426,-1,426,425,427,-1,426,427,428,-1,428,427,429,-1,428,429,416,-1,416,429,417,-1,418,430,419,-1,419,430,431,-1,432,433,434,-1,434,433,435,-1,436,437,438,-1,436,438,439,-1,439,438,440,-1,439,440,441,-1,441,440,442,-1,441,442,443,-1,443,442,444,-1,443,444,445,-1,445,444,446,-1,445,446,447,-1,447,446,432,-1,447,432,434,-1,436,448,437,-1,437,448,449,-1,445,450,443,-1,443,450,441,-1,445,447,450,-1,450,447,434,-1,450,434,435,-1,441,420,422,-1,420,441,418,-1,418,441,450,-1,418,450,430,-1,400,397,402,-1,402,397,396,-1,402,396,415,-1,415,396,451,-1,415,451,413,-1,413,451,452,-1,413,452,411,-1,411,452,453,-1,411,453,409,-1,409,453,454,-1,409,454,407,-1,407,454,455,-1,407,455,404,-1,404,455,448,-1,404,448,416,-1,416,448,436,-1,416,436,428,-1,428,436,439,-1,428,439,426,-1,426,439,441,-1,426,441,424,-1,424,441,422,-1,396,398,451,-1,451,398,456,-1,451,456,452,-1,452,456,457,-1,452,457,453,-1,453,457,458,-1,453,458,454,-1,454,458,459,-1,454,459,455,-1,455,459,460,-1,455,460,448,-1,448,460,449,-1,433,432,461,-1,461,432,446,-1,446,444,461,-1,461,444,442,-1,461,442,440,-1,425,423,440,-1,440,423,421,-1,440,421,461,-1,461,421,419,-1,461,419,431,-1,399,401,398,-1,398,401,403,-1,398,403,456,-1,456,403,414,-1,456,414,457,-1,457,414,412,-1,457,412,458,-1,458,412,410,-1,458,410,459,-1,459,410,408,-1,459,408,460,-1,460,408,406,-1,460,406,449,-1,449,406,405,-1,449,405,437,-1,437,405,417,-1,437,417,438,-1,438,417,429,-1,438,429,440,-1,440,429,427,-1,440,427,425,-1,462,463,464,-1,464,463,465,-1,463,466,465,-1,465,466,467,-1,466,468,467,-1,467,468,469,-1,470,471,472,-1,470,472,473,-1,473,472,474,-1,473,474,475,-1,475,474,476,-1,475,476,477,-1,477,476,478,-1,477,478,479,-1,479,478,480,-1,479,480,481,-1,481,480,469,-1,481,469,468,-1,470,482,471,-1,471,482,483,-1,484,485,486,-1,486,485,487,-1,486,487,488,-1,488,487,489,-1,488,489,490,-1,490,489,491,-1,490,491,492,-1,492,491,493,-1,492,493,494,-1,494,493,495,-1,494,495,482,-1,482,495,483,-1,484,496,485,-1,485,496,497,-1,498,499,500,-1,500,499,501,-1,502,503,504,-1,502,504,505,-1,505,504,506,-1,505,506,507,-1,507,506,508,-1,507,508,509,-1,509,508,510,-1,509,510,511,-1,511,510,512,-1,511,512,513,-1,513,512,498,-1,513,498,500,-1,502,514,503,-1,503,514,515,-1,511,516,509,-1,509,516,507,-1,511,513,516,-1,516,513,500,-1,516,500,501,-1,507,486,488,-1,486,507,484,-1,484,507,516,-1,484,516,496,-1,466,463,468,-1,468,463,462,-1,468,462,481,-1,481,462,517,-1,481,517,479,-1,479,517,518,-1,479,518,477,-1,477,518,519,-1,477,519,475,-1,475,519,520,-1,475,520,473,-1,473,520,521,-1,473,521,470,-1,470,521,514,-1,470,514,482,-1,482,514,502,-1,482,502,494,-1,494,502,505,-1,494,505,492,-1,492,505,507,-1,492,507,490,-1,490,507,488,-1,462,464,517,-1,517,464,522,-1,517,522,518,-1,518,522,523,-1,518,523,519,-1,519,523,524,-1,519,524,520,-1,520,524,525,-1,520,525,521,-1,521,525,526,-1,521,526,514,-1,514,526,515,-1,499,498,527,-1,527,498,512,-1,512,510,527,-1,527,510,508,-1,527,508,506,-1,491,489,506,-1,506,489,487,-1,506,487,527,-1,527,487,485,-1,527,485,497,-1,465,467,464,-1,464,467,469,-1,464,469,522,-1,522,469,480,-1,522,480,523,-1,523,480,478,-1,523,478,524,-1,524,478,476,-1,524,476,525,-1,525,476,474,-1,525,474,526,-1,526,474,472,-1,526,472,515,-1,515,472,471,-1,515,471,503,-1,503,471,483,-1,503,483,504,-1,504,483,495,-1,504,495,506,-1,506,495,493,-1,506,493,491,-1,
        ]
    }
}
Shape{
    appearance Appearance {
        material  Material 	{
            diffuseColor 0.0 0.0 0.0
            specularColor 0.0 0.0 0.0
            ambientIntensity 0.0
            transparency 0.0
            shininess 0.5
        }
    }
    geometry IndexedFaceSet {
        ccw TRUE
        solid FALSE
        coord DEF co Coordinate {
            point [
                0.5199 -0.5249 0.0398, 0.4892 -0.6036 0.0398, 0.5199 -0.5249 0.0394, 0.4892 -0.6036 0.0394, 0.5007 -0.6036 0.0398, 0.5007 -0.6036 0.0394, 0.5087 -0.5815 0.0398, 0.5087 -0.5815 0.0394, 0.5412 -0.5815 0.0398, 0.5412 -0.5815 0.0394, 0.5487 -0.6036 0.0398, 0.5487 -0.6036 0.0394, 0.5603 -0.6036 0.0398, 0.5603 -0.6036 0.0394, 0.5305 -0.5249 0.0398, 0.5305 -0.5249 0.0394, 0.5386 -0.5729 0.0398, 0.5122 -0.5729 0.0398, 0.5268 -0.54 0.0398, 0.5261 -0.5373 0.0398, 0.5256 -0.5345 0.0398, 0.5253 -0.5345 0.0398, 0.5248 -0.5372 0.0398, 0.5241 -0.54 0.0398, 0.5386 -0.5729 0.0394, 0.5122 -0.5729 0.0394, 0.5268 -0.54 0.0394, 0.5261 -0.5373 0.0394, 0.5256 -0.5345 0.0394, 0.5253 -0.5345 0.0394, 0.5248 -0.5372 0.0394, 0.5241 -0.54 0.0394, 0.608 -0.6036 0.0398, 0.6294 -0.6036 0.0398, 0.608 -0.6036 0.0394, 0.6294 -0.6036 0.0394, 0.6294 -0.5249 0.0398, 0.6294 -0.5249 0.0394, 0.6072 -0.5249 0.0398, 0.6072 -0.5249 0.0394, 0.566 -0.5632 0.0398, 0.566 -0.5632 0.0394, 0.5666 -0.5558 0.0394, 0.5666 -0.5558 0.0398, 0.5687 -0.5481 0.0394, 0.5687 -0.5481 0.0398, 0.5724 -0.5413 0.0394, 0.5724 -0.5413 0.0398, 0.5779 -0.5351 0.0394, 0.5779 -0.5351 0.0398, 0.578 -0.5351 0.0394, 0.578 -0.5351 0.0398, 0.5866 -0.5293 0.0394, 0.5866 -0.5293 0.0398, 0.5958 -0.5261 0.0394, 0.5958 -0.5261 0.0398, 0.5982 -0.6028 0.0394, 0.5982 -0.6028 0.0398, 0.5892 -0.6 0.0394, 0.5892 -0.6 0.0398, 0.5809 -0.5953 0.0394, 0.5809 -0.5953 0.0398, 0.5745 -0.5891 0.0394, 0.5745 -0.5891 0.0398, 0.57 -0.582 0.0394, 0.57 -0.582 0.0398, 0.5671 -0.5738 0.0394, 0.5671 -0.5738 0.0398, 0.5818 -0.5445 0.0398, 0.5857 -0.5405 0.0398, 0.5914 -0.5368 0.0398, 0.5979 -0.5345 0.0398, 0.6072 -0.5335 0.0398, 0.6188 -0.5335 0.0398, 0.6188 -0.595 0.0398, 0.6077 -0.595 0.0398, 0.5993 -0.5942 0.0398, 0.5927 -0.5921 0.0398, 0.5874 -0.5889 0.0398, 0.5829 -0.5846 0.0398, 0.5796 -0.5791 0.0398, 0.5773 -0.5717 0.0398, 0.5766 -0.5635 0.0398, 0.5773 -0.5556 0.0398, 0.5791 -0.5494 0.0398, 0.6072 -0.5335 0.0394, 0.6188 -0.5335 0.0394, 0.5979 -0.5345 0.0394, 0.5914 -0.5368 0.0394, 0.5857 -0.5405 0.0394, 0.5818 -0.5445 0.0394, 0.5791 -0.5494 0.0394, 0.5773 -0.5556 0.0394, 0.5766 -0.5635 0.0394, 0.5773 -0.5717 0.0394, 0.5796 -0.5791 0.0394, 0.5829 -0.5846 0.0394, 0.5874 -0.5889 0.0394, 0.5927 -0.5921 0.0394, 0.5993 -0.5942 0.0394, 0.6077 -0.595 0.0394, 0.6188 -0.595 0.0394, 0.6448 -0.595 0.0398, 0.6448 -0.6036 0.0398, 0.6448 -0.595 0.0394, 0.6448 -0.6036 0.0394, 0.687 -0.6036 0.0398, 0.687 -0.6036 0.0394, 0.687 -0.5249 0.0398, 0.687 -0.5249 0.0394, 0.6467 -0.5249 0.0398, 0.6467 -0.5249 0.0394, 0.6467 -0.5335 0.0398, 0.6467 -0.5335 0.0394, 0.6764 -0.5335 0.0398, 0.6764 -0.5335 0.0394, 0.6764 -0.5594 0.0398, 0.6764 -0.5594 0.0394, 0.6486 -0.5594 0.0398, 0.6486 -0.5594 0.0394, 0.6486 -0.5681 0.0398, 0.6486 -0.5681 0.0394, 0.6764 -0.5681 0.0398, 0.6764 -0.5681 0.0394, 0.6764 -0.595 0.0398, 0.6764 -0.595 0.0394, 0.7024 -0.5909 0.0398, 0.7024 -0.5995 0.0398, 0.7024 -0.5909 0.0394, 0.7024 -0.5995 0.0394, 0.7108 -0.603 0.0398, 0.724 -0.6046 0.0398, 0.724 -0.6046 0.0394, 0.7219 -0.6045 0.0394, 0.7219 -0.6045 0.0398, 0.7187 -0.6041 0.0394, 0.7108 -0.603 0.0394, 0.7287 -0.6041 0.0394, 0.7337 -0.6036 0.0398, 0.7337 -0.6036 0.0394, 0.7414 -0.6009 0.0398, 0.7414 -0.6009 0.0394, 0.7477 -0.5969 0.0398, 0.7477 -0.5969 0.0394, 0.7536 -0.5907 0.0398, 0.7536 -0.5907 0.0394, 0.7578 -0.5832 0.0398, 0.7578 -0.5832 0.0394, 0.7602 -0.5748 0.0398, 0.7602 -0.5748 0.0394, 0.7609 -0.5657 0.0398, 0.7609 -0.5657 0.0394, 0.7209 -0.5239 0.0398, 0.7209 -0.5239 0.0394, 0.7288 -0.5245 0.0394, 0.7288 -0.5245 0.0398, 0.7376 -0.5271 0.0394, 0.7376 -0.5271 0.0398, 0.7451 -0.5314 0.0394, 0.7451 -0.5314 0.0398, 0.7522 -0.5382 0.0394, 0.7522 -0.5382 0.0398, 0.7568 -0.5456 0.0394, 0.7568 -0.5456 0.0398, 0.7598 -0.5545 0.0394, 0.7598 -0.5545 0.0398, 0.7024 -0.527 0.0398, 0.7024 -0.527 0.0394, 0.7115 -0.5246 0.0394, 0.7115 -0.5246 0.0398, 0.7024 -0.5376 0.0398, 0.7024 -0.5376 0.0394, 0.7208 -0.5325 0.0398, 0.7208 -0.5325 0.0394, 0.7112 -0.5338 0.0394, 0.7112 -0.5338 0.0398, 0.7504 -0.5651 0.0398, 0.7504 -0.5651 0.0394, 0.75 -0.5589 0.0394, 0.75 -0.5589 0.0398, 0.7479 -0.5505 0.0394, 0.7479 -0.5505 0.0398, 0.7447 -0.5444 0.0394, 0.7447 -0.5444 0.0398, 0.7399 -0.5392 0.0394, 0.7399 -0.5392 0.0398, 0.7345 -0.5355 0.0394, 0.7345 -0.5355 0.0398, 0.7286 -0.5334 0.0394, 0.7286 -0.5334 0.0398, 0.7226 -0.5959 0.0398, 0.7226 -0.5959 0.0394, 0.7299 -0.5951 0.0394, 0.7299 -0.5951 0.0398, 0.7357 -0.593 0.0394, 0.7357 -0.593 0.0398, 0.7405 -0.5897 0.0394, 0.7405 -0.5897 0.0398, 0.7442 -0.5858 0.0394, 0.7442 -0.5858 0.0398, 0.7475 -0.5804 0.0394, 0.7475 -0.5804 0.0398, 0.7496 -0.5736 0.0394, 0.7496 -0.5736 0.0398, 0.7038 -0.5917 0.0394, 0.7038 -0.5917 0.0398, 0.7121 -0.5948 0.0394, 0.7121 -0.5948 0.0398, 0.7677 -0.595 0.0398, 0.7677 -0.6036 0.0398, 0.7677 -0.595 0.0394, 0.7677 -0.6036 0.0394, 0.808 -0.6036 0.0398, 0.808 -0.6036 0.0394, 0.808 -0.5249 0.0398, 0.808 -0.5249 0.0394, 0.7974 -0.5249 0.0398, 0.7974 -0.5249 0.0394, 0.7974 -0.595 0.0398, 0.7974 -0.595 0.0394
            ]
        }
        coordIndex [
            0,1,2,-1,2,1,3,-1,1,4,3,-1,3,4,5,-1,4,6,5,-1,5,6,7,-1,6,8,7,-1,7,8,9,-1,8,10,9,-1,9,10,11,-1,10,12,11,-1,11,12,13,-1,12,14,13,-1,13,14,15,-1,14,0,15,-1,15,0,2,-1,16,8,17,-1,17,8,6,-1,18,14,16,-1,16,14,12,-1,16,12,8,-1,8,12,10,-1,18,19,14,-1,14,19,20,-1,14,20,0,-1,0,20,21,-1,0,21,22,-1,22,23,0,-1,0,23,17,-1,0,17,1,-1,1,17,6,-1,1,6,4,-1,16,17,24,-1,24,17,25,-1,18,16,26,-1,26,16,24,-1,18,26,27,-1,18,27,19,-1,19,27,28,-1,19,28,20,-1,21,20,29,-1,29,20,28,-1,21,29,30,-1,21,30,22,-1,22,30,31,-1,22,31,23,-1,17,23,25,-1,25,23,31,-1,32,33,34,-1,34,33,35,-1,33,36,35,-1,35,36,37,-1,36,38,37,-1,37,38,39,-1,40,41,42,-1,40,42,43,-1,43,42,44,-1,43,44,45,-1,45,44,46,-1,45,46,47,-1,47,46,48,-1,47,48,49,-1,49,48,50,-1,49,50,51,-1,51,50,52,-1,51,52,53,-1,53,52,54,-1,53,54,55,-1,55,54,39,-1,55,39,38,-1,32,34,56,-1,32,56,57,-1,57,56,58,-1,57,58,59,-1,59,58,60,-1,59,60,61,-1,61,60,62,-1,61,62,63,-1,63,62,64,-1,63,64,65,-1,65,64,66,-1,65,66,67,-1,67,66,41,-1,67,41,40,-1,45,47,68,-1,68,47,49,-1,68,49,69,-1,69,49,51,-1,69,51,70,-1,70,51,53,-1,70,53,71,-1,71,53,55,-1,71,55,72,-1,72,55,38,-1,72,38,73,-1,73,38,36,-1,73,36,74,-1,74,36,33,-1,74,33,75,-1,75,33,32,-1,75,32,76,-1,76,32,57,-1,76,57,77,-1,77,57,59,-1,77,59,78,-1,78,59,61,-1,78,61,79,-1,79,61,63,-1,79,63,80,-1,80,63,65,-1,80,65,81,-1,81,65,67,-1,81,67,82,-1,82,67,40,-1,82,40,83,-1,83,40,43,-1,83,43,84,-1,84,43,45,-1,84,45,68,-1,72,73,85,-1,85,73,86,-1,72,85,87,-1,72,87,71,-1,71,87,88,-1,71,88,70,-1,70,88,89,-1,70,89,69,-1,69,89,90,-1,69,90,68,-1,68,90,91,-1,68,91,84,-1,84,91,92,-1,84,92,83,-1,83,92,93,-1,83,93,82,-1,82,93,94,-1,82,94,81,-1,81,94,95,-1,81,95,80,-1,80,95,96,-1,80,96,79,-1,79,96,97,-1,79,97,78,-1,78,97,98,-1,78,98,77,-1,77,98,99,-1,77,99,76,-1,76,99,100,-1,76,100,75,-1,74,75,101,-1,101,75,100,-1,73,74,86,-1,86,74,101,-1,102,103,104,-1,104,103,105,-1,103,106,105,-1,105,106,107,-1,106,108,107,-1,107,108,109,-1,108,110,109,-1,109,110,111,-1,110,112,111,-1,111,112,113,-1,112,114,113,-1,113,114,115,-1,114,116,115,-1,115,116,117,-1,116,118,117,-1,117,118,119,-1,118,120,119,-1,119,120,121,-1,120,122,121,-1,121,122,123,-1,122,124,123,-1,123,124,125,-1,124,102,125,-1,125,102,104,-1,106,103,102,-1,102,124,106,-1,106,124,122,-1,106,122,108,-1,112,110,114,-1,114,110,108,-1,114,108,116,-1,116,108,122,-1,116,122,118,-1,118,122,120,-1,126,127,128,-1,128,127,129,-1,129,127,130,-1,131,132,133,-1,131,133,134,-1,134,133,135,-1,134,135,130,-1,130,135,136,-1,130,136,129,-1,132,131,137,-1,137,131,138,-1,137,138,139,-1,139,138,140,-1,139,140,141,-1,141,140,142,-1,141,142,143,-1,143,142,144,-1,143,144,145,-1,145,144,146,-1,145,146,147,-1,147,146,148,-1,147,148,149,-1,149,148,150,-1,149,150,151,-1,152,153,154,-1,152,154,155,-1,155,154,156,-1,155,156,157,-1,157,156,158,-1,157,158,159,-1,159,158,160,-1,159,160,161,-1,161,160,162,-1,161,162,163,-1,163,162,164,-1,163,164,165,-1,165,164,151,-1,165,151,150,-1,166,167,168,-1,166,168,169,-1,169,168,153,-1,169,153,152,-1,166,170,167,-1,167,170,171,-1,172,173,174,-1,172,174,175,-1,175,174,171,-1,175,171,170,-1,176,177,178,-1,176,178,179,-1,179,178,180,-1,179,180,181,-1,181,180,182,-1,181,182,183,-1,183,182,184,-1,183,184,185,-1,185,184,186,-1,185,186,187,-1,187,186,188,-1,187,188,189,-1,189,188,173,-1,189,173,172,-1,190,191,192,-1,190,192,193,-1,193,192,194,-1,193,194,195,-1,195,194,196,-1,195,196,197,-1,197,196,198,-1,197,198,199,-1,199,198,200,-1,199,200,201,-1,201,200,202,-1,201,202,203,-1,203,202,177,-1,203,177,176,-1,126,128,204,-1,126,204,205,-1,205,204,206,-1,205,206,207,-1,207,206,191,-1,207,191,190,-1,193,131,190,-1,190,131,134,-1,190,134,207,-1,207,134,130,-1,207,130,205,-1,205,130,127,-1,205,127,126,-1,170,166,175,-1,175,166,169,-1,175,169,172,-1,172,169,152,-1,172,152,189,-1,189,152,155,-1,189,155,187,-1,187,155,157,-1,187,157,185,-1,185,157,159,-1,185,159,183,-1,183,159,161,-1,183,161,181,-1,181,161,163,-1,181,163,179,-1,179,163,165,-1,179,165,176,-1,176,165,150,-1,176,150,203,-1,203,150,148,-1,203,148,201,-1,201,148,146,-1,201,146,199,-1,199,146,144,-1,199,144,197,-1,197,144,142,-1,197,142,195,-1,195,142,140,-1,195,140,193,-1,193,140,138,-1,193,138,131,-1,208,209,210,-1,210,209,211,-1,209,212,211,-1,211,212,213,-1,212,214,213,-1,213,214,215,-1,214,216,215,-1,215,216,217,-1,216,218,217,-1,217,218,219,-1,218,208,219,-1,219,208,210,-1,216,214,218,-1,218,214,212,-1,218,212,208,-1,208,212,209,-1,
        ]
    }
}
Shape{
    appearance Appearance {
        material  Material 	{
            diffuseColor 0.25098039215686274 0.25098039215686274 0.25098039215686274
            specularColor 0.12549019607843137 0.12549019607843137 0.12549019607843137
            ambientIntensity 0.251
            transparency 0.0
            shininess 0.5
        }
    }
    geometry IndexedFaceSet {
        ccw TRUE
        solid FALSE
        coord DEF co Coordinate {
            point [
                0.5386 -0.5729 0.0394, 0.5122 -0.5729 0.0394, 0.5268 -0.54 0.0394, 0.5241 -0.54 0.0394, 0.5261 -0.5373 0.0394, 0.5248 -0.5372 0.0394, 0.5256 -0.5345 0.0394, 0.5253 -0.5345 0.0394, 0.6188 -0.5335 0.0394, 0.6188 -0.595 0.0394, 0.6072 -0.5335 0.0394, 0.6077 -0.595 0.0394, 0.5993 -0.5942 0.0394, 0.5766 -0.5635 0.0394, 0.5773 -0.5556 0.0394, 0.5791 -0.5494 0.0394, 0.5979 -0.5345 0.0394, 0.5927 -0.5921 0.0394, 0.5874 -0.5889 0.0394, 0.5829 -0.5846 0.0394, 0.5796 -0.5791 0.0394, 0.5773 -0.5717 0.0394, 0.5818 -0.5445 0.0394, 0.5857 -0.5405 0.0394, 0.5914 -0.5368 0.0394
            ]
        }
        coordIndex [
            0,1,2,-1,2,1,3,-1,2,3,4,-1,4,3,5,-1,4,5,6,-1,6,5,7,-1,8,9,10,-1,10,9,11,-1,10,11,12,-1,13,14,10,-1,10,14,15,-1,10,15,16,-1,12,17,10,-1,10,17,18,-1,10,18,19,-1,19,20,10,-1,10,20,21,-1,10,21,13,-1,22,23,15,-1,15,23,24,-1,15,24,16,-1,
        ]
    }
}
Shape{
    appearance Appearance {
        material  Material 	{
            diffuseColor 1.0 1.0 1.0
            specularColor 0.5019607843137255 0.5019607843137255 0.5019607843137255
            ambientIntensity 1.0
            transparency 0.0
            shininess 0.5
        }
    }
    geometry IndexedFaceSet {
        ccw TRUE
        solid FALSE
        coord DEF co Coordinate {
            point [
                0.5709 -0.3937 0.0, 0.5709 0.3937 0.0, 0.5709 -0.3937 0.0394, 0.5709 0.3937 0.0394, 0.5631 -0.3937 0.0394, -0.0408 -0.3937 0.0394, -0.5709 -0.3937 0.0, -0.5709 -0.3937 0.0394, -0.5709 0.3937 0.0, -0.5709 0.3937 0.0394, 0.5631 0.3937 0.0394, -0.0408 0.3937 0.0394
            ]
        }
        coordIndex [
            0,1,2,-1,2,1,3,-1,2,4,0,-1,0,4,5,-1,0,5,6,-1,6,5,7,-1,8,6,9,-1,9,6,7,-1,10,3,1,-1,10,1,11,-1,11,1,8,-1,11,8,9,-1,6,8,0,-1,0,8,1,-1,
        ]
    }
}
Shape{
    appearance Appearance {
        material  Material 	{
            diffuseColor 0.25098039215686274 0.25098039215686274 0.25098039215686274
            specularColor 0.12549019607843137 0.12549019607843137 0.12549019607843137
            ambientIntensity 0.251
            transparency 0.0
            shininess 0.5
        }
    }
    geometry IndexedFaceSet {
        ccw TRUE
        solid FALSE
        coord DEF co Coordinate {
            point [
                -0.9646 -0.7287 0.3543, -0.9203 -0.6845 0.0394, -0.919 -0.6946 0.0394, -0.9632 -0.7389 0.3543, -0.9173 -0.6994 0.0394, -0.9616 -0.7437 0.3543, -0.9151 -0.704 0.0394, -0.9594 -0.7483 0.3543, -0.9123 -0.7083 0.0394, -0.9565 -0.7525 0.3543, -0.9089 -0.7121 0.0394, -0.9532 -0.7563 0.3543, -0.9494 -0.7597 0.3543, -0.9051 -0.7154 0.0394, -0.9451 -0.7625 0.3543, -0.9009 -0.7183 0.0394, -0.9406 -0.7648 0.3543, -0.8963 -0.7205 0.0394, -0.9357 -0.7664 0.3543, -0.8915 -0.7221 0.0394, -0.8813 -0.7235 0.0394, -0.9256 -0.7677 0.3543, -0.9256 0.7677 0.3543, -0.8813 0.7235 0.0394, -0.8915 0.7221 0.0394, -0.9357 0.7664 0.3543, -0.8963 0.7205 0.0394, -0.9406 0.7648 0.3543, -0.9009 0.7183 0.0394, -0.9451 0.7625 0.3543, -0.9051 0.7154 0.0394, -0.9494 0.7597 0.3543, -0.9089 0.7121 0.0394, -0.9532 0.7563 0.3543, -0.9565 0.7525 0.3543, -0.9123 0.7083 0.0394, -0.9594 0.7483 0.3543, -0.9151 0.704 0.0394, -0.9616 0.7437 0.3543, -0.9173 0.6994 0.0394, -0.9632 0.7389 0.3543, -0.919 0.6946 0.0394, -0.9203 0.6845 0.0394, -0.9646 0.7287 0.3543, 0.9646 0.7287 0.3543, 0.9203 0.6845 0.0394, 0.919 0.6946 0.0394, 0.9632 0.7389 0.3543, 0.9173 0.6994 0.0394, 0.9616 0.7437 0.3543, 0.9151 0.704 0.0394, 0.9594 0.7483 0.3543, 0.9123 0.7083 0.0394, 0.9565 0.7525 0.3543, 0.9089 0.7121 0.0394, 0.9532 0.7563 0.3543, 0.9494 0.7597 0.3543, 0.9051 0.7154 0.0394, 0.9451 0.7625 0.3543, 0.9009 0.7183 0.0394, 0.9406 0.7648 0.3543, 0.8963 0.7205 0.0394, 0.9357 0.7664 0.3543, 0.8915 0.7221 0.0394, 0.8813 0.7235 0.0394, 0.9256 0.7677 0.3543, 0.9256 -0.7677 0.3543, 0.8813 -0.7235 0.0394, 0.8915 -0.7221 0.0394, 0.9357 -0.7664 0.3543, 0.8963 -0.7205 0.0394, 0.9406 -0.7648 0.3543, 0.9009 -0.7183 0.0394, 0.9451 -0.7625 0.3543, 0.9051 -0.7154 0.0394, 0.9494 -0.7597 0.3543, 0.9089 -0.7121 0.0394, 0.9532 -0.7563 0.3543, 0.9565 -0.7525 0.3543, 0.9123 -0.7083 0.0394, 0.9594 -0.7483 0.3543, 0.9151 -0.704 0.0394, 0.9616 -0.7437 0.3543, 0.9173 -0.6994 0.0394, 0.9632 -0.7389 0.3543, 0.919 -0.6946 0.0394, 0.9203 -0.6845 0.0394, 0.9646 -0.7287 0.3543, -0.9 -0.7422 0.5362, -0.9087 -0.7409 0.5372, -0.91 -0.7407 0.5374, -0.9168 -0.7378 0.5379, -0.9193 -0.7367 0.5381, -0.924 -0.733 0.5383, -0.9273 -0.7305 0.5384, -0.9301 -0.7269 0.5383, -0.9335 -0.7225 0.5381, -0.9347 -0.7196 0.5379, -0.939 -0.7032 0.5362, -0.9378 -0.7115 0.5372, -0.9375 -0.7131 0.5374, -0.9251 0.6892 0.6354, -0.9236 0.6992 0.6366, -0.9235 0.6993 0.6366, -0.9196 0.7085 0.6373, -0.9196 0.7086 0.6373, -0.9134 0.7165 0.6376, -0.9054 0.7227 0.6373, -0.9054 0.7227 0.6373, -0.8961 0.7267 0.6366, -0.896 0.7267 0.6366, -0.8861 0.7282 0.6354, 0.8861 0.7282 0.6354, 0.8861 0.7259 0.6442, -0.8861 0.7259 0.6442, 0.8861 0.7258 0.6444, -0.8861 0.7258 0.6444, 0.8861 0.7215 0.6525, -0.8861 0.7215 0.6525, 0.8861 0.7213 0.6527, -0.8861 0.7213 0.6527, 0.8861 0.7152 0.6595, -0.8861 0.7152 0.6595, 0.8861 0.715 0.6596, -0.8861 0.715 0.6596, 0.8861 0.7074 0.6648, -0.8861 0.7074 0.6648, 0.8861 0.7073 0.6649, -0.8861 0.7073 0.6649, 0.8861 0.6986 0.6682, -0.8861 0.6986 0.6682, 0.8861 0.6985 0.6682, -0.8861 0.6985 0.6682, -0.8861 0.6892 0.6693, 0.8861 0.6892 0.6693, 0.8947 0.7269 0.6364, 0.896 0.7267 0.6366, 0.9028 0.7239 0.6371, 0.9054 0.7227 0.6373, 0.91 0.7192 0.6375, 0.9134 0.7165 0.6376, 0.916 0.7131 0.6375, 0.9196 0.7085 0.6373, 0.9207 0.7059 0.6371, 0.9236 0.6992 0.6366, 0.9238 0.6978 0.6364, 0.9251 0.6892 0.6354, 0.939 -0.7032 0.5362, 0.9378 -0.7115 0.5372, 0.9375 -0.7131 0.5374, 0.9347 -0.7196 0.5379, 0.9335 -0.7225 0.5381, 0.9301 -0.7269 0.5383, 0.9273 -0.7305 0.5384, 0.924 -0.733 0.5383, 0.9193 -0.7367 0.5381, 0.9168 -0.7378 0.5379, 0.9 -0.7422 0.5362, 0.9087 -0.7409 0.5372, 0.91 -0.7407 0.5374, -0.9 -0.7404 0.5436, 0.9 -0.7404 0.5436, -0.9 -0.7393 0.546, 0.9 -0.7393 0.546, -0.9 -0.7371 0.5507, 0.9 -0.7371 0.5507, -0.9 -0.7341 0.5548, 0.9 -0.7341 0.5548, -0.9 -0.7324 0.557, 0.9 -0.7324 0.557, -0.9 -0.7269 0.5621, 0.9 -0.7269 0.5621, -0.9231 -0.7206 0.557, -0.9228 -0.7211 0.5569, -0.9226 -0.7208 0.5573, -0.9317 -0.7149 0.5507, -0.9307 -0.7177 0.5507, -0.9292 -0.7168 0.5529, -0.9367 -0.709 0.5436, -0.9363 -0.7112 0.5436, -0.9353 -0.7108 0.5458, -0.9368 -0.7089 0.5435, -0.9324 -0.7143 0.5501, -0.9336 -0.7191 0.5436, -0.9262 -0.7191 0.5555, -0.9266 -0.7242 0.5507, -0.9184 -0.7229 0.5594, -0.9184 -0.726 0.557, -0.9165 -0.7234 0.5599, -0.9128 -0.7295 0.557, -0.9107 -0.7252 0.5614, -0.9095 -0.7255 0.5617, -0.9066 -0.7317 0.557, -0.9053 -0.7261 0.5619, -0.9083 -0.7394 0.5436, -0.9162 -0.7366 0.5436, -0.9233 -0.7322 0.5436, -0.9292 -0.7262 0.5436, -0.9076 -0.7362 0.5507, -0.9213 -0.7296 0.5507, -0.9148 -0.7337 0.5507, -0.9182 0.6892 0.6527, -0.912 0.6892 0.6595, -0.9112 0.6959 0.6595, -0.9036 0.6939 0.6648, -0.8951 0.6916 0.6682, -0.8942 0.6939 0.6682, -0.8908 0.6973 0.6682, -0.8927 0.6958 0.6682, -0.8885 0.6983 0.6682, -0.8954 0.6892 0.6682, -0.9215 0.6987 0.6442, -0.9179 0.7076 0.6442, -0.912 0.7152 0.6442, -0.9044 0.721 0.6442, -0.8956 0.7247 0.6442, -0.9119 0.6892 0.6596, -0.9043 0.6892 0.6648, -0.9042 0.6892 0.6649, -0.8954 0.6892 0.6682, -0.9018 0.6983 0.6648, -0.8989 0.7021 0.6648, -0.8952 0.705 0.6648, -0.8908 0.7068 0.6648, -0.9086 0.7022 0.6595, -0.9044 0.7076 0.6595, -0.8991 0.7117 0.6595, -0.8928 0.7143 0.6595, -0.9226 0.6892 0.6444, -0.9183 0.6892 0.6525, -0.9172 0.6976 0.6525, -0.914 0.7054 0.6525, -0.9089 0.712 0.6525, -0.9022 0.7172 0.6525, -0.8944 0.7204 0.6525, -0.9228 0.6892 0.6442, 0.8933 0.7207 0.6525, 0.8919 0.7145 0.6595, 0.8901 0.7069 0.6648, 0.8882 0.6984 0.6682, 0.8901 0.6977 0.6682, 0.8945 0.6933 0.6682, 0.8934 0.6951 0.6682, 0.8952 0.6913 0.6682, 0.8942 0.725 0.6442, 0.902 0.7223 0.6442, 0.909 0.7179 0.6442, 0.9148 0.7121 0.6442, 0.9191 0.7051 0.6442, 0.9219 0.6974 0.6442, 0.9228 0.6892 0.6442, 0.8954 0.6892 0.6682, 0.8974 0.7034 0.6648, 0.9003 0.7006 0.6648, 0.9025 0.6971 0.6648, 0.9038 0.6933 0.6648, 0.894 0.7056 0.6648, 0.8919 0.6965 0.6682, 0.8954 0.6892 0.6682, 0.9042 0.6892 0.6649, 0.9043 0.6892 0.6648, 0.9119 0.6892 0.6596, 0.8973 0.7126 0.6595, 0.9023 0.7095 0.6595, 0.9064 0.7054 0.6595, 0.9095 0.7005 0.6595, 0.9114 0.695 0.6595, 0.9001 0.7183 0.6525, 0.9062 0.7144 0.6525, 0.9113 0.7093 0.6525, 0.9151 0.7032 0.6525, 0.9175 0.6964 0.6525, 0.912 0.6892 0.6595, 0.9182 0.6892 0.6527, 0.9183 0.6892 0.6525, 0.9226 0.6892 0.6444, 0.9262 -0.7191 0.5555, 0.9231 -0.7206 0.557, 0.9228 -0.7211 0.5569, 0.9184 -0.726 0.557, 0.9107 -0.7252 0.5614, 0.9128 -0.7295 0.557, 0.9095 -0.7255 0.5617, 0.9066 -0.7317 0.557, 0.9053 -0.7261 0.5619, 0.9226 -0.7208 0.5573, 0.9184 -0.7229 0.5594, 0.9165 -0.7234 0.5599, 0.9324 -0.7143 0.5501, 0.9317 -0.7149 0.5507, 0.9307 -0.7177 0.5507, 0.9292 -0.7168 0.5529, 0.9266 -0.7242 0.5507, 0.9368 -0.7089 0.5435, 0.9367 -0.709 0.5436, 0.9363 -0.7112 0.5436, 0.9353 -0.7108 0.5458, 0.9336 -0.7191 0.5436, 0.9292 -0.7262 0.5436, 0.9233 -0.7322 0.5436, 0.9162 -0.7366 0.5436, 0.9083 -0.7394 0.5436, 0.9213 -0.7296 0.5507, 0.9148 -0.7337 0.5507, 0.9076 -0.7362 0.5507, -0.9251 -0.5715 0.6354, -0.9219 -0.5784 0.6442, -0.9229 -0.5772 0.6427, -0.9185 -0.5827 0.6493, -0.9202 -0.5806 0.6467, -0.8861 -0.5952 0.6614, -0.8922 -0.5943 0.6611, -0.8955 -0.5939 0.6609, -0.8986 -0.593 0.6601, -0.901 -0.5922 0.6595, -0.9044 -0.5912 0.6586, -0.9054 -0.5907 0.6582, -0.9122 -0.5874 0.6547, -0.9129 -0.5869 0.6541, -0.9148 -0.5855 0.6525, -0.9228 -0.5715 0.6442, -0.9226 -0.5715 0.6444, -0.9183 -0.5715 0.6525, -0.9182 -0.5715 0.6527, -0.912 -0.5715 0.6595, -0.9119 -0.5715 0.6596, -0.9043 -0.5715 0.6648, -0.9042 -0.5715 0.6649, -0.8954 -0.5715 0.6682, -0.8954 -0.5715 0.6682, -0.8861 -0.5715 0.6693, 0.9251 -0.5715 0.6354, 0.9228 -0.5715 0.6442, 0.9226 -0.5715 0.6444, 0.9183 -0.5715 0.6525, 0.9182 -0.5715 0.6527, 0.912 -0.5715 0.6595, 0.9119 -0.5715 0.6596, 0.9043 -0.5715 0.6648, 0.9042 -0.5715 0.6649, 0.8954 -0.5715 0.6682, 0.8954 -0.5715 0.6682, 0.8861 -0.5715 0.6693, 0.9229 -0.5772 0.6427, 0.9148 -0.5855 0.6525, 0.9185 -0.5827 0.6493, 0.9202 -0.5806 0.6467, 0.9219 -0.5784 0.6442, 0.9129 -0.5869 0.6541, 0.9122 -0.5874 0.6547, 0.9054 -0.5907 0.6582, 0.8861 -0.5952 0.6614, 0.8922 -0.5943 0.6611, 0.8955 -0.5939 0.6609, 0.8986 -0.593 0.6601, 0.901 -0.5922 0.6595, 0.9044 -0.5912 0.6586, -0.8861 -0.5879 0.6655, -0.8861 -0.5809 0.6682, -0.8885 -0.5805 0.6682, -0.8942 -0.5762 0.6682, -0.8927 -0.5781 0.6682, -0.8951 -0.5739 0.6682, -0.8908 -0.5796 0.6682, -0.9044 -0.5899 0.6595, -0.8908 -0.5891 0.6648, -0.8952 -0.5872 0.6648, -0.9086 -0.5845 0.6595, -0.9112 -0.5782 0.6595, -0.9172 -0.5799 0.6525, -0.8861 -0.5799 0.6683, -0.8861 -0.5897 0.6648, -0.8989 -0.5844 0.6648, -0.9018 -0.5806 0.6648, -0.9036 -0.5762 0.6648, 0.8951 -0.5739 0.6682, 0.8927 -0.5781 0.6682, 0.8942 -0.5762 0.6682, 0.8908 -0.5796 0.6682, 0.8885 -0.5805 0.6682, 0.9086 -0.5845 0.6595, 0.9112 -0.5782 0.6595, 0.9172 -0.5799 0.6525, 0.9044 -0.5899 0.6595, 0.8952 -0.5872 0.6648, 0.8989 -0.5844 0.6648, 0.8908 -0.5891 0.6648, 0.8861 -0.5897 0.6648, 0.9036 -0.5762 0.6648, 0.8861 -0.5799 0.6683, 0.8861 -0.5809 0.6682, 0.8861 -0.5879 0.6655, 0.9018 -0.5806 0.6648
            ]
        }
        coordIndex [
            0,1,2,-1,0,2,3,-1,3,2,4,-1,3,4,5,-1,5,4,6,-1,5,6,7,-1,7,6,8,-1,7,8,9,-1,9,8,10,-1,9,10,11,-1,11,10,12,-1,12,10,13,-1,12,13,14,-1,14,13,15,-1,14,15,16,-1,16,15,17,-1,16,17,18,-1,17,19,18,-1,18,19,20,-1,18,20,21,-1,22,23,24,-1,22,24,25,-1,25,24,26,-1,25,26,27,-1,27,26,28,-1,27,28,29,-1,29,28,30,-1,29,30,31,-1,31,30,32,-1,31,32,33,-1,33,32,34,-1,34,32,35,-1,34,35,36,-1,36,35,37,-1,36,37,38,-1,38,37,39,-1,38,39,40,-1,39,41,40,-1,40,41,42,-1,40,42,43,-1,44,45,46,-1,44,46,47,-1,47,46,48,-1,47,48,49,-1,49,48,50,-1,49,50,51,-1,51,50,52,-1,51,52,53,-1,53,52,54,-1,53,54,55,-1,55,54,56,-1,56,54,57,-1,56,57,58,-1,58,57,59,-1,58,59,60,-1,60,59,61,-1,60,61,62,-1,61,63,62,-1,62,63,64,-1,62,64,65,-1,66,67,68,-1,66,68,69,-1,69,68,70,-1,69,70,71,-1,71,70,72,-1,71,72,73,-1,73,72,74,-1,73,74,75,-1,75,74,76,-1,75,76,77,-1,77,76,78,-1,78,76,79,-1,78,79,80,-1,80,79,81,-1,80,81,82,-1,82,81,83,-1,82,83,84,-1,83,85,84,-1,84,85,86,-1,84,86,87,-1,21,88,89,-1,21,89,18,-1,18,89,90,-1,18,90,16,-1,16,90,91,-1,16,91,14,-1,14,91,92,-1,14,92,12,-1,12,92,93,-1,12,93,11,-1,11,93,94,-1,11,94,9,-1,9,94,95,-1,9,95,7,-1,7,95,96,-1,7,96,5,-1,5,96,97,-1,5,97,3,-1,98,0,99,-1,99,0,3,-1,99,3,100,-1,100,3,97,-1,101,102,43,-1,43,102,40,-1,40,102,38,-1,38,102,103,-1,38,103,36,-1,36,103,104,-1,36,104,34,-1,34,104,105,-1,34,105,33,-1,33,105,106,-1,33,106,31,-1,31,106,107,-1,31,107,29,-1,29,107,108,-1,29,108,27,-1,27,108,109,-1,27,109,25,-1,109,110,25,-1,25,110,111,-1,25,111,22,-1,112,111,113,-1,113,111,114,-1,113,114,115,-1,115,114,116,-1,115,116,117,-1,117,116,118,-1,117,118,119,-1,119,118,120,-1,119,120,121,-1,121,120,122,-1,121,122,123,-1,123,122,124,-1,123,124,125,-1,125,124,126,-1,125,126,127,-1,127,126,128,-1,127,128,129,-1,129,128,130,-1,129,130,131,-1,130,132,131,-1,131,132,133,-1,131,133,134,-1,65,112,135,-1,65,135,62,-1,62,135,136,-1,62,136,60,-1,60,136,137,-1,60,137,58,-1,58,137,138,-1,58,138,56,-1,56,138,139,-1,56,139,55,-1,55,139,140,-1,55,140,53,-1,53,140,141,-1,53,141,51,-1,51,141,142,-1,51,142,49,-1,49,142,143,-1,49,143,47,-1,47,143,144,-1,47,144,44,-1,44,144,145,-1,44,145,146,-1,87,147,148,-1,87,148,84,-1,84,148,149,-1,84,149,82,-1,82,149,150,-1,82,150,80,-1,80,150,151,-1,80,151,78,-1,78,151,152,-1,78,152,77,-1,77,152,153,-1,77,153,75,-1,75,153,154,-1,75,154,73,-1,73,154,155,-1,73,155,71,-1,71,155,156,-1,71,156,69,-1,157,66,158,-1,158,66,69,-1,158,69,159,-1,159,69,156,-1,88,157,160,-1,160,157,161,-1,160,161,162,-1,162,161,163,-1,162,163,164,-1,164,163,165,-1,164,165,166,-1,166,165,167,-1,166,167,168,-1,168,167,169,-1,168,169,170,-1,170,169,171,-1,172,173,174,-1,175,176,177,-1,178,179,180,-1,181,98,99,-1,180,179,182,-1,182,179,183,-1,182,183,175,-1,177,176,184,-1,184,176,185,-1,184,185,172,-1,174,173,186,-1,186,173,187,-1,186,187,188,-1,188,187,189,-1,188,189,190,-1,190,189,191,-1,191,189,192,-1,191,192,193,-1,193,192,168,-1,193,168,170,-1,89,194,90,-1,90,194,195,-1,94,93,196,-1,196,93,92,-1,196,92,195,-1,195,92,91,-1,195,91,90,-1,94,196,95,-1,95,196,197,-1,95,197,96,-1,96,197,183,-1,96,183,97,-1,97,183,100,-1,100,183,179,-1,100,179,99,-1,99,179,178,-1,99,178,181,-1,198,164,166,-1,172,185,173,-1,173,185,199,-1,173,199,187,-1,187,199,200,-1,187,200,189,-1,189,200,198,-1,189,198,192,-1,192,198,166,-1,192,166,168,-1,89,88,194,-1,194,88,160,-1,194,160,162,-1,175,183,176,-1,176,183,197,-1,176,197,185,-1,185,197,196,-1,185,196,199,-1,199,196,195,-1,199,195,200,-1,200,195,194,-1,200,194,198,-1,198,194,162,-1,198,162,164,-1,201,202,203,-1,204,205,206,-1,133,207,208,-1,209,207,133,-1,206,205,133,-1,210,133,205,-1,211,103,102,-1,103,211,104,-1,104,211,212,-1,104,212,105,-1,105,212,213,-1,105,213,106,-1,106,213,214,-1,106,214,107,-1,107,214,108,-1,108,214,215,-1,108,215,109,-1,109,215,110,-1,110,215,114,-1,110,114,111,-1,132,209,133,-1,216,217,204,-1,204,217,218,-1,204,218,205,-1,205,218,219,-1,205,219,210,-1,220,208,221,-1,221,208,207,-1,221,207,222,-1,222,207,209,-1,222,209,223,-1,132,130,209,-1,209,130,128,-1,209,128,223,-1,223,128,126,-1,223,126,124,-1,203,220,224,-1,224,220,221,-1,224,221,225,-1,225,221,222,-1,225,222,226,-1,226,222,223,-1,226,223,227,-1,227,223,124,-1,228,229,230,-1,230,229,201,-1,201,203,230,-1,230,203,224,-1,230,224,231,-1,231,224,225,-1,231,225,232,-1,232,225,226,-1,232,226,233,-1,233,226,227,-1,233,227,234,-1,202,216,203,-1,203,216,204,-1,203,204,220,-1,220,204,206,-1,220,206,208,-1,208,206,133,-1,228,211,235,-1,235,211,102,-1,235,102,101,-1,124,122,227,-1,227,122,120,-1,227,120,234,-1,234,120,118,-1,234,118,116,-1,228,230,211,-1,211,230,231,-1,211,231,212,-1,212,231,232,-1,212,232,213,-1,213,232,233,-1,213,233,214,-1,214,233,234,-1,214,234,215,-1,215,234,116,-1,215,116,114,-1,115,117,236,-1,119,121,237,-1,238,239,240,-1,134,241,242,-1,243,241,134,-1,240,239,134,-1,131,134,239,-1,135,244,136,-1,136,244,245,-1,136,245,137,-1,137,245,138,-1,138,245,246,-1,138,246,139,-1,139,246,140,-1,140,246,247,-1,140,247,141,-1,141,247,142,-1,142,247,248,-1,142,248,143,-1,143,248,144,-1,144,248,249,-1,144,249,145,-1,145,249,250,-1,145,250,146,-1,251,243,134,-1,123,125,238,-1,238,125,127,-1,238,127,239,-1,239,127,129,-1,239,129,131,-1,252,242,253,-1,253,242,241,-1,253,241,254,-1,254,241,243,-1,254,243,255,-1,121,123,237,-1,237,123,238,-1,237,238,256,-1,256,238,240,-1,256,240,257,-1,257,240,134,-1,251,258,243,-1,243,258,259,-1,243,259,255,-1,255,259,260,-1,255,260,261,-1,262,252,263,-1,263,252,253,-1,263,253,264,-1,264,253,254,-1,264,254,265,-1,265,254,255,-1,265,255,266,-1,266,255,261,-1,236,262,267,-1,267,262,263,-1,267,263,268,-1,268,263,264,-1,268,264,269,-1,269,264,265,-1,269,265,270,-1,270,265,266,-1,270,266,271,-1,117,119,236,-1,236,119,237,-1,236,237,262,-1,262,237,256,-1,262,256,252,-1,252,256,257,-1,252,257,242,-1,242,257,134,-1,135,112,244,-1,244,112,113,-1,244,113,115,-1,261,272,266,-1,266,272,273,-1,266,273,271,-1,271,273,274,-1,271,274,275,-1,115,236,244,-1,244,236,267,-1,244,267,245,-1,245,267,268,-1,245,268,246,-1,246,268,269,-1,246,269,247,-1,247,269,270,-1,247,270,248,-1,248,270,271,-1,248,271,249,-1,249,271,275,-1,249,275,250,-1,276,277,278,-1,279,280,281,-1,281,280,282,-1,281,282,283,-1,283,282,284,-1,283,284,171,-1,277,285,278,-1,278,285,286,-1,278,286,279,-1,279,286,287,-1,279,287,280,-1,288,289,290,-1,290,289,291,-1,290,291,292,-1,292,291,276,-1,293,294,295,-1,295,294,296,-1,295,296,297,-1,297,296,288,-1,147,293,148,-1,148,293,295,-1,148,295,149,-1,149,295,297,-1,149,297,150,-1,150,297,151,-1,151,297,298,-1,151,298,152,-1,152,298,153,-1,153,298,299,-1,153,299,154,-1,154,299,155,-1,155,299,300,-1,155,300,156,-1,156,300,159,-1,159,300,301,-1,159,301,158,-1,158,301,161,-1,158,161,157,-1,276,278,292,-1,292,278,279,-1,292,279,302,-1,302,279,281,-1,302,281,303,-1,303,281,283,-1,303,283,304,-1,171,169,283,-1,283,169,167,-1,283,167,304,-1,304,167,165,-1,304,165,163,-1,288,290,297,-1,297,290,292,-1,297,292,298,-1,298,292,302,-1,298,302,299,-1,299,302,303,-1,299,303,300,-1,300,303,304,-1,300,304,301,-1,301,304,163,-1,301,163,161,-1,305,98,181,-1,178,306,181,-1,181,306,307,-1,181,307,305,-1,180,308,178,-1,178,308,309,-1,178,309,306,-1,170,310,193,-1,193,310,311,-1,193,311,191,-1,191,311,312,-1,191,312,190,-1,190,312,313,-1,190,313,188,-1,188,313,314,-1,188,314,186,-1,186,314,315,-1,186,315,174,-1,174,315,316,-1,174,316,172,-1,172,316,317,-1,172,317,184,-1,184,317,318,-1,184,318,177,-1,177,318,319,-1,177,319,175,-1,175,319,308,-1,175,308,182,-1,182,308,180,-1,101,305,235,-1,235,305,320,-1,235,320,228,-1,228,320,321,-1,228,321,229,-1,229,321,322,-1,229,322,201,-1,201,322,323,-1,201,323,202,-1,202,323,324,-1,202,324,216,-1,216,324,325,-1,216,325,217,-1,217,325,326,-1,217,326,218,-1,218,326,327,-1,218,327,219,-1,219,327,328,-1,219,328,210,-1,328,329,210,-1,210,329,330,-1,210,330,133,-1,331,146,332,-1,332,146,250,-1,332,250,333,-1,333,250,275,-1,333,275,334,-1,334,275,274,-1,334,274,335,-1,335,274,273,-1,335,273,336,-1,336,273,272,-1,336,272,337,-1,337,272,261,-1,337,261,338,-1,338,261,260,-1,338,260,339,-1,339,260,259,-1,339,259,340,-1,340,259,258,-1,340,258,341,-1,258,251,341,-1,341,251,134,-1,341,134,342,-1,147,331,343,-1,276,291,344,-1,344,291,289,-1,344,289,345,-1,345,289,288,-1,345,288,346,-1,346,288,296,-1,346,296,347,-1,347,296,294,-1,347,294,343,-1,343,294,293,-1,343,293,147,-1,344,348,276,-1,276,348,349,-1,276,349,277,-1,277,349,350,-1,351,171,352,-1,352,171,284,-1,352,284,353,-1,353,284,282,-1,353,282,354,-1,354,282,280,-1,354,280,355,-1,355,280,287,-1,355,287,356,-1,356,287,286,-1,356,286,350,-1,350,286,285,-1,350,285,277,-1,357,358,359,-1,330,360,361,-1,362,360,330,-1,330,363,359,-1,315,314,364,-1,311,365,312,-1,312,365,366,-1,319,318,367,-1,367,318,317,-1,367,317,364,-1,364,317,316,-1,364,316,315,-1,367,368,319,-1,319,368,369,-1,319,369,308,-1,308,369,309,-1,322,321,306,-1,306,321,320,-1,306,320,307,-1,307,320,305,-1,358,370,359,-1,359,370,330,-1,361,363,330,-1,329,362,330,-1,311,310,365,-1,365,310,371,-1,365,371,357,-1,357,359,365,-1,365,359,363,-1,365,363,366,-1,366,363,361,-1,366,361,372,-1,372,361,360,-1,372,360,373,-1,373,360,362,-1,373,362,374,-1,329,328,362,-1,362,328,327,-1,362,327,374,-1,374,327,326,-1,374,326,325,-1,325,368,374,-1,374,368,367,-1,374,367,373,-1,373,367,364,-1,373,364,372,-1,372,364,314,-1,372,314,366,-1,366,314,313,-1,366,313,312,-1,306,309,322,-1,322,309,369,-1,322,369,323,-1,323,369,368,-1,323,368,324,-1,324,368,325,-1,339,340,375,-1,342,376,377,-1,378,376,342,-1,379,378,342,-1,380,348,381,-1,381,348,344,-1,381,344,382,-1,382,344,345,-1,382,345,346,-1,355,356,383,-1,383,356,350,-1,383,350,380,-1,380,350,349,-1,380,349,348,-1,354,355,384,-1,384,355,385,-1,354,384,353,-1,353,384,386,-1,353,386,352,-1,352,386,387,-1,352,387,351,-1,388,338,339,-1,342,389,379,-1,379,389,390,-1,379,390,391,-1,339,375,388,-1,388,375,377,-1,388,377,392,-1,392,377,376,-1,392,376,385,-1,385,376,378,-1,385,378,384,-1,384,378,379,-1,384,379,386,-1,386,379,391,-1,386,391,387,-1,381,336,337,-1,355,383,385,-1,385,383,380,-1,385,380,392,-1,392,380,381,-1,392,381,388,-1,388,381,337,-1,388,337,338,-1,375,342,377,-1,340,341,375,-1,375,341,342,-1,336,381,335,-1,335,381,382,-1,335,382,334,-1,334,382,346,-1,334,346,333,-1,333,346,347,-1,333,347,332,-1,332,347,343,-1,332,343,331,-1,342,330,370,-1,310,351,371,-1,371,351,387,-1,371,387,357,-1,357,387,391,-1,357,391,358,-1,358,391,390,-1,358,390,370,-1,370,390,389,-1,370,389,342,-1,
        ]
    }
}