#VRML V2.0 utf8
# 3D model generated by easyeda2kicad.py (https://github.com/uPesy/easyeda2kicad.py)

Shape{
    appearance Appearance {
        material  Material 	{
            diffuseColor 0.25098039215686274 0.25098039215686274 0.25098039215686274
            specularColor 0.12549019607843137 0.12549019607843137 0.12549019607843137
            ambientIntensity 0.251
            transparency 0.0
            shininess 0.5
        }
    }
    geometry IndexedFaceSet {
        ccw TRUE
        solid FALSE
        coord DEF co Coordinate {
            point [
                -0.475 -0.2968 0.0039, -0.4921 -0.2953 0.0039, -0.4921 -0.0215 0.0039, 0.4921 -0.2953 0.0039, 0.475 -0.2968 0.0039, 0.4429 -0.1378 0.0039, 0.4585 -0.3012 0.0039, 0.4429 -0.3085 0.0039, 0.3937 -0.3937 0.0039, 0.1673 -0.3543 0.0039, 0.3958 -0.3736 0.0039, 0.4019 -0.3543 0.0039, 0.0181 -0.0215 0.0039, 0.0197 -0.0217 0.0039, -0.0227 -0.3937 0.0039, 0.0208 -0.0217 0.0039, 0.1673 -0.1378 0.0039, 0.0231 -0.0215 0.0039, 0.4921 -0.0215 0.0039, 0.475 0.2968 0.0039, 0.4921 0.2953 0.0039, -0.0179 0.0181 0.0039, -0.0179 0.0138 0.0039, -0.0189 -0.0169 0.0039, 0.0099 -0.0192 0.0039, 0.0023 -0.0212 0.0039, 0.0099 -0.0149 0.0039, 0.0023 0.0181 0.0039, -0.0227 0.3937 0.0039, 0.3937 0.3937 0.0039, 0.1673 0.3543 0.0039, 0.3958 0.3736 0.0039, 0.4019 0.3543 0.0039, -0.0227 -0.0215 0.0039, -0.0189 -0.0212 0.0039, 0.4429 0.1378 0.0039, 0.4429 0.3085 0.0039, 0.4585 0.3012 0.0039, -0.003 -0.0035 0.0039, -0.003 -0.0169 0.0039, -0.0169 -0.0035 0.0039, -0.0169 0.0009 0.0039, -0.003 0.0009 0.0039, -0.003 0.0138 0.0039, 0.1673 0.1378 0.0039, 0.0348 0.0115 0.0039, 0.0313 0.0149 0.0039, 0.023 0.0139 0.0039, 0.026 0.0128 0.0039, 0.0106 -0.0153 0.0039, 0.0287 0.011 0.0039, 0.0311 0.0084 0.0039, 0.0339 -0.002 0.0039, 0.0335 -0.0062 0.0039, 0.0325 -0.0096 0.0039, 0.0237 -0.017 0.0039, 0.02 -0.0174 0.0039, 0.0266 -0.0159 0.0039, 0.029 -0.0143 0.0039, 0.0308 -0.0123 0.0039, 0.0148 -0.0168 0.0039, 0.0327 0.0053 0.0039, 0.0338 0.0011 0.0039, 0.0628 0.0181 0.0039, 0.0628 -0.0212 0.0039, 0.0575 0.0181 0.0039, 0.0371 0.0078 0.0039, 0.0426 -0.0212 0.0039, 0.0256 -0.0212 0.0039, 0.0294 -0.0199 0.0039, 0.0326 -0.0179 0.0039, 0.0356 -0.0148 0.0039, 0.0426 -0.0169 0.0039, 0.0377 -0.011 0.0039, 0.0575 -0.0169 0.0039, 0.0275 0.017 0.0039, 0.0232 0.0183 0.0039, 0.0192 0.0186 0.0039, 0.0145 0.0183 0.0039, 0.0099 0.0171 0.0039, 0.0099 0.0118 0.0039, 0.0144 0.0137 0.0039, 0.0192 0.0143 0.0039, 0.0388 -0.0068 0.0039, 0.0392 -0.0023 0.0039, 0.0387 0.0033 0.0039, -0.4585 0.3012 0.0039, -0.4429 0.3085 0.0039, -0.4429 0.1378 0.0039, -0.0669 -0.0212 0.0039, -0.0611 -0.0212 0.0039, -0.1673 0.1378 0.0039, -0.0813 0.0181 0.0039, -0.0966 -0.0212 0.0039, -0.0563 -0.0104 0.0039, -0.054 -0.014 0.0039, -0.0508 -0.0171 0.0039, -0.0467 -0.0194 0.0039, -0.4921 0.2953 0.0039, -0.475 0.2968 0.0039, -0.076 0.0181 0.0039, -0.0523 0.013 0.0039, -0.0551 0.0099 0.0039, -0.0569 0.0065 0.0039, -0.3937 0.3937 0.0039, -0.3958 0.3736 0.0039, -0.1673 0.3543 0.0039, -0.4019 0.3543 0.0039, -0.0421 -0.0208 0.0039, -0.0373 -0.0212 0.0039, -0.0909 -0.0212 0.0039, -0.0869 -0.0102 0.0039, -0.0706 -0.0102 0.0039, -0.0266 -0.0212 0.0039, -0.0266 0.0181 0.0039, -0.0377 0.0181 0.0039, -0.0433 0.0175 0.0039, -0.048 0.0159 0.0039, -0.0522 0.013 0.0039, -0.058 0.0027 0.0039, -0.0582 -0.001 0.0039, -0.0577 -0.0063 0.0039, -0.3958 -0.3736 0.0039, -0.4019 -0.3543 0.0039, -0.1673 -0.3543 0.0039, -0.4429 -0.1378 0.0039, -0.4429 -0.3085 0.0039, -0.4585 -0.3012 0.0039, 0.0141 -0.0209 0.0039, -0.3937 -0.3937 0.0039, -0.2067 -0.1378 0.0039, -0.1673 -0.1772 0.0039, 0.4921 -0.3642 0.063, 0.4921 -0.3642 0.1614, 0.4856 -0.3649 0.063, 0.4856 -0.3649 0.1614, 0.4793 -0.3671 0.063, 0.4793 -0.3671 0.1614, 0.4737 -0.3706 0.063, 0.4737 -0.3706 0.1614, 0.469 -0.3753 0.063, 0.469 -0.3753 0.1614, 0.4655 -0.3809 0.063, 0.4655 -0.3809 0.1614, 0.4633 -0.3871 0.063, 0.4633 -0.3871 0.1614, 0.4626 -0.3937 0.063, 0.4626 -0.3937 0.1614
            ]
        }
        coordIndex [
            0,1,2,-1,3,4,5,-1,5,4,6,-1,5,6,7,-1,8,9,10,-1,10,9,11,-1,12,13,14,-1,14,13,15,-1,8,14,9,-1,9,14,15,-1,9,15,16,-1,16,15,17,-1,16,17,5,-1,5,17,18,-1,5,18,3,-1,19,20,18,-1,21,22,23,-1,24,25,26,-1,26,25,27,-1,28,29,30,-1,30,29,31,-1,30,31,32,-1,27,21,28,-1,28,21,23,-1,28,23,33,-1,33,23,34,-1,33,34,25,-1,35,36,37,-1,38,39,40,-1,40,39,23,-1,40,23,41,-1,41,23,22,-1,41,22,42,-1,42,22,43,-1,44,45,46,-1,44,46,30,-1,47,48,49,-1,49,48,50,-1,49,50,51,-1,52,53,49,-1,49,53,54,-1,55,56,57,-1,57,56,58,-1,54,59,49,-1,49,59,58,-1,49,58,60,-1,60,58,56,-1,51,61,49,-1,49,61,62,-1,49,62,52,-1,63,44,64,-1,64,44,35,-1,63,65,44,-1,44,65,66,-1,44,66,45,-1,37,19,35,-1,35,19,18,-1,35,18,64,-1,64,18,17,-1,64,17,67,-1,67,17,68,-1,67,68,69,-1,69,70,67,-1,67,70,71,-1,67,71,72,-1,72,71,73,-1,72,73,74,-1,46,75,30,-1,30,75,76,-1,30,76,28,-1,28,76,77,-1,77,78,28,-1,28,78,79,-1,28,79,27,-1,27,79,80,-1,27,80,26,-1,26,80,81,-1,26,81,49,-1,49,81,82,-1,49,82,47,-1,73,83,74,-1,74,83,84,-1,74,84,65,-1,65,84,85,-1,65,85,66,-1,86,87,88,-1,89,90,33,-1,91,92,93,-1,94,95,90,-1,90,95,96,-1,90,96,97,-1,2,98,88,-1,88,98,99,-1,88,99,86,-1,92,91,100,-1,101,102,100,-1,100,102,103,-1,104,28,105,-1,105,28,106,-1,105,106,107,-1,97,108,90,-1,90,108,109,-1,90,109,33,-1,88,91,2,-1,2,91,93,-1,2,93,33,-1,33,93,110,-1,33,110,89,-1,89,110,111,-1,89,111,112,-1,109,113,33,-1,33,113,114,-1,33,114,28,-1,28,114,115,-1,28,115,106,-1,106,115,116,-1,106,116,91,-1,91,116,117,-1,91,117,100,-1,100,117,118,-1,100,118,101,-1,103,119,100,-1,100,119,120,-1,100,120,90,-1,90,120,121,-1,90,121,94,-1,122,123,124,-1,125,126,127,-1,24,128,25,-1,25,128,12,-1,25,12,33,-1,33,12,14,-1,33,14,124,-1,124,14,129,-1,124,129,122,-1,127,0,125,-1,125,0,2,-1,125,2,130,-1,130,2,33,-1,130,33,131,-1,131,33,124,-1,132,133,134,-1,134,133,135,-1,134,135,136,-1,136,135,137,-1,136,137,138,-1,138,137,139,-1,138,139,140,-1,140,139,141,-1,140,141,142,-1,142,141,143,-1,142,143,144,-1,144,143,145,-1,144,145,146,-1,146,145,147,-1,
        ]
    }
}
Shape{
    appearance Appearance {
        material  Material 	{
            diffuseColor 1.0 1.0 0.0
            specularColor 0.5019607843137255 0.5019607843137255 0.0
            ambientIntensity 0.886
            transparency 0.0
            shininess 0.5
        }
    }
    geometry IndexedFaceSet {
        ccw TRUE
        solid FALSE
        coord DEF co Coordinate {
            point [
                0.4429 -0.1378 0.0, 0.4429 -0.1378 0.0039, 0.4429 -0.3085 0.0, 0.4429 -0.3085 0.0039, 0.1673 -0.3543 0.0039, 0.1673 -0.3543 0.0, 0.4019 -0.3543 0.0039, 0.4019 -0.3543 0.0
            ]
        }
        coordIndex [
            0,1,2,-1,2,1,3,-1,4,5,6,-1,6,5,7,-1,
        ]
    }
}
Shape{
    appearance Appearance {
        material  Material 	{
            diffuseColor 0.25098039215686274 0.25098039215686274 0.25098039215686274
            specularColor 0.12549019607843137 0.12549019607843137 0.12549019607843137
            ambientIntensity 0.251
            transparency 0.0
            shininess 0.5
        }
    }
    geometry IndexedFaceSet {
        ccw TRUE
        solid FALSE
        coord DEF co Coordinate {
            point [
                0.4626 0.3937 0.063, 0.4626 0.3937 0.1614, 0.4633 0.3871 0.063, 0.4633 0.3871 0.1614, 0.4655 0.3809 0.063, 0.4655 0.3809 0.1614, 0.469 0.3753 0.063, 0.469 0.3753 0.1614, 0.4737 0.3706 0.063, 0.4737 0.3706 0.1614, 0.4793 0.3671 0.063, 0.4793 0.3671 0.1614, 0.4856 0.3649 0.063, 0.4856 0.3649 0.1614, 0.4921 0.3642 0.063, 0.4921 0.3642 0.1614, -0.4921 0.3642 0.063, -0.4921 0.3642 0.1614, -0.4856 0.3649 0.063, -0.4856 0.3649 0.1614, -0.4793 0.3671 0.063, -0.4793 0.3671 0.1614, -0.4737 0.3706 0.063, -0.4737 0.3706 0.1614, -0.469 0.3753 0.063, -0.469 0.3753 0.1614, -0.4655 0.3809 0.063, -0.4655 0.3809 0.1614, -0.4633 0.3871 0.063, -0.4633 0.3871 0.1614, -0.4626 0.3937 0.063, -0.4626 0.3937 0.1614
            ]
        }
        coordIndex [
            0,1,2,-1,2,1,3,-1,2,3,4,-1,4,3,5,-1,4,5,6,-1,6,5,7,-1,6,7,8,-1,8,7,9,-1,8,9,10,-1,10,9,11,-1,10,11,12,-1,12,11,13,-1,12,13,14,-1,14,13,15,-1,16,17,18,-1,18,17,19,-1,18,19,20,-1,20,19,21,-1,20,21,22,-1,22,21,23,-1,22,23,24,-1,24,23,25,-1,24,25,26,-1,26,25,27,-1,26,27,28,-1,28,27,29,-1,28,29,30,-1,30,29,31,-1,
        ]
    }
}
Shape{
    appearance Appearance {
        material  Material 	{
            diffuseColor 1.0 1.0 0.0
            specularColor 0.5019607843137255 0.5019607843137255 0.0
            ambientIntensity 0.886
            transparency 0.0
            shininess 0.5
        }
    }
    geometry IndexedFaceSet {
        ccw TRUE
        solid FALSE
        coord DEF co Coordinate {
            point [
                -0.4429 0.1378 0.0, -0.4429 0.1378 0.0039, -0.4429 0.3085 0.0, -0.4429 0.3085 0.0039, -0.1673 0.3543 0.0039, -0.1673 0.3543 0.0, -0.4019 0.3543 0.0039, -0.4019 0.3543 0.0
            ]
        }
        coordIndex [
            0,1,2,-1,2,1,3,-1,4,5,6,-1,6,5,7,-1,
        ]
    }
}
Shape{
    appearance Appearance {
        material  Material 	{
            diffuseColor 0.25098039215686274 0.25098039215686274 0.25098039215686274
            specularColor 0.12549019607843137 0.12549019607843137 0.12549019607843137
            ambientIntensity 0.251
            transparency 0.0
            shininess 0.5
        }
    }
    geometry IndexedFaceSet {
        ccw TRUE
        solid FALSE
        coord DEF co Coordinate {
            point [
                -0.4626 -0.3937 0.063, -0.4626 -0.3937 0.1614, -0.4636 -0.3861 0.063, -0.4636 -0.3861 0.1614, -0.4666 -0.3789 0.063, -0.4666 -0.3789 0.1614, -0.4712 -0.3728 0.063, -0.4712 -0.3728 0.1614, -0.4774 -0.3681 0.063, -0.4774 -0.3681 0.1614, -0.4845 -0.3652 0.063, -0.4845 -0.3652 0.1614, -0.4921 -0.3642 0.063, -0.4921 -0.3642 0.1614, 0.4921 -0.3681 0.0, 0.4921 -0.2953 0.0, 0.4921 -0.2953 0.0039, 0.4921 -0.0215 0.0039, 0.4921 0.2953 0.0039, 0.4921 0.3642 0.063, 0.4921 0.2953 0.0, 0.4921 0.3681 0.0, 0.4921 0.3681 0.063, 0.4921 -0.3681 0.063, 0.4921 -0.3642 0.063, 0.4921 -0.3642 0.1614, 0.4921 0.3642 0.1614, 0.4665 0.3937 0.0, 0.3937 0.3937 0.0, 0.3937 0.3937 0.0039, -0.0227 0.3937 0.0039, -0.3937 0.3937 0.0039, -0.4626 0.3937 0.063, -0.3937 0.3937 0.0, -0.4665 0.3937 0.0, -0.4665 0.3937 0.063, 0.4665 0.3937 0.063, 0.4626 0.3937 0.063, 0.4626 0.3937 0.1614, -0.4626 0.3937 0.1614, -0.4921 0.3681 0.0, -0.4921 0.2953 0.0, -0.4921 0.2953 0.0039, -0.4921 -0.0215 0.0039, -0.4921 -0.2953 0.0039, -0.4921 -0.2953 0.0, -0.4921 -0.3681 0.0, -0.4921 -0.3681 0.063, -0.4921 0.3681 0.063, -0.4921 0.3642 0.063, -0.4921 0.3642 0.1614, -0.4665 -0.3937 0.063, -0.4665 -0.3937 0.0, -0.0227 -0.3937 0.0039, 0.3937 -0.3937 0.0039, 0.4626 -0.3937 0.063, 0.3937 -0.3937 0.0, 0.4665 -0.3937 0.0, 0.4665 -0.3937 0.063, -0.3937 -0.3937 0.0, -0.3937 -0.3937 0.0039, 0.4626 -0.3937 0.1614, 0.4607 0.3623 0.1614, 0.469 0.3521 0.1614, 0.4793 0.3671 0.1614, 0.4856 0.3649 0.1614, -0.4607 0.3623 0.1614, -0.4506 0.3706 0.1614, -0.4655 0.3809 0.1614, 0.4633 -0.3871 0.1614, 0.4655 -0.3809 0.1614, 0.4506 -0.3706 0.1614, 0.4607 -0.3623 0.1614, -0.4633 0.3871 0.1614, -0.4803 -0.315 0.1614, -0.4803 0.315 0.1614, -0.479 0.328 0.1614, -0.4856 0.3649 0.1614, -0.4752 0.3406 0.1614, -0.4793 0.3671 0.1614, -0.469 0.3521 0.1614, -0.4737 0.3706 0.1614, -0.469 0.3753 0.1614, -0.4264 -0.3806 0.1614, -0.439 -0.3768 0.1614, -0.4506 -0.3706 0.1614, -0.4607 -0.3623 0.1614, -0.469 -0.3521 0.1614, -0.4752 -0.3406 0.1614, -0.479 -0.328 0.1614, 0.4752 0.3406 0.1614, 0.479 0.328 0.1614, 0.4803 0.315 0.1614, -0.439 0.3768 0.1614, -0.4264 0.3806 0.1614, -0.4134 0.3819 0.1614, 0.4134 0.3819 0.1614, 0.4264 0.3806 0.1614, 0.4633 0.3871 0.1614, 0.439 0.3768 0.1614, 0.4655 0.3809 0.1614, 0.4506 0.3706 0.1614, 0.469 0.3753 0.1614, 0.4737 0.3706 0.1614, 0.439 -0.3768 0.1614, 0.4264 -0.3806 0.1614, 0.4134 -0.3819 0.1614, -0.4134 -0.3819 0.1614, 0.469 -0.3753 0.1614, 0.4737 -0.3706 0.1614, 0.469 -0.3521 0.1614, 0.4793 -0.3671 0.1614, 0.4752 -0.3406 0.1614, 0.4856 -0.3649 0.1614, 0.479 -0.328 0.1614, 0.4803 -0.315 0.1614
            ]
        }
        coordIndex [
            0,1,2,-1,2,1,3,-1,2,3,4,-1,4,3,5,-1,4,5,6,-1,6,5,7,-1,6,7,8,-1,8,7,9,-1,8,9,10,-1,10,9,11,-1,10,11,12,-1,12,11,13,-1,14,15,16,-1,17,18,19,-1,18,20,19,-1,19,20,21,-1,19,21,22,-1,23,14,24,-1,24,14,16,-1,24,16,25,-1,25,16,17,-1,25,17,26,-1,26,17,19,-1,27,28,29,-1,30,31,32,-1,31,33,32,-1,32,33,34,-1,32,34,35,-1,36,27,37,-1,37,27,29,-1,37,29,38,-1,38,29,30,-1,38,30,39,-1,39,30,32,-1,40,41,42,-1,43,44,12,-1,44,45,12,-1,12,45,46,-1,12,46,47,-1,48,40,49,-1,49,40,42,-1,49,42,50,-1,50,42,43,-1,50,43,13,-1,13,43,12,-1,0,51,52,-1,53,54,55,-1,54,56,55,-1,55,56,57,-1,55,57,58,-1,52,59,0,-1,0,59,60,-1,0,60,1,-1,1,60,53,-1,1,53,61,-1,61,53,55,-1,62,63,64,-1,64,63,65,-1,66,67,68,-1,69,70,71,-1,71,70,72,-1,68,67,73,-1,50,13,74,-1,74,75,50,-1,50,75,76,-1,50,76,77,-1,77,76,78,-1,77,78,79,-1,79,78,80,-1,79,80,81,-1,81,80,66,-1,81,66,82,-1,82,66,68,-1,1,83,3,-1,3,83,84,-1,3,84,5,-1,5,84,85,-1,5,85,7,-1,7,85,86,-1,7,86,9,-1,9,86,87,-1,9,87,11,-1,11,87,88,-1,11,88,13,-1,13,88,89,-1,13,89,74,-1,63,90,65,-1,65,90,91,-1,65,91,26,-1,26,91,92,-1,26,92,25,-1,67,93,73,-1,73,93,94,-1,73,94,39,-1,39,94,95,-1,39,95,38,-1,95,96,38,-1,38,96,97,-1,38,97,98,-1,98,97,99,-1,98,99,100,-1,100,99,101,-1,100,101,102,-1,102,101,62,-1,102,62,103,-1,103,62,64,-1,71,104,69,-1,69,104,105,-1,69,105,61,-1,61,105,106,-1,61,106,1,-1,1,106,107,-1,1,107,83,-1,70,108,72,-1,72,108,109,-1,72,109,110,-1,110,109,111,-1,110,111,112,-1,112,111,113,-1,112,113,114,-1,114,113,25,-1,114,25,115,-1,115,25,92,-1,
        ]
    }
}
Shape{
    appearance Appearance {
        material  Material 	{
            diffuseColor 1.0 1.0 0.0
            specularColor 0.5019607843137255 0.5019607843137255 0.0
            ambientIntensity 0.886
            transparency 0.0
            shininess 0.5
        }
    }
    geometry IndexedFaceSet {
        ccw TRUE
        solid FALSE
        coord DEF co Coordinate {
            point [
                -0.4134 -0.374 0.1929, -0.4134 -0.374 0.1693, 0.4134 -0.374 0.1929, 0.4134 -0.374 0.1693, 0.4724 -0.315 0.1929, 0.4724 -0.315 0.1693, 0.4724 0.315 0.1929, 0.4724 0.315 0.1693, 0.4134 0.374 0.1929, 0.4134 0.374 0.1693, -0.4134 0.374 0.1929, -0.4134 0.374 0.1693, -0.4724 0.315 0.1929, -0.4724 0.315 0.1693, -0.4724 -0.315 0.1929, -0.4724 -0.315 0.1693, 0.4331 -0.3491 0.2008, 0.4453 -0.355 0.2008, 0.4412 -0.3428 0.2008, 0.4534 -0.3469 0.2008, 0.4475 -0.3346 0.2008, 0.4595 -0.3372 0.2008, 0.4514 -0.3252 0.2008, 0.4633 -0.3263 0.2008, 0.4528 -0.315 0.2008, 0.4646 -0.315 0.2008, 0.4528 0.315 0.2008, 0.4646 0.315 0.2008, 0.4514 0.3252 0.2008, 0.4633 0.3263 0.2008, 0.4475 0.3346 0.2008, 0.4595 0.3372 0.2008, 0.4412 0.3428 0.2008, -0.4412 -0.3428 0.2008, -0.4453 -0.355 0.2008, -0.4331 -0.3491 0.2008, -0.4356 -0.3611 0.2008, -0.4236 -0.353 0.2008, -0.4248 -0.3649 0.2008, -0.4134 -0.3543 0.2008, -0.4134 -0.3661 0.2008, 0.4134 -0.3543 0.2008, 0.4134 -0.3661 0.2008, 0.4236 -0.353 0.2008, 0.4248 -0.3649 0.2008, 0.4356 -0.3611 0.2008, 0.4534 0.3469 0.2008, 0.4453 0.355 0.2008, 0.4331 0.3491 0.2008, 0.4356 0.3611 0.2008, 0.4236 0.353 0.2008, 0.4248 0.3649 0.2008, 0.4134 0.3543 0.2008, 0.4134 0.3661 0.2008, -0.4134 0.3543 0.2008, -0.4134 0.3661 0.2008, -0.4236 0.353 0.2008, -0.4248 0.3649 0.2008, -0.4331 0.3491 0.2008, -0.4356 0.3611 0.2008, -0.4412 0.3428 0.2008, -0.4453 0.355 0.2008, -0.4534 0.3469 0.2008, -0.4475 0.3346 0.2008, -0.4595 0.3372 0.2008, -0.4514 0.3252 0.2008, -0.4633 0.3263 0.2008, -0.4528 0.315 0.2008, -0.4646 0.315 0.2008, -0.4528 -0.315 0.2008, -0.4646 -0.315 0.2008, -0.4514 -0.3252 0.2008, -0.4633 -0.3263 0.2008, -0.4475 -0.3346 0.2008, -0.4595 -0.3372 0.2008, -0.4534 -0.3469 0.2008, -0.4265 0.3725 0.1929, -0.4249 0.3729 0.1693, -0.4286 0.3718 0.1929, -0.4286 0.3718 0.1693, -0.439 0.3682 0.1929, -0.436 0.3695 0.1693, -0.4427 0.3658 0.1929, -0.4428 0.3659 0.1693, -0.4502 0.3611 0.1929, -0.4462 0.3641 0.1693, -0.4549 0.3565 0.1929, -0.4551 0.3567 0.1693, -0.4596 0.3518 0.1929, -0.4625 0.3478 0.1693, -0.4642 0.3443 0.1929, -0.4643 0.3444 0.1693, -0.4666 0.3406 0.1929, -0.4679 0.3376 0.1693, -0.4702 0.3302 0.1929, -0.4702 0.3302 0.1693, -0.471 0.3281 0.1929, -0.4713 0.3265 0.1693, 0.471 0.3281 0.1929, 0.4713 0.3265 0.1693, 0.4702 0.3302 0.1929, 0.4702 0.3302 0.1693, 0.4666 0.3406 0.1929, 0.4679 0.3376 0.1693, 0.4642 0.3443 0.1929, 0.4643 0.3444 0.1693, 0.4596 0.3518 0.1929, 0.4625 0.3478 0.1693, 0.4549 0.3565 0.1929, 0.4551 0.3567 0.1693, 0.4502 0.3611 0.1929, 0.4462 0.3641 0.1693, 0.4427 0.3658 0.1929, 0.4428 0.3659 0.1693, 0.439 0.3682 0.1929, 0.436 0.3695 0.1693, 0.4286 0.3718 0.1929, 0.4286 0.3718 0.1693, 0.4265 0.3725 0.1929, 0.4249 0.3729 0.1693, 0.4265 -0.3725 0.1929, 0.4249 -0.3729 0.1693, 0.4286 -0.3718 0.1929, 0.4286 -0.3718 0.1693, 0.439 -0.3682 0.1929, 0.436 -0.3695 0.1693, 0.4427 -0.3658 0.1929, 0.4428 -0.3659 0.1693, 0.4502 -0.3611 0.1929, 0.4462 -0.3641 0.1693, 0.4549 -0.3565 0.1929, 0.4551 -0.3567 0.1693, 0.4596 -0.3518 0.1929, 0.4625 -0.3478 0.1693, 0.4642 -0.3443 0.1929, 0.4643 -0.3444 0.1693, 0.4666 -0.3406 0.1929, 0.4679 -0.3376 0.1693, 0.4702 -0.3302 0.1929, 0.4702 -0.3302 0.1693, 0.471 -0.3281 0.1929, 0.4713 -0.3265 0.1693, -0.471 -0.3281 0.1929, -0.4713 -0.3265 0.1693, -0.4702 -0.3302 0.1929, -0.4702 -0.3302 0.1693, -0.4666 -0.3406 0.1929, -0.4679 -0.3376 0.1693, -0.4642 -0.3443 0.1929, -0.4643 -0.3444 0.1693, -0.4596 -0.3518 0.1929, -0.4625 -0.3478 0.1693, -0.4549 -0.3565 0.1929, -0.4551 -0.3567 0.1693, -0.4502 -0.3611 0.1929, -0.4462 -0.3641 0.1693, -0.4427 -0.3658 0.1929, -0.4428 -0.3659 0.1693, -0.439 -0.3682 0.1929, -0.436 -0.3695 0.1693, -0.4286 -0.3718 0.1929, -0.4286 -0.3718 0.1693, -0.4265 -0.3725 0.1929, -0.4249 -0.3729 0.1693
            ]
        }
        coordIndex [
            0,1,2,-1,2,1,3,-1,4,5,6,-1,6,5,7,-1,8,9,10,-1,10,9,11,-1,12,13,14,-1,14,13,15,-1,16,17,18,-1,18,17,19,-1,18,19,20,-1,20,19,21,-1,20,21,22,-1,22,21,23,-1,22,23,24,-1,24,23,25,-1,24,25,26,-1,26,25,27,-1,26,27,28,-1,28,27,29,-1,28,29,30,-1,30,29,31,-1,30,31,32,-1,33,34,35,-1,35,34,36,-1,35,36,37,-1,37,36,38,-1,37,38,39,-1,39,38,40,-1,39,40,41,-1,41,40,42,-1,41,42,43,-1,43,42,44,-1,43,44,16,-1,16,44,45,-1,16,45,17,-1,31,46,32,-1,32,46,47,-1,32,47,48,-1,48,47,49,-1,48,49,50,-1,50,49,51,-1,50,51,52,-1,52,51,53,-1,52,53,54,-1,54,53,55,-1,54,55,56,-1,56,55,57,-1,56,57,58,-1,58,57,59,-1,58,59,60,-1,59,61,60,-1,60,61,62,-1,60,62,63,-1,63,62,64,-1,63,64,65,-1,65,64,66,-1,65,66,67,-1,67,66,68,-1,67,68,69,-1,69,68,70,-1,69,70,71,-1,71,70,72,-1,71,72,73,-1,73,72,74,-1,73,74,33,-1,33,74,75,-1,33,75,34,-1,10,11,76,-1,76,11,77,-1,76,77,78,-1,78,77,79,-1,78,79,80,-1,80,79,81,-1,80,81,82,-1,82,81,83,-1,82,83,84,-1,84,83,85,-1,84,85,86,-1,86,85,87,-1,86,87,88,-1,88,87,89,-1,88,89,90,-1,90,89,91,-1,90,91,92,-1,92,91,93,-1,92,93,94,-1,94,93,95,-1,94,95,96,-1,96,95,97,-1,96,97,12,-1,12,97,13,-1,6,7,98,-1,98,7,99,-1,98,99,100,-1,100,99,101,-1,100,101,102,-1,102,101,103,-1,102,103,104,-1,104,103,105,-1,104,105,106,-1,106,105,107,-1,106,107,108,-1,108,107,109,-1,108,109,110,-1,110,109,111,-1,110,111,112,-1,112,111,113,-1,112,113,114,-1,114,113,115,-1,114,115,116,-1,116,115,117,-1,116,117,118,-1,118,117,119,-1,118,119,8,-1,8,119,9,-1,2,3,120,-1,120,3,121,-1,120,121,122,-1,122,121,123,-1,122,123,124,-1,124,123,125,-1,124,125,126,-1,126,125,127,-1,126,127,128,-1,128,127,129,-1,128,129,130,-1,130,129,131,-1,130,131,132,-1,132,131,133,-1,132,133,134,-1,134,133,135,-1,134,135,136,-1,136,135,137,-1,136,137,138,-1,138,137,139,-1,138,139,140,-1,140,139,141,-1,140,141,4,-1,4,141,5,-1,14,15,142,-1,142,15,143,-1,142,143,144,-1,144,143,145,-1,144,145,146,-1,146,145,147,-1,146,147,148,-1,148,147,149,-1,148,149,150,-1,150,149,151,-1,150,151,152,-1,152,151,153,-1,152,153,154,-1,154,153,155,-1,154,155,156,-1,156,155,157,-1,156,157,158,-1,158,157,159,-1,158,159,160,-1,160,159,161,-1,160,161,162,-1,162,161,163,-1,162,163,0,-1,0,163,1,-1,
        ]
    }
}
Shape{
    appearance Appearance {
        material  Material 	{
            diffuseColor 0.7529411764705882 0.7529411764705882 0.7529411764705882
            specularColor 0.3764705882352941 0.3764705882352941 0.3764705882352941
            ambientIntensity 0.7529
            transparency 0.0
            shininess 0.5
        }
    }
    geometry IndexedFaceSet {
        ccw TRUE
        solid FALSE
        coord DEF co Coordinate {
            point [
                0.4528 0.315 0.2323, 0.4528 0.315 0.2008, 0.4514 0.3252 0.2008, 0.4514 0.3252 0.2323, 0.4475 0.3346 0.2008, 0.4475 0.3346 0.2323, 0.4412 0.3428 0.2008, 0.4412 0.3428 0.2323, 0.4331 0.3491 0.2008, 0.4331 0.3491 0.2323, 0.4236 0.353 0.2008, 0.4236 0.353 0.2323, 0.4134 0.3543 0.2008, 0.4134 0.3543 0.2323, -0.4134 0.3543 0.2323, -0.4134 0.3543 0.2008, -0.4236 0.353 0.2008, -0.4236 0.353 0.2323, -0.4331 0.3491 0.2008, -0.4331 0.3491 0.2323, -0.4412 0.3428 0.2008, -0.4412 0.3428 0.2323, -0.4475 0.3346 0.2008, -0.4475 0.3346 0.2323, -0.4514 0.3252 0.2008, -0.4514 0.3252 0.2323, -0.4528 0.315 0.2008, -0.4528 0.315 0.2323, -0.4528 -0.315 0.2323, -0.4528 -0.315 0.2008, -0.4514 -0.3252 0.2008, -0.4514 -0.3252 0.2323, -0.4475 -0.3346 0.2008, -0.4475 -0.3346 0.2323, -0.4412 -0.3428 0.2008, -0.4412 -0.3428 0.2323, -0.4331 -0.3491 0.2008, -0.4331 -0.3491 0.2323, -0.4236 -0.353 0.2008, -0.4236 -0.353 0.2323, -0.4134 -0.3543 0.2008, -0.4134 -0.3543 0.2323, 0.4134 -0.3543 0.2323, 0.4134 -0.3543 0.2008, 0.4236 -0.353 0.2008, 0.4236 -0.353 0.2323, 0.4331 -0.3491 0.2008, 0.4331 -0.3491 0.2323, 0.4412 -0.3428 0.2008, 0.4412 -0.3428 0.2323, 0.4475 -0.3346 0.2008, 0.4475 -0.3346 0.2323, 0.4514 -0.3252 0.2008, 0.4514 -0.3252 0.2323, 0.4528 -0.315 0.2008, 0.4528 -0.315 0.2323, -0.3702 -0.241 0.2402, -0.3604 -0.2423 0.2402, -0.4134 0.3465 0.2402, 0.4134 0.3465 0.2402, 0.4438 -0.3231 0.2402, 0.4449 -0.315 0.2402, 0.4134 -0.3465 0.2402, -0.4438 -0.3231 0.2402, -0.4029 -0.2976 0.2402, -0.4449 -0.315 0.2402, -0.4066 -0.2885 0.2402, -0.4029 -0.2599 0.2402, -0.4449 0.315 0.2402, -0.4066 -0.269 0.2402, -0.4079 -0.2787 0.2402, -0.3338 -0.269 0.2402, -0.3375 -0.2599 0.2402, 0.4449 0.315 0.2402, 0.4438 0.3231 0.2402, -0.3513 -0.2461 0.2402, -0.3435 -0.252 0.2402, 0.4215 0.3454 0.2402, 0.4291 0.3422 0.2402, -0.3325 -0.2787 0.2402, -0.3338 -0.2885 0.2402, -0.3375 -0.2976 0.2402, -0.3435 -0.3054 0.2402, -0.3969 -0.252 0.2402, -0.3891 -0.2461 0.2402, -0.38 -0.2423 0.2402, 0.4407 0.3307 0.2402, 0.4357 0.3372 0.2402, 0.4215 -0.3454 0.2402, 0.4291 -0.3422 0.2402, 0.4407 -0.3307 0.2402, 0.4357 -0.3372 0.2402, -0.3702 -0.3164 0.2402, -0.4134 -0.3465 0.2402, -0.3604 -0.3152 0.2402, -0.3513 -0.3114 0.2402, -0.38 -0.3152 0.2402, -0.3891 -0.3114 0.2402, -0.4215 -0.3454 0.2402, -0.3969 -0.3054 0.2402, -0.4407 -0.3307 0.2402, -0.4357 -0.3372 0.2402, -0.4291 -0.3422 0.2402, -0.4438 0.3231 0.2402, -0.4215 0.3454 0.2402, -0.4291 0.3422 0.2402, -0.4357 0.3372 0.2402, -0.4407 0.3307 0.2402, -0.4469 0.315 0.2399, -0.4458 0.3236 0.2399, -0.4488 0.315 0.2391, -0.4476 0.3241 0.2391, -0.4504 0.315 0.2379, -0.4492 0.3246 0.2379, -0.4517 0.315 0.2362, -0.4504 0.3249 0.2362, -0.4525 0.315 0.2343, -0.4512 0.3251 0.2343, -0.4424 0.3317 0.2399, -0.4441 0.3327 0.2391, -0.4455 0.3335 0.2379, -0.4466 0.3341 0.2362, -0.4472 0.3345 0.2343, -0.4371 0.3387 0.2399, -0.4384 0.34 0.2391, -0.4396 0.3412 0.2379, -0.4405 0.3421 0.2362, -0.441 0.3426 0.2343, -0.4302 0.344 0.2399, -0.4311 0.3456 0.2391, -0.4319 0.3471 0.2379, -0.4325 0.3481 0.2362, -0.4329 0.3488 0.2343, -0.4221 0.3474 0.2399, -0.4226 0.3492 0.2391, -0.423 0.3508 0.2379, -0.4233 0.352 0.2362, -0.4235 0.3527 0.2343, -0.4134 0.3485 0.2399, -0.4134 0.3504 0.2391, -0.4134 0.352 0.2379, -0.4134 0.3533 0.2362, -0.4134 0.3541 0.2343, -0.4469 -0.315 0.2399, -0.4488 -0.315 0.2391, -0.4504 -0.315 0.2379, -0.4517 -0.315 0.2362, -0.4525 -0.315 0.2343, 0.4134 0.3485 0.2399, 0.4134 0.3504 0.2391, 0.4134 0.352 0.2379, 0.4134 0.3533 0.2362, 0.4134 0.3541 0.2343, -0.4134 -0.3485 0.2399, -0.4221 -0.3474 0.2399, -0.4134 -0.3504 0.2391, -0.4226 -0.3492 0.2391, -0.4134 -0.352 0.2379, -0.423 -0.3508 0.2379, -0.4134 -0.3533 0.2362, -0.4233 -0.352 0.2362, -0.4134 -0.3541 0.2343, -0.4235 -0.3527 0.2343, -0.4302 -0.344 0.2399, -0.4311 -0.3456 0.2391, -0.4319 -0.3471 0.2379, -0.4325 -0.3481 0.2362, -0.4329 -0.3488 0.2343, -0.4371 -0.3387 0.2399, -0.4384 -0.34 0.2391, -0.4396 -0.3412 0.2379, -0.4405 -0.3421 0.2362, -0.441 -0.3426 0.2343, -0.4424 -0.3317 0.2399, -0.4441 -0.3327 0.2391, -0.4455 -0.3335 0.2379, -0.4466 -0.3341 0.2362, -0.4472 -0.3345 0.2343, -0.4458 -0.3236 0.2399, -0.4476 -0.3241 0.2391, -0.4492 -0.3246 0.2379, -0.4504 -0.3249 0.2362, -0.4512 -0.3251 0.2343, 0.4221 0.3474 0.2399, 0.4226 0.3492 0.2391, 0.423 0.3508 0.2379, 0.4233 0.352 0.2362, 0.4235 0.3527 0.2343, 0.4302 0.344 0.2399, 0.4311 0.3456 0.2391, 0.4319 0.3471 0.2379, 0.4325 0.3481 0.2362, 0.4329 0.3488 0.2343, 0.4371 0.3387 0.2399, 0.4384 0.34 0.2391, 0.4396 0.3412 0.2379, 0.4405 0.3421 0.2362, 0.441 0.3426 0.2343, 0.4424 0.3317 0.2399, 0.4441 0.3327 0.2391, 0.4455 0.3335 0.2379, 0.4466 0.3341 0.2362, 0.4472 0.3345 0.2343, 0.4458 0.3236 0.2399, 0.4476 0.3241 0.2391, 0.4492 0.3246 0.2379, 0.4504 0.3249 0.2362, 0.4512 0.3251 0.2343, 0.4469 0.315 0.2399, 0.4488 0.315 0.2391, 0.4504 0.315 0.2379, 0.4517 0.315 0.2362, 0.4525 0.315 0.2343, 0.4134 -0.3485 0.2399, 0.4134 -0.3504 0.2391, 0.4134 -0.352 0.2379, 0.4134 -0.3533 0.2362, 0.4134 -0.3541 0.2343, 0.4469 -0.315 0.2399, 0.4488 -0.315 0.2391, 0.4504 -0.315 0.2379, 0.4517 -0.315 0.2362, 0.4525 -0.315 0.2343, 0.4458 -0.3236 0.2399, 0.4476 -0.3241 0.2391, 0.4492 -0.3246 0.2379, 0.4504 -0.3249 0.2362, 0.4512 -0.3251 0.2343, 0.4424 -0.3317 0.2399, 0.4441 -0.3327 0.2391, 0.4455 -0.3335 0.2379, 0.4466 -0.3341 0.2362, 0.4472 -0.3345 0.2343, 0.4371 -0.3387 0.2399, 0.4384 -0.34 0.2391, 0.4396 -0.3412 0.2379, 0.4405 -0.3421 0.2362, 0.441 -0.3426 0.2343, 0.4302 -0.344 0.2399, 0.4311 -0.3456 0.2391, 0.4319 -0.3471 0.2379, 0.4325 -0.3481 0.2362, 0.4329 -0.3488 0.2343, 0.4221 -0.3474 0.2399, 0.4226 -0.3492 0.2391, 0.423 -0.3508 0.2379, 0.4233 -0.352 0.2362, 0.4235 -0.3527 0.2343
            ]
        }
        coordIndex [
            0,1,2,-1,0,2,3,-1,3,2,4,-1,3,4,5,-1,5,4,6,-1,5,6,7,-1,7,6,8,-1,7,8,9,-1,9,8,10,-1,9,10,11,-1,11,10,12,-1,11,12,13,-1,13,12,14,-1,14,12,15,-1,14,15,16,-1,14,16,17,-1,17,16,18,-1,17,18,19,-1,19,18,20,-1,19,20,21,-1,21,20,22,-1,21,22,23,-1,23,22,24,-1,23,24,25,-1,25,24,26,-1,25,26,27,-1,27,26,28,-1,28,26,29,-1,28,29,30,-1,28,30,31,-1,31,30,32,-1,31,32,33,-1,33,32,34,-1,33,34,35,-1,35,34,36,-1,35,36,37,-1,37,36,38,-1,37,38,39,-1,39,38,40,-1,39,40,41,-1,41,40,42,-1,42,40,43,-1,42,43,44,-1,42,44,45,-1,45,44,46,-1,45,46,47,-1,47,46,48,-1,47,48,49,-1,49,48,50,-1,49,50,51,-1,51,50,52,-1,51,52,53,-1,53,52,54,-1,53,54,55,-1,55,54,0,-1,0,54,1,-1,56,57,58,-1,58,57,59,-1,60,61,62,-1,63,64,65,-1,65,64,66,-1,67,68,69,-1,69,68,65,-1,69,65,70,-1,70,65,66,-1,71,61,72,-1,72,61,73,-1,72,73,74,-1,57,75,59,-1,59,75,76,-1,59,76,77,-1,77,76,72,-1,77,72,78,-1,71,79,61,-1,61,79,80,-1,61,80,62,-1,62,80,81,-1,62,81,82,-1,67,83,68,-1,68,83,84,-1,68,84,85,-1,74,86,72,-1,72,86,87,-1,72,87,78,-1,62,88,60,-1,60,88,89,-1,60,89,90,-1,90,89,91,-1,92,93,94,-1,94,93,62,-1,94,62,95,-1,95,62,82,-1,92,96,93,-1,93,96,97,-1,93,97,98,-1,98,97,99,-1,63,100,64,-1,64,100,101,-1,64,101,99,-1,99,101,102,-1,99,102,98,-1,85,56,68,-1,68,56,58,-1,68,58,103,-1,103,58,104,-1,104,105,103,-1,103,105,106,-1,103,106,107,-1,68,103,108,-1,108,103,109,-1,108,109,110,-1,110,109,111,-1,110,111,112,-1,112,111,113,-1,112,113,114,-1,114,113,115,-1,114,115,116,-1,116,115,117,-1,116,117,27,-1,27,117,25,-1,103,107,109,-1,109,107,118,-1,109,118,111,-1,111,118,119,-1,111,119,113,-1,113,119,120,-1,113,120,115,-1,115,120,121,-1,115,121,117,-1,117,121,122,-1,117,122,25,-1,25,122,23,-1,107,106,118,-1,118,106,123,-1,118,123,119,-1,119,123,124,-1,119,124,120,-1,120,124,125,-1,120,125,121,-1,121,125,126,-1,121,126,122,-1,122,126,127,-1,122,127,23,-1,23,127,21,-1,106,105,123,-1,123,105,128,-1,123,128,124,-1,124,128,129,-1,124,129,125,-1,125,129,130,-1,125,130,126,-1,126,130,131,-1,126,131,127,-1,127,131,132,-1,127,132,21,-1,21,132,19,-1,105,104,128,-1,128,104,133,-1,128,133,129,-1,129,133,134,-1,129,134,130,-1,130,134,135,-1,130,135,131,-1,131,135,136,-1,131,136,132,-1,132,136,137,-1,132,137,19,-1,19,137,17,-1,104,58,133,-1,133,58,138,-1,133,138,134,-1,134,138,139,-1,134,139,135,-1,135,139,140,-1,135,140,136,-1,136,140,141,-1,136,141,137,-1,137,141,142,-1,137,142,17,-1,17,142,14,-1,65,68,108,-1,65,108,143,-1,143,108,110,-1,143,110,144,-1,144,110,112,-1,144,112,145,-1,145,112,114,-1,145,114,146,-1,146,114,116,-1,146,116,147,-1,147,116,27,-1,147,27,28,-1,58,59,148,-1,58,148,138,-1,138,148,149,-1,138,149,139,-1,139,149,150,-1,139,150,140,-1,140,150,151,-1,140,151,141,-1,141,151,152,-1,141,152,142,-1,142,152,13,-1,142,13,14,-1,93,98,153,-1,153,98,154,-1,153,154,155,-1,155,154,156,-1,155,156,157,-1,157,156,158,-1,157,158,159,-1,159,158,160,-1,159,160,161,-1,161,160,162,-1,161,162,41,-1,41,162,39,-1,98,102,154,-1,154,102,163,-1,154,163,156,-1,156,163,164,-1,156,164,158,-1,158,164,165,-1,158,165,160,-1,160,165,166,-1,160,166,162,-1,162,166,167,-1,162,167,39,-1,39,167,37,-1,102,101,163,-1,163,101,168,-1,163,168,164,-1,164,168,169,-1,164,169,165,-1,165,169,170,-1,165,170,166,-1,166,170,171,-1,166,171,167,-1,167,171,172,-1,167,172,37,-1,37,172,35,-1,101,100,168,-1,168,100,173,-1,168,173,169,-1,169,173,174,-1,169,174,170,-1,170,174,175,-1,170,175,171,-1,171,175,176,-1,171,176,172,-1,172,176,177,-1,172,177,35,-1,35,177,33,-1,100,63,173,-1,173,63,178,-1,173,178,174,-1,174,178,179,-1,174,179,175,-1,175,179,180,-1,175,180,176,-1,176,180,181,-1,176,181,177,-1,177,181,182,-1,177,182,33,-1,33,182,31,-1,63,65,178,-1,178,65,143,-1,178,143,179,-1,179,143,144,-1,179,144,180,-1,180,144,145,-1,180,145,181,-1,181,145,146,-1,181,146,182,-1,182,146,147,-1,182,147,31,-1,31,147,28,-1,59,77,148,-1,148,77,183,-1,148,183,149,-1,149,183,184,-1,149,184,150,-1,150,184,185,-1,150,185,151,-1,151,185,186,-1,151,186,152,-1,152,186,187,-1,152,187,13,-1,13,187,11,-1,77,78,183,-1,183,78,188,-1,183,188,184,-1,184,188,189,-1,184,189,185,-1,185,189,190,-1,185,190,186,-1,186,190,191,-1,186,191,187,-1,187,191,192,-1,187,192,11,-1,11,192,9,-1,78,87,188,-1,188,87,193,-1,188,193,189,-1,189,193,194,-1,189,194,190,-1,190,194,195,-1,190,195,191,-1,191,195,196,-1,191,196,192,-1,192,196,197,-1,192,197,9,-1,9,197,7,-1,87,86,193,-1,193,86,198,-1,193,198,194,-1,194,198,199,-1,194,199,195,-1,195,199,200,-1,195,200,196,-1,196,200,201,-1,196,201,197,-1,197,201,202,-1,197,202,7,-1,7,202,5,-1,86,74,198,-1,198,74,203,-1,198,203,199,-1,199,203,204,-1,199,204,200,-1,200,204,205,-1,200,205,201,-1,201,205,206,-1,201,206,202,-1,202,206,207,-1,202,207,5,-1,5,207,3,-1,74,73,203,-1,203,73,208,-1,203,208,204,-1,204,208,209,-1,204,209,205,-1,205,209,210,-1,205,210,206,-1,206,210,211,-1,206,211,207,-1,207,211,212,-1,207,212,3,-1,3,212,0,-1,62,93,153,-1,62,153,213,-1,213,153,155,-1,213,155,214,-1,214,155,157,-1,214,157,215,-1,215,157,159,-1,215,159,216,-1,216,159,161,-1,216,161,217,-1,217,161,41,-1,217,41,42,-1,73,61,218,-1,73,218,208,-1,208,218,219,-1,208,219,209,-1,209,219,220,-1,209,220,210,-1,210,220,221,-1,210,221,211,-1,211,221,222,-1,211,222,212,-1,212,222,55,-1,212,55,0,-1,61,60,218,-1,218,60,223,-1,218,223,219,-1,219,223,224,-1,219,224,220,-1,220,224,225,-1,220,225,221,-1,221,225,226,-1,221,226,222,-1,222,226,227,-1,222,227,55,-1,55,227,53,-1,60,90,223,-1,223,90,228,-1,223,228,224,-1,224,228,229,-1,224,229,225,-1,225,229,230,-1,225,230,226,-1,226,230,231,-1,226,231,227,-1,227,231,232,-1,227,232,53,-1,53,232,51,-1,90,91,228,-1,228,91,233,-1,228,233,229,-1,229,233,234,-1,229,234,230,-1,230,234,235,-1,230,235,231,-1,231,235,236,-1,231,236,232,-1,232,236,237,-1,232,237,51,-1,51,237,49,-1,91,89,233,-1,233,89,238,-1,233,238,234,-1,234,238,239,-1,234,239,235,-1,235,239,240,-1,235,240,236,-1,236,240,241,-1,236,241,237,-1,237,241,242,-1,237,242,49,-1,49,242,47,-1,89,88,238,-1,238,88,243,-1,238,243,239,-1,239,243,244,-1,239,244,240,-1,240,244,245,-1,240,245,241,-1,241,245,246,-1,241,246,242,-1,242,246,247,-1,242,247,47,-1,47,247,45,-1,88,62,243,-1,243,62,213,-1,243,213,244,-1,244,213,214,-1,244,214,245,-1,245,214,215,-1,245,215,246,-1,246,215,216,-1,246,216,247,-1,247,216,217,-1,247,217,45,-1,45,217,42,-1,
        ]
    }
}
Shape{
    appearance Appearance {
        material  Material 	{
            diffuseColor 1.0 1.0 0.0
            specularColor 0.5019607843137255 0.5019607843137255 0.0
            ambientIntensity 0.886
            transparency 0.0
            shininess 0.5
        }
    }
    geometry IndexedFaceSet {
        ccw TRUE
        solid FALSE
        coord DEF co Coordinate {
            point [
                0.4702 0.3302 0.1929, 0.4666 0.3406 0.1929, 0.4664 0.3405 0.195, 0.4642 0.3443 0.1929, 0.4596 0.3518 0.1929, 0.4593 0.3516 0.195, 0.4248 0.3649 0.2008, 0.4356 0.3611 0.2008, 0.4252 0.3668 0.2005, 0.4365 0.3629 0.2005, 0.4257 0.3687 0.1997, 0.4373 0.3646 0.1997, 0.426 0.3703 0.1985, 0.438 0.3661 0.1985, 0.4263 0.3715 0.1969, 0.4386 0.3672 0.1969, 0.4265 0.3723 0.195, 0.4389 0.3679 0.195, 0.4134 0.3661 0.2008, 0.4134 0.3682 0.2005, 0.4134 0.3701 0.1997, 0.4134 0.3717 0.1985, 0.4134 0.373 0.1969, 0.4134 0.3737 0.195, 0.4134 0.374 0.1929, 0.4265 0.3725 0.1929, 0.4549 0.3565 0.1929, 0.4502 0.3611 0.1929, 0.45 0.3609 0.195, 0.4495 0.3603 0.1969, 0.4488 0.3593 0.1985, 0.4478 0.3581 0.1997, 0.4466 0.3566 0.2005, 0.4453 0.355 0.2008, 0.4427 0.3658 0.1929, 0.439 0.3682 0.1929, 0.4286 0.3718 0.1929, 0.4534 0.3469 0.2008, 0.455 0.3481 0.2005, 0.4565 0.3493 0.1997, 0.4578 0.3503 0.1985, 0.4587 0.3511 0.1969, 0.4656 0.3401 0.1969, 0.4645 0.3396 0.1985, 0.463 0.3389 0.1997, 0.4613 0.3381 0.2005, 0.4595 0.3372 0.2008, 0.471 0.3281 0.1929, 0.4707 0.328 0.195, 0.4699 0.3279 0.1969, 0.4687 0.3276 0.1985, 0.4671 0.3272 0.1997, 0.4653 0.3268 0.2005, 0.4633 0.3263 0.2008, 0.4646 0.315 0.2008, 0.4666 0.315 0.2005, 0.4685 0.315 0.1997, 0.4701 0.315 0.1985, 0.4714 0.315 0.1969, 0.4722 0.315 0.195, 0.4724 0.315 0.1929, -0.4134 0.3679 0.2006, -0.4134 0.3661 0.2008, -0.4134 0.3682 0.2005, -0.4134 0.3696 0.2, -0.4134 0.3701 0.1997, -0.4134 0.3711 0.1991, -0.4134 0.3717 0.1984, -0.4134 0.3723 0.1978, -0.4134 0.3729 0.1968, -0.4134 0.3732 0.1963, -0.4134 0.3737 0.1949, -0.4134 0.3738 0.1947, -0.4134 0.374 0.1929, 0.4646 -0.315 0.2008, 0.4663 -0.315 0.2006, 0.4666 -0.315 0.2005, 0.468 -0.315 0.2, 0.4685 -0.315 0.1997, 0.4695 -0.315 0.1991, 0.4701 -0.315 0.1984, 0.4707 -0.315 0.1978, 0.4713 -0.315 0.1968, 0.4717 -0.315 0.1963, 0.4721 -0.315 0.1949, 0.4722 -0.315 0.1947, 0.4724 -0.315 0.1929, -0.4286 0.3718 0.1929, -0.439 0.3682 0.1929, -0.4389 0.368 0.1947, -0.4427 0.3658 0.1929, -0.4502 0.3611 0.1929, -0.4501 0.361 0.1947, -0.4252 0.3666 0.2006, -0.4248 0.3649 0.2008, -0.4646 0.315 0.2008, -0.4633 0.3263 0.2008, -0.4663 0.315 0.2006, -0.465 0.3267 0.2006, -0.4666 0.315 0.2005, -0.4666 0.3271 0.2, -0.4255 0.3682 0.2, -0.4681 0.3274 0.1991, -0.4685 0.315 0.1997, -0.468 0.315 0.2, -0.4259 0.3696 0.1991, -0.4693 0.3277 0.1978, -0.4701 0.315 0.1984, -0.4695 0.315 0.1991, -0.4261 0.3709 0.1978, -0.4702 0.3279 0.1963, -0.4713 0.315 0.1968, -0.4707 0.315 0.1978, -0.4264 0.3718 0.1963, -0.4708 0.3281 0.1947, -0.4721 0.315 0.1949, -0.4717 0.315 0.1963, -0.4595 0.3372 0.2008, -0.4611 0.3379 0.2006, -0.4626 0.3386 0.2, -0.4639 0.3393 0.1991, -0.465 0.3398 0.1978, -0.4659 0.3402 0.1963, -0.4664 0.3405 0.1947, -0.471 0.3281 0.1929, -0.4724 0.315 0.1929, -0.4722 0.315 0.1947, -0.4549 0.3565 0.1929, -0.4596 0.3518 0.1929, -0.4594 0.3517 0.1947, -0.4589 0.3513 0.1963, -0.4582 0.3507 0.1978, -0.4572 0.3499 0.1991, -0.4561 0.349 0.2, -0.4548 0.348 0.2006, -0.4534 0.3469 0.2008, -0.4642 0.3443 0.1929, -0.4666 0.3406 0.1929, -0.4702 0.3302 0.1929, -0.4497 0.3605 0.1963, -0.4491 0.3598 0.1978, -0.4484 0.3588 0.1991, -0.4474 0.3576 0.2, -0.4464 0.3563 0.2006, -0.4453 0.355 0.2008, -0.4387 0.3675 0.1963, -0.4383 0.3666 0.1978, -0.4377 0.3655 0.1991, -0.4371 0.3642 0.2, -0.4364 0.3627 0.2006, -0.4356 0.3611 0.2008, -0.4265 0.3725 0.1929, -0.4265 0.3723 0.1947, 0.4286 -0.3718 0.1929, 0.439 -0.3682 0.1929, 0.4389 -0.368 0.1947, 0.4427 -0.3658 0.1929, 0.4502 -0.3611 0.1929, 0.4501 -0.361 0.1947, 0.4252 -0.3666 0.2006, 0.4248 -0.3649 0.2008, 0.4134 -0.3661 0.2008, 0.4633 -0.3263 0.2008, 0.465 -0.3267 0.2006, 0.4666 -0.3271 0.2, 0.4134 -0.3679 0.2006, 0.4134 -0.3682 0.2005, 0.4255 -0.3682 0.2, 0.4681 -0.3274 0.1991, 0.4134 -0.3696 0.2, 0.4134 -0.3701 0.1997, 0.4259 -0.3696 0.1991, 0.4693 -0.3277 0.1978, 0.4134 -0.3711 0.1991, 0.4134 -0.3717 0.1984, 0.4261 -0.3709 0.1978, 0.4702 -0.3279 0.1963, 0.4134 -0.3723 0.1978, 0.4134 -0.3729 0.1968, 0.4264 -0.3718 0.1963, 0.4708 -0.3281 0.1947, 0.4595 -0.3372 0.2008, 0.4611 -0.3379 0.2006, 0.4626 -0.3386 0.2, 0.4639 -0.3393 0.1991, 0.465 -0.3398 0.1978, 0.4659 -0.3402 0.1963, 0.4664 -0.3405 0.1947, 0.471 -0.3281 0.1929, 0.4549 -0.3565 0.1929, 0.4596 -0.3518 0.1929, 0.4594 -0.3517 0.1947, 0.4589 -0.3513 0.1963, 0.4582 -0.3507 0.1978, 0.4572 -0.3499 0.1991, 0.4561 -0.349 0.2, 0.4548 -0.348 0.2006, 0.4534 -0.3469 0.2008, 0.4642 -0.3443 0.1929, 0.4666 -0.3406 0.1929, 0.4702 -0.3302 0.1929, 0.4497 -0.3605 0.1963, 0.4491 -0.3598 0.1978, 0.4484 -0.3588 0.1991, 0.4474 -0.3576 0.2, 0.4464 -0.3563 0.2006, 0.4453 -0.355 0.2008, 0.4387 -0.3675 0.1963, 0.4383 -0.3666 0.1978, 0.4377 -0.3655 0.1991, 0.4371 -0.3642 0.2, 0.4364 -0.3627 0.2006, 0.4356 -0.3611 0.2008, 0.4265 -0.3725 0.1929, 0.4265 -0.3723 0.1947, 0.4134 -0.3732 0.1963, 0.4134 -0.3737 0.1949, 0.4134 -0.3738 0.1947, 0.4134 -0.374 0.1929, -0.4646 -0.315 0.2008, -0.4666 -0.315 0.2005, -0.4685 -0.315 0.1997, -0.4701 -0.315 0.1985, -0.4714 -0.315 0.1969, -0.4722 -0.315 0.195, -0.4724 -0.315 0.1929, -0.4134 -0.3661 0.2008, -0.4134 -0.3682 0.2005, -0.4134 -0.3701 0.1997, -0.4134 -0.3717 0.1985, -0.4134 -0.373 0.1969, -0.4134 -0.3737 0.195, -0.4134 -0.374 0.1929, -0.4702 -0.3302 0.1929, -0.4666 -0.3406 0.1929, -0.4664 -0.3405 0.195, -0.4642 -0.3443 0.1929, -0.4596 -0.3518 0.1929, -0.4593 -0.3516 0.195, -0.4248 -0.3649 0.2008, -0.4356 -0.3611 0.2008, -0.4252 -0.3668 0.2005, -0.4365 -0.3629 0.2005, -0.4257 -0.3687 0.1997, -0.4373 -0.3646 0.1997, -0.426 -0.3703 0.1985, -0.438 -0.3661 0.1985, -0.4263 -0.3715 0.1969, -0.4386 -0.3672 0.1969, -0.4265 -0.3723 0.195, -0.4389 -0.3679 0.195, -0.4265 -0.3725 0.1929, -0.4549 -0.3565 0.1929, -0.4502 -0.3611 0.1929, -0.45 -0.3609 0.195, -0.4495 -0.3603 0.1969, -0.4488 -0.3593 0.1985, -0.4478 -0.3581 0.1997, -0.4466 -0.3566 0.2005, -0.4453 -0.355 0.2008, -0.4427 -0.3658 0.1929, -0.439 -0.3682 0.1929, -0.4286 -0.3718 0.1929, -0.4534 -0.3469 0.2008, -0.455 -0.3481 0.2005, -0.4565 -0.3493 0.1997, -0.4578 -0.3503 0.1985, -0.4587 -0.3511 0.1969, -0.4656 -0.3401 0.1969, -0.4645 -0.3396 0.1985, -0.463 -0.3389 0.1997, -0.4613 -0.3381 0.2005, -0.4595 -0.3372 0.2008, -0.471 -0.3281 0.1929, -0.4707 -0.328 0.195, -0.4699 -0.3279 0.1969, -0.4687 -0.3276 0.1985, -0.4671 -0.3272 0.1997, -0.4653 -0.3268 0.2005, -0.4633 -0.3263 0.2008, 0.4786 0.315 0.1616, 0.4803 0.315 0.1614, 0.479 0.328 0.1614, 0.4769 0.315 0.1622, 0.4783 0.315 0.1617, 0.477 0.3276 0.1617, 0.4754 0.315 0.1632, 0.4764 0.315 0.1625, 0.4752 0.3272 0.1625, 0.4742 0.315 0.1644, 0.4747 0.315 0.1637, 0.4736 0.3269 0.1637, 0.4733 0.315 0.1659, 0.4735 0.315 0.1654, 0.4723 0.3267 0.1654, 0.4727 0.315 0.1675, 0.4727 0.315 0.1673, 0.4716 0.3265 0.1673, 0.425 0.3731 0.1673, 0.4134 0.3743 0.1673, 0.4134 0.374 0.1693, 0.4249 0.3729 0.1693, 0.4286 0.3718 0.1693, 0.4361 0.3698 0.1673, 0.436 0.3695 0.1693, 0.4463 0.3643 0.1673, 0.4428 0.3659 0.1693, 0.4462 0.3641 0.1693, 0.4553 0.3569 0.1673, 0.4551 0.3567 0.1693, 0.4627 0.3479 0.1673, 0.4625 0.3478 0.1693, 0.4643 0.3444 0.1693, 0.4682 0.3377 0.1673, 0.4679 0.3376 0.1693, 0.4724 0.315 0.1693, 0.4713 0.3265 0.1693, 0.4702 0.3302 0.1693, 0.4689 0.338 0.1654, 0.4634 0.3484 0.1654, 0.4559 0.3575 0.1654, 0.4468 0.3649 0.1654, 0.4364 0.3705 0.1654, 0.4251 0.3739 0.1654, 0.4134 0.3751 0.1654, 0.4701 0.3384 0.1637, 0.4644 0.3491 0.1637, 0.4568 0.3583 0.1637, 0.4475 0.366 0.1637, 0.4369 0.3717 0.1637, 0.4254 0.3751 0.1637, 0.4134 0.3763 0.1637, 0.4716 0.3391 0.1625, 0.4658 0.35 0.1625, 0.4579 0.3595 0.1625, 0.4484 0.3673 0.1625, 0.4375 0.3732 0.1625, 0.4257 0.3767 0.1625, 0.4134 0.378 0.1625, 0.4733 0.3398 0.1617, 0.4673 0.351 0.1617, 0.4593 0.3608 0.1617, 0.4494 0.3689 0.1617, 0.4382 0.3749 0.1617, 0.426 0.3786 0.1617, 0.4134 0.3799 0.1617, 0.4752 0.3406 0.1614, 0.469 0.3521 0.1614, 0.4607 0.3623 0.1614, 0.4506 0.3706 0.1614, 0.439 0.3768 0.1614, 0.4264 0.3806 0.1614, 0.4134 0.3819 0.1614, 0.4803 -0.315 0.1614, 0.4786 -0.315 0.1616, 0.4783 -0.315 0.1617, 0.4769 -0.315 0.1622, 0.4764 -0.315 0.1625, 0.4754 -0.315 0.1632, 0.4747 -0.315 0.1637, 0.4742 -0.315 0.1644, 0.4735 -0.315 0.1654, 0.4733 -0.315 0.1659, 0.4727 -0.315 0.1673, 0.4727 -0.315 0.1675, 0.4724 -0.315 0.1693, -0.4134 0.3819 0.1614, -0.4134 0.3799 0.1617, -0.4134 0.378 0.1625, -0.4134 0.3763 0.1637, -0.4134 0.3751 0.1654, -0.4134 0.3743 0.1673, -0.4134 0.374 0.1693, 0.477 -0.3276 0.1617, 0.4752 -0.3272 0.1625, 0.4736 -0.3269 0.1637, 0.4723 -0.3267 0.1654, 0.4713 -0.3265 0.1693, 0.4716 -0.3265 0.1673, 0.4702 -0.3302 0.1693, 0.4682 -0.3377 0.1673, 0.4679 -0.3376 0.1693, 0.4627 -0.3479 0.1673, 0.4643 -0.3444 0.1693, 0.4625 -0.3478 0.1693, 0.4553 -0.3569 0.1673, 0.4551 -0.3567 0.1693, 0.4463 -0.3643 0.1673, 0.4462 -0.3641 0.1693, 0.4428 -0.3659 0.1693, 0.4361 -0.3698 0.1673, 0.436 -0.3695 0.1693, 0.425 -0.3731 0.1673, 0.4134 -0.374 0.1693, 0.4134 -0.3743 0.1673, 0.4249 -0.3729 0.1693, 0.4286 -0.3718 0.1693, 0.4134 -0.3751 0.1654, 0.4251 -0.3739 0.1654, 0.4364 -0.3705 0.1654, 0.4468 -0.3649 0.1654, 0.4559 -0.3575 0.1654, 0.4634 -0.3484 0.1654, 0.4689 -0.338 0.1654, 0.4134 -0.3763 0.1637, 0.4254 -0.3751 0.1637, 0.4369 -0.3717 0.1637, 0.4475 -0.366 0.1637, 0.4568 -0.3583 0.1637, 0.4644 -0.3491 0.1637, 0.4701 -0.3384 0.1637, 0.4134 -0.378 0.1625, 0.4257 -0.3767 0.1625, 0.4375 -0.3732 0.1625, 0.4484 -0.3673 0.1625, 0.4579 -0.3595 0.1625, 0.4658 -0.35 0.1625, 0.4716 -0.3391 0.1625, 0.4134 -0.3799 0.1617, 0.426 -0.3786 0.1617, 0.4382 -0.3749 0.1617, 0.4494 -0.3689 0.1617, 0.4593 -0.3608 0.1617, 0.4673 -0.351 0.1617, 0.4733 -0.3398 0.1617, 0.4134 -0.3819 0.1614, 0.4264 -0.3806 0.1614, 0.439 -0.3768 0.1614, 0.4506 -0.3706 0.1614, 0.4607 -0.3623 0.1614, 0.469 -0.3521 0.1614, 0.4752 -0.3406 0.1614, 0.479 -0.328 0.1614, -0.4786 0.315 0.1616, -0.4783 0.315 0.1617, -0.477 0.3276 0.1617, -0.4769 0.315 0.1622, -0.4764 0.315 0.1625, -0.4752 0.3272 0.1625, -0.4754 0.315 0.1632, -0.4747 0.315 0.1637, -0.4736 0.3269 0.1637, -0.4742 0.315 0.1644, -0.4735 0.315 0.1654, -0.4723 0.3267 0.1654, -0.4727 0.315 0.1675, -0.4724 0.315 0.1693, -0.4713 0.3265 0.1693, -0.4733 0.315 0.1659, -0.4727 0.315 0.1673, -0.4716 0.3265 0.1673, -0.4702 0.3302 0.1693, -0.4682 0.3377 0.1673, -0.4679 0.3376 0.1693, -0.4627 0.3479 0.1673, -0.4643 0.3444 0.1693, -0.4625 0.3478 0.1693, -0.4553 0.3569 0.1673, -0.4551 0.3567 0.1693, -0.4463 0.3643 0.1673, -0.4462 0.3641 0.1693, -0.4428 0.3659 0.1693, -0.4361 0.3698 0.1673, -0.436 0.3695 0.1693, -0.425 0.3731 0.1673, -0.4249 0.3729 0.1693, -0.4286 0.3718 0.1693, -0.4251 0.3739 0.1654, -0.4364 0.3705 0.1654, -0.4468 0.3649 0.1654, -0.4559 0.3575 0.1654, -0.4634 0.3484 0.1654, -0.4689 0.338 0.1654, -0.4254 0.3751 0.1637, -0.4369 0.3717 0.1637, -0.4475 0.366 0.1637, -0.4568 0.3583 0.1637, -0.4644 0.3491 0.1637, -0.4701 0.3384 0.1637, -0.4257 0.3767 0.1625, -0.4375 0.3732 0.1625, -0.4484 0.3673 0.1625, -0.4579 0.3595 0.1625, -0.4658 0.35 0.1625, -0.4716 0.3391 0.1625, -0.426 0.3786 0.1617, -0.4382 0.3749 0.1617, -0.4494 0.3689 0.1617, -0.4593 0.3608 0.1617, -0.4673 0.351 0.1617, -0.4733 0.3398 0.1617, -0.4264 0.3806 0.1614, -0.439 0.3768 0.1614, -0.4506 0.3706 0.1614, -0.4607 0.3623 0.1614, -0.469 0.3521 0.1614, -0.4752 0.3406 0.1614, -0.479 0.328 0.1614, -0.4803 0.315 0.1614, -0.4134 -0.3819 0.1614, -0.4134 -0.3799 0.1617, -0.4134 -0.378 0.1625, -0.4134 -0.3763 0.1637, -0.4134 -0.3751 0.1654, -0.4134 -0.3743 0.1673, -0.4134 -0.374 0.1693, -0.4803 -0.315 0.1614, -0.4786 -0.315 0.1616, -0.4783 -0.315 0.1617, -0.4769 -0.315 0.1622, -0.4764 -0.315 0.1625, -0.4754 -0.315 0.1632, -0.4747 -0.315 0.1637, -0.4742 -0.315 0.1644, -0.4735 -0.315 0.1654, -0.4733 -0.315 0.1659, -0.4727 -0.315 0.1673, -0.4727 -0.315 0.1675, -0.4724 -0.315 0.1693, -0.479 -0.328 0.1614, -0.477 -0.3276 0.1617, -0.4752 -0.3272 0.1625, -0.4736 -0.3269 0.1637, -0.4723 -0.3267 0.1654, -0.4716 -0.3265 0.1673, -0.425 -0.3731 0.1673, -0.4249 -0.3729 0.1693, -0.4286 -0.3718 0.1693, -0.4361 -0.3698 0.1673, -0.436 -0.3695 0.1693, -0.4463 -0.3643 0.1673, -0.4428 -0.3659 0.1693, -0.4462 -0.3641 0.1693, -0.4553 -0.3569 0.1673, -0.4551 -0.3567 0.1693, -0.4627 -0.3479 0.1673, -0.4625 -0.3478 0.1693, -0.4643 -0.3444 0.1693, -0.4682 -0.3377 0.1673, -0.4679 -0.3376 0.1693, -0.4713 -0.3265 0.1693, -0.4702 -0.3302 0.1693, -0.4689 -0.338 0.1654, -0.4634 -0.3484 0.1654, -0.4559 -0.3575 0.1654, -0.4468 -0.3649 0.1654, -0.4364 -0.3705 0.1654, -0.4251 -0.3739 0.1654, -0.4701 -0.3384 0.1637, -0.4644 -0.3491 0.1637, -0.4568 -0.3583 0.1637, -0.4475 -0.366 0.1637, -0.4369 -0.3717 0.1637, -0.4254 -0.3751 0.1637, -0.4716 -0.3391 0.1625, -0.4658 -0.35 0.1625, -0.4579 -0.3595 0.1625, -0.4484 -0.3673 0.1625, -0.4375 -0.3732 0.1625, -0.4257 -0.3767 0.1625, -0.4733 -0.3398 0.1617, -0.4673 -0.351 0.1617, -0.4593 -0.3608 0.1617, -0.4494 -0.3689 0.1617, -0.4382 -0.3749 0.1617, -0.426 -0.3786 0.1617, -0.4752 -0.3406 0.1614, -0.469 -0.3521 0.1614, -0.4607 -0.3623 0.1614, -0.4506 -0.3706 0.1614, -0.439 -0.3768 0.1614, -0.4264 -0.3806 0.1614
            ]
        }
        coordIndex [
            0,1,2,-1,3,4,5,-1,6,7,8,-1,8,7,9,-1,8,9,10,-1,10,9,11,-1,10,11,12,-1,12,11,13,-1,12,13,14,-1,14,13,15,-1,14,15,16,-1,16,15,17,-1,18,6,19,-1,19,6,8,-1,19,8,20,-1,20,8,10,-1,20,10,21,-1,21,10,12,-1,21,12,22,-1,22,12,14,-1,22,14,23,-1,23,14,16,-1,23,16,24,-1,24,16,25,-1,26,27,28,-1,28,27,17,-1,28,17,29,-1,29,17,15,-1,29,15,30,-1,30,15,13,-1,30,13,31,-1,31,13,11,-1,31,11,32,-1,32,11,9,-1,32,9,33,-1,33,9,7,-1,27,34,17,-1,17,34,35,-1,17,35,16,-1,16,35,36,-1,16,36,25,-1,33,37,32,-1,32,37,38,-1,32,38,31,-1,31,38,39,-1,31,39,30,-1,30,39,40,-1,30,40,29,-1,29,40,41,-1,29,41,28,-1,28,41,5,-1,28,5,26,-1,26,5,4,-1,1,3,2,-1,2,3,5,-1,2,5,42,-1,42,5,41,-1,42,41,43,-1,43,41,40,-1,43,40,44,-1,44,40,39,-1,44,39,45,-1,45,39,38,-1,45,38,46,-1,46,38,37,-1,47,0,48,-1,48,0,2,-1,48,2,49,-1,49,2,42,-1,49,42,50,-1,50,42,43,-1,50,43,51,-1,51,43,44,-1,51,44,52,-1,52,44,45,-1,52,45,53,-1,53,45,46,-1,53,54,52,-1,52,54,55,-1,52,55,51,-1,51,55,56,-1,51,56,50,-1,50,56,57,-1,50,57,49,-1,49,57,58,-1,49,58,48,-1,48,58,59,-1,48,59,47,-1,47,59,60,-1,61,62,18,-1,61,18,63,-1,63,18,19,-1,63,19,64,-1,64,19,65,-1,65,19,20,-1,65,20,66,-1,66,20,67,-1,67,20,21,-1,67,21,68,-1,68,21,22,-1,68,22,69,-1,69,22,70,-1,70,22,23,-1,70,23,71,-1,71,23,72,-1,72,23,24,-1,72,24,73,-1,74,75,54,-1,54,75,55,-1,75,76,55,-1,55,76,77,-1,55,77,56,-1,77,78,56,-1,56,78,79,-1,56,79,57,-1,57,79,80,-1,57,80,58,-1,80,81,58,-1,58,81,82,-1,58,82,59,-1,82,83,59,-1,59,83,84,-1,59,84,60,-1,60,84,85,-1,60,85,86,-1,87,88,89,-1,90,91,92,-1,93,94,62,-1,95,96,97,-1,97,96,98,-1,97,98,99,-1,99,98,100,-1,62,61,93,-1,93,61,63,-1,93,63,101,-1,102,103,100,-1,100,103,104,-1,100,104,99,-1,63,64,101,-1,101,64,65,-1,101,65,105,-1,106,107,102,-1,102,107,108,-1,102,108,103,-1,65,66,105,-1,105,66,67,-1,105,67,109,-1,110,111,106,-1,106,111,112,-1,106,112,107,-1,67,68,109,-1,109,68,69,-1,109,69,113,-1,114,115,110,-1,110,115,116,-1,110,116,111,-1,96,117,98,-1,98,117,118,-1,98,118,100,-1,100,118,119,-1,100,119,102,-1,102,119,120,-1,102,120,106,-1,106,120,121,-1,106,121,110,-1,110,121,122,-1,110,122,114,-1,114,122,123,-1,124,125,114,-1,114,125,126,-1,114,126,115,-1,127,128,129,-1,129,128,123,-1,129,123,130,-1,130,123,122,-1,130,122,131,-1,131,122,121,-1,131,121,132,-1,132,121,120,-1,132,120,133,-1,133,120,119,-1,133,119,134,-1,134,119,118,-1,134,118,135,-1,135,118,117,-1,128,136,123,-1,123,136,137,-1,123,137,114,-1,114,137,138,-1,114,138,124,-1,91,127,92,-1,92,127,129,-1,92,129,139,-1,139,129,130,-1,139,130,140,-1,140,130,131,-1,140,131,141,-1,141,131,132,-1,141,132,142,-1,142,132,133,-1,142,133,143,-1,143,133,134,-1,143,134,144,-1,144,134,135,-1,88,90,89,-1,89,90,92,-1,89,92,145,-1,145,92,139,-1,145,139,146,-1,146,139,140,-1,146,140,147,-1,147,140,141,-1,147,141,148,-1,148,141,142,-1,148,142,149,-1,149,142,143,-1,149,143,150,-1,150,143,144,-1,151,87,152,-1,152,87,89,-1,152,89,113,-1,113,89,145,-1,113,145,109,-1,109,145,146,-1,109,146,105,-1,105,146,147,-1,105,147,101,-1,101,147,148,-1,101,148,93,-1,93,148,149,-1,93,149,94,-1,94,149,150,-1,69,70,113,-1,113,70,71,-1,113,71,152,-1,152,71,72,-1,152,72,151,-1,151,72,73,-1,153,154,155,-1,156,157,158,-1,159,160,161,-1,74,162,75,-1,75,162,163,-1,75,163,76,-1,76,163,164,-1,161,165,159,-1,159,165,166,-1,159,166,167,-1,168,78,164,-1,164,78,77,-1,164,77,76,-1,166,169,167,-1,167,169,170,-1,167,170,171,-1,172,80,168,-1,168,80,79,-1,168,79,78,-1,170,173,171,-1,171,173,174,-1,171,174,175,-1,176,82,172,-1,172,82,81,-1,172,81,80,-1,174,177,175,-1,175,177,178,-1,175,178,179,-1,180,84,176,-1,176,84,83,-1,176,83,82,-1,162,181,163,-1,163,181,182,-1,163,182,164,-1,164,182,183,-1,164,183,168,-1,168,183,184,-1,168,184,172,-1,172,184,185,-1,172,185,176,-1,176,185,186,-1,176,186,180,-1,180,186,187,-1,188,86,180,-1,180,86,85,-1,180,85,84,-1,189,190,191,-1,191,190,187,-1,191,187,192,-1,192,187,186,-1,192,186,193,-1,193,186,185,-1,193,185,194,-1,194,185,184,-1,194,184,195,-1,195,184,183,-1,195,183,196,-1,196,183,182,-1,196,182,197,-1,197,182,181,-1,190,198,187,-1,187,198,199,-1,187,199,180,-1,180,199,200,-1,180,200,188,-1,157,189,158,-1,158,189,191,-1,158,191,201,-1,201,191,192,-1,201,192,202,-1,202,192,193,-1,202,193,203,-1,203,193,194,-1,203,194,204,-1,204,194,195,-1,204,195,205,-1,205,195,196,-1,205,196,206,-1,206,196,197,-1,154,156,155,-1,155,156,158,-1,155,158,207,-1,207,158,201,-1,207,201,208,-1,208,201,202,-1,208,202,209,-1,209,202,203,-1,209,203,210,-1,210,203,204,-1,210,204,211,-1,211,204,205,-1,211,205,212,-1,212,205,206,-1,213,153,214,-1,214,153,155,-1,214,155,179,-1,179,155,207,-1,179,207,175,-1,175,207,208,-1,175,208,171,-1,171,208,209,-1,171,209,167,-1,167,209,210,-1,167,210,159,-1,159,210,211,-1,159,211,160,-1,160,211,212,-1,178,215,179,-1,179,215,216,-1,179,216,214,-1,214,216,217,-1,214,217,213,-1,213,217,218,-1,95,97,219,-1,219,97,220,-1,97,99,220,-1,220,99,104,-1,220,104,221,-1,104,103,221,-1,221,103,108,-1,221,108,222,-1,222,108,107,-1,222,107,223,-1,107,112,223,-1,223,112,111,-1,223,111,224,-1,111,116,224,-1,224,116,115,-1,224,115,225,-1,225,115,126,-1,225,126,125,-1,165,161,226,-1,165,226,166,-1,166,226,227,-1,166,227,169,-1,169,227,170,-1,170,227,228,-1,170,228,173,-1,173,228,174,-1,174,228,229,-1,174,229,177,-1,177,229,230,-1,177,230,178,-1,178,230,215,-1,215,230,231,-1,215,231,216,-1,216,231,217,-1,217,231,232,-1,217,232,218,-1,233,234,235,-1,236,237,238,-1,239,240,241,-1,241,240,242,-1,241,242,243,-1,243,242,244,-1,243,244,245,-1,245,244,246,-1,245,246,247,-1,247,246,248,-1,247,248,249,-1,249,248,250,-1,226,239,227,-1,227,239,241,-1,227,241,228,-1,228,241,243,-1,228,243,229,-1,229,243,245,-1,229,245,230,-1,230,245,247,-1,230,247,231,-1,231,247,249,-1,231,249,232,-1,232,249,251,-1,252,253,254,-1,254,253,250,-1,254,250,255,-1,255,250,248,-1,255,248,256,-1,256,248,246,-1,256,246,257,-1,257,246,244,-1,257,244,258,-1,258,244,242,-1,258,242,259,-1,259,242,240,-1,253,260,250,-1,250,260,261,-1,250,261,249,-1,249,261,262,-1,249,262,251,-1,259,263,258,-1,258,263,264,-1,258,264,257,-1,257,264,265,-1,257,265,256,-1,256,265,266,-1,256,266,255,-1,255,266,267,-1,255,267,254,-1,254,267,238,-1,254,238,252,-1,252,238,237,-1,234,236,235,-1,235,236,238,-1,235,238,268,-1,268,238,267,-1,268,267,269,-1,269,267,266,-1,269,266,270,-1,270,266,265,-1,270,265,271,-1,271,265,264,-1,271,264,272,-1,272,264,263,-1,273,233,274,-1,274,233,235,-1,274,235,275,-1,275,235,268,-1,275,268,276,-1,276,268,269,-1,276,269,277,-1,277,269,270,-1,277,270,278,-1,278,270,271,-1,278,271,279,-1,279,271,272,-1,279,219,278,-1,278,219,220,-1,278,220,277,-1,277,220,221,-1,277,221,276,-1,276,221,222,-1,276,222,275,-1,275,222,223,-1,275,223,274,-1,274,223,224,-1,274,224,273,-1,273,224,225,-1,280,281,282,-1,283,284,285,-1,286,287,288,-1,289,290,291,-1,292,293,294,-1,295,296,297,-1,298,299,300,-1,300,301,298,-1,298,301,302,-1,298,302,303,-1,303,302,304,-1,303,304,305,-1,304,306,305,-1,305,306,307,-1,305,307,308,-1,308,307,309,-1,308,309,310,-1,309,311,310,-1,310,311,312,-1,310,312,313,-1,313,312,314,-1,313,314,297,-1,315,295,316,-1,316,295,297,-1,316,297,317,-1,317,297,314,-1,296,292,297,-1,297,292,294,-1,297,294,313,-1,313,294,318,-1,313,318,310,-1,310,318,319,-1,310,319,308,-1,308,319,320,-1,308,320,305,-1,305,320,321,-1,305,321,303,-1,303,321,322,-1,303,322,298,-1,298,322,323,-1,298,323,299,-1,299,323,324,-1,293,289,294,-1,294,289,291,-1,294,291,318,-1,318,291,325,-1,318,325,319,-1,319,325,326,-1,319,326,320,-1,320,326,327,-1,320,327,321,-1,321,327,328,-1,321,328,322,-1,322,328,329,-1,322,329,323,-1,323,329,330,-1,323,330,324,-1,324,330,331,-1,290,286,291,-1,291,286,288,-1,291,288,325,-1,325,288,332,-1,325,332,326,-1,326,332,333,-1,326,333,327,-1,327,333,334,-1,327,334,328,-1,328,334,335,-1,328,335,329,-1,329,335,336,-1,329,336,330,-1,330,336,337,-1,330,337,331,-1,331,337,338,-1,287,283,288,-1,288,283,285,-1,288,285,332,-1,332,285,339,-1,332,339,333,-1,333,339,340,-1,333,340,334,-1,334,340,341,-1,334,341,335,-1,335,341,342,-1,335,342,336,-1,336,342,343,-1,336,343,337,-1,337,343,344,-1,337,344,338,-1,338,344,345,-1,284,280,285,-1,285,280,282,-1,285,282,339,-1,339,282,346,-1,339,346,340,-1,340,346,347,-1,340,347,341,-1,341,347,348,-1,341,348,342,-1,342,348,349,-1,342,349,343,-1,343,349,350,-1,343,350,344,-1,344,350,351,-1,344,351,345,-1,345,351,352,-1,353,281,354,-1,354,281,280,-1,354,280,355,-1,355,280,284,-1,355,284,356,-1,356,284,283,-1,356,283,357,-1,357,283,287,-1,357,287,358,-1,358,287,286,-1,358,286,359,-1,359,286,290,-1,359,290,360,-1,360,290,289,-1,360,289,361,-1,361,289,293,-1,361,293,362,-1,362,293,292,-1,362,292,363,-1,363,292,296,-1,363,296,364,-1,364,296,295,-1,364,295,365,-1,365,295,315,-1,352,366,345,-1,345,366,367,-1,345,367,338,-1,338,367,368,-1,338,368,331,-1,331,368,369,-1,331,369,324,-1,324,369,370,-1,324,370,299,-1,299,370,371,-1,299,371,300,-1,300,371,372,-1,354,355,373,-1,356,357,374,-1,358,359,375,-1,360,361,376,-1,364,365,377,-1,362,363,378,-1,378,363,364,-1,364,377,378,-1,378,377,379,-1,378,379,380,-1,380,379,381,-1,380,381,382,-1,381,383,382,-1,382,383,384,-1,382,384,385,-1,385,384,386,-1,385,386,387,-1,386,388,387,-1,387,388,389,-1,387,389,390,-1,390,389,391,-1,390,391,392,-1,393,394,395,-1,395,394,392,-1,395,392,396,-1,396,392,391,-1,394,397,392,-1,392,397,398,-1,392,398,390,-1,390,398,399,-1,390,399,387,-1,387,399,400,-1,387,400,385,-1,385,400,401,-1,385,401,382,-1,382,401,402,-1,382,402,380,-1,380,402,403,-1,380,403,378,-1,378,403,376,-1,378,376,362,-1,362,376,361,-1,397,404,398,-1,398,404,405,-1,398,405,399,-1,399,405,406,-1,399,406,400,-1,400,406,407,-1,400,407,401,-1,401,407,408,-1,401,408,402,-1,402,408,409,-1,402,409,403,-1,403,409,410,-1,403,410,376,-1,376,410,375,-1,376,375,360,-1,360,375,359,-1,404,411,405,-1,405,411,412,-1,405,412,406,-1,406,412,413,-1,406,413,407,-1,407,413,414,-1,407,414,408,-1,408,414,415,-1,408,415,409,-1,409,415,416,-1,409,416,410,-1,410,416,417,-1,410,417,375,-1,375,417,374,-1,375,374,358,-1,358,374,357,-1,411,418,412,-1,412,418,419,-1,412,419,413,-1,413,419,420,-1,413,420,414,-1,414,420,421,-1,414,421,415,-1,415,421,422,-1,415,422,416,-1,416,422,423,-1,416,423,417,-1,417,423,424,-1,417,424,374,-1,374,424,373,-1,374,373,356,-1,356,373,355,-1,418,425,419,-1,419,425,426,-1,419,426,420,-1,420,426,427,-1,420,427,421,-1,421,427,428,-1,421,428,422,-1,422,428,429,-1,422,429,423,-1,423,429,430,-1,423,430,424,-1,424,430,431,-1,424,431,373,-1,373,431,432,-1,373,432,354,-1,354,432,353,-1,433,434,435,-1,436,437,438,-1,439,440,441,-1,442,443,444,-1,445,446,447,-1,448,449,450,-1,450,449,445,-1,445,447,450,-1,450,447,451,-1,450,451,452,-1,452,451,453,-1,452,453,454,-1,453,455,454,-1,454,455,456,-1,454,456,457,-1,457,456,458,-1,457,458,459,-1,458,460,459,-1,459,460,461,-1,459,461,462,-1,462,461,463,-1,462,463,464,-1,372,371,465,-1,465,371,464,-1,465,464,466,-1,466,464,463,-1,371,370,464,-1,464,370,467,-1,464,467,462,-1,462,467,468,-1,462,468,459,-1,459,468,469,-1,459,469,457,-1,457,469,470,-1,457,470,454,-1,454,470,471,-1,454,471,452,-1,452,471,472,-1,452,472,450,-1,450,472,444,-1,450,444,448,-1,448,444,443,-1,370,369,467,-1,467,369,473,-1,467,473,468,-1,468,473,474,-1,468,474,469,-1,469,474,475,-1,469,475,470,-1,470,475,476,-1,470,476,471,-1,471,476,477,-1,471,477,472,-1,472,477,478,-1,472,478,444,-1,444,478,441,-1,444,441,442,-1,442,441,440,-1,369,368,473,-1,473,368,479,-1,473,479,474,-1,474,479,480,-1,474,480,475,-1,475,480,481,-1,475,481,476,-1,476,481,482,-1,476,482,477,-1,477,482,483,-1,477,483,478,-1,478,483,484,-1,478,484,441,-1,441,484,438,-1,441,438,439,-1,439,438,437,-1,368,367,479,-1,479,367,485,-1,479,485,480,-1,480,485,486,-1,480,486,481,-1,481,486,487,-1,481,487,482,-1,482,487,488,-1,482,488,483,-1,483,488,489,-1,483,489,484,-1,484,489,490,-1,484,490,438,-1,438,490,435,-1,438,435,436,-1,436,435,434,-1,367,366,485,-1,485,366,491,-1,485,491,486,-1,486,491,492,-1,486,492,487,-1,487,492,493,-1,487,493,488,-1,488,493,494,-1,488,494,489,-1,489,494,495,-1,489,495,490,-1,490,495,496,-1,490,496,435,-1,435,496,497,-1,435,497,433,-1,433,497,498,-1,499,425,500,-1,500,425,418,-1,500,418,501,-1,501,418,411,-1,501,411,502,-1,502,411,404,-1,502,404,503,-1,503,404,397,-1,503,397,504,-1,504,397,394,-1,504,394,505,-1,505,394,393,-1,498,506,433,-1,433,506,507,-1,433,507,434,-1,434,507,508,-1,434,508,436,-1,436,508,509,-1,436,509,437,-1,437,509,510,-1,437,510,439,-1,439,510,511,-1,439,511,440,-1,440,511,512,-1,440,512,442,-1,442,512,513,-1,442,513,443,-1,443,513,514,-1,443,514,448,-1,448,514,515,-1,448,515,449,-1,449,515,516,-1,449,516,445,-1,445,516,517,-1,445,517,446,-1,446,517,518,-1,507,506,519,-1,509,508,520,-1,511,510,521,-1,513,512,522,-1,515,514,523,-1,517,516,524,-1,525,504,505,-1,505,526,525,-1,525,526,527,-1,525,527,528,-1,528,527,529,-1,528,529,530,-1,529,531,530,-1,530,531,532,-1,530,532,533,-1,533,532,534,-1,533,534,535,-1,534,536,535,-1,535,536,537,-1,535,537,538,-1,538,537,539,-1,538,539,524,-1,518,517,540,-1,540,517,524,-1,540,524,541,-1,541,524,539,-1,516,515,524,-1,524,515,523,-1,524,523,538,-1,538,523,542,-1,538,542,535,-1,535,542,543,-1,535,543,533,-1,533,543,544,-1,533,544,530,-1,530,544,545,-1,530,545,528,-1,528,545,546,-1,528,546,525,-1,525,546,547,-1,525,547,504,-1,504,547,503,-1,514,513,523,-1,523,513,522,-1,523,522,542,-1,542,522,548,-1,542,548,543,-1,543,548,549,-1,543,549,544,-1,544,549,550,-1,544,550,545,-1,545,550,551,-1,545,551,546,-1,546,551,552,-1,546,552,547,-1,547,552,553,-1,547,553,503,-1,503,553,502,-1,512,511,522,-1,522,511,521,-1,522,521,548,-1,548,521,554,-1,548,554,549,-1,549,554,555,-1,549,555,550,-1,550,555,556,-1,550,556,551,-1,551,556,557,-1,551,557,552,-1,552,557,558,-1,552,558,553,-1,553,558,559,-1,553,559,502,-1,502,559,501,-1,510,509,521,-1,521,509,520,-1,521,520,554,-1,554,520,560,-1,554,560,555,-1,555,560,561,-1,555,561,556,-1,556,561,562,-1,556,562,557,-1,557,562,563,-1,557,563,558,-1,558,563,564,-1,558,564,559,-1,559,564,565,-1,559,565,501,-1,501,565,500,-1,508,507,520,-1,520,507,519,-1,520,519,560,-1,560,519,566,-1,560,566,561,-1,561,566,567,-1,561,567,562,-1,562,567,568,-1,562,568,563,-1,563,568,569,-1,563,569,564,-1,564,569,570,-1,564,570,565,-1,565,570,571,-1,565,571,500,-1,500,571,499,-1,
        ]
    }
}
Shape{
    appearance Appearance {
        material  Material 	{
            diffuseColor 0.25098039215686274 0.25098039215686274 0.25098039215686274
            specularColor 0.12549019607843137 0.12549019607843137 0.12549019607843137
            ambientIntensity 0.251
            transparency 0.0
            shininess 0.5
        }
    }
    geometry IndexedFaceSet {
        ccw TRUE
        solid FALSE
        coord DEF co Coordinate {
            point [
                -0.3325 -0.2787 0.2398, -0.3325 -0.2787 0.2402, -0.3338 -0.269 0.2398, -0.3338 -0.269 0.2402, -0.3375 -0.2599 0.2398, -0.3375 -0.2599 0.2402, -0.3435 -0.252 0.2398, -0.3435 -0.252 0.2402, -0.3513 -0.2461 0.2398, -0.3513 -0.2461 0.2402, -0.3604 -0.2423 0.2398, -0.3604 -0.2423 0.2402, -0.3702 -0.241 0.2398, -0.3702 -0.241 0.2402, -0.38 -0.2423 0.2398, -0.38 -0.2423 0.2402, -0.3891 -0.2461 0.2398, -0.3891 -0.2461 0.2402, -0.3969 -0.252 0.2398, -0.3969 -0.252 0.2402, -0.4029 -0.2599 0.2398, -0.4029 -0.2599 0.2402, -0.4066 -0.269 0.2398, -0.4066 -0.269 0.2402, -0.4079 -0.2787 0.2398, -0.4079 -0.2787 0.2402, -0.4066 -0.2885 0.2398, -0.4066 -0.2885 0.2402, -0.4029 -0.2976 0.2398, -0.4029 -0.2976 0.2402, -0.3969 -0.3054 0.2398, -0.3969 -0.3054 0.2402, -0.3891 -0.3114 0.2398, -0.3891 -0.3114 0.2402, -0.38 -0.3152 0.2398, -0.38 -0.3152 0.2402, -0.3702 -0.3164 0.2398, -0.3702 -0.3164 0.2402, -0.3604 -0.3152 0.2398, -0.3604 -0.3152 0.2402, -0.3513 -0.3114 0.2398, -0.3513 -0.3114 0.2402, -0.3435 -0.3054 0.2398, -0.3435 -0.3054 0.2402, -0.3375 -0.2976 0.2398, -0.3375 -0.2976 0.2402, -0.3338 -0.2885 0.2398, -0.3338 -0.2885 0.2402, -0.3702 -0.2787 0.2398
            ]
        }
        coordIndex [
            0,1,2,-1,2,1,3,-1,2,3,4,-1,4,3,5,-1,4,5,6,-1,6,5,7,-1,6,7,8,-1,8,7,9,-1,8,9,10,-1,10,9,11,-1,10,11,12,-1,12,11,13,-1,12,13,14,-1,14,13,15,-1,14,15,16,-1,16,15,17,-1,16,17,18,-1,18,17,19,-1,18,19,20,-1,20,19,21,-1,20,21,22,-1,22,21,23,-1,22,23,24,-1,24,23,25,-1,24,25,26,-1,26,25,27,-1,26,27,28,-1,28,27,29,-1,28,29,30,-1,30,29,31,-1,30,31,32,-1,32,31,33,-1,32,33,34,-1,34,33,35,-1,34,35,36,-1,36,35,37,-1,36,37,38,-1,38,37,39,-1,38,39,40,-1,40,39,41,-1,40,41,42,-1,42,41,43,-1,42,43,44,-1,44,43,45,-1,44,45,46,-1,46,45,47,-1,46,47,0,-1,0,47,1,-1,44,46,48,-1,48,46,0,-1,48,0,2,-1,38,40,48,-1,48,40,42,-1,48,42,44,-1,32,34,48,-1,48,34,36,-1,48,36,38,-1,26,28,48,-1,48,28,30,-1,48,30,32,-1,20,22,48,-1,48,22,24,-1,48,24,26,-1,14,16,48,-1,48,16,18,-1,48,18,20,-1,8,10,48,-1,48,10,12,-1,48,12,14,-1,2,4,48,-1,48,4,6,-1,48,6,8,-1,
        ]
    }
}
Shape{
    appearance Appearance {
        material  Material 	{
            diffuseColor 1.0 1.0 0.0
            specularColor 0.5019607843137255 0.5019607843137255 0.0
            ambientIntensity 0.886
            transparency 0.0
            shininess 0.5
        }
    }
    geometry IndexedFaceSet {
        ccw TRUE
        solid FALSE
        coord DEF co Coordinate {
            point [
                -0.4429 -0.3085 0.0039, -0.4429 -0.1378 0.0039, -0.4429 -0.3085 0.0, -0.4429 -0.1378 0.0, -0.2067 -0.1378 0.0, -0.2067 -0.1378 0.0039, -0.1673 -0.1772 0.0, -0.1673 -0.1772 0.0039, -0.1673 -0.3543 0.0, -0.1673 -0.3543 0.0039, -0.4019 -0.3543 0.0, -0.4019 -0.3543 0.0039, -0.4855 -0.369 0.0, -0.4921 -0.3681 0.0, -0.4921 -0.2953 0.0, -0.3937 -0.3937 0.0, -0.4665 -0.3937 0.0, -0.4674 -0.3871 0.0, -0.47 -0.3809 0.0, -0.3958 -0.3736 0.0, -0.474 -0.3756 0.0, -0.4793 -0.3715 0.0, -0.4585 -0.3012 0.0, -0.475 -0.2968 0.0, 0.1673 -0.1378 0.0, 0.1673 -0.3543 0.0, 0.1673 -0.1378 0.0039, 0.1673 -0.3543 0.0039, 0.4429 -0.1378 0.0, 0.4429 -0.1378 0.0039, 0.4674 -0.3871 0.0, 0.4665 -0.3937 0.0, 0.3937 -0.3937 0.0, 0.4019 -0.3543 0.0, 0.4429 -0.3085 0.0, 0.3958 -0.3736 0.0, 0.4921 -0.2953 0.0, 0.4921 -0.3681 0.0, 0.475 -0.2968 0.0, 0.4855 -0.369 0.0, 0.4585 -0.3012 0.0, 0.4793 -0.3715 0.0, 0.474 -0.3756 0.0, 0.47 -0.3809 0.0, 0.4019 0.3543 0.0, 0.1673 0.3543 0.0, 0.4019 0.3543 0.0039, 0.1673 0.3543 0.0039, 0.4429 0.3085 0.0039, 0.4429 0.1378 0.0039, 0.4429 0.3085 0.0, 0.4429 0.1378 0.0, 0.1673 0.1378 0.0, 0.1673 0.1378 0.0039, 0.3958 0.3736 0.0, 0.3937 0.3937 0.0, 0.4855 0.369 0.0, 0.4921 0.3681 0.0, 0.4921 0.2953 0.0, 0.4665 0.3937 0.0, 0.4674 0.3871 0.0, 0.47 0.3809 0.0, 0.474 0.3756 0.0, 0.4793 0.3715 0.0, 0.4585 0.3012 0.0, 0.475 0.2968 0.0, -0.1673 0.1378 0.0, -0.1673 0.3543 0.0, -0.1673 0.1378 0.0039, -0.1673 0.3543 0.0039, -0.4429 0.1378 0.0, -0.4429 0.1378 0.0039, -0.4674 0.3871 0.0, -0.4665 0.3937 0.0, -0.3937 0.3937 0.0, -0.4019 0.3543 0.0, -0.4429 0.3085 0.0, -0.3958 0.3736 0.0, -0.4921 0.2953 0.0, -0.4921 0.3681 0.0, -0.475 0.2968 0.0, -0.4855 0.369 0.0, -0.4585 0.3012 0.0, -0.4793 0.3715 0.0, -0.474 0.3756 0.0, -0.47 0.3809 0.0, -0.4665 -0.3937 0.063, -0.4626 -0.3937 0.063, -0.4674 -0.3871 0.063, -0.4636 -0.3861 0.063, -0.47 -0.3809 0.063, -0.4666 -0.3789 0.063, -0.474 -0.3756 0.063, -0.4712 -0.3728 0.063, -0.4793 -0.3715 0.063, -0.4774 -0.3681 0.063, -0.4855 -0.369 0.063, -0.4845 -0.3652 0.063, -0.4921 -0.3681 0.063, -0.4921 -0.3642 0.063, -0.4585 -0.3012 0.0039, -0.475 -0.2968 0.0039, -0.4921 -0.2953 0.0039, -0.3937 -0.3937 0.0039, -0.3958 -0.3736 0.0039, -0.4921 0.3681 0.063, -0.4921 0.3642 0.063, -0.4855 0.369 0.063, -0.4856 0.3649 0.063, -0.4793 0.3715 0.063, -0.4793 0.3671 0.063, -0.474 0.3756 0.063, -0.4626 0.3937 0.063, -0.4665 0.3937 0.063, -0.4633 0.3871 0.063, -0.4674 0.3871 0.063, -0.4655 0.3809 0.063, -0.47 0.3809 0.063, -0.469 0.3753 0.063, -0.4737 0.3706 0.063, -0.4921 0.2953 0.0039, -0.475 0.2968 0.0039, -0.4585 0.3012 0.0039, -0.4429 0.3085 0.0039, -0.4019 0.3543 0.0039, -0.3958 0.3736 0.0039, -0.3937 0.3937 0.0039, 0.4665 0.3937 0.063, 0.4626 0.3937 0.063, 0.4674 0.3871 0.063, 0.4633 0.3871 0.063, 0.47 0.3809 0.063, 0.4655 0.3809 0.063, 0.474 0.3756 0.063, 0.4921 0.3642 0.063, 0.4921 0.3681 0.063, 0.4856 0.3649 0.063, 0.4855 0.369 0.063, 0.4793 0.3671 0.063, 0.4793 0.3715 0.063, 0.4737 0.3706 0.063, 0.469 0.3753 0.063, 0.3937 0.3937 0.0039, 0.3958 0.3736 0.0039, 0.4585 0.3012 0.0039, 0.475 0.2968 0.0039, 0.4921 0.2953 0.0039, 0.4921 -0.3681 0.063, 0.4921 -0.3642 0.063, 0.4855 -0.369 0.063, 0.4856 -0.3649 0.063, 0.4793 -0.3715 0.063, 0.4793 -0.3671 0.063, 0.474 -0.3756 0.063, 0.4626 -0.3937 0.063, 0.4665 -0.3937 0.063, 0.4633 -0.3871 0.063, 0.4674 -0.3871 0.063, 0.4655 -0.3809 0.063, 0.47 -0.3809 0.063, 0.469 -0.3753 0.063, 0.4737 -0.3706 0.063, 0.4921 -0.2953 0.0039, 0.475 -0.2968 0.0039, 0.4585 -0.3012 0.0039, 0.4429 -0.3085 0.0039, 0.4019 -0.3543 0.0039, 0.3958 -0.3736 0.0039, 0.3937 -0.3937 0.0039
            ]
        }
        coordIndex [
            0,1,2,-1,2,1,3,-1,4,3,5,-1,5,3,1,-1,6,4,7,-1,7,4,5,-1,8,6,9,-1,9,6,7,-1,10,8,11,-1,11,8,9,-1,12,13,14,-1,15,16,17,-1,17,18,15,-1,15,18,2,-1,15,2,19,-1,19,2,10,-1,3,4,2,-1,2,4,6,-1,2,6,10,-1,10,6,8,-1,18,20,2,-1,2,20,21,-1,2,21,22,-1,22,21,12,-1,22,12,23,-1,23,12,14,-1,24,25,26,-1,26,25,27,-1,28,24,29,-1,29,24,26,-1,30,31,32,-1,33,34,35,-1,35,34,32,-1,33,25,34,-1,34,25,24,-1,34,24,28,-1,36,37,38,-1,38,37,39,-1,38,39,40,-1,40,39,34,-1,39,41,34,-1,34,41,42,-1,34,42,32,-1,32,42,43,-1,32,43,30,-1,44,45,46,-1,46,45,47,-1,48,49,50,-1,50,49,51,-1,52,51,53,-1,53,51,49,-1,45,52,47,-1,47,52,53,-1,54,55,50,-1,56,57,58,-1,50,51,52,-1,59,60,55,-1,55,60,61,-1,55,61,50,-1,54,50,44,-1,44,50,52,-1,44,52,45,-1,61,62,50,-1,50,62,63,-1,50,63,64,-1,64,63,56,-1,64,56,65,-1,65,56,58,-1,66,67,68,-1,68,67,69,-1,70,66,71,-1,71,66,68,-1,72,73,74,-1,75,76,77,-1,77,76,74,-1,75,67,76,-1,76,67,66,-1,76,66,70,-1,78,79,80,-1,80,79,81,-1,80,81,82,-1,82,81,76,-1,81,83,76,-1,76,83,84,-1,76,84,74,-1,74,84,85,-1,74,85,72,-1,86,87,88,-1,88,87,89,-1,88,89,90,-1,90,89,91,-1,90,91,92,-1,92,91,93,-1,92,93,94,-1,94,93,95,-1,94,95,96,-1,96,95,97,-1,96,97,98,-1,98,97,99,-1,0,2,22,-1,0,22,100,-1,100,22,23,-1,100,23,101,-1,101,23,14,-1,101,14,102,-1,103,15,19,-1,103,19,104,-1,104,19,10,-1,104,10,11,-1,98,13,96,-1,96,13,12,-1,96,12,94,-1,94,12,21,-1,94,21,92,-1,92,21,20,-1,92,20,90,-1,90,20,18,-1,90,18,88,-1,88,18,17,-1,88,17,86,-1,86,17,16,-1,105,106,107,-1,107,106,108,-1,107,108,109,-1,109,108,110,-1,109,110,111,-1,112,113,114,-1,114,113,115,-1,114,115,116,-1,116,115,117,-1,116,117,118,-1,118,117,111,-1,118,111,119,-1,119,111,110,-1,120,78,80,-1,120,80,121,-1,121,80,82,-1,121,82,122,-1,122,82,76,-1,122,76,123,-1,124,75,77,-1,124,77,125,-1,125,77,74,-1,125,74,126,-1,113,73,115,-1,115,73,72,-1,115,72,117,-1,117,72,85,-1,117,85,111,-1,111,85,84,-1,111,84,109,-1,109,84,83,-1,109,83,107,-1,107,83,81,-1,107,81,105,-1,105,81,79,-1,127,128,129,-1,129,128,130,-1,129,130,131,-1,131,130,132,-1,131,132,133,-1,134,135,136,-1,136,135,137,-1,136,137,138,-1,138,137,139,-1,138,139,140,-1,140,139,133,-1,140,133,141,-1,141,133,132,-1,142,55,54,-1,142,54,143,-1,143,54,44,-1,143,44,46,-1,48,50,64,-1,48,64,144,-1,144,64,65,-1,144,65,145,-1,145,65,58,-1,145,58,146,-1,135,57,137,-1,137,57,56,-1,137,56,139,-1,139,56,63,-1,139,63,133,-1,133,63,62,-1,133,62,131,-1,131,62,61,-1,131,61,129,-1,129,61,60,-1,129,60,127,-1,127,60,59,-1,147,148,149,-1,149,148,150,-1,149,150,151,-1,151,150,152,-1,151,152,153,-1,154,155,156,-1,156,155,157,-1,156,157,158,-1,158,157,159,-1,158,159,160,-1,160,159,153,-1,160,153,161,-1,161,153,152,-1,162,36,38,-1,162,38,163,-1,163,38,40,-1,163,40,164,-1,164,40,34,-1,164,34,165,-1,166,33,35,-1,166,35,167,-1,167,35,32,-1,167,32,168,-1,155,31,157,-1,157,31,30,-1,157,30,159,-1,159,30,43,-1,159,43,153,-1,153,43,42,-1,153,42,151,-1,151,42,41,-1,151,41,149,-1,149,41,39,-1,149,39,147,-1,147,39,37,-1,
        ]
    }
}
Shape{
    appearance Appearance {
        material  Material 	{
            diffuseColor 0.0 0.0 0.0
            specularColor 0.0 0.0 0.0
            ambientIntensity 0.0
            transparency 0.0
            shininess 0.5
        }
    }
    geometry IndexedFaceSet {
        ccw TRUE
        solid FALSE
        coord DEF co Coordinate {
            point [
                -0.0813 0.0181 0.0043, -0.0966 -0.0212 0.0043, -0.0813 0.0181 0.0039, -0.0966 -0.0212 0.0039, -0.0909 -0.0212 0.0043, -0.0909 -0.0212 0.0039, -0.0869 -0.0102 0.0043, -0.0869 -0.0102 0.0039, -0.0706 -0.0102 0.0043, -0.0706 -0.0102 0.0039, -0.0669 -0.0212 0.0043, -0.0669 -0.0212 0.0039, -0.0611 -0.0212 0.0043, -0.0611 -0.0212 0.0039, -0.076 0.0181 0.0043, -0.076 0.0181 0.0039, -0.072 -0.0059 0.0043, -0.0851 -0.0059 0.0043, -0.0778 0.0106 0.0043, -0.0782 0.0119 0.0043, -0.0785 0.0133 0.0043, -0.0786 0.0133 0.0043, -0.0789 0.012 0.0043, -0.0792 0.0106 0.0043, -0.072 -0.0059 0.0039, -0.0851 -0.0059 0.0039, -0.0778 0.0106 0.0039, -0.0782 0.0119 0.0039, -0.0785 0.0133 0.0039, -0.0786 0.0133 0.0039, -0.0789 0.012 0.0039, -0.0792 0.0106 0.0039, -0.0373 -0.0212 0.0043, -0.0266 -0.0212 0.0043, -0.0373 -0.0212 0.0039, -0.0266 -0.0212 0.0039, -0.0266 0.0181 0.0043, -0.0266 0.0181 0.0039, -0.0377 0.0181 0.0043, -0.0377 0.0181 0.0039, -0.0582 -0.001 0.0043, -0.0582 -0.001 0.0039, -0.058 0.0027 0.0039, -0.058 0.0027 0.0043, -0.0569 0.0065 0.0039, -0.0569 0.0065 0.0043, -0.0551 0.0099 0.0039, -0.0551 0.0099 0.0043, -0.0523 0.013 0.0039, -0.0523 0.013 0.0043, -0.0522 0.013 0.0039, -0.0522 0.013 0.0043, -0.048 0.0159 0.0039, -0.048 0.0159 0.0043, -0.0433 0.0175 0.0039, -0.0433 0.0175 0.0043, -0.0421 -0.0208 0.0039, -0.0421 -0.0208 0.0043, -0.0467 -0.0194 0.0039, -0.0467 -0.0194 0.0043, -0.0508 -0.0171 0.0039, -0.0508 -0.0171 0.0043, -0.054 -0.014 0.0039, -0.054 -0.014 0.0043, -0.0563 -0.0104 0.0039, -0.0563 -0.0104 0.0043, -0.0577 -0.0063 0.0039, -0.0577 -0.0063 0.0043, -0.0503 0.0083 0.0043, -0.0484 0.0103 0.0043, -0.0455 0.0122 0.0043, -0.0423 0.0133 0.0043, -0.0376 0.0138 0.0043, -0.0318 0.0138 0.0043, -0.0318 -0.0169 0.0043, -0.0374 -0.0169 0.0043, -0.0416 -0.0165 0.0043, -0.0449 -0.0155 0.0043, -0.0476 -0.0139 0.0043, -0.0498 -0.0117 0.0043, -0.0514 -0.009 0.0043, -0.0526 -0.0053 0.0043, -0.053 -0.0012 0.0043, -0.0526 0.0028 0.0043, -0.0517 0.0059 0.0043, -0.0376 0.0138 0.0039, -0.0318 0.0138 0.0039, -0.0423 0.0133 0.0039, -0.0455 0.0122 0.0039, -0.0484 0.0103 0.0039, -0.0503 0.0083 0.0039, -0.0517 0.0059 0.0039, -0.0526 0.0028 0.0039, -0.053 -0.0012 0.0039, -0.0526 -0.0053 0.0039, -0.0514 -0.009 0.0039, -0.0498 -0.0117 0.0039, -0.0476 -0.0139 0.0039, -0.0449 -0.0155 0.0039, -0.0416 -0.0165 0.0039, -0.0374 -0.0169 0.0039, -0.0318 -0.0169 0.0039, -0.0189 -0.0169 0.0043, -0.0189 -0.0212 0.0043, -0.0189 -0.0169 0.0039, -0.0189 -0.0212 0.0039, 0.0023 -0.0212 0.0043, 0.0023 -0.0212 0.0039, 0.0023 0.0181 0.0043, 0.0023 0.0181 0.0039, -0.0179 0.0181 0.0043, -0.0179 0.0181 0.0039, -0.0179 0.0138 0.0043, -0.0179 0.0138 0.0039, -0.003 0.0138 0.0043, -0.003 0.0138 0.0039, -0.003 0.0009 0.0043, -0.003 0.0009 0.0039, -0.0169 0.0009 0.0043, -0.0169 0.0009 0.0039, -0.0169 -0.0035 0.0043, -0.0169 -0.0035 0.0039, -0.003 -0.0035 0.0043, -0.003 -0.0035 0.0039, -0.003 -0.0169 0.0043, -0.003 -0.0169 0.0039, 0.0099 -0.0149 0.0043, 0.0099 -0.0192 0.0043, 0.0099 -0.0149 0.0039, 0.0099 -0.0192 0.0039, 0.0141 -0.0209 0.0043, 0.0208 -0.0217 0.0043, 0.0208 -0.0217 0.0039, 0.0197 -0.0217 0.0039, 0.0197 -0.0217 0.0043, 0.0181 -0.0215 0.0039, 0.0141 -0.0209 0.0039, 0.0231 -0.0215 0.0039, 0.0256 -0.0212 0.0043, 0.0256 -0.0212 0.0039, 0.0294 -0.0199 0.0043, 0.0294 -0.0199 0.0039, 0.0326 -0.0179 0.0043, 0.0326 -0.0179 0.0039, 0.0356 -0.0148 0.0043, 0.0356 -0.0148 0.0039, 0.0377 -0.011 0.0043, 0.0377 -0.011 0.0039, 0.0388 -0.0068 0.0043, 0.0388 -0.0068 0.0039, 0.0392 -0.0023 0.0043, 0.0392 -0.0023 0.0039, 0.0192 0.0186 0.0043, 0.0192 0.0186 0.0039, 0.0232 0.0183 0.0039, 0.0232 0.0183 0.0043, 0.0275 0.017 0.0039, 0.0275 0.017 0.0043, 0.0313 0.0149 0.0039, 0.0313 0.0149 0.0043, 0.0348 0.0115 0.0039, 0.0348 0.0115 0.0043, 0.0371 0.0078 0.0039, 0.0371 0.0078 0.0043, 0.0387 0.0033 0.0039, 0.0387 0.0033 0.0043, 0.0099 0.0171 0.0043, 0.0099 0.0171 0.0039, 0.0145 0.0183 0.0039, 0.0145 0.0183 0.0043, 0.0099 0.0118 0.0043, 0.0099 0.0118 0.0039, 0.0192 0.0143 0.0043, 0.0192 0.0143 0.0039, 0.0144 0.0137 0.0039, 0.0144 0.0137 0.0043, 0.0339 -0.002 0.0043, 0.0339 -0.002 0.0039, 0.0338 0.0011 0.0039, 0.0338 0.0011 0.0043, 0.0327 0.0053 0.0039, 0.0327 0.0053 0.0043, 0.0311 0.0084 0.0039, 0.0311 0.0084 0.0043, 0.0287 0.011 0.0039, 0.0287 0.011 0.0043, 0.026 0.0128 0.0039, 0.026 0.0128 0.0043, 0.023 0.0139 0.0039, 0.023 0.0139 0.0043, 0.02 -0.0174 0.0043, 0.02 -0.0174 0.0039, 0.0237 -0.017 0.0039, 0.0237 -0.017 0.0043, 0.0266 -0.0159 0.0039, 0.0266 -0.0159 0.0043, 0.029 -0.0143 0.0039, 0.029 -0.0143 0.0043, 0.0308 -0.0123 0.0039, 0.0308 -0.0123 0.0043, 0.0325 -0.0096 0.0039, 0.0325 -0.0096 0.0043, 0.0335 -0.0062 0.0039, 0.0335 -0.0062 0.0043, 0.0106 -0.0153 0.0039, 0.0106 -0.0153 0.0043, 0.0148 -0.0168 0.0039, 0.0148 -0.0168 0.0043, 0.0426 -0.0169 0.0043, 0.0426 -0.0212 0.0043, 0.0426 -0.0169 0.0039, 0.0426 -0.0212 0.0039, 0.0628 -0.0212 0.0043, 0.0628 -0.0212 0.0039, 0.0628 0.0181 0.0043, 0.0628 0.0181 0.0039, 0.0575 0.0181 0.0043, 0.0575 0.0181 0.0039, 0.0575 -0.0169 0.0043, 0.0575 -0.0169 0.0039
            ]
        }
        coordIndex [
            0,1,2,-1,2,1,3,-1,1,4,3,-1,3,4,5,-1,4,6,5,-1,5,6,7,-1,6,8,7,-1,7,8,9,-1,8,10,9,-1,9,10,11,-1,10,12,11,-1,11,12,13,-1,12,14,13,-1,13,14,15,-1,14,0,15,-1,15,0,2,-1,16,8,17,-1,17,8,6,-1,18,14,16,-1,16,14,12,-1,16,12,8,-1,8,12,10,-1,18,19,14,-1,14,19,20,-1,14,20,0,-1,0,20,21,-1,0,21,22,-1,22,23,0,-1,0,23,17,-1,0,17,1,-1,1,17,6,-1,1,6,4,-1,16,17,24,-1,24,17,25,-1,18,16,26,-1,26,16,24,-1,18,26,27,-1,18,27,19,-1,19,27,28,-1,19,28,20,-1,21,20,29,-1,29,20,28,-1,21,29,30,-1,21,30,22,-1,22,30,31,-1,22,31,23,-1,17,23,25,-1,25,23,31,-1,32,33,34,-1,34,33,35,-1,33,36,35,-1,35,36,37,-1,36,38,37,-1,37,38,39,-1,40,41,42,-1,40,42,43,-1,43,42,44,-1,43,44,45,-1,45,44,46,-1,45,46,47,-1,47,46,48,-1,47,48,49,-1,49,48,50,-1,49,50,51,-1,51,50,52,-1,51,52,53,-1,53,52,54,-1,53,54,55,-1,55,54,39,-1,55,39,38,-1,32,34,56,-1,32,56,57,-1,57,56,58,-1,57,58,59,-1,59,58,60,-1,59,60,61,-1,61,60,62,-1,61,62,63,-1,63,62,64,-1,63,64,65,-1,65,64,66,-1,65,66,67,-1,67,66,41,-1,67,41,40,-1,45,47,68,-1,68,47,49,-1,68,49,69,-1,69,49,51,-1,69,51,70,-1,70,51,53,-1,70,53,71,-1,71,53,55,-1,71,55,72,-1,72,55,38,-1,72,38,73,-1,73,38,36,-1,73,36,74,-1,74,36,33,-1,74,33,75,-1,75,33,32,-1,75,32,76,-1,76,32,57,-1,76,57,77,-1,77,57,59,-1,77,59,78,-1,78,59,61,-1,78,61,79,-1,79,61,63,-1,79,63,80,-1,80,63,65,-1,80,65,81,-1,81,65,67,-1,81,67,82,-1,82,67,40,-1,82,40,83,-1,83,40,43,-1,83,43,84,-1,84,43,45,-1,84,45,68,-1,72,73,85,-1,85,73,86,-1,72,85,87,-1,72,87,71,-1,71,87,88,-1,71,88,70,-1,70,88,89,-1,70,89,69,-1,69,89,90,-1,69,90,68,-1,68,90,91,-1,68,91,84,-1,84,91,92,-1,84,92,83,-1,83,92,93,-1,83,93,82,-1,82,93,94,-1,82,94,81,-1,81,94,95,-1,81,95,80,-1,80,95,96,-1,80,96,79,-1,79,96,97,-1,79,97,78,-1,78,97,98,-1,78,98,77,-1,77,98,99,-1,77,99,76,-1,76,99,100,-1,76,100,75,-1,74,75,101,-1,101,75,100,-1,73,74,86,-1,86,74,101,-1,102,103,104,-1,104,103,105,-1,103,106,105,-1,105,106,107,-1,106,108,107,-1,107,108,109,-1,108,110,109,-1,109,110,111,-1,110,112,111,-1,111,112,113,-1,112,114,113,-1,113,114,115,-1,114,116,115,-1,115,116,117,-1,116,118,117,-1,117,118,119,-1,118,120,119,-1,119,120,121,-1,120,122,121,-1,121,122,123,-1,122,124,123,-1,123,124,125,-1,124,102,125,-1,125,102,104,-1,106,103,102,-1,102,124,106,-1,106,124,122,-1,106,122,108,-1,112,110,114,-1,114,110,108,-1,114,108,116,-1,116,108,122,-1,116,122,118,-1,118,122,120,-1,126,127,128,-1,128,127,129,-1,129,127,130,-1,131,132,133,-1,131,133,134,-1,134,133,135,-1,134,135,130,-1,130,135,136,-1,130,136,129,-1,132,131,137,-1,137,131,138,-1,137,138,139,-1,139,138,140,-1,139,140,141,-1,141,140,142,-1,141,142,143,-1,143,142,144,-1,143,144,145,-1,145,144,146,-1,145,146,147,-1,147,146,148,-1,147,148,149,-1,149,148,150,-1,149,150,151,-1,152,153,154,-1,152,154,155,-1,155,154,156,-1,155,156,157,-1,157,156,158,-1,157,158,159,-1,159,158,160,-1,159,160,161,-1,161,160,162,-1,161,162,163,-1,163,162,164,-1,163,164,165,-1,165,164,151,-1,165,151,150,-1,166,167,168,-1,166,168,169,-1,169,168,153,-1,169,153,152,-1,166,170,167,-1,167,170,171,-1,172,173,174,-1,172,174,175,-1,175,174,171,-1,175,171,170,-1,176,177,178,-1,176,178,179,-1,179,178,180,-1,179,180,181,-1,181,180,182,-1,181,182,183,-1,183,182,184,-1,183,184,185,-1,185,184,186,-1,185,186,187,-1,187,186,188,-1,187,188,189,-1,189,188,173,-1,189,173,172,-1,190,191,192,-1,190,192,193,-1,193,192,194,-1,193,194,195,-1,195,194,196,-1,195,196,197,-1,197,196,198,-1,197,198,199,-1,199,198,200,-1,199,200,201,-1,201,200,202,-1,201,202,203,-1,203,202,177,-1,203,177,176,-1,126,128,204,-1,126,204,205,-1,205,204,206,-1,205,206,207,-1,207,206,191,-1,207,191,190,-1,193,131,190,-1,190,131,134,-1,190,134,207,-1,207,134,130,-1,207,130,205,-1,205,130,127,-1,205,127,126,-1,170,166,175,-1,175,166,169,-1,175,169,172,-1,172,169,152,-1,172,152,189,-1,189,152,155,-1,189,155,187,-1,187,155,157,-1,187,157,185,-1,185,157,159,-1,185,159,183,-1,183,159,161,-1,183,161,181,-1,181,161,163,-1,181,163,179,-1,179,163,165,-1,179,165,176,-1,176,165,150,-1,176,150,203,-1,203,150,148,-1,203,148,201,-1,201,148,146,-1,201,146,199,-1,199,146,144,-1,199,144,197,-1,197,144,142,-1,197,142,195,-1,195,142,140,-1,195,140,193,-1,193,140,138,-1,193,138,131,-1,208,209,210,-1,210,209,211,-1,209,212,211,-1,211,212,213,-1,212,214,213,-1,213,214,215,-1,214,216,215,-1,215,216,217,-1,216,218,217,-1,217,218,219,-1,218,208,219,-1,219,208,210,-1,216,214,218,-1,218,214,212,-1,218,212,208,-1,208,212,209,-1,
        ]
    }
}
Shape{
    appearance Appearance {
        material  Material 	{
            diffuseColor 0.25098039215686274 0.25098039215686274 0.25098039215686274
            specularColor 0.12549019607843137 0.12549019607843137 0.12549019607843137
            ambientIntensity 0.251
            transparency 0.0
            shininess 0.5
        }
    }
    geometry IndexedFaceSet {
        ccw TRUE
        solid FALSE
        coord DEF co Coordinate {
            point [
                -0.072 -0.0059 0.0039, -0.0851 -0.0059 0.0039, -0.0778 0.0106 0.0039, -0.0792 0.0106 0.0039, -0.0782 0.0119 0.0039, -0.0789 0.012 0.0039, -0.0785 0.0133 0.0039, -0.0786 0.0133 0.0039, -0.0318 0.0138 0.0039, -0.0318 -0.0169 0.0039, -0.0376 0.0138 0.0039, -0.0374 -0.0169 0.0039, -0.0416 -0.0165 0.0039, -0.053 -0.0012 0.0039, -0.0526 0.0028 0.0039, -0.0517 0.0059 0.0039, -0.0423 0.0133 0.0039, -0.0449 -0.0155 0.0039, -0.0476 -0.0139 0.0039, -0.0498 -0.0117 0.0039, -0.0514 -0.009 0.0039, -0.0526 -0.0053 0.0039, -0.0503 0.0083 0.0039, -0.0484 0.0103 0.0039, -0.0455 0.0122 0.0039
            ]
        }
        coordIndex [
            0,1,2,-1,2,1,3,-1,2,3,4,-1,4,3,5,-1,4,5,6,-1,6,5,7,-1,8,9,10,-1,10,9,11,-1,10,11,12,-1,13,14,10,-1,10,14,15,-1,10,15,16,-1,12,17,10,-1,10,17,18,-1,10,18,19,-1,19,20,10,-1,10,20,21,-1,10,21,13,-1,22,23,15,-1,15,23,24,-1,15,24,16,-1,
        ]
    }
}