#VRML V2.0 utf8
# 3D model generated by easyeda2kicad.py (https://github.com/uPesy/easyeda2kicad.py)

Shape{
    appearance Appearance {
        material  Material 	{
            diffuseColor 0.6666666666666666 0.6666666666666666 0.6666666666666666
            specularColor 0.4666666666666667 0.4666666666666667 0.4666666666666667
            ambientIntensity 0.6667
            transparency 0.0
            shininess 0.5
        }
    }
    geometry IndexedFaceSet {
        ccw TRUE
        solid FALSE
        coord DEF co Coordinate {
            point [
                -0.4252 -0.3012 0.0276, -0.4252 -0.0413 0.0276, -0.0163 -0.0413 0.0276, -0.4199 -0.3209 0.0276, -0.3858 -0.3406 0.0276, -0.4137 -0.329 0.0276, -0.396 -0.3392 0.0276, -0.4055 -0.3353 0.0276, 0.0653 -0.0413 0.0276, 0.0685 -0.0418 0.0276, -0.0163 -0.3406 0.0276, 0.0706 -0.0418 0.0276, 0.0753 -0.0413 0.0276, 0.3858 -0.3406 0.0276, 0.4239 -0.3114 0.0276, 0.4199 -0.3209 0.0276, 0.4137 -0.329 0.0276, 0.4055 -0.3353 0.0276, 0.396 -0.3392 0.0276, -0.0086 -0.0322 0.0276, -0.0086 -0.0408 0.0276, 0.0336 -0.0408 0.0276, 0.049 -0.0368 0.0276, 0.049 -0.0281 0.0276, 0.0336 0.0379 0.0276, -0.4239 -0.3114 0.0276, 0.0574 -0.0402 0.0276, 0.023 0.0293 0.0276, 0.023 0.0033 0.0276, -0.0067 0.0293 0.0276, -0.0048 0.0033 0.0276, 0.023 -0.0053 0.0276, 0.023 -0.0322 0.0276, -0.0048 -0.0053 0.0276, 0.088 -0.0382 0.0276, 0.1143 -0.0408 0.0276, 0.0803 -0.0408 0.0276, -0.0067 0.0379 0.0276, -0.0163 0.3406 0.0276, 0.1546 -0.0408 0.0276, 0.4252 -0.0413 0.0276, 0.4252 -0.3012 0.0276, 0.4055 0.3353 0.0276, 0.4137 0.329 0.0276, 0.1546 0.0379 0.0276, 0.1034 0.0172 0.0276, 0.0988 0.0245 0.0276, 0.144 0.0379 0.0276, 0.0752 0.0293 0.0276, 0.0811 0.0272 0.0276, 0.0504 -0.0289 0.0276, 0.0865 0.0236 0.0276, 0.0913 0.0183 0.0276, 0.097 -0.0023 0.0276, 0.0962 -0.0108 0.0276, 0.094 -0.0176 0.0276, 0.0765 -0.0323 0.0276, 0.0692 -0.0332 0.0276, 0.0823 -0.0302 0.0276, 0.0871 -0.027 0.0276, 0.0908 -0.0231 0.0276, 0.0587 -0.032 0.0276, 0.396 0.3392 0.0276, 0.4199 0.3209 0.0276, 0.4239 0.3114 0.0276, 0.4252 0.3012 0.0276, 0.0945 0.0122 0.0276, 0.0966 0.0038 0.0276, 0.0917 0.0314 0.0276, 0.3858 0.3406 0.0276, 0.0943 -0.0341 0.0276, 0.1002 -0.0279 0.0276, 0.1143 -0.0322 0.0276, 0.1044 -0.0204 0.0276, 0.144 -0.0322 0.0276, 0.1068 -0.0121 0.0276, 0.1075 -0.003 0.0276, 0.1064 0.0082 0.0276, 0.0842 0.0357 0.0276, 0.0754 0.0382 0.0276, 0.0675 0.0389 0.0276, 0.0581 0.0382 0.0276, 0.049 0.0357 0.0276, 0.049 0.0252 0.0276, 0.0578 0.029 0.0276, 0.0674 0.0302 0.0276, -0.1047 -0.0408 0.0276, -0.0931 -0.0408 0.0276, -0.1527 -0.0408 0.0276, -0.1447 -0.0188 0.0276, -0.1122 -0.0188 0.0276, -0.0835 -0.0193 0.0276, -0.0789 -0.0263 0.0276, -0.0725 -0.0325 0.0276, -0.0642 -0.0373 0.0276, -0.1229 0.0379 0.0276, -0.3858 0.3406 0.0276, -0.1335 0.0379 0.0276, -0.396 0.3392 0.0276, -0.024 0.0379 0.0276, -0.0462 0.0379 0.0276, -0.0755 0.0276 0.0276, -0.081 0.0215 0.0276, -0.0847 0.0147 0.0276, -0.0576 0.0367 0.0276, -0.0668 0.0334 0.0276, -0.0754 0.0277 0.0276, -0.4239 0.3114 0.0276, -0.4199 0.3209 0.0276, -0.0552 -0.04 0.0276, -0.0454 -0.0408 0.0276, -0.024 -0.0408 0.0276, -0.0868 0.0069 0.0276, -0.0874 -0.0005 0.0276, -0.0863 -0.011 0.0276, -0.1642 -0.0408 0.0276, -0.4252 0.3012 0.0276, -0.4137 0.329 0.0276, -0.4055 0.3353 0.0276
            ]
        }
        coordIndex [
            0,1,2,-1,3,4,5,-1,5,4,6,-1,5,6,7,-1,8,9,10,-1,9,11,10,-1,10,11,12,-1,10,12,13,-1,14,15,16,-1,16,17,14,-1,14,17,18,-1,14,18,13,-1,19,20,2,-1,2,20,21,-1,22,21,23,-1,23,21,24,-1,3,25,4,-1,4,25,0,-1,4,0,10,-1,10,0,2,-1,10,2,8,-1,8,2,21,-1,8,21,26,-1,26,21,22,-1,27,28,29,-1,29,28,30,-1,31,32,33,-1,33,32,19,-1,34,35,36,-1,36,35,12,-1,24,37,38,-1,38,37,29,-1,38,29,19,-1,19,29,30,-1,19,30,33,-1,35,39,12,-1,12,39,40,-1,12,40,13,-1,13,40,41,-1,13,41,14,-1,42,43,44,-1,45,46,47,-1,48,49,50,-1,50,49,51,-1,50,51,52,-1,53,54,50,-1,50,54,55,-1,56,57,58,-1,58,57,59,-1,55,60,50,-1,50,60,59,-1,50,59,61,-1,61,59,57,-1,42,44,62,-1,43,63,44,-1,44,63,64,-1,44,64,39,-1,39,64,65,-1,39,65,40,-1,52,66,50,-1,50,66,67,-1,50,67,53,-1,46,68,47,-1,47,68,38,-1,47,38,44,-1,44,38,69,-1,44,69,62,-1,34,70,35,-1,35,70,71,-1,35,71,72,-1,72,71,73,-1,72,73,74,-1,73,75,74,-1,74,75,76,-1,74,76,47,-1,47,76,77,-1,47,77,45,-1,68,78,38,-1,38,78,79,-1,38,79,80,-1,80,81,38,-1,38,81,82,-1,38,82,24,-1,24,82,83,-1,24,83,23,-1,23,83,84,-1,23,84,50,-1,50,84,85,-1,50,85,48,-1,86,87,2,-1,88,89,90,-1,91,92,87,-1,87,92,93,-1,87,93,94,-1,38,95,96,-1,96,95,97,-1,96,97,98,-1,19,2,38,-1,38,2,99,-1,38,99,100,-1,101,102,95,-1,95,102,103,-1,100,104,38,-1,38,104,105,-1,38,105,95,-1,95,105,106,-1,95,106,101,-1,107,108,97,-1,94,109,87,-1,87,109,110,-1,87,110,2,-1,2,110,111,-1,2,111,99,-1,103,112,95,-1,95,112,113,-1,95,113,87,-1,87,113,114,-1,87,114,91,-1,90,86,88,-1,88,86,2,-1,88,2,115,-1,115,2,1,-1,115,1,97,-1,97,1,116,-1,97,116,107,-1,108,117,97,-1,97,117,118,-1,97,118,98,-1,
        ]
    }
}
Shape{
    appearance Appearance {
        material  Material 	{
            diffuseColor 0.20784313725490197 0.20784313725490197 0.20784313725490197
            specularColor 0.01568627450980392 0.01568627450980392 0.01568627450980392
            ambientIntensity 0.298
            transparency 0.0
            shininess 0.5
        }
    }
    geometry IndexedFaceSet {
        ccw TRUE
        solid FALSE
        coord DEF co Coordinate {
            point [
                -0.4239 -0.3114 0.0315, -0.4199 -0.3209 0.0315, -0.5424 -0.5424 0.0315, -0.4137 -0.329 0.0315, -0.4055 -0.3353 0.0315, 0.396 -0.3392 0.0315, 0.4055 -0.3353 0.0315, 0.5424 -0.5424 0.0315, 0.4137 -0.329 0.0315, 0.4199 -0.3209 0.0315, 0.4239 0.3114 0.0315, 0.4199 0.3209 0.0315, 0.5424 0.5424 0.0315, 0.4137 0.329 0.0315, 0.4055 0.3353 0.0315, -0.396 0.3392 0.0315, -0.4055 0.3353 0.0315, -0.5424 0.5424 0.0315, -0.4137 0.329 0.0315, -0.4199 0.3209 0.0315, -0.4239 0.3114 0.0315, -0.4252 0.3012 0.0315, -0.4252 -0.3012 0.0315, -0.396 -0.3392 0.0315, -0.3858 -0.3406 0.0315, 0.3858 -0.3406 0.0315, 0.4239 -0.3114 0.0315, 0.4252 -0.3012 0.0315, 0.4252 0.3012 0.0315, 0.396 0.3392 0.0315, 0.3858 0.3406 0.0315, -0.3858 0.3406 0.0315, -0.5512 -0.5906 0.1693, -0.4429 -0.5906 0.1693, -0.5512 -0.5906 0.2283, -0.4429 -0.5906 0.2283, -0.3248 -0.5906 0.1693, -0.187 -0.5906 0.1693, -0.3248 -0.5906 0.2283, -0.187 -0.5906 0.2283, -0.0689 -0.5906 0.1693, 0.0689 -0.5906 0.1693, -0.0689 -0.5906 0.2283, 0.0689 -0.5906 0.2283, 0.5512 -0.5906 0.2283, 0.4429 -0.5906 0.2283, 0.5512 -0.5906 0.1693, 0.4429 -0.5906 0.1693, -0.5512 0.5906 0.2283, -0.4429 0.5906 0.2283, -0.5512 0.5906 0.1693, -0.4429 0.5906 0.1693, -0.3248 0.5906 0.2283, -0.187 0.5906 0.2283, -0.3248 0.5906 0.1693, -0.187 0.5906 0.1693, -0.0689 0.5906 0.2283, 0.0689 0.5906 0.2283, -0.0689 0.5906 0.1693, 0.0689 0.5906 0.1693, 0.187 0.5906 0.2283, 0.3248 0.5906 0.2283, 0.187 0.5906 0.1693, 0.3248 0.5906 0.1693, 0.5906 0.5512 0.2283, 0.5906 -0.5512 0.2283, 0.5906 0.5512 0.1693, 0.5906 -0.5512 0.1693, 0.5512 0.5906 0.1693, 0.4429 0.5906 0.1693, 0.5512 0.5906 0.2283, 0.4429 0.5906 0.2283, -0.5906 -0.5512 0.2283, -0.5906 0.5512 0.2283, -0.5906 -0.5512 0.1693, -0.5906 0.5512 0.1693, 0.187 -0.5906 0.1693, 0.3248 -0.5906 0.1693, 0.187 -0.5906 0.2283, 0.3248 -0.5906 0.2283, 0.5424 -0.5816 0.3302, -0.5424 -0.5816 0.3302, -0.5513 -0.5906 0.2283, 0.5513 -0.5906 0.2283, 0.5906 0.5513 0.2283, 0.5816 0.5424 0.3302, 0.5816 -0.5424 0.3302, 0.5906 -0.5513 0.2283, -0.5424 0.5816 0.3302, 0.5424 0.5816 0.3302, 0.5513 0.5906 0.2283, -0.5513 0.5906 0.2283, -0.5906 -0.5513 0.2283, -0.5816 -0.5424 0.3302, -0.5816 0.5424 0.3302, -0.5906 0.5513 0.2283, -0.2727 -0.2727 0.3661, -0.257 -0.2931 0.3661, 0.5424 0.5424 0.3661, -0.2439 -0.3423 0.3661, -0.2472 -0.3677 0.3661, 0.5424 -0.5424 0.3661, -0.257 -0.3915 0.3661, -0.2727 -0.4119 0.3661, -0.5424 -0.5424 0.3661, -0.4275 -0.3915 0.3661, -0.4373 -0.3677 0.3661, -0.4407 -0.3423 0.3661, -0.4373 -0.3168 0.3661, -0.5424 0.5424 0.3661, -0.4275 -0.2931 0.3661, -0.4119 -0.2727 0.3661, -0.3915 -0.257 0.3661, -0.3677 -0.2472 0.3661, -0.2472 -0.3168 0.3661, -0.2931 -0.4275 0.3661, -0.3168 -0.4373 0.3661, -0.3423 -0.4407 0.3661, -0.3677 -0.4373 0.3661, -0.3423 -0.2439 0.3661, -0.3168 -0.2472 0.3661, -0.2931 -0.257 0.3661, -0.3915 -0.4275 0.3661, -0.4119 -0.4119 0.3661, -0.5424 -0.5816 0.0674, 0.5424 -0.5816 0.0674, 0.5513 -0.5906 0.1693, -0.5513 -0.5906 0.1693, -0.5816 -0.5424 0.0674, -0.5906 -0.5513 0.1693, -0.5816 0.5424 0.0674, -0.5906 0.5513 0.1693, 0.5424 0.5816 0.0674, -0.5424 0.5816 0.0674, -0.5513 0.5906 0.1693, 0.5513 0.5906 0.1693, 0.5816 0.5424 0.0674, 0.5906 0.5513 0.1693, 0.5816 -0.5424 0.0674, 0.5906 -0.5513 0.1693
            ]
        }
        coordIndex [
            0,1,2,-1,2,1,3,-1,2,3,4,-1,5,6,7,-1,7,6,8,-1,7,8,9,-1,10,11,12,-1,12,11,13,-1,12,13,14,-1,15,16,17,-1,17,16,18,-1,17,18,19,-1,19,20,17,-1,17,20,21,-1,17,21,2,-1,2,21,22,-1,2,22,0,-1,4,23,2,-1,2,23,24,-1,2,24,7,-1,7,24,25,-1,7,25,5,-1,9,26,7,-1,7,26,27,-1,7,27,12,-1,12,27,28,-1,12,28,10,-1,14,29,12,-1,12,29,30,-1,12,30,17,-1,17,30,31,-1,17,31,15,-1,32,33,34,-1,34,33,35,-1,36,37,38,-1,38,37,39,-1,40,41,42,-1,42,41,43,-1,44,45,46,-1,46,45,47,-1,48,49,50,-1,50,49,51,-1,52,53,54,-1,54,53,55,-1,56,57,58,-1,58,57,59,-1,60,61,62,-1,62,61,63,-1,64,65,66,-1,66,65,67,-1,68,69,70,-1,70,69,71,-1,72,73,74,-1,74,73,75,-1,76,77,78,-1,78,77,79,-1,35,80,34,-1,34,80,81,-1,34,81,82,-1,35,38,80,-1,80,38,39,-1,80,39,42,-1,42,43,80,-1,80,43,78,-1,80,78,79,-1,79,45,80,-1,80,45,44,-1,80,44,83,-1,64,84,85,-1,64,85,65,-1,65,85,86,-1,65,86,87,-1,71,88,70,-1,70,88,89,-1,70,89,90,-1,71,61,88,-1,88,61,60,-1,88,60,57,-1,57,56,88,-1,88,56,53,-1,88,53,52,-1,52,49,88,-1,88,49,48,-1,88,48,91,-1,72,92,93,-1,72,93,73,-1,73,93,94,-1,73,94,95,-1,96,97,98,-1,99,100,101,-1,101,100,102,-1,101,102,103,-1,104,105,106,-1,106,107,104,-1,104,107,108,-1,104,108,109,-1,109,108,110,-1,110,111,109,-1,109,111,112,-1,109,112,113,-1,98,97,101,-1,101,97,114,-1,101,114,99,-1,103,115,101,-1,101,115,116,-1,101,116,104,-1,104,116,117,-1,104,117,118,-1,113,119,109,-1,109,119,120,-1,109,120,98,-1,98,120,121,-1,98,121,96,-1,118,122,104,-1,104,122,123,-1,104,123,105,-1,47,124,46,-1,46,124,125,-1,46,125,126,-1,47,77,124,-1,124,77,76,-1,124,76,41,-1,41,40,124,-1,124,40,37,-1,124,37,36,-1,36,33,124,-1,124,33,32,-1,124,32,127,-1,128,129,74,-1,128,74,130,-1,130,74,75,-1,130,75,131,-1,51,132,50,-1,50,132,133,-1,50,133,134,-1,51,54,132,-1,132,54,55,-1,132,55,58,-1,58,59,132,-1,132,59,62,-1,132,62,63,-1,63,69,132,-1,132,69,68,-1,132,68,135,-1,136,137,66,-1,136,66,138,-1,138,66,67,-1,138,67,139,-1,
        ]
    }
}
Shape{
    appearance Appearance {
        material  Material 	{
            diffuseColor 0.34901960784313724 0.34901960784313724 0.34901960784313724
            specularColor 0.023529411764705882 0.023529411764705882 0.023529411764705882
            ambientIntensity 0.498
            transparency 0.0
            shininess 0.5
        }
    }
    geometry IndexedFaceSet {
        ccw TRUE
        solid FALSE
        coord DEF co Coordinate {
            point [
                -0.2439 -0.3423 0.3583, -0.2439 -0.3423 0.3661, -0.2472 -0.3168 0.3583, -0.2472 -0.3168 0.3661, -0.257 -0.2931 0.3583, -0.257 -0.2931 0.3661, -0.2727 -0.2727 0.3583, -0.2727 -0.2727 0.3661, -0.2931 -0.257 0.3583, -0.2931 -0.257 0.3661, -0.3168 -0.2472 0.3583, -0.3168 -0.2472 0.3661, -0.3423 -0.2439 0.3583, -0.3423 -0.2439 0.3661, -0.3677 -0.2472 0.3583, -0.3677 -0.2472 0.3661, -0.3915 -0.257 0.3583, -0.3915 -0.257 0.3661, -0.4119 -0.2727 0.3583, -0.4119 -0.2727 0.3661, -0.4275 -0.2931 0.3583, -0.4275 -0.2931 0.3661, -0.4373 -0.3168 0.3583, -0.4373 -0.3168 0.3661, -0.4407 -0.3423 0.3583, -0.4407 -0.3423 0.3661, -0.4373 -0.3677 0.3583, -0.4373 -0.3677 0.3661, -0.4275 -0.3915 0.3583, -0.4275 -0.3915 0.3661, -0.4119 -0.4119 0.3583, -0.4119 -0.4119 0.3661, -0.3915 -0.4275 0.3583, -0.3915 -0.4275 0.3661, -0.3677 -0.4373 0.3583, -0.3677 -0.4373 0.3661, -0.3423 -0.4407 0.3583, -0.3423 -0.4407 0.3661, -0.3168 -0.4373 0.3583, -0.3168 -0.4373 0.3661, -0.2931 -0.4275 0.3583, -0.2931 -0.4275 0.3661, -0.2727 -0.4119 0.3583, -0.2727 -0.4119 0.3661, -0.257 -0.3915 0.3583, -0.257 -0.3915 0.3661, -0.2472 -0.3677 0.3583, -0.2472 -0.3677 0.3661, -0.3423 -0.3423 0.3583
            ]
        }
        coordIndex [
            0,1,2,-1,2,1,3,-1,2,3,4,-1,4,3,5,-1,4,5,6,-1,6,5,7,-1,6,7,8,-1,8,7,9,-1,8,9,10,-1,10,9,11,-1,10,11,12,-1,12,11,13,-1,12,13,14,-1,14,13,15,-1,14,15,16,-1,16,15,17,-1,16,17,18,-1,18,17,19,-1,18,19,20,-1,20,19,21,-1,20,21,22,-1,22,21,23,-1,22,23,24,-1,24,23,25,-1,24,25,26,-1,26,25,27,-1,26,27,28,-1,28,27,29,-1,28,29,30,-1,30,29,31,-1,30,31,32,-1,32,31,33,-1,32,33,34,-1,34,33,35,-1,34,35,36,-1,36,35,37,-1,36,37,38,-1,38,37,39,-1,38,39,40,-1,40,39,41,-1,40,41,42,-1,42,41,43,-1,42,43,44,-1,44,43,45,-1,44,45,46,-1,46,45,47,-1,46,47,0,-1,0,47,1,-1,44,46,48,-1,48,46,0,-1,48,0,2,-1,38,40,48,-1,48,40,42,-1,48,42,44,-1,32,34,48,-1,48,34,36,-1,48,36,38,-1,26,28,48,-1,48,28,30,-1,48,30,32,-1,20,22,48,-1,48,22,24,-1,48,24,26,-1,14,16,48,-1,48,16,18,-1,48,18,20,-1,8,10,48,-1,48,10,12,-1,48,12,14,-1,2,4,48,-1,48,4,6,-1,48,6,8,-1,
        ]
    }
}
Shape{
    appearance Appearance {
        material  Material 	{
            diffuseColor 0.6666666666666666 0.6666666666666666 0.6666666666666666
            specularColor 0.4666666666666667 0.4666666666666667 0.4666666666666667
            ambientIntensity 0.6667
            transparency 0.0
            shininess 0.5
        }
    }
    geometry IndexedFaceSet {
        ccw TRUE
        solid FALSE
        coord DEF co Coordinate {
            point [
                0.4429 0.9646 0.0, 0.4429 0.8268 0.0, 0.3248 0.9646 0.0, 0.3248 0.8268 0.0, 0.4429 0.9646 0.0591, 0.3248 0.9646 0.0591, 0.4429 0.8268 0.0591, 0.3248 0.8268 0.0591, 0.4429 0.8166 0.0604, 0.3248 0.8166 0.0604, 0.4429 0.8071 0.0643, 0.3248 0.8071 0.0643, 0.4429 0.7989 0.0706, 0.3248 0.7989 0.0706, 0.4429 0.7927 0.0787, 0.3248 0.7927 0.0787, 0.4429 0.7887 0.0882, 0.3248 0.7887 0.0882, 0.4429 0.7874 0.0984, 0.3248 0.7874 0.0984, 0.4429 0.7874 0.1299, 0.3248 0.7874 0.1299, 0.3248 0.784 0.1554, 0.4429 0.784 0.1554, 0.3248 0.7742 0.1791, 0.4429 0.7742 0.1791, 0.3248 0.7586 0.1995, 0.4429 0.7586 0.1995, 0.3248 0.7382 0.2152, 0.4429 0.7382 0.2152, 0.3248 0.7145 0.225, 0.4429 0.7145 0.225, 0.3248 0.689 0.2283, 0.4429 0.689 0.2283, 0.4429 0.5906 0.2283, 0.3248 0.5906 0.2283, 0.4429 0.689 0.1693, 0.4429 0.5906 0.1693, 0.3248 0.689 0.1693, 0.3248 0.5906 0.1693, 0.4429 0.6992 0.1679, 0.3248 0.6992 0.1679, 0.4429 0.7087 0.164, 0.3248 0.7087 0.164, 0.4429 0.7168 0.1578, 0.3248 0.7168 0.1578, 0.4429 0.7231 0.1496, 0.3248 0.7231 0.1496, 0.4429 0.727 0.1401, 0.3248 0.727 0.1401, 0.4429 0.7283 0.1299, 0.3248 0.7283 0.1299, 0.4429 0.7283 0.0984, 0.3248 0.7283 0.0984, 0.3248 0.7317 0.073, 0.4429 0.7317 0.073, 0.3248 0.7415 0.0492, 0.4429 0.7415 0.0492, 0.3248 0.7572 0.0288, 0.4429 0.7572 0.0288, 0.3248 0.7776 0.0132, 0.4429 0.7776 0.0132, 0.3248 0.8013 0.0034, 0.4429 0.8013 0.0034, 0.187 0.9646 0.0, 0.187 0.8268 0.0, 0.0689 0.9646 0.0, 0.0689 0.8268 0.0, 0.187 0.9646 0.0591, 0.0689 0.9646 0.0591, 0.187 0.8268 0.0591, 0.0689 0.8268 0.0591, 0.187 0.8166 0.0604, 0.0689 0.8166 0.0604, 0.187 0.8071 0.0643, 0.0689 0.8071 0.0643, 0.187 0.7989 0.0706, 0.0689 0.7989 0.0706, 0.187 0.7927 0.0787, 0.0689 0.7927 0.0787, 0.187 0.7887 0.0882, 0.0689 0.7887 0.0882, 0.187 0.7874 0.0984, 0.0689 0.7874 0.0984, 0.187 0.7874 0.1299, 0.0689 0.7874 0.1299, 0.0689 0.784 0.1554, 0.187 0.784 0.1554, 0.0689 0.7742 0.1791, 0.187 0.7742 0.1791, 0.0689 0.7586 0.1995, 0.187 0.7586 0.1995, 0.0689 0.7382 0.2152, 0.187 0.7382 0.2152, 0.0689 0.7145 0.225, 0.187 0.7145 0.225, 0.0689 0.689 0.2283, 0.187 0.689 0.2283, 0.187 0.5906 0.2283, 0.0689 0.5906 0.2283, 0.187 0.689 0.1693, 0.187 0.5906 0.1693, 0.0689 0.689 0.1693, 0.0689 0.5906 0.1693, 0.187 0.6992 0.1679, 0.0689 0.6992 0.1679, 0.187 0.7087 0.164, 0.0689 0.7087 0.164, 0.187 0.7168 0.1578, 0.0689 0.7168 0.1578, 0.187 0.7231 0.1496, 0.0689 0.7231 0.1496, 0.187 0.727 0.1401, 0.0689 0.727 0.1401, 0.187 0.7283 0.1299, 0.0689 0.7283 0.1299, 0.187 0.7283 0.0984, 0.0689 0.7283 0.0984, 0.0689 0.7317 0.073, 0.187 0.7317 0.073, 0.0689 0.7415 0.0492, 0.187 0.7415 0.0492, 0.0689 0.7572 0.0288, 0.187 0.7572 0.0288, 0.0689 0.7776 0.0132, 0.187 0.7776 0.0132, 0.0689 0.8013 0.0034, 0.187 0.8013 0.0034, -0.0689 0.9646 0.0, -0.0689 0.8268 0.0, -0.187 0.9646 0.0, -0.187 0.8268 0.0, -0.0689 0.9646 0.0591, -0.187 0.9646 0.0591, -0.0689 0.8268 0.0591, -0.187 0.8268 0.0591, -0.0689 0.8166 0.0604, -0.187 0.8166 0.0604, -0.0689 0.8071 0.0643, -0.187 0.8071 0.0643, -0.0689 0.7989 0.0706, -0.187 0.7989 0.0706, -0.0689 0.7927 0.0787, -0.187 0.7927 0.0787, -0.0689 0.7887 0.0882, -0.187 0.7887 0.0882, -0.0689 0.7874 0.0984, -0.187 0.7874 0.0984, -0.0689 0.7874 0.1299, -0.187 0.7874 0.1299, -0.187 0.784 0.1554, -0.0689 0.784 0.1554, -0.187 0.7742 0.1791, -0.0689 0.7742 0.1791, -0.187 0.7586 0.1995, -0.0689 0.7586 0.1995, -0.187 0.7382 0.2152, -0.0689 0.7382 0.2152, -0.187 0.7145 0.225, -0.0689 0.7145 0.225, -0.187 0.689 0.2283, -0.0689 0.689 0.2283, -0.0689 0.5906 0.2283, -0.187 0.5906 0.2283, -0.0689 0.689 0.1693, -0.0689 0.5906 0.1693, -0.187 0.689 0.1693, -0.187 0.5906 0.1693, -0.0689 0.6992 0.1679, -0.187 0.6992 0.1679, -0.0689 0.7087 0.164, -0.187 0.7087 0.164, -0.0689 0.7168 0.1578, -0.187 0.7168 0.1578, -0.0689 0.7231 0.1496, -0.187 0.7231 0.1496, -0.0689 0.727 0.1401, -0.187 0.727 0.1401, -0.0689 0.7283 0.1299, -0.187 0.7283 0.1299, -0.0689 0.7283 0.0984, -0.187 0.7283 0.0984, -0.187 0.7317 0.073, -0.0689 0.7317 0.073, -0.187 0.7415 0.0492, -0.0689 0.7415 0.0492, -0.187 0.7572 0.0288, -0.0689 0.7572 0.0288, -0.187 0.7776 0.0132, -0.0689 0.7776 0.0132, -0.187 0.8013 0.0034, -0.0689 0.8013 0.0034, -0.3248 0.9646 0.0, -0.3248 0.8268 0.0, -0.4429 0.9646 0.0, -0.4429 0.8268 0.0, -0.3248 0.9646 0.0591, -0.4429 0.9646 0.0591, -0.3248 0.8268 0.0591, -0.4429 0.8268 0.0591, -0.3248 0.8166 0.0604, -0.4429 0.8166 0.0604, -0.3248 0.8071 0.0643, -0.4429 0.8071 0.0643, -0.3248 0.7989 0.0706, -0.4429 0.7989 0.0706, -0.3248 0.7927 0.0787, -0.4429 0.7927 0.0787, -0.3248 0.7887 0.0882, -0.4429 0.7887 0.0882, -0.3248 0.7874 0.0984, -0.4429 0.7874 0.0984, -0.3248 0.7874 0.1299, -0.4429 0.7874 0.1299, -0.4429 0.784 0.1554, -0.3248 0.784 0.1554, -0.4429 0.7742 0.1791, -0.3248 0.7742 0.1791, -0.4429 0.7586 0.1995, -0.3248 0.7586 0.1995, -0.4429 0.7382 0.2152, -0.3248 0.7382 0.2152, -0.4429 0.7145 0.225, -0.3248 0.7145 0.225, -0.4429 0.689 0.2283, -0.3248 0.689 0.2283, -0.3248 0.5906 0.2283, -0.4429 0.5906 0.2283, -0.3248 0.689 0.1693, -0.3248 0.5906 0.1693, -0.4429 0.689 0.1693, -0.4429 0.5906 0.1693, -0.3248 0.6992 0.1679, -0.4429 0.6992 0.1679, -0.3248 0.7087 0.164, -0.4429 0.7087 0.164, -0.3248 0.7168 0.1578, -0.4429 0.7168 0.1578, -0.3248 0.7231 0.1496, -0.4429 0.7231 0.1496, -0.3248 0.727 0.1401, -0.4429 0.727 0.1401, -0.3248 0.7283 0.1299, -0.4429 0.7283 0.1299, -0.3248 0.7283 0.0984, -0.4429 0.7283 0.0984, -0.4429 0.7317 0.073, -0.3248 0.7317 0.073, -0.4429 0.7415 0.0492, -0.3248 0.7415 0.0492, -0.4429 0.7572 0.0288, -0.3248 0.7572 0.0288, -0.4429 0.7776 0.0132, -0.3248 0.7776 0.0132, -0.4429 0.8013 0.0034, -0.3248 0.8013 0.0034, 0.4429 -0.8268 0.0, 0.4429 -0.9646 0.0, 0.3248 -0.8268 0.0, 0.3248 -0.9646 0.0, 0.3248 -0.8013 0.0034, 0.4429 -0.8013 0.0034, 0.3248 -0.7776 0.0132, 0.4429 -0.7776 0.0132, 0.3248 -0.7572 0.0288, 0.4429 -0.7572 0.0288, 0.3248 -0.7415 0.0492, 0.4429 -0.7415 0.0492, 0.3248 -0.7317 0.073, 0.4429 -0.7317 0.073, 0.3248 -0.7283 0.0984, 0.4429 -0.7283 0.0984, 0.4429 -0.7283 0.1299, 0.3248 -0.7283 0.1299, 0.4429 -0.727 0.1401, 0.3248 -0.727 0.1401, 0.4429 -0.7231 0.1496, 0.3248 -0.7231 0.1496, 0.4429 -0.7168 0.1578, 0.3248 -0.7168 0.1578, 0.4429 -0.7087 0.164, 0.3248 -0.7087 0.164, 0.4429 -0.6992 0.1679, 0.3248 -0.6992 0.1679, 0.4429 -0.689 0.1693, 0.3248 -0.689 0.1693, 0.4429 -0.5906 0.1693, 0.3248 -0.5906 0.1693, 0.4429 -0.689 0.2283, 0.4429 -0.5906 0.2283, 0.3248 -0.689 0.2283, 0.3248 -0.5906 0.2283, 0.3248 -0.7145 0.225, 0.4429 -0.7145 0.225, 0.3248 -0.7382 0.2152, 0.4429 -0.7382 0.2152, 0.3248 -0.7586 0.1995, 0.4429 -0.7586 0.1995, 0.3248 -0.7742 0.1791, 0.4429 -0.7742 0.1791, 0.3248 -0.784 0.1554, 0.4429 -0.784 0.1554, 0.3248 -0.7874 0.1299, 0.4429 -0.7874 0.1299, 0.4429 -0.7874 0.0984, 0.3248 -0.7874 0.0984, 0.4429 -0.7887 0.0882, 0.3248 -0.7887 0.0882, 0.4429 -0.7927 0.0787, 0.3248 -0.7927 0.0787, 0.4429 -0.7989 0.0706, 0.3248 -0.7989 0.0706, 0.4429 -0.8071 0.0643, 0.3248 -0.8071 0.0643, 0.4429 -0.8166 0.0604, 0.3248 -0.8166 0.0604, 0.4429 -0.8268 0.0591, 0.3248 -0.8268 0.0591, 0.4429 -0.9646 0.0591, 0.3248 -0.9646 0.0591, 0.187 -0.8268 0.0, 0.187 -0.9646 0.0, 0.0689 -0.8268 0.0, 0.0689 -0.9646 0.0, 0.0689 -0.8013 0.0034, 0.187 -0.8013 0.0034, 0.0689 -0.7776 0.0132, 0.187 -0.7776 0.0132, 0.0689 -0.7572 0.0288, 0.187 -0.7572 0.0288, 0.0689 -0.7415 0.0492, 0.187 -0.7415 0.0492, 0.0689 -0.7317 0.073, 0.187 -0.7317 0.073, 0.0689 -0.7283 0.0984, 0.187 -0.7283 0.0984, 0.187 -0.7283 0.1299, 0.0689 -0.7283 0.1299, 0.187 -0.727 0.1401, 0.0689 -0.727 0.1401, 0.187 -0.7231 0.1496, 0.0689 -0.7231 0.1496, 0.187 -0.7168 0.1578, 0.0689 -0.7168 0.1578, 0.187 -0.7087 0.164, 0.0689 -0.7087 0.164, 0.187 -0.6992 0.1679, 0.0689 -0.6992 0.1679, 0.187 -0.689 0.1693, 0.0689 -0.689 0.1693, 0.187 -0.5906 0.1693, 0.0689 -0.5906 0.1693, 0.187 -0.689 0.2283, 0.187 -0.5906 0.2283, 0.0689 -0.689 0.2283, 0.0689 -0.5906 0.2283, 0.0689 -0.7145 0.225, 0.187 -0.7145 0.225, 0.0689 -0.7382 0.2152, 0.187 -0.7382 0.2152, 0.0689 -0.7586 0.1995, 0.187 -0.7586 0.1995, 0.0689 -0.7742 0.1791, 0.187 -0.7742 0.1791, 0.0689 -0.784 0.1554, 0.187 -0.784 0.1554, 0.0689 -0.7874 0.1299, 0.187 -0.7874 0.1299, 0.187 -0.7874 0.0984, 0.0689 -0.7874 0.0984, 0.187 -0.7887 0.0882, 0.0689 -0.7887 0.0882, 0.187 -0.7927 0.0787, 0.0689 -0.7927 0.0787, 0.187 -0.7989 0.0706, 0.0689 -0.7989 0.0706, 0.187 -0.8071 0.0643, 0.0689 -0.8071 0.0643, 0.187 -0.8166 0.0604, 0.0689 -0.8166 0.0604, 0.187 -0.8268 0.0591, 0.0689 -0.8268 0.0591, 0.187 -0.9646 0.0591, 0.0689 -0.9646 0.0591, -0.0689 -0.8268 0.0, -0.0689 -0.9646 0.0, -0.187 -0.8268 0.0, -0.187 -0.9646 0.0, -0.187 -0.8013 0.0034, -0.0689 -0.8013 0.0034, -0.187 -0.7776 0.0132, -0.0689 -0.7776 0.0132, -0.187 -0.7572 0.0288, -0.0689 -0.7572 0.0288, -0.187 -0.7415 0.0492, -0.0689 -0.7415 0.0492, -0.187 -0.7317 0.073, -0.0689 -0.7317 0.073, -0.187 -0.7283 0.0984, -0.0689 -0.7283 0.0984, -0.0689 -0.7283 0.1299, -0.187 -0.7283 0.1299, -0.0689 -0.727 0.1401, -0.187 -0.727 0.1401, -0.0689 -0.7231 0.1496, -0.187 -0.7231 0.1496, -0.0689 -0.7168 0.1578, -0.187 -0.7168 0.1578, -0.0689 -0.7087 0.164, -0.187 -0.7087 0.164, -0.0689 -0.6992 0.1679, -0.187 -0.6992 0.1679, -0.0689 -0.689 0.1693, -0.187 -0.689 0.1693, -0.0689 -0.5906 0.1693, -0.187 -0.5906 0.1693, -0.0689 -0.689 0.2283, -0.0689 -0.5906 0.2283, -0.187 -0.689 0.2283, -0.187 -0.5906 0.2283, -0.187 -0.7145 0.225, -0.0689 -0.7145 0.225, -0.187 -0.7382 0.2152, -0.0689 -0.7382 0.2152, -0.187 -0.7586 0.1995, -0.0689 -0.7586 0.1995, -0.187 -0.7742 0.1791, -0.0689 -0.7742 0.1791, -0.187 -0.784 0.1554, -0.0689 -0.784 0.1554, -0.187 -0.7874 0.1299, -0.0689 -0.7874 0.1299, -0.0689 -0.7874 0.0984, -0.187 -0.7874 0.0984, -0.0689 -0.7887 0.0882, -0.187 -0.7887 0.0882, -0.0689 -0.7927 0.0787, -0.187 -0.7927 0.0787, -0.0689 -0.7989 0.0706, -0.187 -0.7989 0.0706, -0.0689 -0.8071 0.0643, -0.187 -0.8071 0.0643, -0.0689 -0.8166 0.0604, -0.187 -0.8166 0.0604, -0.0689 -0.8268 0.0591, -0.187 -0.8268 0.0591, -0.0689 -0.9646 0.0591, -0.187 -0.9646 0.0591, -0.3248 -0.8268 0.0, -0.3248 -0.9646 0.0, -0.4429 -0.8268 0.0, -0.4429 -0.9646 0.0, -0.4429 -0.8013 0.0034, -0.3248 -0.8013 0.0034, -0.4429 -0.7776 0.0132, -0.3248 -0.7776 0.0132, -0.4429 -0.7572 0.0288, -0.3248 -0.7572 0.0288, -0.4429 -0.7415 0.0492, -0.3248 -0.7415 0.0492, -0.4429 -0.7317 0.073, -0.3248 -0.7317 0.073, -0.4429 -0.7283 0.0984, -0.3248 -0.7283 0.0984, -0.3248 -0.7283 0.1299, -0.4429 -0.7283 0.1299, -0.3248 -0.727 0.1401, -0.4429 -0.727 0.1401, -0.3248 -0.7231 0.1496, -0.4429 -0.7231 0.1496, -0.3248 -0.7168 0.1578, -0.4429 -0.7168 0.1578, -0.3248 -0.7087 0.164, -0.4429 -0.7087 0.164, -0.3248 -0.6992 0.1679, -0.4429 -0.6992 0.1679, -0.3248 -0.689 0.1693, -0.4429 -0.689 0.1693, -0.3248 -0.5906 0.1693, -0.4429 -0.5906 0.1693, -0.3248 -0.689 0.2283, -0.3248 -0.5906 0.2283, -0.4429 -0.689 0.2283, -0.4429 -0.5906 0.2283, -0.4429 -0.7145 0.225, -0.3248 -0.7145 0.225, -0.4429 -0.7382 0.2152, -0.3248 -0.7382 0.2152, -0.4429 -0.7586 0.1995, -0.3248 -0.7586 0.1995, -0.4429 -0.7742 0.1791, -0.3248 -0.7742 0.1791, -0.4429 -0.784 0.1554, -0.3248 -0.784 0.1554, -0.4429 -0.7874 0.1299, -0.3248 -0.7874 0.1299, -0.3248 -0.7874 0.0984, -0.4429 -0.7874 0.0984, -0.3248 -0.7887 0.0882, -0.4429 -0.7887 0.0882, -0.3248 -0.7927 0.0787, -0.4429 -0.7927 0.0787, -0.3248 -0.7989 0.0706, -0.4429 -0.7989 0.0706, -0.3248 -0.8071 0.0643, -0.4429 -0.8071 0.0643, -0.3248 -0.8166 0.0604, -0.4429 -0.8166 0.0604, -0.3248 -0.8268 0.0591, -0.4429 -0.8268 0.0591, -0.3248 -0.9646 0.0591, -0.4429 -0.9646 0.0591
            ]
        }
        coordIndex [
            0,1,2,-1,2,1,3,-1,4,0,5,-1,5,0,2,-1,6,4,7,-1,7,4,5,-1,6,7,8,-1,8,7,9,-1,8,9,10,-1,10,9,11,-1,10,11,12,-1,12,11,13,-1,12,13,14,-1,14,13,15,-1,14,15,16,-1,16,15,17,-1,16,17,18,-1,18,17,19,-1,20,18,21,-1,21,18,19,-1,20,21,22,-1,20,22,23,-1,23,22,24,-1,23,24,25,-1,25,24,26,-1,25,26,27,-1,27,26,28,-1,27,28,29,-1,29,28,30,-1,29,30,31,-1,31,30,32,-1,31,32,33,-1,34,33,35,-1,35,33,32,-1,36,37,38,-1,38,37,39,-1,36,38,40,-1,40,38,41,-1,40,41,42,-1,42,41,43,-1,42,43,44,-1,44,43,45,-1,44,45,46,-1,46,45,47,-1,46,47,48,-1,48,47,49,-1,48,49,50,-1,50,49,51,-1,52,50,53,-1,53,50,51,-1,52,53,54,-1,52,54,55,-1,55,54,56,-1,55,56,57,-1,57,56,58,-1,57,58,59,-1,59,58,60,-1,59,60,61,-1,61,60,62,-1,61,62,63,-1,63,62,3,-1,63,3,1,-1,34,37,33,-1,33,37,36,-1,33,36,31,-1,31,36,40,-1,31,40,29,-1,29,40,42,-1,29,42,27,-1,27,42,44,-1,27,44,25,-1,25,44,46,-1,25,46,23,-1,23,46,48,-1,23,48,20,-1,20,48,50,-1,20,50,18,-1,18,50,52,-1,18,52,16,-1,16,52,55,-1,16,55,14,-1,14,55,57,-1,14,57,12,-1,12,57,59,-1,12,59,10,-1,10,59,61,-1,10,61,8,-1,8,61,63,-1,8,63,6,-1,6,63,1,-1,6,1,4,-1,4,1,0,-1,5,2,7,-1,7,2,3,-1,7,3,9,-1,9,3,62,-1,9,62,11,-1,11,62,60,-1,11,60,13,-1,13,60,58,-1,13,58,15,-1,15,58,56,-1,15,56,17,-1,17,56,54,-1,17,54,19,-1,19,54,53,-1,19,53,21,-1,21,53,51,-1,21,51,22,-1,22,51,49,-1,22,49,24,-1,24,49,47,-1,24,47,26,-1,26,47,45,-1,26,45,28,-1,28,45,43,-1,28,43,30,-1,30,43,41,-1,30,41,32,-1,32,41,38,-1,32,38,35,-1,35,38,39,-1,64,65,66,-1,66,65,67,-1,68,64,69,-1,69,64,66,-1,70,68,71,-1,71,68,69,-1,70,71,72,-1,72,71,73,-1,72,73,74,-1,74,73,75,-1,74,75,76,-1,76,75,77,-1,76,77,78,-1,78,77,79,-1,78,79,80,-1,80,79,81,-1,80,81,82,-1,82,81,83,-1,84,82,85,-1,85,82,83,-1,84,85,86,-1,84,86,87,-1,87,86,88,-1,87,88,89,-1,89,88,90,-1,89,90,91,-1,91,90,92,-1,91,92,93,-1,93,92,94,-1,93,94,95,-1,95,94,96,-1,95,96,97,-1,98,97,99,-1,99,97,96,-1,100,101,102,-1,102,101,103,-1,100,102,104,-1,104,102,105,-1,104,105,106,-1,106,105,107,-1,106,107,108,-1,108,107,109,-1,108,109,110,-1,110,109,111,-1,110,111,112,-1,112,111,113,-1,112,113,114,-1,114,113,115,-1,116,114,117,-1,117,114,115,-1,116,117,118,-1,116,118,119,-1,119,118,120,-1,119,120,121,-1,121,120,122,-1,121,122,123,-1,123,122,124,-1,123,124,125,-1,125,124,126,-1,125,126,127,-1,127,126,67,-1,127,67,65,-1,98,101,97,-1,97,101,100,-1,97,100,95,-1,95,100,104,-1,95,104,93,-1,93,104,106,-1,93,106,91,-1,91,106,108,-1,91,108,89,-1,89,108,110,-1,89,110,87,-1,87,110,112,-1,87,112,84,-1,84,112,114,-1,84,114,82,-1,82,114,116,-1,82,116,80,-1,80,116,119,-1,80,119,78,-1,78,119,121,-1,78,121,76,-1,76,121,123,-1,76,123,74,-1,74,123,125,-1,74,125,72,-1,72,125,127,-1,72,127,70,-1,70,127,65,-1,70,65,68,-1,68,65,64,-1,69,66,71,-1,71,66,67,-1,71,67,73,-1,73,67,126,-1,73,126,75,-1,75,126,124,-1,75,124,77,-1,77,124,122,-1,77,122,79,-1,79,122,120,-1,79,120,81,-1,81,120,118,-1,81,118,83,-1,83,118,117,-1,83,117,85,-1,85,117,115,-1,85,115,86,-1,86,115,113,-1,86,113,88,-1,88,113,111,-1,88,111,90,-1,90,111,109,-1,90,109,92,-1,92,109,107,-1,92,107,94,-1,94,107,105,-1,94,105,96,-1,96,105,102,-1,96,102,99,-1,99,102,103,-1,128,129,130,-1,130,129,131,-1,132,128,133,-1,133,128,130,-1,134,132,135,-1,135,132,133,-1,134,135,136,-1,136,135,137,-1,136,137,138,-1,138,137,139,-1,138,139,140,-1,140,139,141,-1,140,141,142,-1,142,141,143,-1,142,143,144,-1,144,143,145,-1,144,145,146,-1,146,145,147,-1,148,146,149,-1,149,146,147,-1,148,149,150,-1,148,150,151,-1,151,150,152,-1,151,152,153,-1,153,152,154,-1,153,154,155,-1,155,154,156,-1,155,156,157,-1,157,156,158,-1,157,158,159,-1,159,158,160,-1,159,160,161,-1,162,161,163,-1,163,161,160,-1,164,165,166,-1,166,165,167,-1,164,166,168,-1,168,166,169,-1,168,169,170,-1,170,169,171,-1,170,171,172,-1,172,171,173,-1,172,173,174,-1,174,173,175,-1,174,175,176,-1,176,175,177,-1,176,177,178,-1,178,177,179,-1,180,178,181,-1,181,178,179,-1,180,181,182,-1,180,182,183,-1,183,182,184,-1,183,184,185,-1,185,184,186,-1,185,186,187,-1,187,186,188,-1,187,188,189,-1,189,188,190,-1,189,190,191,-1,191,190,131,-1,191,131,129,-1,162,165,161,-1,161,165,164,-1,161,164,159,-1,159,164,168,-1,159,168,157,-1,157,168,170,-1,157,170,155,-1,155,170,172,-1,155,172,153,-1,153,172,174,-1,153,174,151,-1,151,174,176,-1,151,176,148,-1,148,176,178,-1,148,178,146,-1,146,178,180,-1,146,180,144,-1,144,180,183,-1,144,183,142,-1,142,183,185,-1,142,185,140,-1,140,185,187,-1,140,187,138,-1,138,187,189,-1,138,189,136,-1,136,189,191,-1,136,191,134,-1,134,191,129,-1,134,129,132,-1,132,129,128,-1,133,130,135,-1,135,130,131,-1,135,131,137,-1,137,131,190,-1,137,190,139,-1,139,190,188,-1,139,188,141,-1,141,188,186,-1,141,186,143,-1,143,186,184,-1,143,184,145,-1,145,184,182,-1,145,182,147,-1,147,182,181,-1,147,181,149,-1,149,181,179,-1,149,179,150,-1,150,179,177,-1,150,177,152,-1,152,177,175,-1,152,175,154,-1,154,175,173,-1,154,173,156,-1,156,173,171,-1,156,171,158,-1,158,171,169,-1,158,169,160,-1,160,169,166,-1,160,166,163,-1,163,166,167,-1,192,193,194,-1,194,193,195,-1,196,192,197,-1,197,192,194,-1,198,196,199,-1,199,196,197,-1,198,199,200,-1,200,199,201,-1,200,201,202,-1,202,201,203,-1,202,203,204,-1,204,203,205,-1,204,205,206,-1,206,205,207,-1,206,207,208,-1,208,207,209,-1,208,209,210,-1,210,209,211,-1,212,210,213,-1,213,210,211,-1,212,213,214,-1,212,214,215,-1,215,214,216,-1,215,216,217,-1,217,216,218,-1,217,218,219,-1,219,218,220,-1,219,220,221,-1,221,220,222,-1,221,222,223,-1,223,222,224,-1,223,224,225,-1,226,225,227,-1,227,225,224,-1,228,229,230,-1,230,229,231,-1,228,230,232,-1,232,230,233,-1,232,233,234,-1,234,233,235,-1,234,235,236,-1,236,235,237,-1,236,237,238,-1,238,237,239,-1,238,239,240,-1,240,239,241,-1,240,241,242,-1,242,241,243,-1,244,242,245,-1,245,242,243,-1,244,245,246,-1,244,246,247,-1,247,246,248,-1,247,248,249,-1,249,248,250,-1,249,250,251,-1,251,250,252,-1,251,252,253,-1,253,252,254,-1,253,254,255,-1,255,254,195,-1,255,195,193,-1,226,229,225,-1,225,229,228,-1,225,228,223,-1,223,228,232,-1,223,232,221,-1,221,232,234,-1,221,234,219,-1,219,234,236,-1,219,236,217,-1,217,236,238,-1,217,238,215,-1,215,238,240,-1,215,240,212,-1,212,240,242,-1,212,242,210,-1,210,242,244,-1,210,244,208,-1,208,244,247,-1,208,247,206,-1,206,247,249,-1,206,249,204,-1,204,249,251,-1,204,251,202,-1,202,251,253,-1,202,253,200,-1,200,253,255,-1,200,255,198,-1,198,255,193,-1,198,193,196,-1,196,193,192,-1,197,194,199,-1,199,194,195,-1,199,195,201,-1,201,195,254,-1,201,254,203,-1,203,254,252,-1,203,252,205,-1,205,252,250,-1,205,250,207,-1,207,250,248,-1,207,248,209,-1,209,248,246,-1,209,246,211,-1,211,246,245,-1,211,245,213,-1,213,245,243,-1,213,243,214,-1,214,243,241,-1,214,241,216,-1,216,241,239,-1,216,239,218,-1,218,239,237,-1,218,237,220,-1,220,237,235,-1,220,235,222,-1,222,235,233,-1,222,233,224,-1,224,233,230,-1,224,230,227,-1,227,230,231,-1,256,257,258,-1,258,257,259,-1,256,258,260,-1,256,260,261,-1,261,260,262,-1,261,262,263,-1,263,262,264,-1,263,264,265,-1,265,264,266,-1,265,266,267,-1,267,266,268,-1,267,268,269,-1,269,268,270,-1,269,270,271,-1,272,271,273,-1,273,271,270,-1,272,273,274,-1,274,273,275,-1,274,275,276,-1,276,275,277,-1,276,277,278,-1,278,277,279,-1,278,279,280,-1,280,279,281,-1,280,281,282,-1,282,281,283,-1,282,283,284,-1,284,283,285,-1,286,284,287,-1,287,284,285,-1,288,289,290,-1,290,289,291,-1,288,290,292,-1,288,292,293,-1,293,292,294,-1,293,294,295,-1,295,294,296,-1,295,296,297,-1,297,296,298,-1,297,298,299,-1,299,298,300,-1,299,300,301,-1,301,300,302,-1,301,302,303,-1,304,303,305,-1,305,303,302,-1,304,305,306,-1,306,305,307,-1,306,307,308,-1,308,307,309,-1,308,309,310,-1,310,309,311,-1,310,311,312,-1,312,311,313,-1,312,313,314,-1,314,313,315,-1,314,315,316,-1,316,315,317,-1,318,316,319,-1,319,316,317,-1,257,318,259,-1,259,318,319,-1,318,257,316,-1,316,257,256,-1,316,256,314,-1,314,256,261,-1,314,261,312,-1,312,261,263,-1,312,263,310,-1,310,263,265,-1,310,265,308,-1,308,265,267,-1,308,267,306,-1,306,267,269,-1,306,269,304,-1,304,269,271,-1,304,271,303,-1,303,271,272,-1,303,272,301,-1,301,272,274,-1,301,274,299,-1,299,274,276,-1,299,276,297,-1,297,276,278,-1,297,278,295,-1,295,278,280,-1,295,280,293,-1,293,280,282,-1,293,282,288,-1,288,282,284,-1,288,284,289,-1,289,284,286,-1,291,287,290,-1,290,287,285,-1,290,285,292,-1,292,285,283,-1,292,283,294,-1,294,283,281,-1,294,281,296,-1,296,281,279,-1,296,279,298,-1,298,279,277,-1,298,277,300,-1,300,277,275,-1,300,275,302,-1,302,275,273,-1,302,273,305,-1,305,273,270,-1,305,270,307,-1,307,270,268,-1,307,268,309,-1,309,268,266,-1,309,266,311,-1,311,266,264,-1,311,264,313,-1,313,264,262,-1,313,262,315,-1,315,262,260,-1,315,260,317,-1,317,260,258,-1,317,258,319,-1,319,258,259,-1,320,321,322,-1,322,321,323,-1,320,322,324,-1,320,324,325,-1,325,324,326,-1,325,326,327,-1,327,326,328,-1,327,328,329,-1,329,328,330,-1,329,330,331,-1,331,330,332,-1,331,332,333,-1,333,332,334,-1,333,334,335,-1,336,335,337,-1,337,335,334,-1,336,337,338,-1,338,337,339,-1,338,339,340,-1,340,339,341,-1,340,341,342,-1,342,341,343,-1,342,343,344,-1,344,343,345,-1,344,345,346,-1,346,345,347,-1,346,347,348,-1,348,347,349,-1,350,348,351,-1,351,348,349,-1,352,353,354,-1,354,353,355,-1,352,354,356,-1,352,356,357,-1,357,356,358,-1,357,358,359,-1,359,358,360,-1,359,360,361,-1,361,360,362,-1,361,362,363,-1,363,362,364,-1,363,364,365,-1,365,364,366,-1,365,366,367,-1,368,367,369,-1,369,367,366,-1,368,369,370,-1,370,369,371,-1,370,371,372,-1,372,371,373,-1,372,373,374,-1,374,373,375,-1,374,375,376,-1,376,375,377,-1,376,377,378,-1,378,377,379,-1,378,379,380,-1,380,379,381,-1,382,380,383,-1,383,380,381,-1,321,382,323,-1,323,382,383,-1,382,321,380,-1,380,321,320,-1,380,320,378,-1,378,320,325,-1,378,325,376,-1,376,325,327,-1,376,327,374,-1,374,327,329,-1,374,329,372,-1,372,329,331,-1,372,331,370,-1,370,331,333,-1,370,333,368,-1,368,333,335,-1,368,335,367,-1,367,335,336,-1,367,336,365,-1,365,336,338,-1,365,338,363,-1,363,338,340,-1,363,340,361,-1,361,340,342,-1,361,342,359,-1,359,342,344,-1,359,344,357,-1,357,344,346,-1,357,346,352,-1,352,346,348,-1,352,348,353,-1,353,348,350,-1,355,351,354,-1,354,351,349,-1,354,349,356,-1,356,349,347,-1,356,347,358,-1,358,347,345,-1,358,345,360,-1,360,345,343,-1,360,343,362,-1,362,343,341,-1,362,341,364,-1,364,341,339,-1,364,339,366,-1,366,339,337,-1,366,337,369,-1,369,337,334,-1,369,334,371,-1,371,334,332,-1,371,332,373,-1,373,332,330,-1,373,330,375,-1,375,330,328,-1,375,328,377,-1,377,328,326,-1,377,326,379,-1,379,326,324,-1,379,324,381,-1,381,324,322,-1,381,322,383,-1,383,322,323,-1,384,385,386,-1,386,385,387,-1,384,386,388,-1,384,388,389,-1,389,388,390,-1,389,390,391,-1,391,390,392,-1,391,392,393,-1,393,392,394,-1,393,394,395,-1,395,394,396,-1,395,396,397,-1,397,396,398,-1,397,398,399,-1,400,399,401,-1,401,399,398,-1,400,401,402,-1,402,401,403,-1,402,403,404,-1,404,403,405,-1,404,405,406,-1,406,405,407,-1,406,407,408,-1,408,407,409,-1,408,409,410,-1,410,409,411,-1,410,411,412,-1,412,411,413,-1,414,412,415,-1,415,412,413,-1,416,417,418,-1,418,417,419,-1,416,418,420,-1,416,420,421,-1,421,420,422,-1,421,422,423,-1,423,422,424,-1,423,424,425,-1,425,424,426,-1,425,426,427,-1,427,426,428,-1,427,428,429,-1,429,428,430,-1,429,430,431,-1,432,431,433,-1,433,431,430,-1,432,433,434,-1,434,433,435,-1,434,435,436,-1,436,435,437,-1,436,437,438,-1,438,437,439,-1,438,439,440,-1,440,439,441,-1,440,441,442,-1,442,441,443,-1,442,443,444,-1,444,443,445,-1,446,444,447,-1,447,444,445,-1,385,446,387,-1,387,446,447,-1,446,385,444,-1,444,385,384,-1,444,384,442,-1,442,384,389,-1,442,389,440,-1,440,389,391,-1,440,391,438,-1,438,391,393,-1,438,393,436,-1,436,393,395,-1,436,395,434,-1,434,395,397,-1,434,397,432,-1,432,397,399,-1,432,399,431,-1,431,399,400,-1,431,400,429,-1,429,400,402,-1,429,402,427,-1,427,402,404,-1,427,404,425,-1,425,404,406,-1,425,406,423,-1,423,406,408,-1,423,408,421,-1,421,408,410,-1,421,410,416,-1,416,410,412,-1,416,412,417,-1,417,412,414,-1,419,415,418,-1,418,415,413,-1,418,413,420,-1,420,413,411,-1,420,411,422,-1,422,411,409,-1,422,409,424,-1,424,409,407,-1,424,407,426,-1,426,407,405,-1,426,405,428,-1,428,405,403,-1,428,403,430,-1,430,403,401,-1,430,401,433,-1,433,401,398,-1,433,398,435,-1,435,398,396,-1,435,396,437,-1,437,396,394,-1,437,394,439,-1,439,394,392,-1,439,392,441,-1,441,392,390,-1,441,390,443,-1,443,390,388,-1,443,388,445,-1,445,388,386,-1,445,386,447,-1,447,386,387,-1,448,449,450,-1,450,449,451,-1,448,450,452,-1,448,452,453,-1,453,452,454,-1,453,454,455,-1,455,454,456,-1,455,456,457,-1,457,456,458,-1,457,458,459,-1,459,458,460,-1,459,460,461,-1,461,460,462,-1,461,462,463,-1,464,463,465,-1,465,463,462,-1,464,465,466,-1,466,465,467,-1,466,467,468,-1,468,467,469,-1,468,469,470,-1,470,469,471,-1,470,471,472,-1,472,471,473,-1,472,473,474,-1,474,473,475,-1,474,475,476,-1,476,475,477,-1,478,476,479,-1,479,476,477,-1,480,481,482,-1,482,481,483,-1,480,482,484,-1,480,484,485,-1,485,484,486,-1,485,486,487,-1,487,486,488,-1,487,488,489,-1,489,488,490,-1,489,490,491,-1,491,490,492,-1,491,492,493,-1,493,492,494,-1,493,494,495,-1,496,495,497,-1,497,495,494,-1,496,497,498,-1,498,497,499,-1,498,499,500,-1,500,499,501,-1,500,501,502,-1,502,501,503,-1,502,503,504,-1,504,503,505,-1,504,505,506,-1,506,505,507,-1,506,507,508,-1,508,507,509,-1,510,508,511,-1,511,508,509,-1,449,510,451,-1,451,510,511,-1,510,449,508,-1,508,449,448,-1,508,448,506,-1,506,448,453,-1,506,453,504,-1,504,453,455,-1,504,455,502,-1,502,455,457,-1,502,457,500,-1,500,457,459,-1,500,459,498,-1,498,459,461,-1,498,461,496,-1,496,461,463,-1,496,463,495,-1,495,463,464,-1,495,464,493,-1,493,464,466,-1,493,466,491,-1,491,466,468,-1,491,468,489,-1,489,468,470,-1,489,470,487,-1,487,470,472,-1,487,472,485,-1,485,472,474,-1,485,474,480,-1,480,474,476,-1,480,476,481,-1,481,476,478,-1,483,479,482,-1,482,479,477,-1,482,477,484,-1,484,477,475,-1,484,475,486,-1,486,475,473,-1,486,473,488,-1,488,473,471,-1,488,471,490,-1,490,471,469,-1,490,469,492,-1,492,469,467,-1,492,467,494,-1,494,467,465,-1,494,465,497,-1,497,465,462,-1,497,462,499,-1,499,462,460,-1,499,460,501,-1,501,460,458,-1,501,458,503,-1,503,458,456,-1,503,456,505,-1,505,456,454,-1,505,454,507,-1,507,454,452,-1,507,452,509,-1,509,452,450,-1,509,450,511,-1,511,450,451,-1,
        ]
    }
}
Shape{
    appearance Appearance {
        material  Material 	{
            diffuseColor 0.20784313725490197 0.20784313725490197 0.20784313725490197
            specularColor 0.01568627450980392 0.01568627450980392 0.01568627450980392
            ambientIntensity 0.298
            transparency 0.0
            shininess 0.5
        }
    }
    geometry IndexedFaceSet {
        ccw TRUE
        solid FALSE
        coord DEF co Coordinate {
            point [
                0.5709 0.5853 0.229, 0.5709 0.5853 0.229, 0.5525 0.5802 0.331, 0.5615 0.5892 0.2287, 0.5424 0.5816 0.3302, 0.5614 0.5892 0.2287, 0.5513 0.5906 0.2283, 0.5525 0.5802 0.331, 0.5619 0.5763 0.3314, 0.579 0.579 0.2291, 0.562 0.5763 0.3314, 0.5802 0.5525 0.331, 0.5816 0.5424 0.3302, 0.5906 0.5513 0.2283, 0.57 0.57 0.3316, 0.5763 0.562 0.3314, 0.5853 0.5709 0.229, 0.5763 0.5619 0.3314, 0.5853 0.5709 0.229, 0.5802 0.5525 0.331, 0.5892 0.5615 0.2287, 0.5892 0.5614 0.2287, 0.5512 0.5906 0.1693, 0.5512 0.5906 0.2283, 0.5513 0.5906 0.1693, 0.5513 0.5906 0.2283, 0.5614 0.5892 0.1689, 0.5615 0.5892 0.1689, 0.5709 0.5853 0.1687, 0.5709 0.5853 0.1687, 0.579 0.579 0.1686, 0.5853 0.5709 0.1687, 0.5853 0.5709 0.1687, 0.5892 0.5615 0.1689, 0.5892 0.5614 0.1689, 0.5906 0.5513 0.1693, 0.5906 0.5513 0.2283, 0.5906 0.5512 0.1693, 0.5906 0.5512 0.2283, 0.5424 0.5753 0.3484, 0.5424 0.5691 0.3557, 0.5493 0.5682 0.3557, 0.5473 0.5606 0.3614, 0.5449 0.5518 0.3649, 0.5473 0.5508 0.3649, 0.5424 0.5424 0.3661, 0.5508 0.5473 0.3649, 0.5493 0.5493 0.3649, 0.5518 0.5449 0.3649, 0.5424 0.5521 0.3649, 0.5521 0.5784 0.3394, 0.5611 0.5747 0.3394, 0.5688 0.5688 0.3394, 0.5747 0.5611 0.3394, 0.5784 0.5521 0.3394, 0.5797 0.5424 0.3394, 0.5521 0.5424 0.3649, 0.5424 0.569 0.3558, 0.5424 0.5612 0.3614, 0.5424 0.5611 0.3614, 0.5424 0.5521 0.3649, 0.5518 0.5587 0.3614, 0.5557 0.5557 0.3614, 0.5587 0.5518 0.3614, 0.5606 0.5473 0.3614, 0.5521 0.5424 0.3649, 0.5611 0.5424 0.3614, 0.5612 0.5424 0.3614, 0.569 0.5424 0.3558, 0.5558 0.5656 0.3557, 0.5613 0.5613 0.3557, 0.5656 0.5558 0.3557, 0.5682 0.5493 0.3557, 0.5424 0.5796 0.3397, 0.5424 0.5754 0.3482, 0.551 0.5743 0.3482, 0.5589 0.571 0.3482, 0.5658 0.5658 0.3482, 0.571 0.5589 0.3482, 0.5743 0.551 0.3482, 0.5424 0.5797 0.3394, 0.5691 0.5424 0.3557, 0.5753 0.5424 0.3484, 0.5754 0.5424 0.3482, 0.5796 0.5424 0.3397, 0.5802 0.5525 0.0667, 0.5816 0.5424 0.0674, 0.5906 0.5513 0.1693, 0.5802 0.5525 0.0667, 0.5763 0.5619 0.0662, 0.5763 0.562 0.0662, 0.5525 0.5802 0.0667, 0.5424 0.5816 0.0674, 0.5513 0.5906 0.1693, 0.57 0.57 0.066, 0.562 0.5763 0.0662, 0.5619 0.5763 0.0662, 0.5525 0.5802 0.0667, -0.5853 0.5709 0.229, -0.5853 0.5709 0.229, -0.5802 0.5525 0.331, -0.5892 0.5615 0.2287, -0.5816 0.5424 0.3302, -0.5892 0.5614 0.2287, -0.5906 0.5513 0.2283, -0.5802 0.5525 0.331, -0.5763 0.5619 0.3314, -0.579 0.579 0.2291, -0.5763 0.562 0.3314, -0.5525 0.5802 0.331, -0.5424 0.5816 0.3302, -0.5513 0.5906 0.2283, -0.57 0.57 0.3316, -0.562 0.5763 0.3314, -0.5709 0.5853 0.229, -0.5619 0.5763 0.3314, -0.5709 0.5853 0.229, -0.5525 0.5802 0.331, -0.5615 0.5892 0.2287, -0.5614 0.5892 0.2287, -0.5424 0.5797 0.3394, -0.5424 0.5796 0.3397, -0.5424 0.5754 0.3482, -0.5424 0.5753 0.3484, -0.5424 0.5691 0.3557, -0.5424 0.569 0.3558, -0.5424 0.5612 0.3614, -0.5424 0.5611 0.3614, -0.5424 0.5521 0.3649, -0.5424 0.5521 0.3649, -0.5424 0.5424 0.3661, 0.5816 -0.5424 0.3302, 0.5797 -0.5424 0.3394, 0.5796 -0.5424 0.3397, 0.5754 -0.5424 0.3482, 0.5753 -0.5424 0.3484, 0.5691 -0.5424 0.3557, 0.569 -0.5424 0.3558, 0.5612 -0.5424 0.3614, 0.5611 -0.5424 0.3614, 0.5521 -0.5424 0.3649, 0.5521 -0.5424 0.3649, 0.5424 -0.5424 0.3661, 0.5853 -0.5709 0.229, 0.5853 -0.5709 0.229, 0.5802 -0.5525 0.331, 0.5892 -0.5615 0.2287, 0.5892 -0.5614 0.2287, 0.5906 -0.5513 0.2283, 0.5802 -0.5525 0.331, 0.5763 -0.5619 0.3314, 0.579 -0.579 0.2291, 0.5763 -0.562 0.3314, 0.5525 -0.5802 0.331, 0.5424 -0.5816 0.3302, 0.5513 -0.5906 0.2283, 0.57 -0.57 0.3316, 0.562 -0.5763 0.3314, 0.5709 -0.5853 0.229, 0.5619 -0.5763 0.3314, 0.5709 -0.5853 0.229, 0.5525 -0.5802 0.331, 0.5615 -0.5892 0.2287, 0.5614 -0.5892 0.2287, 0.5906 -0.5512 0.1693, 0.5906 -0.5512 0.2283, 0.5906 -0.5513 0.1693, 0.5906 -0.5513 0.2283, 0.5892 -0.5614 0.1689, 0.5892 -0.5615 0.1689, 0.5853 -0.5709 0.1687, 0.5853 -0.5709 0.1687, 0.579 -0.579 0.1686, 0.5709 -0.5853 0.1687, 0.5709 -0.5853 0.1687, 0.5615 -0.5892 0.1689, 0.5614 -0.5892 0.1689, 0.5513 -0.5906 0.1693, 0.5513 -0.5906 0.2283, 0.5512 -0.5906 0.1693, 0.5512 -0.5906 0.2283, 0.5521 0.5424 0.0327, 0.5424 0.5424 0.0315, 0.5518 0.5449 0.0327, 0.5424 0.5611 0.0362, 0.5424 0.5612 0.0363, 0.5473 0.5606 0.0363, 0.5424 0.569 0.0419, 0.5424 0.5691 0.042, 0.5493 0.5682 0.042, 0.551 0.5743 0.0494, 0.5521 0.5784 0.0582, 0.5611 0.5747 0.0582, 0.5797 0.5424 0.0582, 0.5784 0.5521 0.0582, 0.5424 0.5797 0.0582, 0.5424 0.5796 0.058, 0.5424 0.5754 0.0494, 0.5424 0.5753 0.0493, 0.5796 0.5424 0.058, 0.5743 0.551 0.0494, 0.5589 0.571 0.0494, 0.5688 0.5688 0.0582, 0.5754 0.5424 0.0494, 0.5753 0.5424 0.0493, 0.5682 0.5493 0.042, 0.5558 0.5656 0.042, 0.5658 0.5658 0.0494, 0.5691 0.5424 0.042, 0.569 0.5424 0.0419, 0.5606 0.5473 0.0363, 0.5613 0.5613 0.042, 0.5518 0.5587 0.0363, 0.5449 0.5518 0.0327, 0.5747 0.5611 0.0582, 0.571 0.5589 0.0494, 0.5656 0.5558 0.042, 0.5587 0.5518 0.0363, 0.5508 0.5473 0.0327, 0.5424 0.5521 0.0327, 0.5424 0.5521 0.0327, 0.5557 0.5557 0.0363, 0.5473 0.5508 0.0327, 0.5493 0.5493 0.0327, 0.5612 0.5424 0.0363, 0.5611 0.5424 0.0362, 0.5521 0.5424 0.0327, -0.5906 0.5512 0.1693, -0.5906 0.5512 0.2283, -0.5906 0.5513 0.1693, -0.5906 0.5513 0.2283, -0.5892 0.5614 0.1689, -0.5892 0.5615 0.1689, -0.5853 0.5709 0.1687, -0.5853 0.5709 0.1687, -0.579 0.579 0.1686, -0.5709 0.5853 0.1687, -0.5709 0.5853 0.1687, -0.5615 0.5892 0.1689, -0.5614 0.5892 0.1689, -0.5513 0.5906 0.1693, -0.5513 0.5906 0.2283, -0.5512 0.5906 0.1693, -0.5512 0.5906 0.2283, -0.5753 0.5424 0.3484, -0.5691 0.5424 0.3557, -0.5682 0.5493 0.3557, -0.5606 0.5473 0.3614, -0.5518 0.5449 0.3649, -0.5508 0.5473 0.3649, -0.5473 0.5508 0.3649, -0.5493 0.5493 0.3649, -0.5449 0.5518 0.3649, -0.5521 0.5424 0.3649, -0.5784 0.5521 0.3394, -0.5747 0.5611 0.3394, -0.5688 0.5688 0.3394, -0.5611 0.5747 0.3394, -0.5521 0.5784 0.3394, -0.569 0.5424 0.3558, -0.5612 0.5424 0.3614, -0.5611 0.5424 0.3614, -0.5521 0.5424 0.3649, -0.5587 0.5518 0.3614, -0.5557 0.5557 0.3614, -0.5518 0.5587 0.3614, -0.5473 0.5606 0.3614, -0.5656 0.5558 0.3557, -0.5613 0.5613 0.3557, -0.5558 0.5656 0.3557, -0.5493 0.5682 0.3557, -0.5796 0.5424 0.3397, -0.5754 0.5424 0.3482, -0.5743 0.551 0.3482, -0.571 0.5589 0.3482, -0.5658 0.5658 0.3482, -0.5589 0.571 0.3482, -0.551 0.5743 0.3482, -0.5797 0.5424 0.3394, 0.5682 -0.5493 0.3557, 0.5606 -0.5473 0.3614, 0.5518 -0.5449 0.3649, 0.5508 -0.5473 0.3649, 0.5473 -0.5508 0.3649, 0.5493 -0.5493 0.3649, 0.5449 -0.5518 0.3649, 0.5784 -0.5521 0.3394, 0.5747 -0.5611 0.3394, 0.5688 -0.5688 0.3394, 0.5611 -0.5747 0.3394, 0.5521 -0.5784 0.3394, 0.5424 -0.5797 0.3394, 0.5424 -0.5521 0.3649, 0.5587 -0.5518 0.3614, 0.5557 -0.5557 0.3614, 0.5518 -0.5587 0.3614, 0.5473 -0.5606 0.3614, 0.5424 -0.5521 0.3649, 0.5424 -0.5611 0.3614, 0.5424 -0.5612 0.3614, 0.5424 -0.569 0.3558, 0.5656 -0.5558 0.3557, 0.5613 -0.5613 0.3557, 0.5558 -0.5656 0.3557, 0.5493 -0.5682 0.3557, 0.5743 -0.551 0.3482, 0.571 -0.5589 0.3482, 0.5658 -0.5658 0.3482, 0.5589 -0.571 0.3482, 0.551 -0.5743 0.3482, 0.5424 -0.5691 0.3557, 0.5424 -0.5753 0.3484, 0.5424 -0.5754 0.3482, 0.5424 -0.5796 0.3397, 0.5525 -0.5802 0.0667, 0.5424 -0.5816 0.0674, 0.5513 -0.5906 0.1693, 0.5525 -0.5802 0.0667, 0.5619 -0.5763 0.0662, 0.562 -0.5763 0.0662, 0.5802 -0.5525 0.0667, 0.5816 -0.5424 0.0674, 0.5906 -0.5513 0.1693, 0.57 -0.57 0.066, 0.5763 -0.562 0.0662, 0.5763 -0.5619 0.0662, 0.5802 -0.5525 0.0667, 0.5424 -0.5424 0.0315, 0.5797 -0.5424 0.0582, 0.5796 -0.5424 0.058, 0.5754 -0.5424 0.0494, 0.5753 -0.5424 0.0493, 0.5691 -0.5424 0.042, 0.569 -0.5424 0.0419, 0.5612 -0.5424 0.0363, 0.5611 -0.5424 0.0362, 0.5521 -0.5424 0.0327, 0.5521 -0.5424 0.0327, -0.5424 0.5424 0.0315, -0.5424 0.5521 0.0327, -0.5424 0.5816 0.0674, -0.5424 0.5797 0.0582, -0.5424 0.5796 0.058, -0.5424 0.5754 0.0494, -0.5424 0.5753 0.0493, -0.5424 0.5691 0.042, -0.5424 0.569 0.0419, -0.5424 0.5612 0.0363, -0.5424 0.5611 0.0362, -0.5424 0.5521 0.0327, -0.5525 0.5802 0.0667, -0.5513 0.5906 0.1693, -0.5525 0.5802 0.0667, -0.5619 0.5763 0.0662, -0.562 0.5763 0.0662, -0.5802 0.5525 0.0667, -0.5816 0.5424 0.0674, -0.5906 0.5513 0.1693, -0.57 0.57 0.066, -0.5763 0.562 0.0662, -0.5763 0.5619 0.0662, -0.5802 0.5525 0.0667, -0.5816 -0.5424 0.3302, -0.5797 -0.5424 0.3394, -0.5796 -0.5424 0.3397, -0.5754 -0.5424 0.3482, -0.5753 -0.5424 0.3484, -0.5691 -0.5424 0.3557, -0.569 -0.5424 0.3558, -0.5612 -0.5424 0.3614, -0.5611 -0.5424 0.3614, -0.5521 -0.5424 0.3649, -0.5521 -0.5424 0.3649, -0.5424 -0.5424 0.3661, -0.5424 -0.5816 0.3302, -0.5424 -0.5797 0.3394, -0.5424 -0.5796 0.3397, -0.5424 -0.5754 0.3482, -0.5424 -0.5753 0.3484, -0.5424 -0.5691 0.3557, -0.5424 -0.569 0.3558, -0.5424 -0.5612 0.3614, -0.5424 -0.5611 0.3614, -0.5424 -0.5521 0.3649, -0.5424 -0.5521 0.3649, 0.5424 -0.5521 0.0327, 0.5449 -0.5518 0.0327, 0.5606 -0.5473 0.0363, 0.5682 -0.5493 0.042, 0.5743 -0.551 0.0494, 0.5784 -0.5521 0.0582, 0.5747 -0.5611 0.0582, 0.5424 -0.5797 0.0582, 0.5521 -0.5784 0.0582, 0.5424 -0.5796 0.058, 0.551 -0.5743 0.0494, 0.571 -0.5589 0.0494, 0.5688 -0.5688 0.0582, 0.5424 -0.5754 0.0494, 0.5424 -0.5753 0.0493, 0.5493 -0.5682 0.042, 0.5656 -0.5558 0.042, 0.5658 -0.5658 0.0494, 0.5424 -0.5691 0.042, 0.5424 -0.569 0.0419, 0.5473 -0.5606 0.0363, 0.5613 -0.5613 0.042, 0.5587 -0.5518 0.0363, 0.5518 -0.5449 0.0327, 0.5611 -0.5747 0.0582, 0.5589 -0.571 0.0494, 0.5558 -0.5656 0.042, 0.5518 -0.5587 0.0363, 0.5473 -0.5508 0.0327, 0.5557 -0.5557 0.0363, 0.5508 -0.5473 0.0327, 0.5493 -0.5493 0.0327, 0.5424 -0.5612 0.0363, 0.5424 -0.5611 0.0362, 0.5424 -0.5521 0.0327, -0.5449 0.5518 0.0327, -0.5611 0.5424 0.0362, -0.5612 0.5424 0.0363, -0.5606 0.5473 0.0363, -0.569 0.5424 0.0419, -0.5691 0.5424 0.042, -0.5682 0.5493 0.042, -0.5743 0.551 0.0494, -0.5784 0.5521 0.0582, -0.5747 0.5611 0.0582, -0.5521 0.5784 0.0582, -0.5797 0.5424 0.0582, -0.5796 0.5424 0.058, -0.5754 0.5424 0.0494, -0.5753 0.5424 0.0493, -0.551 0.5743 0.0494, -0.571 0.5589 0.0494, -0.5688 0.5688 0.0582, -0.5493 0.5682 0.042, -0.5656 0.5558 0.042, -0.5658 0.5658 0.0494, -0.5473 0.5606 0.0363, -0.5613 0.5613 0.042, -0.5587 0.5518 0.0363, -0.5518 0.5449 0.0327, -0.5611 0.5747 0.0582, -0.5589 0.571 0.0494, -0.5558 0.5656 0.042, -0.5518 0.5587 0.0363, -0.5473 0.5508 0.0327, -0.5521 0.5424 0.0327, -0.5521 0.5424 0.0327, -0.5557 0.5557 0.0363, -0.5508 0.5473 0.0327, -0.5493 0.5493 0.0327, -0.5493 -0.5682 0.3557, -0.5473 -0.5606 0.3614, -0.5449 -0.5518 0.3649, -0.5473 -0.5508 0.3649, -0.5508 -0.5473 0.3649, -0.5493 -0.5493 0.3649, -0.5518 -0.5449 0.3649, -0.5521 -0.5784 0.3394, -0.5525 -0.5802 0.331, -0.5525 -0.5802 0.331, -0.5619 -0.5763 0.3314, -0.5611 -0.5747 0.3394, -0.562 -0.5763 0.3314, -0.5688 -0.5688 0.3394, -0.57 -0.57 0.3316, -0.5747 -0.5611 0.3394, -0.5763 -0.562 0.3314, -0.5763 -0.5619 0.3314, -0.5784 -0.5521 0.3394, -0.5802 -0.5525 0.331, -0.5802 -0.5525 0.331, -0.5518 -0.5587 0.3614, -0.5557 -0.5557 0.3614, -0.5587 -0.5518 0.3614, -0.5606 -0.5473 0.3614, -0.5558 -0.5656 0.3557, -0.5613 -0.5613 0.3557, -0.5656 -0.5558 0.3557, -0.5682 -0.5493 0.3557, -0.551 -0.5743 0.3482, -0.5589 -0.571 0.3482, -0.5658 -0.5658 0.3482, -0.571 -0.5589 0.3482, -0.5743 -0.551 0.3482, -0.5424 -0.5424 0.0315, -0.5424 -0.5816 0.0674, -0.5424 -0.5797 0.0582, -0.5424 -0.5796 0.058, -0.5424 -0.5754 0.0494, -0.5424 -0.5753 0.0493, -0.5424 -0.5691 0.042, -0.5424 -0.569 0.0419, -0.5424 -0.5612 0.0363, -0.5424 -0.5611 0.0362, -0.5424 -0.5521 0.0327, -0.5424 -0.5521 0.0327, -0.5521 -0.5424 0.0327, -0.5816 -0.5424 0.0674, -0.5797 -0.5424 0.0582, -0.5796 -0.5424 0.058, -0.5754 -0.5424 0.0494, -0.5753 -0.5424 0.0493, -0.5691 -0.5424 0.042, -0.569 -0.5424 0.0419, -0.5612 -0.5424 0.0363, -0.5611 -0.5424 0.0362, -0.5521 -0.5424 0.0327, -0.5709 -0.5853 0.229, -0.5709 -0.5853 0.229, -0.5615 -0.5892 0.2287, -0.5614 -0.5892 0.2287, -0.5513 -0.5906 0.2283, -0.579 -0.579 0.2291, -0.5906 -0.5513 0.2283, -0.5853 -0.5709 0.229, -0.5853 -0.5709 0.229, -0.5892 -0.5615 0.2287, -0.5892 -0.5614 0.2287, -0.5518 -0.5449 0.0327, -0.5473 -0.5606 0.0363, -0.5493 -0.5682 0.042, -0.551 -0.5743 0.0494, -0.5521 -0.5784 0.0582, -0.5611 -0.5747 0.0582, -0.5802 -0.5525 0.0667, -0.5763 -0.5619 0.0662, -0.5802 -0.5525 0.0667, -0.5784 -0.5521 0.0582, -0.5525 -0.5802 0.0667, -0.5525 -0.5802 0.0667, -0.5619 -0.5763 0.0662, -0.562 -0.5763 0.0662, -0.57 -0.57 0.066, -0.5743 -0.551 0.0494, -0.5589 -0.571 0.0494, -0.5688 -0.5688 0.0582, -0.5682 -0.5493 0.042, -0.5558 -0.5656 0.042, -0.5658 -0.5658 0.0494, -0.5606 -0.5473 0.0363, -0.5613 -0.5613 0.042, -0.5518 -0.5587 0.0363, -0.5449 -0.5518 0.0327, -0.5763 -0.562 0.0662, -0.5747 -0.5611 0.0582, -0.571 -0.5589 0.0494, -0.5656 -0.5558 0.042, -0.5587 -0.5518 0.0363, -0.5508 -0.5473 0.0327, -0.5557 -0.5557 0.0363, -0.5473 -0.5508 0.0327, -0.5493 -0.5493 0.0327, -0.5512 -0.5906 0.1693, -0.5512 -0.5906 0.2283, -0.5513 -0.5906 0.1693, -0.5513 -0.5906 0.2283, -0.5614 -0.5892 0.1689, -0.5615 -0.5892 0.1689, -0.5709 -0.5853 0.1687, -0.5709 -0.5853 0.1687, -0.579 -0.579 0.1686, -0.5853 -0.5709 0.1687, -0.5853 -0.5709 0.1687, -0.5892 -0.5615 0.1689, -0.5892 -0.5614 0.1689, -0.5906 -0.5513 0.1693, -0.5906 -0.5513 0.2283, -0.5906 -0.5512 0.1693, -0.5906 -0.5512 0.2283, -0.5906 -0.5513 0.1693, -0.5513 -0.5906 0.1693
            ]
        }
        coordIndex [
            0,1,2,-1,2,1,3,-1,2,3,4,-1,4,3,5,-1,4,5,6,-1,2,7,0,-1,0,7,8,-1,0,8,9,-1,9,8,10,-1,11,12,13,-1,10,14,9,-1,9,14,15,-1,9,15,16,-1,16,15,17,-1,16,17,18,-1,18,17,19,-1,18,19,20,-1,20,19,11,-1,20,11,21,-1,21,11,13,-1,22,23,24,-1,24,23,25,-1,24,25,26,-1,26,25,5,-1,26,5,27,-1,27,5,3,-1,27,3,28,-1,28,3,1,-1,28,1,29,-1,29,1,0,-1,29,0,30,-1,30,0,9,-1,30,9,31,-1,31,9,16,-1,31,16,32,-1,32,16,18,-1,32,18,33,-1,33,18,20,-1,33,20,34,-1,34,20,21,-1,34,21,35,-1,35,21,36,-1,35,36,37,-1,37,36,38,-1,39,40,41,-1,42,43,44,-1,45,46,47,-1,48,46,45,-1,44,43,45,-1,49,45,43,-1,50,7,2,-1,7,50,8,-1,8,50,51,-1,8,51,10,-1,10,51,52,-1,10,52,14,-1,14,52,53,-1,14,53,15,-1,15,53,17,-1,17,53,54,-1,17,54,19,-1,19,54,11,-1,11,54,55,-1,11,55,12,-1,56,48,45,-1,57,58,42,-1,42,58,59,-1,42,59,43,-1,43,59,60,-1,43,60,49,-1,61,47,62,-1,62,47,46,-1,62,46,63,-1,63,46,48,-1,63,48,64,-1,56,65,48,-1,48,65,66,-1,48,66,64,-1,64,66,67,-1,64,67,68,-1,41,61,69,-1,69,61,62,-1,69,62,70,-1,70,62,63,-1,70,63,71,-1,71,63,64,-1,71,64,72,-1,72,64,68,-1,73,74,75,-1,75,74,39,-1,39,41,75,-1,75,41,69,-1,75,69,76,-1,76,69,70,-1,76,70,77,-1,77,70,71,-1,77,71,78,-1,78,71,72,-1,78,72,79,-1,40,57,41,-1,41,57,42,-1,41,42,61,-1,61,42,44,-1,61,44,47,-1,47,44,45,-1,73,50,80,-1,80,50,2,-1,80,2,4,-1,68,81,72,-1,72,81,82,-1,72,82,79,-1,79,82,83,-1,79,83,84,-1,73,75,50,-1,50,75,76,-1,50,76,51,-1,51,76,77,-1,51,77,52,-1,52,77,78,-1,52,78,53,-1,53,78,79,-1,53,79,54,-1,54,79,84,-1,54,84,55,-1,31,32,85,-1,85,32,33,-1,85,33,86,-1,86,33,34,-1,86,34,87,-1,85,88,31,-1,31,88,89,-1,31,89,30,-1,30,89,90,-1,91,92,93,-1,90,94,30,-1,30,94,95,-1,30,95,29,-1,29,95,96,-1,29,96,28,-1,28,96,97,-1,28,97,27,-1,27,97,91,-1,27,91,26,-1,26,91,93,-1,98,99,100,-1,100,99,101,-1,100,101,102,-1,102,101,103,-1,102,103,104,-1,100,105,98,-1,98,105,106,-1,98,106,107,-1,107,106,108,-1,109,110,111,-1,108,112,107,-1,107,112,113,-1,107,113,114,-1,114,113,115,-1,114,115,116,-1,116,115,117,-1,116,117,118,-1,118,117,109,-1,118,109,119,-1,119,109,111,-1,4,110,80,-1,80,110,120,-1,80,120,73,-1,73,120,121,-1,73,121,74,-1,74,121,122,-1,74,122,39,-1,39,122,123,-1,39,123,40,-1,40,123,124,-1,40,124,57,-1,57,124,125,-1,57,125,58,-1,58,125,126,-1,58,126,59,-1,59,126,127,-1,59,127,60,-1,60,127,128,-1,60,128,49,-1,128,129,49,-1,49,129,130,-1,49,130,45,-1,131,12,132,-1,132,12,55,-1,132,55,133,-1,133,55,84,-1,133,84,134,-1,134,84,83,-1,134,83,135,-1,135,83,82,-1,135,82,136,-1,136,82,81,-1,136,81,137,-1,137,81,68,-1,137,68,138,-1,138,68,67,-1,138,67,139,-1,139,67,66,-1,139,66,140,-1,140,66,65,-1,140,65,141,-1,65,56,141,-1,141,56,45,-1,141,45,142,-1,143,144,145,-1,145,144,146,-1,145,146,131,-1,131,146,147,-1,131,147,148,-1,145,149,143,-1,143,149,150,-1,143,150,151,-1,151,150,152,-1,153,154,155,-1,152,156,151,-1,151,156,157,-1,151,157,158,-1,158,157,159,-1,158,159,160,-1,160,159,161,-1,160,161,162,-1,162,161,153,-1,162,153,163,-1,163,153,155,-1,164,165,166,-1,166,165,167,-1,166,167,168,-1,168,167,147,-1,168,147,169,-1,169,147,146,-1,169,146,170,-1,170,146,144,-1,170,144,171,-1,171,144,143,-1,171,143,172,-1,172,143,151,-1,172,151,173,-1,173,151,158,-1,173,158,174,-1,174,158,160,-1,174,160,175,-1,175,160,162,-1,175,162,176,-1,176,162,163,-1,176,163,177,-1,177,163,178,-1,177,178,179,-1,179,178,180,-1,181,182,183,-1,184,185,186,-1,187,188,189,-1,190,191,192,-1,85,86,193,-1,89,88,194,-1,194,88,85,-1,91,97,191,-1,191,97,96,-1,191,96,192,-1,192,96,95,-1,192,95,94,-1,92,91,195,-1,195,91,191,-1,195,191,196,-1,196,191,190,-1,196,190,197,-1,197,190,198,-1,85,193,194,-1,194,193,199,-1,194,199,200,-1,188,198,189,-1,189,198,190,-1,189,190,201,-1,201,190,192,-1,201,192,202,-1,202,192,94,-1,199,203,200,-1,200,203,204,-1,200,204,205,-1,185,187,186,-1,186,187,189,-1,186,189,206,-1,206,189,201,-1,206,201,207,-1,207,201,202,-1,204,208,205,-1,205,208,209,-1,205,209,210,-1,207,211,206,-1,206,211,212,-1,206,212,186,-1,186,212,213,-1,186,213,184,-1,90,89,214,-1,214,89,194,-1,214,194,215,-1,215,194,200,-1,215,200,216,-1,216,200,205,-1,216,205,217,-1,217,205,210,-1,217,210,218,-1,218,210,183,-1,218,183,182,-1,182,219,213,-1,213,219,220,-1,213,220,184,-1,211,221,212,-1,212,221,222,-1,212,222,213,-1,213,222,182,-1,221,223,222,-1,222,223,182,-1,209,224,210,-1,210,224,225,-1,210,225,183,-1,183,225,226,-1,183,226,181,-1,94,90,202,-1,202,90,214,-1,202,214,207,-1,207,214,215,-1,207,215,211,-1,211,215,216,-1,211,216,221,-1,221,216,217,-1,221,217,223,-1,223,217,218,-1,223,218,182,-1,227,228,229,-1,229,228,230,-1,229,230,231,-1,231,230,103,-1,231,103,232,-1,232,103,101,-1,232,101,233,-1,233,101,99,-1,233,99,234,-1,234,99,98,-1,234,98,235,-1,235,98,107,-1,235,107,236,-1,236,107,114,-1,236,114,237,-1,237,114,116,-1,237,116,238,-1,238,116,118,-1,238,118,239,-1,239,118,119,-1,239,119,240,-1,240,119,241,-1,240,241,242,-1,242,241,243,-1,244,245,246,-1,247,248,249,-1,130,250,251,-1,252,250,130,-1,249,248,130,-1,253,130,248,-1,254,105,100,-1,105,254,106,-1,106,254,255,-1,106,255,108,-1,108,255,256,-1,108,256,112,-1,112,256,257,-1,112,257,113,-1,113,257,115,-1,115,257,258,-1,115,258,117,-1,117,258,109,-1,109,258,120,-1,109,120,110,-1,129,252,130,-1,259,260,247,-1,247,260,261,-1,247,261,248,-1,248,261,262,-1,248,262,253,-1,263,251,264,-1,264,251,250,-1,264,250,265,-1,265,250,252,-1,265,252,266,-1,129,128,252,-1,252,128,127,-1,252,127,266,-1,266,127,126,-1,266,126,125,-1,246,263,267,-1,267,263,264,-1,267,264,268,-1,268,264,265,-1,268,265,269,-1,269,265,266,-1,269,266,270,-1,270,266,125,-1,271,272,273,-1,273,272,244,-1,244,246,273,-1,273,246,267,-1,273,267,274,-1,274,267,268,-1,274,268,275,-1,275,268,269,-1,275,269,276,-1,276,269,270,-1,276,270,277,-1,245,259,246,-1,246,259,247,-1,246,247,263,-1,263,247,249,-1,263,249,251,-1,251,249,130,-1,271,254,278,-1,278,254,100,-1,278,100,102,-1,125,124,270,-1,270,124,123,-1,270,123,277,-1,277,123,122,-1,277,122,121,-1,271,273,254,-1,254,273,274,-1,254,274,255,-1,255,274,275,-1,255,275,256,-1,256,275,276,-1,256,276,257,-1,257,276,277,-1,257,277,258,-1,258,277,121,-1,258,121,120,-1,135,136,279,-1,280,281,282,-1,142,283,284,-1,285,283,142,-1,282,281,142,-1,141,142,281,-1,286,149,145,-1,149,286,150,-1,150,286,287,-1,150,287,152,-1,152,287,288,-1,152,288,156,-1,156,288,289,-1,156,289,157,-1,157,289,159,-1,159,289,290,-1,159,290,161,-1,161,290,153,-1,153,290,291,-1,153,291,154,-1,292,285,142,-1,137,138,280,-1,280,138,139,-1,280,139,281,-1,281,139,140,-1,281,140,141,-1,293,284,294,-1,294,284,283,-1,294,283,295,-1,295,283,285,-1,295,285,296,-1,292,297,285,-1,285,297,298,-1,285,298,296,-1,296,298,299,-1,296,299,300,-1,279,293,301,-1,301,293,294,-1,301,294,302,-1,302,294,295,-1,302,295,303,-1,303,295,296,-1,303,296,304,-1,304,296,300,-1,133,134,305,-1,305,134,135,-1,135,279,305,-1,305,279,301,-1,305,301,306,-1,306,301,302,-1,306,302,307,-1,307,302,303,-1,307,303,308,-1,308,303,304,-1,308,304,309,-1,136,137,279,-1,279,137,280,-1,279,280,293,-1,293,280,282,-1,293,282,284,-1,284,282,142,-1,133,286,132,-1,132,286,145,-1,132,145,131,-1,300,310,304,-1,304,310,311,-1,304,311,309,-1,309,311,312,-1,309,312,313,-1,133,305,286,-1,286,305,306,-1,286,306,287,-1,287,306,307,-1,287,307,288,-1,288,307,308,-1,288,308,289,-1,289,308,309,-1,289,309,290,-1,290,309,313,-1,290,313,291,-1,173,174,314,-1,314,174,175,-1,314,175,315,-1,315,175,176,-1,315,176,316,-1,314,317,173,-1,173,317,318,-1,173,318,172,-1,172,318,319,-1,320,321,322,-1,319,323,172,-1,172,323,324,-1,172,324,171,-1,171,324,325,-1,171,325,170,-1,170,325,326,-1,170,326,169,-1,169,326,320,-1,169,320,168,-1,168,320,322,-1,327,182,181,-1,86,321,193,-1,193,321,328,-1,193,328,199,-1,199,328,329,-1,199,329,203,-1,203,329,330,-1,203,330,204,-1,204,330,331,-1,204,331,208,-1,208,331,332,-1,208,332,209,-1,209,332,333,-1,209,333,224,-1,224,333,334,-1,224,334,225,-1,225,334,335,-1,225,335,226,-1,226,335,336,-1,226,336,181,-1,181,336,337,-1,181,337,327,-1,182,338,339,-1,340,92,341,-1,341,92,195,-1,341,195,342,-1,342,195,196,-1,342,196,343,-1,343,196,197,-1,343,197,344,-1,344,197,198,-1,344,198,345,-1,345,198,188,-1,345,188,346,-1,346,188,187,-1,346,187,347,-1,347,187,185,-1,347,185,348,-1,348,185,184,-1,348,184,349,-1,349,184,220,-1,349,220,339,-1,339,220,219,-1,339,219,182,-1,236,237,350,-1,350,237,238,-1,350,238,340,-1,340,238,239,-1,340,239,351,-1,350,352,236,-1,236,352,353,-1,236,353,235,-1,235,353,354,-1,355,356,357,-1,354,358,235,-1,235,358,359,-1,235,359,234,-1,234,359,360,-1,234,360,233,-1,233,360,361,-1,233,361,232,-1,232,361,355,-1,232,355,231,-1,231,355,357,-1,102,362,278,-1,278,362,363,-1,278,363,271,-1,271,363,364,-1,271,364,272,-1,272,364,365,-1,272,365,244,-1,244,365,366,-1,244,366,245,-1,245,366,367,-1,245,367,259,-1,259,367,368,-1,259,368,260,-1,260,368,369,-1,260,369,261,-1,261,369,370,-1,261,370,262,-1,262,370,371,-1,262,371,253,-1,371,372,253,-1,253,372,373,-1,253,373,130,-1,374,154,375,-1,375,154,291,-1,375,291,376,-1,376,291,313,-1,376,313,377,-1,377,313,312,-1,377,312,378,-1,378,312,311,-1,378,311,379,-1,379,311,310,-1,379,310,380,-1,380,310,300,-1,380,300,381,-1,381,300,299,-1,381,299,382,-1,382,299,298,-1,382,298,383,-1,383,298,297,-1,383,297,384,-1,297,292,384,-1,384,292,142,-1,384,142,373,-1,385,327,386,-1,335,334,387,-1,333,332,388,-1,389,390,391,-1,314,315,392,-1,318,317,393,-1,393,317,314,-1,320,326,390,-1,390,326,325,-1,390,325,391,-1,391,325,324,-1,391,324,323,-1,321,320,328,-1,328,320,390,-1,328,390,329,-1,329,390,389,-1,329,389,330,-1,330,389,331,-1,314,392,393,-1,393,392,394,-1,393,394,395,-1,332,331,388,-1,388,331,389,-1,388,389,396,-1,396,389,391,-1,396,391,397,-1,397,391,323,-1,394,398,395,-1,395,398,399,-1,395,399,400,-1,334,333,387,-1,387,333,388,-1,387,388,401,-1,401,388,396,-1,401,396,402,-1,402,396,397,-1,399,403,400,-1,400,403,404,-1,400,404,405,-1,402,406,401,-1,401,406,407,-1,401,407,387,-1,387,407,408,-1,387,408,335,-1,319,318,409,-1,409,318,393,-1,409,393,410,-1,410,393,395,-1,410,395,411,-1,411,395,400,-1,411,400,412,-1,412,400,405,-1,412,405,413,-1,413,405,386,-1,413,386,327,-1,327,337,408,-1,408,337,336,-1,408,336,335,-1,406,414,407,-1,407,414,415,-1,407,415,408,-1,408,415,327,-1,414,416,415,-1,415,416,327,-1,404,417,405,-1,405,417,418,-1,405,418,386,-1,386,418,419,-1,386,419,385,-1,323,319,397,-1,397,319,409,-1,397,409,402,-1,402,409,410,-1,402,410,406,-1,406,410,411,-1,406,411,414,-1,414,411,412,-1,414,412,416,-1,416,412,413,-1,416,413,327,-1,339,338,420,-1,421,422,423,-1,424,425,426,-1,427,428,429,-1,350,340,341,-1,353,352,430,-1,430,352,350,-1,355,361,428,-1,428,361,360,-1,428,360,429,-1,429,360,359,-1,429,359,358,-1,356,355,431,-1,431,355,428,-1,431,428,432,-1,432,428,427,-1,432,427,433,-1,433,427,434,-1,350,341,430,-1,430,341,342,-1,430,342,435,-1,425,434,426,-1,426,434,427,-1,426,427,436,-1,436,427,429,-1,436,429,437,-1,437,429,358,-1,342,343,435,-1,435,343,344,-1,435,344,438,-1,422,424,423,-1,423,424,426,-1,423,426,439,-1,439,426,436,-1,439,436,440,-1,440,436,437,-1,344,345,438,-1,438,345,346,-1,438,346,441,-1,440,442,439,-1,439,442,443,-1,439,443,423,-1,423,443,444,-1,423,444,421,-1,354,353,445,-1,445,353,430,-1,445,430,446,-1,446,430,435,-1,446,435,447,-1,447,435,438,-1,447,438,448,-1,448,438,441,-1,448,441,449,-1,449,441,420,-1,449,420,338,-1,338,450,444,-1,444,450,451,-1,444,451,421,-1,442,452,443,-1,443,452,453,-1,443,453,444,-1,444,453,338,-1,452,454,453,-1,453,454,338,-1,346,347,441,-1,441,347,348,-1,441,348,420,-1,420,348,349,-1,420,349,339,-1,358,354,437,-1,437,354,445,-1,437,445,440,-1,440,445,446,-1,440,446,442,-1,442,446,447,-1,442,447,452,-1,452,447,448,-1,452,448,454,-1,454,448,449,-1,454,449,338,-1,378,379,455,-1,456,457,458,-1,373,459,460,-1,461,459,373,-1,458,457,373,-1,384,373,457,-1,462,463,464,-1,463,462,465,-1,465,462,466,-1,465,466,467,-1,467,466,468,-1,467,468,469,-1,469,468,470,-1,469,470,471,-1,471,470,472,-1,472,470,473,-1,472,473,474,-1,474,473,475,-1,475,473,363,-1,475,363,362,-1,372,461,373,-1,380,381,456,-1,456,381,382,-1,456,382,457,-1,457,382,383,-1,457,383,384,-1,476,460,477,-1,477,460,459,-1,477,459,478,-1,478,459,461,-1,478,461,479,-1,372,371,461,-1,461,371,370,-1,461,370,479,-1,479,370,369,-1,479,369,368,-1,455,476,480,-1,480,476,477,-1,480,477,481,-1,481,477,478,-1,481,478,482,-1,482,478,479,-1,482,479,483,-1,483,479,368,-1,376,377,484,-1,484,377,378,-1,378,455,484,-1,484,455,480,-1,484,480,485,-1,485,480,481,-1,485,481,486,-1,486,481,482,-1,486,482,487,-1,487,482,483,-1,487,483,488,-1,379,380,455,-1,455,380,456,-1,455,456,476,-1,476,456,458,-1,476,458,460,-1,460,458,373,-1,376,462,375,-1,375,462,464,-1,375,464,374,-1,368,367,483,-1,483,367,366,-1,483,366,488,-1,488,366,365,-1,488,365,364,-1,376,484,462,-1,462,484,485,-1,462,485,466,-1,466,485,486,-1,466,486,468,-1,468,486,487,-1,468,487,470,-1,470,487,488,-1,470,488,473,-1,473,488,364,-1,473,364,363,-1,489,327,385,-1,315,490,392,-1,392,490,491,-1,392,491,394,-1,394,491,492,-1,394,492,398,-1,398,492,493,-1,398,493,399,-1,399,493,494,-1,399,494,403,-1,403,494,495,-1,403,495,404,-1,404,495,496,-1,404,496,417,-1,417,496,497,-1,417,497,418,-1,418,497,498,-1,418,498,419,-1,419,498,499,-1,419,499,385,-1,385,499,500,-1,385,500,489,-1,338,489,501,-1,502,356,503,-1,503,356,431,-1,503,431,504,-1,504,431,432,-1,504,432,505,-1,505,432,433,-1,505,433,506,-1,506,433,434,-1,506,434,507,-1,507,434,425,-1,507,425,508,-1,508,425,424,-1,508,424,509,-1,509,424,422,-1,509,422,510,-1,510,422,421,-1,510,421,511,-1,511,421,451,-1,511,451,501,-1,501,451,450,-1,501,450,338,-1,512,513,464,-1,464,513,514,-1,464,514,374,-1,374,514,515,-1,374,515,516,-1,464,463,512,-1,512,463,465,-1,512,465,517,-1,517,465,467,-1,475,362,518,-1,467,469,517,-1,517,469,471,-1,517,471,519,-1,519,471,472,-1,519,472,520,-1,520,472,474,-1,520,474,521,-1,521,474,475,-1,521,475,522,-1,522,475,518,-1,501,489,523,-1,498,497,524,-1,496,495,525,-1,526,527,528,-1,529,502,503,-1,530,531,532,-1,532,531,529,-1,533,534,527,-1,527,534,535,-1,527,535,528,-1,528,535,536,-1,528,536,537,-1,490,533,491,-1,491,533,527,-1,491,527,492,-1,492,527,526,-1,492,526,493,-1,493,526,494,-1,529,503,532,-1,532,503,504,-1,532,504,538,-1,495,494,525,-1,525,494,526,-1,525,526,539,-1,539,526,528,-1,539,528,540,-1,540,528,537,-1,504,505,538,-1,538,505,506,-1,538,506,541,-1,497,496,524,-1,524,496,525,-1,524,525,542,-1,542,525,539,-1,542,539,543,-1,543,539,540,-1,506,507,541,-1,541,507,508,-1,541,508,544,-1,543,545,542,-1,542,545,546,-1,542,546,524,-1,524,546,547,-1,524,547,498,-1,548,530,549,-1,549,530,532,-1,549,532,550,-1,550,532,538,-1,550,538,551,-1,551,538,541,-1,551,541,552,-1,552,541,544,-1,552,544,553,-1,553,544,523,-1,553,523,489,-1,489,500,547,-1,547,500,499,-1,547,499,498,-1,545,554,546,-1,546,554,555,-1,546,555,547,-1,547,555,489,-1,554,556,555,-1,555,556,489,-1,508,509,544,-1,544,509,510,-1,544,510,523,-1,523,510,511,-1,523,511,501,-1,537,548,540,-1,540,548,549,-1,540,549,543,-1,543,549,550,-1,543,550,545,-1,545,550,551,-1,545,551,554,-1,554,551,552,-1,554,552,556,-1,556,552,553,-1,556,553,489,-1,557,558,559,-1,559,558,560,-1,559,560,561,-1,561,560,515,-1,561,515,562,-1,562,515,514,-1,562,514,563,-1,563,514,513,-1,563,513,564,-1,564,513,512,-1,564,512,565,-1,565,512,517,-1,565,517,566,-1,566,517,519,-1,566,519,567,-1,567,519,520,-1,567,520,568,-1,568,520,521,-1,568,521,569,-1,569,521,522,-1,569,522,570,-1,570,522,571,-1,570,571,572,-1,572,571,573,-1,566,567,529,-1,529,567,568,-1,529,568,502,-1,502,568,569,-1,502,569,574,-1,529,531,566,-1,566,531,530,-1,566,530,565,-1,565,530,548,-1,548,537,565,-1,565,537,536,-1,565,536,564,-1,564,536,535,-1,564,535,563,-1,563,535,534,-1,563,534,562,-1,562,534,533,-1,562,533,561,-1,561,533,490,-1,561,490,575,-1,
        ]
    }
}
Shape{
    appearance Appearance {
        material  Material 	{
            diffuseColor 0.6666666666666666 0.6666666666666666 0.6666666666666666
            specularColor 0.4666666666666667 0.4666666666666667 0.4666666666666667
            ambientIntensity 0.6667
            transparency 0.0
            shininess 0.5
        }
    }
    geometry IndexedFaceSet {
        ccw TRUE
        solid FALSE
        coord DEF co Coordinate {
            point [
                -0.4252 0.3012 0.0276, -0.4252 0.3012 0.0315, -0.4239 0.3114 0.0315, -0.4239 0.3114 0.0276, -0.4199 0.3209 0.0315, -0.4199 0.3209 0.0276, -0.4137 0.329 0.0315, -0.4137 0.329 0.0276, -0.4055 0.3353 0.0315, -0.4055 0.3353 0.0276, -0.396 0.3392 0.0315, -0.396 0.3392 0.0276, -0.3858 0.3406 0.0315, -0.3858 0.3406 0.0276, -0.0163 0.3406 0.0276, 0.3858 0.3406 0.0315, 0.3858 0.3406 0.0276, 0.396 0.3392 0.0315, 0.396 0.3392 0.0276, 0.4055 0.3353 0.0315, 0.4055 0.3353 0.0276, 0.4137 0.329 0.0315, 0.4137 0.329 0.0276, 0.4199 0.3209 0.0315, 0.4199 0.3209 0.0276, 0.4239 0.3114 0.0315, 0.4239 0.3114 0.0276, 0.4252 0.3012 0.0315, 0.4252 0.3012 0.0276, 0.4252 -0.0413 0.0276, 0.4252 -0.3012 0.0315, 0.4252 -0.3012 0.0276, 0.4239 -0.3114 0.0315, 0.4239 -0.3114 0.0276, 0.4199 -0.3209 0.0315, 0.4199 -0.3209 0.0276, 0.4137 -0.329 0.0315, 0.4137 -0.329 0.0276, 0.4055 -0.3353 0.0315, 0.4055 -0.3353 0.0276, 0.396 -0.3392 0.0315, 0.396 -0.3392 0.0276, 0.3858 -0.3406 0.0315, 0.3858 -0.3406 0.0276, -0.0163 -0.3406 0.0276, -0.3858 -0.3406 0.0315, -0.3858 -0.3406 0.0276, -0.396 -0.3392 0.0315, -0.396 -0.3392 0.0276, -0.4055 -0.3353 0.0315, -0.4055 -0.3353 0.0276, -0.4137 -0.329 0.0315, -0.4137 -0.329 0.0276, -0.4199 -0.3209 0.0315, -0.4199 -0.3209 0.0276, -0.4239 -0.3114 0.0315, -0.4239 -0.3114 0.0276, -0.4252 -0.3012 0.0315, -0.4252 -0.3012 0.0276, -0.4252 -0.0413 0.0276
            ]
        }
        coordIndex [
            0,1,2,-1,0,2,3,-1,3,2,4,-1,3,4,5,-1,5,4,6,-1,5,6,7,-1,7,6,8,-1,7,8,9,-1,9,8,10,-1,9,10,11,-1,11,10,12,-1,11,12,13,-1,13,12,14,-1,14,12,15,-1,14,15,16,-1,16,15,17,-1,16,17,18,-1,18,17,19,-1,18,19,20,-1,20,19,21,-1,20,21,22,-1,22,21,23,-1,22,23,24,-1,24,23,25,-1,24,25,26,-1,26,25,27,-1,26,27,28,-1,28,27,29,-1,29,27,30,-1,29,30,31,-1,31,30,32,-1,31,32,33,-1,33,32,34,-1,33,34,35,-1,35,34,36,-1,35,36,37,-1,37,36,38,-1,37,38,39,-1,39,38,40,-1,39,40,41,-1,41,40,42,-1,41,42,43,-1,43,42,44,-1,44,42,45,-1,44,45,46,-1,46,45,47,-1,46,47,48,-1,48,47,49,-1,48,49,50,-1,50,49,51,-1,50,51,52,-1,52,51,53,-1,52,53,54,-1,54,53,55,-1,54,55,56,-1,56,55,57,-1,56,57,58,-1,58,57,59,-1,59,57,1,-1,59,1,0,-1,
        ]
    }
}
Shape{
    appearance Appearance {
        material  Material 	{
            diffuseColor 1.0 1.0 1.0
            specularColor 0.8784313725490196 0.8784313725490196 0.8784313725490196
            ambientIntensity 1.0
            transparency 0.0
            shininess 0.5
        }
    }
    geometry IndexedFaceSet {
        ccw TRUE
        solid FALSE
        coord DEF co Coordinate {
            point [
                -0.1335 0.0379 0.0354, -0.1642 -0.0408 0.0354, -0.1335 0.0379 0.0276, -0.1642 -0.0408 0.0276, -0.1527 -0.0408 0.0354, -0.1527 -0.0408 0.0276, -0.1447 -0.0188 0.0354, -0.1447 -0.0188 0.0276, -0.1122 -0.0188 0.0354, -0.1122 -0.0188 0.0276, -0.1047 -0.0408 0.0354, -0.1047 -0.0408 0.0276, -0.0931 -0.0408 0.0354, -0.0931 -0.0408 0.0276, -0.1229 0.0379 0.0354, -0.1229 0.0379 0.0276, -0.1148 -0.0101 0.0354, -0.1412 -0.0101 0.0354, -0.1266 0.0228 0.0354, -0.1273 0.0255 0.0354, -0.1278 0.0283 0.0354, -0.1281 0.0283 0.0354, -0.1286 0.0255 0.0354, -0.1293 0.0228 0.0354, -0.1148 -0.0101 0.0276, -0.1412 -0.0101 0.0276, -0.1266 0.0228 0.0276, -0.1273 0.0255 0.0276, -0.1278 0.0283 0.0276, -0.1281 0.0283 0.0276, -0.1286 0.0255 0.0276, -0.1293 0.0228 0.0276, -0.0454 -0.0408 0.0354, -0.024 -0.0408 0.0354, -0.0454 -0.0408 0.0276, -0.024 -0.0408 0.0276, -0.024 0.0379 0.0354, -0.024 0.0379 0.0276, -0.0462 0.0379 0.0354, -0.0462 0.0379 0.0276, -0.0874 -0.0005 0.0354, -0.0874 -0.0005 0.0276, -0.0868 0.0069 0.0276, -0.0868 0.0069 0.0354, -0.0847 0.0147 0.0276, -0.0847 0.0147 0.0354, -0.081 0.0215 0.0276, -0.081 0.0215 0.0354, -0.0755 0.0276 0.0276, -0.0755 0.0276 0.0354, -0.0754 0.0277 0.0276, -0.0754 0.0277 0.0354, -0.0668 0.0334 0.0276, -0.0668 0.0334 0.0354, -0.0576 0.0367 0.0276, -0.0576 0.0367 0.0354, -0.0552 -0.04 0.0276, -0.0552 -0.04 0.0354, -0.0642 -0.0373 0.0276, -0.0642 -0.0373 0.0354, -0.0725 -0.0325 0.0276, -0.0725 -0.0325 0.0354, -0.0789 -0.0263 0.0276, -0.0789 -0.0263 0.0354, -0.0835 -0.0193 0.0276, -0.0835 -0.0193 0.0354, -0.0863 -0.011 0.0276, -0.0863 -0.011 0.0354, -0.0716 0.0182 0.0354, -0.0678 0.0223 0.0354, -0.062 0.026 0.0354, -0.0555 0.0283 0.0354, -0.0462 0.0293 0.0354, -0.0346 0.0293 0.0354, -0.0346 -0.0322 0.0354, -0.0457 -0.0322 0.0354, -0.0541 -0.0314 0.0354, -0.0607 -0.0294 0.0354, -0.066 -0.0262 0.0354, -0.0705 -0.0218 0.0354, -0.0738 -0.0164 0.0354, -0.0761 -0.009 0.0354, -0.0768 -0.0007 0.0354, -0.0762 0.0071 0.0354, -0.0743 0.0134 0.0354, -0.0462 0.0293 0.0276, -0.0346 0.0293 0.0276, -0.0555 0.0283 0.0276, -0.062 0.026 0.0276, -0.0678 0.0223 0.0276, -0.0716 0.0182 0.0276, -0.0743 0.0134 0.0276, -0.0762 0.0071 0.0276, -0.0768 -0.0007 0.0276, -0.0761 -0.009 0.0276, -0.0738 -0.0164 0.0276, -0.0705 -0.0218 0.0276, -0.066 -0.0262 0.0276, -0.0607 -0.0294 0.0276, -0.0541 -0.0314 0.0276, -0.0457 -0.0322 0.0276, -0.0346 -0.0322 0.0276, -0.0086 -0.0322 0.0354, -0.0086 -0.0408 0.0354, -0.0086 -0.0322 0.0276, -0.0086 -0.0408 0.0276, 0.0336 -0.0408 0.0354, 0.0336 -0.0408 0.0276, 0.0336 0.0379 0.0354, 0.0336 0.0379 0.0276, -0.0067 0.0379 0.0354, -0.0067 0.0379 0.0276, -0.0067 0.0293 0.0354, -0.0067 0.0293 0.0276, 0.023 0.0293 0.0354, 0.023 0.0293 0.0276, 0.023 0.0033 0.0354, 0.023 0.0033 0.0276, -0.0048 0.0033 0.0354, -0.0048 0.0033 0.0276, -0.0048 -0.0053 0.0354, -0.0048 -0.0053 0.0276, 0.023 -0.0053 0.0354, 0.023 -0.0053 0.0276, 0.023 -0.0322 0.0354, 0.023 -0.0322 0.0276, 0.049 -0.0281 0.0354, 0.049 -0.0368 0.0354, 0.049 -0.0281 0.0276, 0.049 -0.0368 0.0276, 0.0574 -0.0402 0.0354, 0.0706 -0.0418 0.0354, 0.0706 -0.0418 0.0276, 0.0685 -0.0418 0.0276, 0.0685 -0.0418 0.0354, 0.0653 -0.0413 0.0276, 0.0574 -0.0402 0.0276, 0.1075 -0.003 0.0354, 0.1075 -0.003 0.0276, 0.1068 -0.0121 0.0276, 0.1068 -0.0121 0.0354, 0.1044 -0.0204 0.0276, 0.1044 -0.0204 0.0354, 0.1002 -0.0279 0.0276, 0.1002 -0.0279 0.0354, 0.0943 -0.0341 0.0276, 0.0943 -0.0341 0.0354, 0.088 -0.0382 0.0276, 0.088 -0.0382 0.0354, 0.0803 -0.0408 0.0276, 0.0803 -0.0408 0.0354, 0.0753 -0.0413 0.0276, 0.0675 0.0389 0.0354, 0.0675 0.0389 0.0276, 0.0754 0.0382 0.0276, 0.0754 0.0382 0.0354, 0.0842 0.0357 0.0276, 0.0842 0.0357 0.0354, 0.0917 0.0314 0.0276, 0.0917 0.0314 0.0354, 0.0988 0.0245 0.0276, 0.0988 0.0245 0.0354, 0.1034 0.0172 0.0276, 0.1034 0.0172 0.0354, 0.1064 0.0082 0.0276, 0.1064 0.0082 0.0354, 0.049 0.0357 0.0354, 0.049 0.0357 0.0276, 0.0581 0.0382 0.0276, 0.0581 0.0382 0.0354, 0.049 0.0252 0.0354, 0.049 0.0252 0.0276, 0.0674 0.0302 0.0354, 0.0674 0.0302 0.0276, 0.0578 0.029 0.0276, 0.0578 0.029 0.0354, 0.097 -0.0023 0.0354, 0.097 -0.0023 0.0276, 0.0966 0.0038 0.0276, 0.0966 0.0038 0.0354, 0.0945 0.0122 0.0276, 0.0945 0.0122 0.0354, 0.0913 0.0183 0.0276, 0.0913 0.0183 0.0354, 0.0865 0.0236 0.0276, 0.0865 0.0236 0.0354, 0.0811 0.0272 0.0276, 0.0811 0.0272 0.0354, 0.0752 0.0293 0.0276, 0.0752 0.0293 0.0354, 0.0692 -0.0332 0.0354, 0.0692 -0.0332 0.0276, 0.0765 -0.0323 0.0276, 0.0765 -0.0323 0.0354, 0.0823 -0.0302 0.0276, 0.0823 -0.0302 0.0354, 0.0871 -0.027 0.0276, 0.0871 -0.027 0.0354, 0.0908 -0.0231 0.0276, 0.0908 -0.0231 0.0354, 0.094 -0.0176 0.0276, 0.094 -0.0176 0.0354, 0.0962 -0.0108 0.0276, 0.0962 -0.0108 0.0354, 0.0504 -0.0289 0.0276, 0.0504 -0.0289 0.0354, 0.0587 -0.032 0.0276, 0.0587 -0.032 0.0354, 0.1143 -0.0322 0.0354, 0.1143 -0.0408 0.0354, 0.1143 -0.0322 0.0276, 0.1143 -0.0408 0.0276, 0.1546 -0.0408 0.0354, 0.1546 -0.0408 0.0276, 0.1546 0.0379 0.0354, 0.1546 0.0379 0.0276, 0.144 0.0379 0.0354, 0.144 0.0379 0.0276, 0.144 -0.0322 0.0354, 0.144 -0.0322 0.0276
            ]
        }
        coordIndex [
            0,1,2,-1,2,1,3,-1,1,4,3,-1,3,4,5,-1,4,6,5,-1,5,6,7,-1,6,8,7,-1,7,8,9,-1,8,10,9,-1,9,10,11,-1,10,12,11,-1,11,12,13,-1,12,14,13,-1,13,14,15,-1,14,0,15,-1,15,0,2,-1,16,8,17,-1,17,8,6,-1,18,14,16,-1,16,14,12,-1,16,12,8,-1,8,12,10,-1,18,19,14,-1,14,19,20,-1,14,20,0,-1,0,20,21,-1,0,21,22,-1,22,23,0,-1,0,23,17,-1,0,17,1,-1,1,17,6,-1,1,6,4,-1,16,17,24,-1,24,17,25,-1,18,16,26,-1,26,16,24,-1,18,26,27,-1,18,27,19,-1,19,27,28,-1,19,28,20,-1,21,20,29,-1,29,20,28,-1,21,29,30,-1,21,30,22,-1,22,30,31,-1,22,31,23,-1,17,23,25,-1,25,23,31,-1,32,33,34,-1,34,33,35,-1,33,36,35,-1,35,36,37,-1,36,38,37,-1,37,38,39,-1,40,41,42,-1,40,42,43,-1,43,42,44,-1,43,44,45,-1,45,44,46,-1,45,46,47,-1,47,46,48,-1,47,48,49,-1,49,48,50,-1,49,50,51,-1,51,50,52,-1,51,52,53,-1,53,52,54,-1,53,54,55,-1,55,54,39,-1,55,39,38,-1,32,34,56,-1,32,56,57,-1,57,56,58,-1,57,58,59,-1,59,58,60,-1,59,60,61,-1,61,60,62,-1,61,62,63,-1,63,62,64,-1,63,64,65,-1,65,64,66,-1,65,66,67,-1,67,66,41,-1,67,41,40,-1,45,47,68,-1,68,47,49,-1,68,49,69,-1,69,49,51,-1,69,51,70,-1,70,51,53,-1,70,53,71,-1,71,53,55,-1,71,55,72,-1,72,55,38,-1,72,38,73,-1,73,38,36,-1,73,36,74,-1,74,36,33,-1,74,33,75,-1,75,33,32,-1,75,32,76,-1,76,32,57,-1,76,57,77,-1,77,57,59,-1,77,59,78,-1,78,59,61,-1,78,61,79,-1,79,61,63,-1,79,63,80,-1,80,63,65,-1,80,65,81,-1,81,65,67,-1,81,67,82,-1,82,67,40,-1,82,40,83,-1,83,40,43,-1,83,43,84,-1,84,43,45,-1,84,45,68,-1,72,73,85,-1,85,73,86,-1,72,85,87,-1,72,87,71,-1,71,87,88,-1,71,88,70,-1,70,88,89,-1,70,89,69,-1,69,89,90,-1,69,90,68,-1,68,90,91,-1,68,91,84,-1,84,91,92,-1,84,92,83,-1,83,92,93,-1,83,93,82,-1,82,93,94,-1,82,94,81,-1,81,94,95,-1,81,95,80,-1,80,95,96,-1,80,96,79,-1,79,96,97,-1,79,97,78,-1,78,97,98,-1,78,98,77,-1,77,98,99,-1,77,99,76,-1,76,99,100,-1,76,100,75,-1,74,75,101,-1,101,75,100,-1,73,74,86,-1,86,74,101,-1,102,103,104,-1,104,103,105,-1,103,106,105,-1,105,106,107,-1,106,108,107,-1,107,108,109,-1,108,110,109,-1,109,110,111,-1,110,112,111,-1,111,112,113,-1,112,114,113,-1,113,114,115,-1,114,116,115,-1,115,116,117,-1,116,118,117,-1,117,118,119,-1,118,120,119,-1,119,120,121,-1,120,122,121,-1,121,122,123,-1,122,124,123,-1,123,124,125,-1,124,102,125,-1,125,102,104,-1,106,103,102,-1,102,124,106,-1,106,124,122,-1,106,122,108,-1,112,110,114,-1,114,110,108,-1,114,108,116,-1,116,108,122,-1,116,122,118,-1,118,122,120,-1,126,127,128,-1,128,127,129,-1,129,127,130,-1,131,132,133,-1,131,133,134,-1,134,133,135,-1,134,135,130,-1,130,135,136,-1,130,136,129,-1,137,138,139,-1,137,139,140,-1,140,139,141,-1,140,141,142,-1,142,141,143,-1,142,143,144,-1,144,143,145,-1,144,145,146,-1,146,145,147,-1,146,147,148,-1,148,147,149,-1,148,149,150,-1,150,149,131,-1,131,149,151,-1,131,151,132,-1,152,153,154,-1,152,154,155,-1,155,154,156,-1,155,156,157,-1,157,156,158,-1,157,158,159,-1,159,158,160,-1,159,160,161,-1,161,160,162,-1,161,162,163,-1,163,162,164,-1,163,164,165,-1,165,164,138,-1,165,138,137,-1,166,167,168,-1,166,168,169,-1,169,168,153,-1,169,153,152,-1,166,170,167,-1,167,170,171,-1,172,173,174,-1,172,174,175,-1,175,174,171,-1,175,171,170,-1,176,177,178,-1,176,178,179,-1,179,178,180,-1,179,180,181,-1,181,180,182,-1,181,182,183,-1,183,182,184,-1,183,184,185,-1,185,184,186,-1,185,186,187,-1,187,186,188,-1,187,188,189,-1,189,188,173,-1,189,173,172,-1,190,191,192,-1,190,192,193,-1,193,192,194,-1,193,194,195,-1,195,194,196,-1,195,196,197,-1,197,196,198,-1,197,198,199,-1,199,198,200,-1,199,200,201,-1,201,200,202,-1,201,202,203,-1,203,202,177,-1,203,177,176,-1,126,128,204,-1,126,204,205,-1,205,204,206,-1,205,206,207,-1,207,206,191,-1,207,191,190,-1,193,131,190,-1,190,131,134,-1,190,134,207,-1,207,134,130,-1,207,130,205,-1,205,130,127,-1,205,127,126,-1,170,166,175,-1,175,166,169,-1,175,169,172,-1,172,169,152,-1,172,152,189,-1,189,152,155,-1,189,155,187,-1,187,155,157,-1,187,157,185,-1,185,157,159,-1,185,159,183,-1,183,159,161,-1,183,161,181,-1,181,161,163,-1,181,163,179,-1,179,163,165,-1,179,165,176,-1,176,165,137,-1,176,137,203,-1,203,137,140,-1,203,140,201,-1,201,140,142,-1,201,142,199,-1,199,142,144,-1,199,144,197,-1,197,144,146,-1,197,146,195,-1,195,146,148,-1,195,148,193,-1,193,148,150,-1,193,150,131,-1,208,209,210,-1,210,209,211,-1,209,212,211,-1,211,212,213,-1,212,214,213,-1,213,214,215,-1,214,216,215,-1,215,216,217,-1,216,218,217,-1,217,218,219,-1,218,208,219,-1,219,208,210,-1,216,214,218,-1,218,214,212,-1,218,212,208,-1,208,212,209,-1,
        ]
    }
}
Shape{
    appearance Appearance {
        material  Material 	{
            diffuseColor 0.6666666666666666 0.6666666666666666 0.6666666666666666
            specularColor 0.4666666666666667 0.4666666666666667 0.4666666666666667
            ambientIntensity 0.6667
            transparency 0.0
            shininess 0.5
        }
    }
    geometry IndexedFaceSet {
        ccw TRUE
        solid FALSE
        coord DEF co Coordinate {
            point [
                -0.1148 -0.0101 0.0276, -0.1412 -0.0101 0.0276, -0.1266 0.0228 0.0276, -0.1293 0.0228 0.0276, -0.1273 0.0255 0.0276, -0.1286 0.0255 0.0276, -0.1278 0.0283 0.0276, -0.1281 0.0283 0.0276, -0.0346 0.0293 0.0276, -0.0346 -0.0322 0.0276, -0.0462 0.0293 0.0276, -0.0457 -0.0322 0.0276, -0.0541 -0.0314 0.0276, -0.0768 -0.0007 0.0276, -0.0762 0.0071 0.0276, -0.0743 0.0134 0.0276, -0.0555 0.0283 0.0276, -0.0607 -0.0294 0.0276, -0.066 -0.0262 0.0276, -0.0705 -0.0218 0.0276, -0.0738 -0.0164 0.0276, -0.0761 -0.009 0.0276, -0.0716 0.0182 0.0276, -0.0678 0.0223 0.0276, -0.062 0.026 0.0276
            ]
        }
        coordIndex [
            0,1,2,-1,2,1,3,-1,2,3,4,-1,4,3,5,-1,4,5,6,-1,6,5,7,-1,8,9,10,-1,10,9,11,-1,10,11,12,-1,13,14,10,-1,10,14,15,-1,10,15,16,-1,12,17,10,-1,10,17,18,-1,10,18,19,-1,19,20,10,-1,10,20,21,-1,10,21,13,-1,22,23,15,-1,15,23,24,-1,15,24,16,-1,
        ]
    }
}