ISO-10303-21;
HEADER;

/* File generated by Shapr3D Version 26.143.0.11521 */

FILE_DESCRIPTION(('HOOPS Exchange Step'),'2;1');

FILE_NAME('/Users/yohannbelair/Library/Containers/com.shapr3d.shapr/Data/tmp/export/temp_export',
'2026-08-25T20:49:53+02:00',
('yohannbelair'),
('Shapr3D Limited'),
'HOOPS Exchange 2026.3',
'Shapr3D',
'Authorized');

FILE_SCHEMA( ('AP242_MANAGED_MODEL_BASED_3D_ENGINEERING_MIM_LF {1 0 10303 442 1 1 4}') );

ENDSEC;

DATA;
#3=(NAMED_UNIT(*)PLANE_ANGLE_UNIT()SI_UNIT($,.RADIAN.));
#4=PLANE_ANGLE_MEASURE_WITH_UNIT(PLANE_ANGLE_MEASURE(0.0174532925),#3);
#5=(CONVERSION_BASED_UNIT('DEGREE',#4)NAMED_UNIT(#6)PLANE_ANGLE_UNIT());
#6=DIMENSIONAL_EXPONENTS(0.,0.,0.,0.,0.,0.,0.);
#7=(NAMED_UNIT(*)SI_UNIT($,.STERADIAN.)SOLID_ANGLE_UNIT());
#8=(LENGTH_UNIT()NAMED_UNIT(*)SI_UNIT(.MILLI.,.METRE.));
#9=UNCERTAINTY_MEASURE_WITH_UNIT(LENGTH_MEASURE(1.000000E-03),#8,'DISTANCE_ACCURACY_VALUE','Maximum Tolerance applied to model');
#10=(GEOMETRIC_REPRESENTATION_CONTEXT(3)GLOBAL_UNCERTAINTY_ASSIGNED_CONTEXT((#9))GLOBAL_UNIT_ASSIGNED_CONTEXT((#8,#5,#7))REPRESENTATION_CONTEXT('','root'));
#12=CARTESIAN_POINT('',(0.,0.,0.));
#13=DIRECTION('',(0.,0.,1.));
#14=DIRECTION('',(1.,0.,0.));
#15=AXIS2_PLACEMENT_3D('',#12,#13,#14);
#26=(NAMED_UNIT(*)PLANE_ANGLE_UNIT()SI_UNIT($,.RADIAN.));
#27=PLANE_ANGLE_MEASURE_WITH_UNIT(PLANE_ANGLE_MEASURE(0.0174532925),#26);
#28=(CONVERSION_BASED_UNIT('DEGREE',#27)NAMED_UNIT(#29)PLANE_ANGLE_UNIT());
#29=DIMENSIONAL_EXPONENTS(0.,0.,0.,0.,0.,0.,0.);
#30=(NAMED_UNIT(*)SI_UNIT($,.STERADIAN.)SOLID_ANGLE_UNIT());
#31=(LENGTH_UNIT()NAMED_UNIT(*)SI_UNIT(.MILLI.,.METRE.));
#32=UNCERTAINTY_MEASURE_WITH_UNIT(LENGTH_MEASURE(1.000000E-05),#31,'DISTANCE_ACCURACY_VALUE','Maximum Tolerance applied to model');
#33=(GEOMETRIC_REPRESENTATION_CONTEXT(3)GLOBAL_UNCERTAINTY_ASSIGNED_CONTEXT((#32))GLOBAL_UNIT_ASSIGNED_CONTEXT((#31,#28,#30))REPRESENTATION_CONTEXT('','Hat2'));
#45=CARTESIAN_POINT('',(0.,0.,0.));
#46=DIRECTION('',(0.,0.,1.));
#47=DIRECTION('',(1.,0.,-0.));
#48=AXIS2_PLACEMENT_3D('',#45,#46,#47);
#49=ITEM_DEFINED_TRANSFORMATION('','',#48,#15);
#50=(REPRESENTATION_RELATIONSHIP('','',#35,#16)REPRESENTATION_RELATIONSHIP_WITH_TRANSFORMATION(#49)SHAPE_REPRESENTATION_RELATIONSHIP());
#51=NEXT_ASSEMBLY_USAGE_OCCURRENCE('Hat2_1','Hat2','Hat2',#25,#44,$);
#52=PRODUCT_DEFINITION_SHAPE('','',#51);
#53=CONTEXT_DEPENDENT_SHAPE_REPRESENTATION(#50,#52);
#55=CARTESIAN_POINT('',(0.516853361,0.,128.354371935));
#56=DIRECTION('',(0.766044443,0.,0.64278761));
#57=DIRECTION('',(0.64278761,0.,-0.766044443));
#58=AXIS2_PLACEMENT_3D('',#55,#56,#57);
#59=CYLINDRICAL_SURFACE('',#58,5.5);
#60=CARTESIAN_POINT('',(4.741625213,0.,124.719636347));
#61=VERTEX_POINT('',#60);
#62=CARTESIAN_POINT('',(4.052185214,0.,124.141127498));
#63=VERTEX_POINT('',#62);
#64=CARTESIAN_POINT('',(4.741625213,0.,124.719636347));
#65=DIRECTION('',(-0.766044443,-0.,-0.64278761));
#66=VECTOR('',#65,0.9);
#67=LINE('',#64,#66);
#68=EDGE_CURVE('',#61,#63,#67,.T.);
#69=ORIENTED_EDGE('',*,*,#68,.T.);
#70=CARTESIAN_POINT('',(0.516853361,-5.5,128.354371935));
#71=VERTEX_POINT('',#70);
#72=CARTESIAN_POINT('',(0.516853361,0.,128.354371935));
#73=DIRECTION('',(-0.766044443,0.,-0.64278761));
#74=DIRECTION('',(0.,-1.,-0.));
#75=AXIS2_PLACEMENT_3D('',#72,#73,#74);
#76=CIRCLE('',#75,5.5);
#77=EDGE_CURVE('',#71,#63,#76,.T.);
#78=ORIENTED_EDGE('',*,*,#77,.F.);
#79=CARTESIAN_POINT('',(0.516853361,0.,128.354371935));
#80=DIRECTION('',(-0.766044443,0.,-0.64278761));
#81=DIRECTION('',(0.,-1.,-0.));
#82=AXIS2_PLACEMENT_3D('',#79,#80,#81);
#83=CIRCLE('',#82,5.5);
#84=EDGE_CURVE('',#63,#71,#83,.T.);
#85=ORIENTED_EDGE('',*,*,#84,.F.);
#86=ORIENTED_EDGE('',*,*,#68,.F.);
#87=CARTESIAN_POINT('',(1.20629336,-5.5,128.932880784));
#88=VERTEX_POINT('',#87);
#89=CARTESIAN_POINT('',(1.20629336,0.,128.932880784));
#90=DIRECTION('',(-0.766044443,0.,-0.64278761));
#91=DIRECTION('',(0.,-1.,-0.));
#92=AXIS2_PLACEMENT_3D('',#89,#90,#91);
#93=CIRCLE('',#92,5.5);
#94=EDGE_CURVE('',#61,#88,#93,.T.);
#95=ORIENTED_EDGE('',*,*,#94,.T.);
#96=CARTESIAN_POINT('',(1.20629336,0.,128.932880784));
#97=DIRECTION('',(-0.766044443,0.,-0.64278761));
#98=DIRECTION('',(0.,-1.,-0.));
#99=AXIS2_PLACEMENT_3D('',#96,#97,#98);
#100=CIRCLE('',#99,5.5);
#101=EDGE_CURVE('',#88,#61,#100,.T.);
#102=ORIENTED_EDGE('',*,*,#101,.T.);
#103=EDGE_LOOP('',(#69,#78,#85,#86,#95,#102));
#104=FACE_BOUND('',#103,.T.);
#105=ADVANCED_FACE('',(#104),#59,.T.);
#106=CARTESIAN_POINT('',(0.516853361,0.,128.354371935));
#107=DIRECTION('',(-0.766044443,0.,-0.64278761));
#108=DIRECTION('',(0.,-1.,0.));
#109=AXIS2_PLACEMENT_3D('',#106,#107,#108);
#110=PLANE('',#109);
#111=ORIENTED_EDGE('',*,*,#77,.T.);
#112=ORIENTED_EDGE('',*,*,#84,.T.);
#113=EDGE_LOOP('',(#111,#112));
#114=FACE_BOUND('',#113,.T.);
#115=ADVANCED_FACE('',(#114),#110,.T.);
#116=CARTESIAN_POINT('',(1.20629336,0.,128.932880784));
#117=DIRECTION('',(-0.766044443,0.,-0.64278761));
#118=DIRECTION('',(0.,-1.,0.));
#119=AXIS2_PLACEMENT_3D('',#116,#117,#118);
#120=PLANE('',#119);
#121=ORIENTED_EDGE('',*,*,#94,.F.);
#122=ORIENTED_EDGE('',*,*,#101,.F.);
#123=EDGE_LOOP('',(#121,#122));
#124=FACE_BOUND('',#123,.T.);
#125=ADVANCED_FACE('',(#124),#120,.F.);
#126=CLOSED_SHELL('',(#105,#115,#125));
#127=MANIFOLD_SOLID_BREP('Corps 26',#126);
#128=COLOUR_RGB('',0.678431392,0.678431392,0.678431392);
#129=FILL_AREA_STYLE_COLOUR('',#128);
#130=FILL_AREA_STYLE('',(#129));
#131=SURFACE_STYLE_FILL_AREA(#130);
#132=SURFACE_SIDE_STYLE('',(#131));
#133=SURFACE_STYLE_USAGE(.BOTH.,#132);
#134=PRESENTATION_STYLE_ASSIGNMENT((#133));
#54=STYLED_ITEM('',(#134),#127);
#136=CARTESIAN_POINT('',(1.627617804,0.,129.286413969));
#137=DIRECTION('',(0.766044443,0.,0.64278761));
#138=DIRECTION('',(0.,-1.,0.));
#139=AXIS2_PLACEMENT_3D('',#136,#137,#138);
#140=PLANE('',#139);
#141=CARTESIAN_POINT('',(3.234586828,2.5,127.371302861));
#142=VERTEX_POINT('',#141);
#143=CARTESIAN_POINT('',(3.20211946,2.5,127.409995963));
#144=VERTEX_POINT('',#143);
#145=CARTESIAN_POINT('',(3.234586828,2.5,127.371302861));
#146=DIRECTION('',(-0.64278761,-0.,0.766044443));
#147=VECTOR('',#146,0.050510257);
#148=LINE('',#145,#147);
#149=EDGE_CURVE('',#142,#144,#148,.T.);
#150=ORIENTED_EDGE('',*,*,#149,.F.);
#151=CARTESIAN_POINT('',(3.234586828,3.122498999,127.371302861));
#152=VERTEX_POINT('',#151);
#153=CARTESIAN_POINT('',(3.234586828,2.5,127.371302861));
#154=DIRECTION('',(0.,1.,0.));
#155=VECTOR('',#154,0.622498999);
#156=LINE('',#153,#155);
#157=EDGE_CURVE('',#142,#152,#156,.T.);
#158=ORIENTED_EDGE('',*,*,#157,.T.);
#159=CARTESIAN_POINT('',(0.020648779,3.122498999,131.201525077));
#160=VERTEX_POINT('',#159);
#161=CARTESIAN_POINT('',(1.627617804,0.,129.286413969));
#162=DIRECTION('',(0.766044443,0.,0.64278761));
#163=DIRECTION('',(-0.,-1.,0.));
#164=AXIS2_PLACEMENT_3D('',#161,#162,#163);
#165=CIRCLE('',#164,4.);
#166=EDGE_CURVE('',#152,#160,#165,.T.);
#167=ORIENTED_EDGE('',*,*,#166,.T.);
#168=CARTESIAN_POINT('',(0.020648779,2.5,131.201525077));
#169=VERTEX_POINT('',#168);
#170=CARTESIAN_POINT('',(0.020648779,3.122498999,131.201525077));
#171=DIRECTION('',(0.,-1.,0.));
#172=VECTOR('',#171,0.622498999);
#173=LINE('',#170,#172);
#174=EDGE_CURVE('',#160,#169,#173,.T.);
#175=ORIENTED_EDGE('',*,*,#174,.T.);
#176=CARTESIAN_POINT('',(0.053116147,2.5,131.162831975));
#177=VERTEX_POINT('',#176);
#178=CARTESIAN_POINT('',(0.053116147,2.5,131.162831975));
#179=DIRECTION('',(-0.64278761,-0.,0.766044443));
#180=VECTOR('',#179,0.050510257);
#181=LINE('',#178,#180);
#182=EDGE_CURVE('',#177,#169,#181,.T.);
#183=ORIENTED_EDGE('',*,*,#182,.F.);
#184=CARTESIAN_POINT('',(1.627617804,0.,129.286413969));
#185=DIRECTION('',(0.766044443,-0.,0.64278761));
#186=DIRECTION('',(-0.,-1.,0.));
#187=AXIS2_PLACEMENT_3D('',#184,#185,#186);
#188=CIRCLE('',#187,3.5);
#189=EDGE_CURVE('',#144,#177,#188,.T.);
#190=ORIENTED_EDGE('',*,*,#189,.F.);
#191=EDGE_LOOP('',(#150,#158,#167,#175,#183,#190));
#192=FACE_BOUND('',#191,.T.);
#193=ADVANCED_FACE('',(#192),#140,.T.);
#194=CARTESIAN_POINT('',(1.20629336,0.,128.932880784));
#195=DIRECTION('',(0.766044443,0.,0.64278761));
#196=DIRECTION('',(0.64278761,0.,-0.766044443));
#197=AXIS2_PLACEMENT_3D('',#194,#195,#196);
#198=CYLINDRICAL_SURFACE('',#197,3.5);
#199=ORIENTED_EDGE('',*,*,#189,.T.);
#200=CARTESIAN_POINT('',(-0.368208297,2.5,130.80929879));
#201=VERTEX_POINT('',#200);
#202=CARTESIAN_POINT('',(0.053116147,2.5,131.162831975));
#203=DIRECTION('',(-0.766044443,-0.,-0.64278761));
#204=VECTOR('',#203,0.55);
#205=LINE('',#202,#204);
#206=EDGE_CURVE('',#177,#201,#205,.T.);
#207=ORIENTED_EDGE('',*,*,#206,.T.);
#208=CARTESIAN_POINT('',(2.780795017,2.5,127.056462778));
#209=VERTEX_POINT('',#208);
#210=CARTESIAN_POINT('',(1.20629336,0.,128.932880784));
#211=DIRECTION('',(0.766044443,-0.,0.64278761));
#212=DIRECTION('',(-0.,-1.,0.));
#213=AXIS2_PLACEMENT_3D('',#210,#211,#212);
#214=CIRCLE('',#213,3.5);
#215=EDGE_CURVE('',#209,#201,#214,.T.);
#216=ORIENTED_EDGE('',*,*,#215,.F.);
#217=CARTESIAN_POINT('',(2.780795017,2.5,127.056462778));
#218=DIRECTION('',(0.766044443,0.,0.64278761));
#219=VECTOR('',#218,0.55);
#220=LINE('',#217,#219);
#221=EDGE_CURVE('',#209,#144,#220,.T.);
#222=ORIENTED_EDGE('',*,*,#221,.T.);
#223=EDGE_LOOP('',(#199,#207,#216,#222));
#224=FACE_BOUND('',#223,.T.);
#225=ADVANCED_FACE('',(#224),#198,.F.);
#226=CARTESIAN_POINT('',(0.976480027,0.,128.740044501));
#227=DIRECTION('',(-0.766044443,0.,-0.64278761));
#228=DIRECTION('',(-0.64278761,0.,0.766044443));
#229=AXIS2_PLACEMENT_3D('',#226,#227,#228);
#230=CYLINDRICAL_SURFACE('',#229,5.5);
#231=CARTESIAN_POINT('',(2.813262384,4.898979486,127.017769676));
#232=VERTEX_POINT('',#231);
#233=CARTESIAN_POINT('',(4.498560159,4.898979486,128.431902417));
#234=VERTEX_POINT('',#233);
#235=CARTESIAN_POINT('',(2.813262384,4.898979486,127.017769676));
#236=DIRECTION('',(0.766044443,-0.,0.64278761));
#237=VECTOR('',#236,2.2);
#238=LINE('',#235,#237);
#239=EDGE_CURVE('',#232,#234,#238,.T.);
#240=ORIENTED_EDGE('',*,*,#239,.F.);
#241=CARTESIAN_POINT('',(-0.400675664,4.898979486,130.847991892));
#242=VERTEX_POINT('',#241);
#243=CARTESIAN_POINT('',(1.20629336,0.,128.932880784));
#244=DIRECTION('',(0.766044443,0.,0.64278761));
#245=DIRECTION('',(0.64278761,0.,-0.766044443));
#246=AXIS2_PLACEMENT_3D('',#243,#244,#245);
#247=CIRCLE('',#246,5.5);
#248=EDGE_CURVE('',#232,#242,#247,.T.);
#249=ORIENTED_EDGE('',*,*,#248,.T.);
#250=CARTESIAN_POINT('',(1.28462211,4.898979486,132.262124633));
#251=VERTEX_POINT('',#250);
#252=CARTESIAN_POINT('',(1.28462211,4.898979486,132.262124633));
#253=DIRECTION('',(-0.766044443,0.,-0.64278761));
#254=VECTOR('',#253,2.2);
#255=LINE('',#252,#254);
#256=EDGE_CURVE('',#251,#242,#255,.T.);
#257=ORIENTED_EDGE('',*,*,#256,.F.);
#258=CARTESIAN_POINT('',(2.891591135,0.,130.347013525));
#259=DIRECTION('',(0.766044443,0.,0.64278761));
#260=DIRECTION('',(0.64278761,0.,-0.766044443));
#261=AXIS2_PLACEMENT_3D('',#258,#259,#260);
#262=CIRCLE('',#261,5.5);
#263=EDGE_CURVE('',#234,#251,#262,.T.);
#264=ORIENTED_EDGE('',*,*,#263,.F.);
#265=EDGE_LOOP('',(#240,#249,#257,#264));
#266=FACE_BOUND('',#265,.T.);
#267=ADVANCED_FACE('',(#266),#230,.T.);
#268=CARTESIAN_POINT('',(2.891591135,0.,130.347013525));
#269=DIRECTION('',(0.766044443,0.,0.64278761));
#270=DIRECTION('',(0.64278761,0.,-0.766044443));
#271=AXIS2_PLACEMENT_3D('',#268,#269,#270);
#272=PLANE('',#271);
#273=CARTESIAN_POINT('',(4.498560159,4.330127019,128.431902417));
#274=VERTEX_POINT('',#273);
#275=CARTESIAN_POINT('',(1.28462211,4.330127019,132.262124633));
#276=VERTEX_POINT('',#275);
#277=CARTESIAN_POINT('',(2.891591135,0.,130.347013525));
#278=DIRECTION('',(0.766044443,0.,0.64278761));
#279=DIRECTION('',(-0.,-1.,0.));
#280=AXIS2_PLACEMENT_3D('',#277,#278,#279);
#281=CIRCLE('',#280,5.);
#282=EDGE_CURVE('',#274,#276,#281,.T.);
#283=ORIENTED_EDGE('',*,*,#282,.F.);
#284=CARTESIAN_POINT('',(4.498560159,4.330127019,128.431902417));
#285=DIRECTION('',(0.,1.,0.));
#286=VECTOR('',#285,0.568852467);
#287=LINE('',#284,#286);
#288=EDGE_CURVE('',#274,#234,#287,.T.);
#289=ORIENTED_EDGE('',*,*,#288,.T.);
#290=ORIENTED_EDGE('',*,*,#263,.T.);
#291=CARTESIAN_POINT('',(1.28462211,4.898979486,132.262124633));
#292=DIRECTION('',(0.,-1.,0.));
#293=VECTOR('',#292,0.568852467);
#294=LINE('',#291,#293);
#295=EDGE_CURVE('',#251,#276,#294,.T.);
#296=ORIENTED_EDGE('',*,*,#295,.T.);
#297=EDGE_LOOP('',(#283,#289,#290,#296));
#298=FACE_BOUND('',#297,.T.);
#299=ADVANCED_FACE('',(#298),#272,.T.);
#300=CARTESIAN_POINT('',(2.470266691,0.,129.99348034));
#301=DIRECTION('',(0.766044443,0.,0.64278761));
#302=DIRECTION('',(0.64278761,0.,-0.766044443));
#303=AXIS2_PLACEMENT_3D('',#300,#301,#302);
#304=CYLINDRICAL_SURFACE('',#303,5.);
#305=CARTESIAN_POINT('',(4.077235715,4.330127019,128.078369232));
#306=VERTEX_POINT('',#305);
#307=CARTESIAN_POINT('',(4.498560159,4.330127019,128.431902417));
#308=DIRECTION('',(-0.766044443,-0.,-0.64278761));
#309=VECTOR('',#308,0.55);
#310=LINE('',#307,#309);
#311=EDGE_CURVE('',#274,#306,#310,.T.);
#312=ORIENTED_EDGE('',*,*,#311,.F.);
#313=ORIENTED_EDGE('',*,*,#282,.T.);
#314=CARTESIAN_POINT('',(0.863297667,4.330127019,131.908591448));
#315=VERTEX_POINT('',#314);
#316=CARTESIAN_POINT('',(0.863297667,4.330127019,131.908591448));
#317=DIRECTION('',(0.766044443,0.,0.64278761));
#318=VECTOR('',#317,0.55);
#319=LINE('',#316,#318);
#320=EDGE_CURVE('',#315,#276,#319,.T.);
#321=ORIENTED_EDGE('',*,*,#320,.F.);
#322=CARTESIAN_POINT('',(2.470266691,0.,129.99348034));
#323=DIRECTION('',(0.766044443,0.,0.64278761));
#324=DIRECTION('',(-0.,-1.,0.));
#325=AXIS2_PLACEMENT_3D('',#322,#323,#324);
#326=CIRCLE('',#325,5.);
#327=EDGE_CURVE('',#306,#315,#326,.T.);
#328=ORIENTED_EDGE('',*,*,#327,.F.);
#329=EDGE_LOOP('',(#312,#313,#321,#328));
#330=FACE_BOUND('',#329,.T.);
#331=ADVANCED_FACE('',(#330),#304,.F.);
#332=CARTESIAN_POINT('',(2.470266691,0.,129.99348034));
#333=DIRECTION('',(0.766044443,0.,0.64278761));
#334=DIRECTION('',(0.,-1.,0.));
#335=AXIS2_PLACEMENT_3D('',#332,#333,#334);
#336=PLANE('',#335);
#337=CARTESIAN_POINT('',(4.077235715,3.741657387,128.078369232));
#338=VERTEX_POINT('',#337);
#339=CARTESIAN_POINT('',(0.863297667,3.741657387,131.908591448));
#340=VERTEX_POINT('',#339);
#341=CARTESIAN_POINT('',(2.470266691,0.,129.99348034));
#342=DIRECTION('',(0.766044443,0.,0.64278761));
#343=DIRECTION('',(-0.,-1.,0.));
#344=AXIS2_PLACEMENT_3D('',#341,#342,#343);
#345=CIRCLE('',#344,4.5);
#346=EDGE_CURVE('',#338,#340,#345,.T.);
#347=ORIENTED_EDGE('',*,*,#346,.F.);
#348=CARTESIAN_POINT('',(4.077235715,3.741657387,128.078369232));
#349=DIRECTION('',(0.,1.,0.));
#350=VECTOR('',#349,0.588469632);
#351=LINE('',#348,#350);
#352=EDGE_CURVE('',#338,#306,#351,.T.);
#353=ORIENTED_EDGE('',*,*,#352,.T.);
#354=ORIENTED_EDGE('',*,*,#327,.T.);
#355=CARTESIAN_POINT('',(0.863297667,4.330127019,131.908591448));
#356=DIRECTION('',(0.,-1.,0.));
#357=VECTOR('',#356,0.588469632);
#358=LINE('',#355,#357);
#359=EDGE_CURVE('',#315,#340,#358,.T.);
#360=ORIENTED_EDGE('',*,*,#359,.T.);
#361=EDGE_LOOP('',(#347,#353,#354,#360));
#362=FACE_BOUND('',#361,.T.);
#363=ADVANCED_FACE('',(#362),#336,.T.);
#364=CARTESIAN_POINT('',(2.048942247,0.,129.639947154));
#365=DIRECTION('',(0.766044443,0.,0.64278761));
#366=DIRECTION('',(0.64278761,0.,-0.766044443));
#367=AXIS2_PLACEMENT_3D('',#364,#365,#366);
#368=CYLINDRICAL_SURFACE('',#367,4.5);
#369=CARTESIAN_POINT('',(3.655911271,3.741657387,127.724836047));
#370=VERTEX_POINT('',#369);
#371=CARTESIAN_POINT('',(4.077235715,3.741657387,128.078369232));
#372=DIRECTION('',(-0.766044443,-0.,-0.64278761));
#373=VECTOR('',#372,0.55);
#374=LINE('',#371,#373);
#375=EDGE_CURVE('',#338,#370,#374,.T.);
#376=ORIENTED_EDGE('',*,*,#375,.F.);
#377=ORIENTED_EDGE('',*,*,#346,.T.);
#378=CARTESIAN_POINT('',(0.441973223,3.741657387,131.555058262));
#379=VERTEX_POINT('',#378);
#380=CARTESIAN_POINT('',(0.441973223,3.741657387,131.555058262));
#381=DIRECTION('',(0.766044443,0.,0.64278761));
#382=VECTOR('',#381,0.55);
#383=LINE('',#380,#382);
#384=EDGE_CURVE('',#379,#340,#383,.T.);
#385=ORIENTED_EDGE('',*,*,#384,.F.);
#386=CARTESIAN_POINT('',(2.048942247,0.,129.639947154));
#387=DIRECTION('',(0.766044443,0.,0.64278761));
#388=DIRECTION('',(-0.,-1.,0.));
#389=AXIS2_PLACEMENT_3D('',#386,#387,#388);
#390=CIRCLE('',#389,4.5);
#391=EDGE_CURVE('',#370,#379,#390,.T.);
#392=ORIENTED_EDGE('',*,*,#391,.F.);
#393=EDGE_LOOP('',(#376,#377,#385,#392));
#394=FACE_BOUND('',#393,.T.);
#395=ADVANCED_FACE('',(#394),#368,.F.);
#396=CARTESIAN_POINT('',(2.048942247,0.,129.639947154));
#397=DIRECTION('',(0.766044443,0.,0.64278761));
#398=DIRECTION('',(0.,-1.,0.));
#399=AXIS2_PLACEMENT_3D('',#396,#397,#398);
#400=PLANE('',#399);
#401=CARTESIAN_POINT('',(3.655911271,3.122498999,127.724836047));
#402=VERTEX_POINT('',#401);
#403=CARTESIAN_POINT('',(0.441973223,3.122498999,131.555058262));
#404=VERTEX_POINT('',#403);
#405=CARTESIAN_POINT('',(2.048942247,0.,129.639947154));
#406=DIRECTION('',(0.766044443,0.,0.64278761));
#407=DIRECTION('',(-0.,-1.,0.));
#408=AXIS2_PLACEMENT_3D('',#405,#406,#407);
#409=CIRCLE('',#408,4.);
#410=EDGE_CURVE('',#402,#404,#409,.T.);
#411=ORIENTED_EDGE('',*,*,#410,.F.);
#412=CARTESIAN_POINT('',(3.655911271,3.122498999,127.724836047));
#413=DIRECTION('',(0.,1.,0.));
#414=VECTOR('',#413,0.619158388);
#415=LINE('',#412,#414);
#416=EDGE_CURVE('',#402,#370,#415,.T.);
#417=ORIENTED_EDGE('',*,*,#416,.T.);
#418=ORIENTED_EDGE('',*,*,#391,.T.);
#419=CARTESIAN_POINT('',(0.441973223,3.741657387,131.555058262));
#420=DIRECTION('',(0.,-1.,0.));
#421=VECTOR('',#420,0.619158388);
#422=LINE('',#419,#421);
#423=EDGE_CURVE('',#379,#404,#422,.T.);
#424=ORIENTED_EDGE('',*,*,#423,.T.);
#425=EDGE_LOOP('',(#411,#417,#418,#424));
#426=FACE_BOUND('',#425,.T.);
#427=ADVANCED_FACE('',(#426),#400,.T.);
#428=CARTESIAN_POINT('',(1.627617804,0.,129.286413969));
#429=DIRECTION('',(0.766044443,0.,0.64278761));
#430=DIRECTION('',(0.64278761,0.,-0.766044443));
#431=AXIS2_PLACEMENT_3D('',#428,#429,#430);
#432=CYLINDRICAL_SURFACE('',#431,4.);
#433=CARTESIAN_POINT('',(3.655911271,3.122498999,127.724836047));
#434=DIRECTION('',(-0.766044443,-0.,-0.64278761));
#435=VECTOR('',#434,0.55);
#436=LINE('',#433,#435);
#437=EDGE_CURVE('',#402,#152,#436,.T.);
#438=ORIENTED_EDGE('',*,*,#437,.F.);
#439=ORIENTED_EDGE('',*,*,#410,.T.);
#440=CARTESIAN_POINT('',(0.020648779,3.122498999,131.201525077));
#441=DIRECTION('',(0.766044443,0.,0.64278761));
#442=VECTOR('',#441,0.55);
#443=LINE('',#440,#442);
#444=EDGE_CURVE('',#160,#404,#443,.T.);
#445=ORIENTED_EDGE('',*,*,#444,.F.);
#446=ORIENTED_EDGE('',*,*,#166,.F.);
#447=EDGE_LOOP('',(#438,#439,#445,#446));
#448=FACE_BOUND('',#447,.T.);
#449=ADVANCED_FACE('',(#448),#432,.F.);
#450=CARTESIAN_POINT('',(2.813262384,4.25,127.017769676));
#451=DIRECTION('',(0.64278761,0.,-0.766044443));
#452=DIRECTION('',(-0.766044443,0.,-0.64278761));
#453=AXIS2_PLACEMENT_3D('',#450,#451,#452);
#454=PLANE('',#453);
#455=CARTESIAN_POINT('',(2.813262384,2.5,127.017769676));
#456=VERTEX_POINT('',#455);
#457=CARTESIAN_POINT('',(2.813262384,2.5,127.017769676));
#458=DIRECTION('',(0.,1.,0.));
#459=VECTOR('',#458,2.398979486);
#460=LINE('',#457,#459);
#461=EDGE_CURVE('',#456,#232,#460,.T.);
#462=ORIENTED_EDGE('',*,*,#461,.T.);
#463=ORIENTED_EDGE('',*,*,#239,.T.);
#464=ORIENTED_EDGE('',*,*,#288,.F.);
#465=ORIENTED_EDGE('',*,*,#311,.T.);
#466=ORIENTED_EDGE('',*,*,#352,.F.);
#467=ORIENTED_EDGE('',*,*,#375,.T.);
#468=ORIENTED_EDGE('',*,*,#416,.F.);
#469=ORIENTED_EDGE('',*,*,#437,.T.);
#470=ORIENTED_EDGE('',*,*,#157,.F.);
#471=CARTESIAN_POINT('',(2.813262384,2.5,127.017769676));
#472=DIRECTION('',(0.766044443,0.,0.64278761));
#473=VECTOR('',#472,0.55);
#474=LINE('',#471,#473);
#475=EDGE_CURVE('',#456,#142,#474,.T.);
#476=ORIENTED_EDGE('',*,*,#475,.F.);
#477=EDGE_LOOP('',(#462,#463,#464,#465,#466,#467,#468,#469,#470,#476));
#478=FACE_BOUND('',#477,.T.);
#479=ADVANCED_FACE('',(#478),#454,.T.);
#480=CARTESIAN_POINT('',(-0.400675664,4.25,130.847991892));
#481=DIRECTION('',(-0.64278761,0.,0.766044443));
#482=DIRECTION('',(0.766044443,0.,0.64278761));
#483=AXIS2_PLACEMENT_3D('',#480,#481,#482);
#484=PLANE('',#483);
#485=ORIENTED_EDGE('',*,*,#295,.F.);
#486=ORIENTED_EDGE('',*,*,#256,.T.);
#487=CARTESIAN_POINT('',(-0.400675664,2.5,130.847991892));
#488=VERTEX_POINT('',#487);
#489=CARTESIAN_POINT('',(-0.400675664,4.898979486,130.847991892));
#490=DIRECTION('',(0.,-1.,0.));
#491=VECTOR('',#490,2.398979486);
#492=LINE('',#489,#491);
#493=EDGE_CURVE('',#242,#488,#492,.T.);
#494=ORIENTED_EDGE('',*,*,#493,.T.);
#495=CARTESIAN_POINT('',(-0.400675664,2.5,130.847991892));
#496=DIRECTION('',(0.766044443,0.,0.64278761));
#497=VECTOR('',#496,0.55);
#498=LINE('',#495,#497);
#499=EDGE_CURVE('',#488,#169,#498,.T.);
#500=ORIENTED_EDGE('',*,*,#499,.T.);
#501=ORIENTED_EDGE('',*,*,#174,.F.);
#502=ORIENTED_EDGE('',*,*,#444,.T.);
#503=ORIENTED_EDGE('',*,*,#423,.F.);
#504=ORIENTED_EDGE('',*,*,#384,.T.);
#505=ORIENTED_EDGE('',*,*,#359,.F.);
#506=ORIENTED_EDGE('',*,*,#320,.T.);
#507=EDGE_LOOP('',(#485,#486,#494,#500,#501,#502,#503,#504,#505,#506));
#508=FACE_BOUND('',#507,.T.);
#509=ADVANCED_FACE('',(#508),#484,.T.);
#510=CARTESIAN_POINT('',(1.20629336,0.,128.932880784));
#511=DIRECTION('',(0.766044443,0.,0.64278761));
#512=DIRECTION('',(0.,-1.,0.));
#513=AXIS2_PLACEMENT_3D('',#510,#511,#512);
#514=PLANE('',#513);
#515=CARTESIAN_POINT('',(2.813262384,2.5,127.017769676));
#516=DIRECTION('',(-0.64278761,-0.,0.766044443));
#517=VECTOR('',#516,0.050510257);
#518=LINE('',#515,#517);
#519=EDGE_CURVE('',#456,#209,#518,.T.);
#520=ORIENTED_EDGE('',*,*,#519,.T.);
#521=ORIENTED_EDGE('',*,*,#215,.T.);
#522=CARTESIAN_POINT('',(-0.368208297,2.5,130.80929879));
#523=DIRECTION('',(-0.64278761,-0.,0.766044443));
#524=VECTOR('',#523,0.050510257);
#525=LINE('',#522,#524);
#526=EDGE_CURVE('',#201,#488,#525,.T.);
#527=ORIENTED_EDGE('',*,*,#526,.T.);
#528=ORIENTED_EDGE('',*,*,#493,.F.);
#529=ORIENTED_EDGE('',*,*,#248,.F.);
#530=ORIENTED_EDGE('',*,*,#461,.F.);
#531=EDGE_LOOP('',(#520,#521,#527,#528,#529,#530));
#532=FACE_BOUND('',#531,.T.);
#533=ADVANCED_FACE('',(#532),#514,.F.);
#534=CARTESIAN_POINT('',(1.20629336,2.5,128.932880784));
#535=DIRECTION('',(-0.,1.,0.));
#536=DIRECTION('',(-0.64278761,-0.,0.766044443));
#537=AXIS2_PLACEMENT_3D('',#534,#535,#536);
#538=PLANE('',#537);
#539=ORIENTED_EDGE('',*,*,#206,.F.);
#540=ORIENTED_EDGE('',*,*,#182,.T.);
#541=ORIENTED_EDGE('',*,*,#499,.F.);
#542=ORIENTED_EDGE('',*,*,#526,.F.);
#543=EDGE_LOOP('',(#539,#540,#541,#542));
#544=FACE_BOUND('',#543,.T.);
#545=ADVANCED_FACE('',(#544),#538,.F.);
#546=CARTESIAN_POINT('',(1.20629336,2.5,128.932880784));
#547=DIRECTION('',(-0.,1.,0.));
#548=DIRECTION('',(-0.64278761,-0.,0.766044443));
#549=AXIS2_PLACEMENT_3D('',#546,#547,#548);
#550=PLANE('',#549);
#551=ORIENTED_EDGE('',*,*,#475,.T.);
#552=ORIENTED_EDGE('',*,*,#149,.T.);
#553=ORIENTED_EDGE('',*,*,#221,.F.);
#554=ORIENTED_EDGE('',*,*,#519,.F.);
#555=EDGE_LOOP('',(#551,#552,#553,#554));
#556=FACE_BOUND('',#555,.T.);
#557=ADVANCED_FACE('',(#556),#550,.F.);
#558=CLOSED_SHELL('',(#193,#225,#267,#299,#331,#363,#395,#427,#449,#479,#509,#533,#545,#557));
#559=MANIFOLD_SOLID_BREP('Corps 26',#558);
#560=COLOUR_RGB('',0.627451003,0.627451003,0.643137276);
#561=FILL_AREA_STYLE_COLOUR('',#560);
#562=FILL_AREA_STYLE('',(#561));
#563=SURFACE_STYLE_FILL_AREA(#562);
#564=SURFACE_SIDE_STYLE('',(#563));
#565=SURFACE_STYLE_USAGE(.BOTH.,#564);
#566=PRESENTATION_STYLE_ASSIGNMENT((#565));
#135=STYLED_ITEM('',(#566),#559);
#568=CARTESIAN_POINT('',(1.627617804,0.,129.286413969));
#569=DIRECTION('',(0.766044443,0.,0.64278761));
#570=DIRECTION('',(0.,-1.,0.));
#571=AXIS2_PLACEMENT_3D('',#568,#569,#570);
#572=PLANE('',#571);
#573=CARTESIAN_POINT('',(3.234586828,-2.5,127.371302861));
#574=VERTEX_POINT('',#573);
#575=CARTESIAN_POINT('',(3.234586828,-2.449489743,127.371302861));
#576=VERTEX_POINT('',#575);
#577=CARTESIAN_POINT('',(3.234586828,-2.5,127.371302861));
#578=DIRECTION('',(0.,1.,0.));
#579=VECTOR('',#578,0.050510257);
#580=LINE('',#577,#579);
#581=EDGE_CURVE('',#574,#576,#580,.T.);
#582=ORIENTED_EDGE('',*,*,#581,.F.);
#583=CARTESIAN_POINT('',(3.634721472,-2.5,126.894440962));
#584=VERTEX_POINT('',#583);
#585=CARTESIAN_POINT('',(3.234586828,-2.5,127.371302861));
#586=DIRECTION('',(0.64278761,0.,-0.766044443));
#587=VECTOR('',#586,0.622498999);
#588=LINE('',#585,#587);
#589=EDGE_CURVE('',#574,#584,#588,.T.);
#590=ORIENTED_EDGE('',*,*,#589,.T.);
#591=CARTESIAN_POINT('',(4.198768242,0.,126.222236197));
#592=VERTEX_POINT('',#591);
#593=CARTESIAN_POINT('',(1.627617804,0.,129.286413969));
#594=DIRECTION('',(0.766044443,0.,0.64278761));
#595=DIRECTION('',(-0.,-1.,0.));
#596=AXIS2_PLACEMENT_3D('',#593,#594,#595);
#597=CIRCLE('',#596,4.);
#598=EDGE_CURVE('',#584,#592,#597,.T.);
#599=ORIENTED_EDGE('',*,*,#598,.T.);
#600=CARTESIAN_POINT('',(3.634721472,2.5,126.894440962));
#601=VERTEX_POINT('',#600);
#602=CARTESIAN_POINT('',(1.627617804,0.,129.286413969));
#603=DIRECTION('',(0.766044443,0.,0.64278761));
#604=DIRECTION('',(-0.,-1.,0.));
#605=AXIS2_PLACEMENT_3D('',#602,#603,#604);
#606=CIRCLE('',#605,4.);
#607=EDGE_CURVE('',#592,#601,#606,.T.);
#608=ORIENTED_EDGE('',*,*,#607,.T.);
#609=CARTESIAN_POINT('',(3.234586828,2.5,127.371302861));
#610=VERTEX_POINT('',#609);
#611=CARTESIAN_POINT('',(3.634721472,2.5,126.894440962));
#612=DIRECTION('',(-0.64278761,-0.,0.766044443));
#613=VECTOR('',#612,0.622498999);
#614=LINE('',#611,#613);
#615=EDGE_CURVE('',#601,#610,#614,.T.);
#616=ORIENTED_EDGE('',*,*,#615,.T.);
#617=CARTESIAN_POINT('',(3.234586828,2.449489743,127.371302861));
#618=VERTEX_POINT('',#617);
#619=CARTESIAN_POINT('',(3.234586828,2.449489743,127.371302861));
#620=DIRECTION('',(0.,1.,0.));
#621=VECTOR('',#620,0.050510257);
#622=LINE('',#619,#621);
#623=EDGE_CURVE('',#618,#610,#622,.T.);
#624=ORIENTED_EDGE('',*,*,#623,.F.);
#625=CARTESIAN_POINT('',(3.877374437,-0.,126.605258418));
#626=VERTEX_POINT('',#625);
#627=CARTESIAN_POINT('',(1.627617804,0.,129.286413969));
#628=DIRECTION('',(0.766044443,-0.,0.64278761));
#629=DIRECTION('',(-0.,-1.,0.));
#630=AXIS2_PLACEMENT_3D('',#627,#628,#629);
#631=CIRCLE('',#630,3.5);
#632=EDGE_CURVE('',#626,#618,#631,.T.);
#633=ORIENTED_EDGE('',*,*,#632,.F.);
#634=CARTESIAN_POINT('',(1.627617804,0.,129.286413969));
#635=DIRECTION('',(0.766044443,-0.,0.64278761));
#636=DIRECTION('',(-0.,-1.,0.));
#637=AXIS2_PLACEMENT_3D('',#634,#635,#636);
#638=CIRCLE('',#637,3.5);
#639=EDGE_CURVE('',#576,#626,#638,.T.);
#640=ORIENTED_EDGE('',*,*,#639,.F.);
#641=EDGE_LOOP('',(#582,#590,#599,#608,#616,#624,#633,#640));
#642=FACE_BOUND('',#641,.T.);
#643=ADVANCED_FACE('',(#642),#572,.T.);
#644=CARTESIAN_POINT('',(1.20629336,0.,128.932880784));
#645=DIRECTION('',(0.766044443,0.,0.64278761));
#646=DIRECTION('',(0.64278761,0.,-0.766044443));
#647=AXIS2_PLACEMENT_3D('',#644,#645,#646);
#648=CYLINDRICAL_SURFACE('',#647,3.5);
#649=CARTESIAN_POINT('',(3.456049994,-0.,126.251725233));
#650=VERTEX_POINT('',#649);
#651=CARTESIAN_POINT('',(3.877374437,0.,126.605258418));
#652=DIRECTION('',(-0.766044443,-0.,-0.64278761));
#653=VECTOR('',#652,0.55);
#654=LINE('',#651,#653);
#655=EDGE_CURVE('',#626,#650,#654,.T.);
#656=ORIENTED_EDGE('',*,*,#655,.F.);
#657=ORIENTED_EDGE('',*,*,#632,.T.);
#658=CARTESIAN_POINT('',(2.813262384,2.449489743,127.017769676));
#659=VERTEX_POINT('',#658);
#660=CARTESIAN_POINT('',(3.234586828,2.449489743,127.371302861));
#661=DIRECTION('',(-0.766044443,-0.,-0.64278761));
#662=VECTOR('',#661,0.55);
#663=LINE('',#660,#662);
#664=EDGE_CURVE('',#618,#659,#663,.T.);
#665=ORIENTED_EDGE('',*,*,#664,.T.);
#666=CARTESIAN_POINT('',(1.20629336,0.,128.932880784));
#667=DIRECTION('',(0.766044443,-0.,0.64278761));
#668=DIRECTION('',(-0.,-1.,0.));
#669=AXIS2_PLACEMENT_3D('',#666,#667,#668);
#670=CIRCLE('',#669,3.5);
#671=EDGE_CURVE('',#650,#659,#670,.T.);
#672=ORIENTED_EDGE('',*,*,#671,.F.);
#673=EDGE_LOOP('',(#656,#657,#665,#672));
#674=FACE_BOUND('',#673,.T.);
#675=ADVANCED_FACE('',(#674),#648,.F.);
#676=CARTESIAN_POINT('',(0.976480027,0.,128.740044501));
#677=DIRECTION('',(-0.766044443,0.,-0.64278761));
#678=DIRECTION('',(-0.64278761,0.,0.766044443));
#679=AXIS2_PLACEMENT_3D('',#676,#677,#678);
#680=CYLINDRICAL_SURFACE('',#679,5.5);
#681=CARTESIAN_POINT('',(4.355296673,-2.5,125.180044772));
#682=VERTEX_POINT('',#681);
#683=CARTESIAN_POINT('',(6.040594448,-2.5,126.594177513));
#684=VERTEX_POINT('',#683);
#685=CARTESIAN_POINT('',(4.355296673,-2.5,125.180044772));
#686=DIRECTION('',(0.766044443,-0.,0.64278761));
#687=VECTOR('',#686,2.2);
#688=LINE('',#685,#687);
#689=EDGE_CURVE('',#682,#684,#688,.T.);
#690=ORIENTED_EDGE('',*,*,#689,.F.);
#691=CARTESIAN_POINT('',(4.355296673,2.5,125.180044772));
#692=VERTEX_POINT('',#691);
#693=CARTESIAN_POINT('',(1.20629336,0.,128.932880784));
#694=DIRECTION('',(0.766044443,0.,0.64278761));
#695=DIRECTION('',(0.64278761,0.,-0.766044443));
#696=AXIS2_PLACEMENT_3D('',#693,#694,#695);
#697=CIRCLE('',#696,5.5);
#698=EDGE_CURVE('',#682,#692,#697,.T.);
#699=ORIENTED_EDGE('',*,*,#698,.T.);
#700=CARTESIAN_POINT('',(6.040594448,2.5,126.594177513));
#701=VERTEX_POINT('',#700);
#702=CARTESIAN_POINT('',(6.040594448,2.5,126.594177513));
#703=DIRECTION('',(-0.766044443,0.,-0.64278761));
#704=VECTOR('',#703,2.2);
#705=LINE('',#702,#704);
#706=EDGE_CURVE('',#701,#692,#705,.T.);
#707=ORIENTED_EDGE('',*,*,#706,.F.);
#708=CARTESIAN_POINT('',(2.891591135,0.,130.347013525));
#709=DIRECTION('',(0.766044443,0.,0.64278761));
#710=DIRECTION('',(0.64278761,0.,-0.766044443));
#711=AXIS2_PLACEMENT_3D('',#708,#709,#710);
#712=CIRCLE('',#711,5.5);
#713=EDGE_CURVE('',#684,#701,#712,.T.);
#714=ORIENTED_EDGE('',*,*,#713,.F.);
#715=EDGE_LOOP('',(#690,#699,#707,#714));
#716=FACE_BOUND('',#715,.T.);
#717=ADVANCED_FACE('',(#716),#680,.T.);
#718=CARTESIAN_POINT('',(2.891591135,0.,130.347013525));
#719=DIRECTION('',(0.766044443,0.,0.64278761));
#720=DIRECTION('',(0.64278761,0.,-0.766044443));
#721=AXIS2_PLACEMENT_3D('',#718,#719,#720);
#722=PLANE('',#721);
#723=CARTESIAN_POINT('',(6.105529183,0.,126.51679131));
#724=VERTEX_POINT('',#723);
#725=CARTESIAN_POINT('',(5.674943131,2.5,127.029943784));
#726=VERTEX_POINT('',#725);
#727=CARTESIAN_POINT('',(2.891591135,0.,130.347013525));
#728=DIRECTION('',(0.766044443,0.,0.64278761));
#729=DIRECTION('',(-0.,-1.,0.));
#730=AXIS2_PLACEMENT_3D('',#727,#728,#729);
#731=CIRCLE('',#730,5.);
#732=EDGE_CURVE('',#724,#726,#731,.T.);
#733=ORIENTED_EDGE('',*,*,#732,.F.);
#734=CARTESIAN_POINT('',(5.674943131,-2.5,127.029943784));
#735=VERTEX_POINT('',#734);
#736=CARTESIAN_POINT('',(2.891591135,0.,130.347013525));
#737=DIRECTION('',(0.766044443,0.,0.64278761));
#738=DIRECTION('',(-0.,-1.,0.));
#739=AXIS2_PLACEMENT_3D('',#736,#737,#738);
#740=CIRCLE('',#739,5.);
#741=EDGE_CURVE('',#735,#724,#740,.T.);
#742=ORIENTED_EDGE('',*,*,#741,.F.);
#743=CARTESIAN_POINT('',(5.674943131,-2.5,127.029943784));
#744=DIRECTION('',(0.64278761,0.,-0.766044443));
#745=VECTOR('',#744,0.568852467);
#746=LINE('',#743,#745);
#747=EDGE_CURVE('',#735,#684,#746,.T.);
#748=ORIENTED_EDGE('',*,*,#747,.T.);
#749=ORIENTED_EDGE('',*,*,#713,.T.);
#750=CARTESIAN_POINT('',(6.040594448,2.5,126.594177513));
#751=DIRECTION('',(-0.64278761,-0.,0.766044443));
#752=VECTOR('',#751,0.568852467);
#753=LINE('',#750,#752);
#754=EDGE_CURVE('',#701,#726,#753,.T.);
#755=ORIENTED_EDGE('',*,*,#754,.T.);
#756=EDGE_LOOP('',(#733,#742,#748,#749,#755));
#757=FACE_BOUND('',#756,.T.);
#758=ADVANCED_FACE('',(#757),#722,.T.);
#759=CARTESIAN_POINT('',(2.470266691,0.,129.99348034));
#760=DIRECTION('',(0.766044443,0.,0.64278761));
#761=DIRECTION('',(0.64278761,0.,-0.766044443));
#762=AXIS2_PLACEMENT_3D('',#759,#760,#761);
#763=CYLINDRICAL_SURFACE('',#762,5.);
#764=CARTESIAN_POINT('',(5.684204739,0.,126.163258124));
#765=VERTEX_POINT('',#764);
#766=CARTESIAN_POINT('',(6.105529183,0.,126.51679131));
#767=DIRECTION('',(-0.766044443,-0.,-0.64278761));
#768=VECTOR('',#767,0.55);
#769=LINE('',#766,#768);
#770=EDGE_CURVE('',#724,#765,#769,.T.);
#771=ORIENTED_EDGE('',*,*,#770,.F.);
#772=ORIENTED_EDGE('',*,*,#732,.T.);
#773=CARTESIAN_POINT('',(5.253618687,2.5,126.676410599));
#774=VERTEX_POINT('',#773);
#775=CARTESIAN_POINT('',(5.253618687,2.5,126.676410599));
#776=DIRECTION('',(0.766044443,0.,0.64278761));
#777=VECTOR('',#776,0.55);
#778=LINE('',#775,#777);
#779=EDGE_CURVE('',#774,#726,#778,.T.);
#780=ORIENTED_EDGE('',*,*,#779,.F.);
#781=CARTESIAN_POINT('',(2.470266691,0.,129.99348034));
#782=DIRECTION('',(0.766044443,0.,0.64278761));
#783=DIRECTION('',(-0.,-1.,0.));
#784=AXIS2_PLACEMENT_3D('',#781,#782,#783);
#785=CIRCLE('',#784,5.);
#786=EDGE_CURVE('',#765,#774,#785,.T.);
#787=ORIENTED_EDGE('',*,*,#786,.F.);
#788=EDGE_LOOP('',(#771,#772,#780,#787));
#789=FACE_BOUND('',#788,.T.);
#790=ADVANCED_FACE('',(#789),#763,.F.);
#791=CARTESIAN_POINT('',(2.470266691,0.,129.99348034));
#792=DIRECTION('',(0.766044443,0.,0.64278761));
#793=DIRECTION('',(0.,-1.,0.));
#794=AXIS2_PLACEMENT_3D('',#791,#792,#793);
#795=PLANE('',#794);
#796=CARTESIAN_POINT('',(5.362810935,0.,126.546280346));
#797=VERTEX_POINT('',#796);
#798=CARTESIAN_POINT('',(4.875357699,2.5,127.127204491));
#799=VERTEX_POINT('',#798);
#800=CARTESIAN_POINT('',(2.470266691,0.,129.99348034));
#801=DIRECTION('',(0.766044443,0.,0.64278761));
#802=DIRECTION('',(-0.,-1.,0.));
#803=AXIS2_PLACEMENT_3D('',#800,#801,#802);
#804=CIRCLE('',#803,4.5);
#805=EDGE_CURVE('',#797,#799,#804,.T.);
#806=ORIENTED_EDGE('',*,*,#805,.F.);
#807=CARTESIAN_POINT('',(4.875357699,-2.5,127.127204491));
#808=VERTEX_POINT('',#807);
#809=CARTESIAN_POINT('',(2.470266691,0.,129.99348034));
#810=DIRECTION('',(0.766044443,0.,0.64278761));
#811=DIRECTION('',(-0.,-1.,0.));
#812=AXIS2_PLACEMENT_3D('',#809,#810,#811);
#813=CIRCLE('',#812,4.5);
#814=EDGE_CURVE('',#808,#797,#813,.T.);
#815=ORIENTED_EDGE('',*,*,#814,.F.);
#816=CARTESIAN_POINT('',(5.253618687,-2.5,126.676410599));
#817=VERTEX_POINT('',#816);
#818=CARTESIAN_POINT('',(4.875357699,-2.5,127.127204491));
#819=DIRECTION('',(0.64278761,0.,-0.766044443));
#820=VECTOR('',#819,0.588469632);
#821=LINE('',#818,#820);
#822=EDGE_CURVE('',#808,#817,#821,.T.);
#823=ORIENTED_EDGE('',*,*,#822,.T.);
#824=CARTESIAN_POINT('',(2.470266691,0.,129.99348034));
#825=DIRECTION('',(0.766044443,0.,0.64278761));
#826=DIRECTION('',(-0.,-1.,0.));
#827=AXIS2_PLACEMENT_3D('',#824,#825,#826);
#828=CIRCLE('',#827,5.);
#829=EDGE_CURVE('',#817,#765,#828,.T.);
#830=ORIENTED_EDGE('',*,*,#829,.T.);
#831=ORIENTED_EDGE('',*,*,#786,.T.);
#832=CARTESIAN_POINT('',(5.253618687,2.5,126.676410599));
#833=DIRECTION('',(-0.64278761,-0.,0.766044443));
#834=VECTOR('',#833,0.588469632);
#835=LINE('',#832,#834);
#836=EDGE_CURVE('',#774,#799,#835,.T.);
#837=ORIENTED_EDGE('',*,*,#836,.T.);
#838=EDGE_LOOP('',(#806,#815,#823,#830,#831,#837));
#839=FACE_BOUND('',#838,.T.);
#840=ADVANCED_FACE('',(#839),#795,.T.);
#841=CARTESIAN_POINT('',(2.048942247,0.,129.639947154));
#842=DIRECTION('',(0.766044443,0.,0.64278761));
#843=DIRECTION('',(0.64278761,0.,-0.766044443));
#844=AXIS2_PLACEMENT_3D('',#841,#842,#843);
#845=CYLINDRICAL_SURFACE('',#844,4.5);
#846=CARTESIAN_POINT('',(4.941486491,0.,126.19274716));
#847=VERTEX_POINT('',#846);
#848=CARTESIAN_POINT('',(5.362810935,0.,126.546280346));
#849=DIRECTION('',(-0.766044443,-0.,-0.64278761));
#850=VECTOR('',#849,0.55);
#851=LINE('',#848,#850);
#852=EDGE_CURVE('',#797,#847,#851,.T.);
#853=ORIENTED_EDGE('',*,*,#852,.F.);
#854=ORIENTED_EDGE('',*,*,#805,.T.);
#855=CARTESIAN_POINT('',(4.454033255,2.5,126.773671305));
#856=VERTEX_POINT('',#855);
#857=CARTESIAN_POINT('',(4.454033255,2.5,126.773671305));
#858=DIRECTION('',(0.766044443,0.,0.64278761));
#859=VECTOR('',#858,0.55);
#860=LINE('',#857,#859);
#861=EDGE_CURVE('',#856,#799,#860,.T.);
#862=ORIENTED_EDGE('',*,*,#861,.F.);
#863=CARTESIAN_POINT('',(2.048942247,0.,129.639947154));
#864=DIRECTION('',(0.766044443,0.,0.64278761));
#865=DIRECTION('',(-0.,-1.,0.));
#866=AXIS2_PLACEMENT_3D('',#863,#864,#865);
#867=CIRCLE('',#866,4.5);
#868=EDGE_CURVE('',#847,#856,#867,.T.);
#869=ORIENTED_EDGE('',*,*,#868,.F.);
#870=EDGE_LOOP('',(#853,#854,#862,#869));
#871=FACE_BOUND('',#870,.T.);
#872=ADVANCED_FACE('',(#871),#845,.F.);
#873=CARTESIAN_POINT('',(2.048942247,0.,129.639947154));
#874=DIRECTION('',(0.766044443,0.,0.64278761));
#875=DIRECTION('',(0.,-1.,0.));
#876=AXIS2_PLACEMENT_3D('',#873,#874,#875);
#877=PLANE('',#876);
#878=CARTESIAN_POINT('',(4.620092686,0.,126.575769382));
#879=VERTEX_POINT('',#878);
#880=CARTESIAN_POINT('',(4.056045915,2.5,127.247974147));
#881=VERTEX_POINT('',#880);
#882=CARTESIAN_POINT('',(2.048942247,0.,129.639947154));
#883=DIRECTION('',(0.766044443,0.,0.64278761));
#884=DIRECTION('',(-0.,-1.,0.));
#885=AXIS2_PLACEMENT_3D('',#882,#883,#884);
#886=CIRCLE('',#885,4.);
#887=EDGE_CURVE('',#879,#881,#886,.T.);
#888=ORIENTED_EDGE('',*,*,#887,.F.);
#889=CARTESIAN_POINT('',(4.056045915,-2.5,127.247974147));
#890=VERTEX_POINT('',#889);
#891=CARTESIAN_POINT('',(2.048942247,0.,129.639947154));
#892=DIRECTION('',(0.766044443,0.,0.64278761));
#893=DIRECTION('',(-0.,-1.,0.));
#894=AXIS2_PLACEMENT_3D('',#891,#892,#893);
#895=CIRCLE('',#894,4.);
#896=EDGE_CURVE('',#890,#879,#895,.T.);
#897=ORIENTED_EDGE('',*,*,#896,.F.);
#898=CARTESIAN_POINT('',(4.454033255,-2.5,126.773671305));
#899=VERTEX_POINT('',#898);
#900=CARTESIAN_POINT('',(4.056045915,-2.5,127.247974147));
#901=DIRECTION('',(0.64278761,0.,-0.766044443));
#902=VECTOR('',#901,0.619158388);
#903=LINE('',#900,#902);
#904=EDGE_CURVE('',#890,#899,#903,.T.);
#905=ORIENTED_EDGE('',*,*,#904,.T.);
#906=CARTESIAN_POINT('',(2.048942247,0.,129.639947154));
#907=DIRECTION('',(0.766044443,0.,0.64278761));
#908=DIRECTION('',(-0.,-1.,0.));
#909=AXIS2_PLACEMENT_3D('',#906,#907,#908);
#910=CIRCLE('',#909,4.5);
#911=EDGE_CURVE('',#899,#847,#910,.T.);
#912=ORIENTED_EDGE('',*,*,#911,.T.);
#913=ORIENTED_EDGE('',*,*,#868,.T.);
#914=CARTESIAN_POINT('',(4.454033255,2.5,126.773671305));
#915=DIRECTION('',(-0.64278761,-0.,0.766044443));
#916=VECTOR('',#915,0.619158388);
#917=LINE('',#914,#916);
#918=EDGE_CURVE('',#856,#881,#917,.T.);
#919=ORIENTED_EDGE('',*,*,#918,.T.);
#920=EDGE_LOOP('',(#888,#897,#905,#912,#913,#919));
#921=FACE_BOUND('',#920,.T.);
#922=ADVANCED_FACE('',(#921),#877,.T.);
#923=CARTESIAN_POINT('',(1.627617804,0.,129.286413969));
#924=DIRECTION('',(0.766044443,0.,0.64278761));
#925=DIRECTION('',(0.64278761,0.,-0.766044443));
#926=AXIS2_PLACEMENT_3D('',#923,#924,#925);
#927=CYLINDRICAL_SURFACE('',#926,4.);
#928=CARTESIAN_POINT('',(4.620092686,0.,126.575769382));
#929=DIRECTION('',(-0.766044443,-0.,-0.64278761));
#930=VECTOR('',#929,0.55);
#931=LINE('',#928,#930);
#932=EDGE_CURVE('',#879,#592,#931,.T.);
#933=ORIENTED_EDGE('',*,*,#932,.F.);
#934=ORIENTED_EDGE('',*,*,#887,.T.);
#935=CARTESIAN_POINT('',(3.634721472,2.5,126.894440962));
#936=DIRECTION('',(0.766044443,0.,0.64278761));
#937=VECTOR('',#936,0.55);
#938=LINE('',#935,#937);
#939=EDGE_CURVE('',#601,#881,#938,.T.);
#940=ORIENTED_EDGE('',*,*,#939,.F.);
#941=ORIENTED_EDGE('',*,*,#607,.F.);
#942=EDGE_LOOP('',(#933,#934,#940,#941));
#943=FACE_BOUND('',#942,.T.);
#944=ADVANCED_FACE('',(#943),#927,.F.);
#945=CARTESIAN_POINT('',(3.938140701,-2.5,125.677191901));
#946=DIRECTION('',(0.,-1.,-0.));
#947=DIRECTION('',(0.64278761,0.,-0.766044443));
#948=AXIS2_PLACEMENT_3D('',#945,#946,#947);
#949=PLANE('',#948);
#950=CARTESIAN_POINT('',(2.813262384,-2.5,127.017769676));
#951=VERTEX_POINT('',#950);
#952=CARTESIAN_POINT('',(2.813262384,-2.5,127.017769676));
#953=DIRECTION('',(0.64278761,0.,-0.766044443));
#954=VECTOR('',#953,2.398979486);
#955=LINE('',#952,#954);
#956=EDGE_CURVE('',#951,#682,#955,.T.);
#957=ORIENTED_EDGE('',*,*,#956,.T.);
#958=ORIENTED_EDGE('',*,*,#689,.T.);
#959=ORIENTED_EDGE('',*,*,#747,.F.);
#960=CARTESIAN_POINT('',(5.674943131,-2.5,127.029943784));
#961=DIRECTION('',(-0.766044443,-0.,-0.64278761));
#962=VECTOR('',#961,0.55);
#963=LINE('',#960,#962);
#964=EDGE_CURVE('',#735,#817,#963,.T.);
#965=ORIENTED_EDGE('',*,*,#964,.T.);
#966=ORIENTED_EDGE('',*,*,#822,.F.);
#967=CARTESIAN_POINT('',(4.875357699,-2.5,127.127204491));
#968=DIRECTION('',(-0.766044443,-0.,-0.64278761));
#969=VECTOR('',#968,0.55);
#970=LINE('',#967,#969);
#971=EDGE_CURVE('',#808,#899,#970,.T.);
#972=ORIENTED_EDGE('',*,*,#971,.T.);
#973=ORIENTED_EDGE('',*,*,#904,.F.);
#974=CARTESIAN_POINT('',(4.056045915,-2.5,127.247974147));
#975=DIRECTION('',(-0.766044443,-0.,-0.64278761));
#976=VECTOR('',#975,0.55);
#977=LINE('',#974,#976);
#978=EDGE_CURVE('',#890,#584,#977,.T.);
#979=ORIENTED_EDGE('',*,*,#978,.T.);
#980=ORIENTED_EDGE('',*,*,#589,.F.);
#981=CARTESIAN_POINT('',(2.813262384,-2.5,127.017769676));
#982=DIRECTION('',(0.766044443,0.,0.64278761));
#983=VECTOR('',#982,0.55);
#984=LINE('',#981,#983);
#985=EDGE_CURVE('',#951,#574,#984,.T.);
#986=ORIENTED_EDGE('',*,*,#985,.F.);
#987=EDGE_LOOP('',(#957,#958,#959,#965,#966,#972,#973,#979,#980,#986));
#988=FACE_BOUND('',#987,.T.);
#989=ADVANCED_FACE('',(#988),#949,.T.);
#990=CARTESIAN_POINT('',(3.938140701,2.5,125.677191901));
#991=DIRECTION('',(-0.,1.,0.));
#992=DIRECTION('',(-0.64278761,-0.,0.766044443));
#993=AXIS2_PLACEMENT_3D('',#990,#991,#992);
#994=PLANE('',#993);
#995=ORIENTED_EDGE('',*,*,#754,.F.);
#996=ORIENTED_EDGE('',*,*,#706,.T.);
#997=CARTESIAN_POINT('',(2.813262384,2.5,127.017769676));
#998=VERTEX_POINT('',#997);
#999=CARTESIAN_POINT('',(4.355296673,2.5,125.180044772));
#1000=DIRECTION('',(-0.64278761,-0.,0.766044443));
#1001=VECTOR('',#1000,2.398979486);
#1002=LINE('',#999,#1001);
#1003=EDGE_CURVE('',#692,#998,#1002,.T.);
#1004=ORIENTED_EDGE('',*,*,#1003,.T.);
#1005=CARTESIAN_POINT('',(2.813262384,2.5,127.017769676));
#1006=DIRECTION('',(0.766044443,0.,0.64278761));
#1007=VECTOR('',#1006,0.55);
#1008=LINE('',#1005,#1007);
#1009=EDGE_CURVE('',#998,#610,#1008,.T.);
#1010=ORIENTED_EDGE('',*,*,#1009,.T.);
#1011=ORIENTED_EDGE('',*,*,#615,.F.);
#1012=ORIENTED_EDGE('',*,*,#939,.T.);
#1013=ORIENTED_EDGE('',*,*,#918,.F.);
#1014=ORIENTED_EDGE('',*,*,#861,.T.);
#1015=ORIENTED_EDGE('',*,*,#836,.F.);
#1016=ORIENTED_EDGE('',*,*,#779,.T.);
#1017=EDGE_LOOP('',(#995,#996,#1004,#1010,#1011,#1012,#1013,#1014,#1015,#1016));
#1018=FACE_BOUND('',#1017,.T.);
#1019=ADVANCED_FACE('',(#1018),#994,.T.);
#1020=CARTESIAN_POINT('',(1.20629336,0.,128.932880784));
#1021=DIRECTION('',(0.766044443,0.,0.64278761));
#1022=DIRECTION('',(0.,-1.,0.));
#1023=AXIS2_PLACEMENT_3D('',#1020,#1021,#1022);
#1024=PLANE('',#1023);
#1025=CARTESIAN_POINT('',(2.813262384,-2.449489743,127.017769676));
#1026=VERTEX_POINT('',#1025);
#1027=CARTESIAN_POINT('',(2.813262384,-2.5,127.017769676));
#1028=DIRECTION('',(0.,1.,0.));
#1029=VECTOR('',#1028,0.050510257);
#1030=LINE('',#1027,#1029);
#1031=EDGE_CURVE('',#951,#1026,#1030,.T.);
#1032=ORIENTED_EDGE('',*,*,#1031,.T.);
#1033=CARTESIAN_POINT('',(1.20629336,0.,128.932880784));
#1034=DIRECTION('',(0.766044443,-0.,0.64278761));
#1035=DIRECTION('',(-0.,-1.,0.));
#1036=AXIS2_PLACEMENT_3D('',#1033,#1034,#1035);
#1037=CIRCLE('',#1036,3.5);
#1038=EDGE_CURVE('',#1026,#650,#1037,.T.);
#1039=ORIENTED_EDGE('',*,*,#1038,.T.);
#1040=ORIENTED_EDGE('',*,*,#671,.T.);
#1041=CARTESIAN_POINT('',(2.813262384,2.449489743,127.017769676));
#1042=DIRECTION('',(0.,1.,0.));
#1043=VECTOR('',#1042,0.050510257);
#1044=LINE('',#1041,#1043);
#1045=EDGE_CURVE('',#659,#998,#1044,.T.);
#1046=ORIENTED_EDGE('',*,*,#1045,.T.);
#1047=ORIENTED_EDGE('',*,*,#1003,.F.);
#1048=ORIENTED_EDGE('',*,*,#698,.F.);
#1049=ORIENTED_EDGE('',*,*,#956,.F.);
#1050=EDGE_LOOP('',(#1032,#1039,#1040,#1046,#1047,#1048,#1049));
#1051=FACE_BOUND('',#1050,.T.);
#1052=ADVANCED_FACE('',(#1051),#1024,.F.);
#1053=CARTESIAN_POINT('',(2.813262384,0.,127.017769676));
#1054=DIRECTION('',(0.64278761,0.,-0.766044443));
#1055=DIRECTION('',(-0.766044443,0.,-0.64278761));
#1056=AXIS2_PLACEMENT_3D('',#1053,#1054,#1055);
#1057=PLANE('',#1056);
#1058=ORIENTED_EDGE('',*,*,#664,.F.);
#1059=ORIENTED_EDGE('',*,*,#623,.T.);
#1060=ORIENTED_EDGE('',*,*,#1009,.F.);
#1061=ORIENTED_EDGE('',*,*,#1045,.F.);
#1062=EDGE_LOOP('',(#1058,#1059,#1060,#1061));
#1063=FACE_BOUND('',#1062,.T.);
#1064=ADVANCED_FACE('',(#1063),#1057,.F.);
#1065=CARTESIAN_POINT('',(2.813262384,0.,127.017769676));
#1066=DIRECTION('',(0.64278761,0.,-0.766044443));
#1067=DIRECTION('',(-0.766044443,0.,-0.64278761));
#1068=AXIS2_PLACEMENT_3D('',#1065,#1066,#1067);
#1069=PLANE('',#1068);
#1070=ORIENTED_EDGE('',*,*,#985,.T.);
#1071=ORIENTED_EDGE('',*,*,#581,.T.);
#1072=CARTESIAN_POINT('',(2.813262384,-2.449489743,127.017769676));
#1073=DIRECTION('',(0.766044443,0.,0.64278761));
#1074=VECTOR('',#1073,0.55);
#1075=LINE('',#1072,#1074);
#1076=EDGE_CURVE('',#1026,#576,#1075,.T.);
#1077=ORIENTED_EDGE('',*,*,#1076,.F.);
#1078=ORIENTED_EDGE('',*,*,#1031,.F.);
#1079=EDGE_LOOP('',(#1070,#1071,#1077,#1078));
#1080=FACE_BOUND('',#1079,.T.);
#1081=ADVANCED_FACE('',(#1080),#1069,.F.);
#1082=CARTESIAN_POINT('',(1.20629336,0.,128.932880784));
#1083=DIRECTION('',(0.766044443,0.,0.64278761));
#1084=DIRECTION('',(0.64278761,0.,-0.766044443));
#1085=AXIS2_PLACEMENT_3D('',#1082,#1083,#1084);
#1086=CYLINDRICAL_SURFACE('',#1085,3.5);
#1087=ORIENTED_EDGE('',*,*,#655,.T.);
#1088=ORIENTED_EDGE('',*,*,#1038,.F.);
#1089=ORIENTED_EDGE('',*,*,#1076,.T.);
#1090=ORIENTED_EDGE('',*,*,#639,.T.);
#1091=EDGE_LOOP('',(#1087,#1088,#1089,#1090));
#1092=FACE_BOUND('',#1091,.T.);
#1093=ADVANCED_FACE('',(#1092),#1086,.F.);
#1094=CARTESIAN_POINT('',(2.470266691,0.,129.99348034));
#1095=DIRECTION('',(0.766044443,0.,0.64278761));
#1096=DIRECTION('',(0.64278761,0.,-0.766044443));
#1097=AXIS2_PLACEMENT_3D('',#1094,#1095,#1096);
#1098=CYLINDRICAL_SURFACE('',#1097,5.);
#1099=ORIENTED_EDGE('',*,*,#770,.T.);
#1100=ORIENTED_EDGE('',*,*,#829,.F.);
#1101=ORIENTED_EDGE('',*,*,#964,.F.);
#1102=ORIENTED_EDGE('',*,*,#741,.T.);
#1103=EDGE_LOOP('',(#1099,#1100,#1101,#1102));
#1104=FACE_BOUND('',#1103,.T.);
#1105=ADVANCED_FACE('',(#1104),#1098,.F.);
#1106=CARTESIAN_POINT('',(2.048942247,0.,129.639947154));
#1107=DIRECTION('',(0.766044443,0.,0.64278761));
#1108=DIRECTION('',(0.64278761,0.,-0.766044443));
#1109=AXIS2_PLACEMENT_3D('',#1106,#1107,#1108);
#1110=CYLINDRICAL_SURFACE('',#1109,4.5);
#1111=ORIENTED_EDGE('',*,*,#852,.T.);
#1112=ORIENTED_EDGE('',*,*,#911,.F.);
#1113=ORIENTED_EDGE('',*,*,#971,.F.);
#1114=ORIENTED_EDGE('',*,*,#814,.T.);
#1115=EDGE_LOOP('',(#1111,#1112,#1113,#1114));
#1116=FACE_BOUND('',#1115,.T.);
#1117=ADVANCED_FACE('',(#1116),#1110,.F.);
#1118=CARTESIAN_POINT('',(1.627617804,0.,129.286413969));
#1119=DIRECTION('',(0.766044443,0.,0.64278761));
#1120=DIRECTION('',(0.64278761,0.,-0.766044443));
#1121=AXIS2_PLACEMENT_3D('',#1118,#1119,#1120);
#1122=CYLINDRICAL_SURFACE('',#1121,4.);
#1123=ORIENTED_EDGE('',*,*,#932,.T.);
#1124=ORIENTED_EDGE('',*,*,#598,.F.);
#1125=ORIENTED_EDGE('',*,*,#978,.F.);
#1126=ORIENTED_EDGE('',*,*,#896,.T.);
#1127=EDGE_LOOP('',(#1123,#1124,#1125,#1126));
#1128=FACE_BOUND('',#1127,.T.);
#1129=ADVANCED_FACE('',(#1128),#1122,.F.);
#1130=CLOSED_SHELL('',(#643,#675,#717,#758,#790,#840,#872,#922,#944,#989,#1019,#1052,#1064,#1081,#1093,#1105,#1117,#1129));
#1131=MANIFOLD_SOLID_BREP('Corps 25',#1130);
#567=STYLED_ITEM('',(#566),#1131);
#1133=CARTESIAN_POINT('',(1.627617804,0.,129.286413969));
#1134=DIRECTION('',(0.766044443,0.,0.64278761));
#1135=DIRECTION('',(0.,-1.,0.));
#1136=AXIS2_PLACEMENT_3D('',#1133,#1134,#1135);
#1137=PLANE('',#1136);
#1138=CARTESIAN_POINT('',(0.020648779,-2.5,131.201525077));
#1139=VERTEX_POINT('',#1138);
#1140=CARTESIAN_POINT('',(0.053116147,-2.5,131.162831975));
#1141=VERTEX_POINT('',#1140);
#1142=CARTESIAN_POINT('',(0.020648779,-2.5,131.201525077));
#1143=DIRECTION('',(0.64278761,0.,-0.766044443));
#1144=VECTOR('',#1143,0.050510257);
#1145=LINE('',#1142,#1144);
#1146=EDGE_CURVE('',#1139,#1141,#1145,.T.);
#1147=ORIENTED_EDGE('',*,*,#1146,.F.);
#1148=CARTESIAN_POINT('',(0.020648779,-3.122498999,131.201525077));
#1149=VERTEX_POINT('',#1148);
#1150=CARTESIAN_POINT('',(0.020648779,-2.5,131.201525077));
#1151=DIRECTION('',(0.,-1.,0.));
#1152=VECTOR('',#1151,0.622498999);
#1153=LINE('',#1150,#1152);
#1154=EDGE_CURVE('',#1139,#1149,#1153,.T.);
#1155=ORIENTED_EDGE('',*,*,#1154,.T.);
#1156=CARTESIAN_POINT('',(3.234586828,-3.122498999,127.371302861));
#1157=VERTEX_POINT('',#1156);
#1158=CARTESIAN_POINT('',(1.627617804,0.,129.286413969));
#1159=DIRECTION('',(0.766044443,0.,0.64278761));
#1160=DIRECTION('',(-0.,-1.,0.));
#1161=AXIS2_PLACEMENT_3D('',#1158,#1159,#1160);
#1162=CIRCLE('',#1161,4.);
#1163=EDGE_CURVE('',#1149,#1157,#1162,.T.);
#1164=ORIENTED_EDGE('',*,*,#1163,.T.);
#1165=CARTESIAN_POINT('',(3.234586828,-2.5,127.371302861));
#1166=VERTEX_POINT('',#1165);
#1167=CARTESIAN_POINT('',(3.234586828,-3.122498999,127.371302861));
#1168=DIRECTION('',(0.,1.,0.));
#1169=VECTOR('',#1168,0.622498999);
#1170=LINE('',#1167,#1169);
#1171=EDGE_CURVE('',#1157,#1166,#1170,.T.);
#1172=ORIENTED_EDGE('',*,*,#1171,.T.);
#1173=CARTESIAN_POINT('',(3.20211946,-2.5,127.409995963));
#1174=VERTEX_POINT('',#1173);
#1175=CARTESIAN_POINT('',(3.20211946,-2.5,127.409995963));
#1176=DIRECTION('',(0.64278761,0.,-0.766044443));
#1177=VECTOR('',#1176,0.050510257);
#1178=LINE('',#1175,#1177);
#1179=EDGE_CURVE('',#1174,#1166,#1178,.T.);
#1180=ORIENTED_EDGE('',*,*,#1179,.F.);
#1181=CARTESIAN_POINT('',(1.627617804,0.,129.286413969));
#1182=DIRECTION('',(0.766044443,-0.,0.64278761));
#1183=DIRECTION('',(-0.,-1.,0.));
#1184=AXIS2_PLACEMENT_3D('',#1181,#1182,#1183);
#1185=CIRCLE('',#1184,3.5);
#1186=EDGE_CURVE('',#1141,#1174,#1185,.T.);
#1187=ORIENTED_EDGE('',*,*,#1186,.F.);
#1188=EDGE_LOOP('',(#1147,#1155,#1164,#1172,#1180,#1187));
#1189=FACE_BOUND('',#1188,.T.);
#1190=ADVANCED_FACE('',(#1189),#1137,.T.);
#1191=CARTESIAN_POINT('',(1.20629336,0.,128.932880784));
#1192=DIRECTION('',(0.766044443,0.,0.64278761));
#1193=DIRECTION('',(0.64278761,0.,-0.766044443));
#1194=AXIS2_PLACEMENT_3D('',#1191,#1192,#1193);
#1195=CYLINDRICAL_SURFACE('',#1194,3.5);
#1196=ORIENTED_EDGE('',*,*,#1186,.T.);
#1197=CARTESIAN_POINT('',(2.780795017,-2.5,127.056462778));
#1198=VERTEX_POINT('',#1197);
#1199=CARTESIAN_POINT('',(3.20211946,-2.5,127.409995963));
#1200=DIRECTION('',(-0.766044443,-0.,-0.64278761));
#1201=VECTOR('',#1200,0.55);
#1202=LINE('',#1199,#1201);
#1203=EDGE_CURVE('',#1174,#1198,#1202,.T.);
#1204=ORIENTED_EDGE('',*,*,#1203,.T.);
#1205=CARTESIAN_POINT('',(-0.368208297,-2.5,130.80929879));
#1206=VERTEX_POINT('',#1205);
#1207=CARTESIAN_POINT('',(1.20629336,0.,128.932880784));
#1208=DIRECTION('',(0.766044443,-0.,0.64278761));
#1209=DIRECTION('',(-0.,-1.,0.));
#1210=AXIS2_PLACEMENT_3D('',#1207,#1208,#1209);
#1211=CIRCLE('',#1210,3.5);
#1212=EDGE_CURVE('',#1206,#1198,#1211,.T.);
#1213=ORIENTED_EDGE('',*,*,#1212,.F.);
#1214=CARTESIAN_POINT('',(-0.368208297,-2.5,130.80929879));
#1215=DIRECTION('',(0.766044443,0.,0.64278761));
#1216=VECTOR('',#1215,0.55);
#1217=LINE('',#1214,#1216);
#1218=EDGE_CURVE('',#1206,#1141,#1217,.T.);
#1219=ORIENTED_EDGE('',*,*,#1218,.T.);
#1220=EDGE_LOOP('',(#1196,#1204,#1213,#1219));
#1221=FACE_BOUND('',#1220,.T.);
#1222=ADVANCED_FACE('',(#1221),#1195,.F.);
#1223=CARTESIAN_POINT('',(0.976480027,0.,128.740044501));
#1224=DIRECTION('',(-0.766044443,0.,-0.64278761));
#1225=DIRECTION('',(-0.64278761,0.,0.766044443));
#1226=AXIS2_PLACEMENT_3D('',#1223,#1224,#1225);
#1227=CYLINDRICAL_SURFACE('',#1226,5.5);
#1228=CARTESIAN_POINT('',(-0.400675664,-4.898979486,130.847991892));
#1229=VERTEX_POINT('',#1228);
#1230=CARTESIAN_POINT('',(1.28462211,-4.898979486,132.262124633));
#1231=VERTEX_POINT('',#1230);
#1232=CARTESIAN_POINT('',(-0.400675664,-4.898979486,130.847991892));
#1233=DIRECTION('',(0.766044443,-0.,0.64278761));
#1234=VECTOR('',#1233,2.2);
#1235=LINE('',#1232,#1234);
#1236=EDGE_CURVE('',#1229,#1231,#1235,.T.);
#1237=ORIENTED_EDGE('',*,*,#1236,.F.);
#1238=CARTESIAN_POINT('',(2.813262384,-4.898979486,127.017769676));
#1239=VERTEX_POINT('',#1238);
#1240=CARTESIAN_POINT('',(1.20629336,0.,128.932880784));
#1241=DIRECTION('',(0.766044443,0.,0.64278761));
#1242=DIRECTION('',(0.64278761,0.,-0.766044443));
#1243=AXIS2_PLACEMENT_3D('',#1240,#1241,#1242);
#1244=CIRCLE('',#1243,5.5);
#1245=EDGE_CURVE('',#1229,#1239,#1244,.T.);
#1246=ORIENTED_EDGE('',*,*,#1245,.T.);
#1247=CARTESIAN_POINT('',(4.498560159,-4.898979486,128.431902417));
#1248=VERTEX_POINT('',#1247);
#1249=CARTESIAN_POINT('',(4.498560159,-4.898979486,128.431902417));
#1250=DIRECTION('',(-0.766044443,0.,-0.64278761));
#1251=VECTOR('',#1250,2.2);
#1252=LINE('',#1249,#1251);
#1253=EDGE_CURVE('',#1248,#1239,#1252,.T.);
#1254=ORIENTED_EDGE('',*,*,#1253,.F.);
#1255=CARTESIAN_POINT('',(2.891591135,0.,130.347013525));
#1256=DIRECTION('',(0.766044443,0.,0.64278761));
#1257=DIRECTION('',(0.64278761,0.,-0.766044443));
#1258=AXIS2_PLACEMENT_3D('',#1255,#1256,#1257);
#1259=CIRCLE('',#1258,5.5);
#1260=EDGE_CURVE('',#1231,#1248,#1259,.T.);
#1261=ORIENTED_EDGE('',*,*,#1260,.F.);
#1262=EDGE_LOOP('',(#1237,#1246,#1254,#1261));
#1263=FACE_BOUND('',#1262,.T.);
#1264=ADVANCED_FACE('',(#1263),#1227,.T.);
#1265=CARTESIAN_POINT('',(2.891591135,0.,130.347013525));
#1266=DIRECTION('',(0.766044443,0.,0.64278761));
#1267=DIRECTION('',(0.64278761,0.,-0.766044443));
#1268=AXIS2_PLACEMENT_3D('',#1265,#1266,#1267);
#1269=PLANE('',#1268);
#1270=CARTESIAN_POINT('',(1.28462211,-4.330127019,132.262124633));
#1271=VERTEX_POINT('',#1270);
#1272=CARTESIAN_POINT('',(4.498560159,-4.330127019,128.431902417));
#1273=VERTEX_POINT('',#1272);
#1274=CARTESIAN_POINT('',(2.891591135,0.,130.347013525));
#1275=DIRECTION('',(0.766044443,0.,0.64278761));
#1276=DIRECTION('',(-0.,-1.,0.));
#1277=AXIS2_PLACEMENT_3D('',#1274,#1275,#1276);
#1278=CIRCLE('',#1277,5.);
#1279=EDGE_CURVE('',#1271,#1273,#1278,.T.);
#1280=ORIENTED_EDGE('',*,*,#1279,.F.);
#1281=CARTESIAN_POINT('',(1.28462211,-4.330127019,132.262124633));
#1282=DIRECTION('',(0.,-1.,0.));
#1283=VECTOR('',#1282,0.568852467);
#1284=LINE('',#1281,#1283);
#1285=EDGE_CURVE('',#1271,#1231,#1284,.T.);
#1286=ORIENTED_EDGE('',*,*,#1285,.T.);
#1287=ORIENTED_EDGE('',*,*,#1260,.T.);
#1288=CARTESIAN_POINT('',(4.498560159,-4.898979486,128.431902417));
#1289=DIRECTION('',(0.,1.,0.));
#1290=VECTOR('',#1289,0.568852467);
#1291=LINE('',#1288,#1290);
#1292=EDGE_CURVE('',#1248,#1273,#1291,.T.);
#1293=ORIENTED_EDGE('',*,*,#1292,.T.);
#1294=EDGE_LOOP('',(#1280,#1286,#1287,#1293));
#1295=FACE_BOUND('',#1294,.T.);
#1296=ADVANCED_FACE('',(#1295),#1269,.T.);
#1297=CARTESIAN_POINT('',(2.470266691,0.,129.99348034));
#1298=DIRECTION('',(0.766044443,0.,0.64278761));
#1299=DIRECTION('',(0.64278761,0.,-0.766044443));
#1300=AXIS2_PLACEMENT_3D('',#1297,#1298,#1299);
#1301=CYLINDRICAL_SURFACE('',#1300,5.);
#1302=CARTESIAN_POINT('',(0.863297667,-4.330127019,131.908591448));
#1303=VERTEX_POINT('',#1302);
#1304=CARTESIAN_POINT('',(1.28462211,-4.330127019,132.262124633));
#1305=DIRECTION('',(-0.766044443,-0.,-0.64278761));
#1306=VECTOR('',#1305,0.55);
#1307=LINE('',#1304,#1306);
#1308=EDGE_CURVE('',#1271,#1303,#1307,.T.);
#1309=ORIENTED_EDGE('',*,*,#1308,.F.);
#1310=ORIENTED_EDGE('',*,*,#1279,.T.);
#1311=CARTESIAN_POINT('',(4.077235715,-4.330127019,128.078369232));
#1312=VERTEX_POINT('',#1311);
#1313=CARTESIAN_POINT('',(4.077235715,-4.330127019,128.078369232));
#1314=DIRECTION('',(0.766044443,0.,0.64278761));
#1315=VECTOR('',#1314,0.55);
#1316=LINE('',#1313,#1315);
#1317=EDGE_CURVE('',#1312,#1273,#1316,.T.);
#1318=ORIENTED_EDGE('',*,*,#1317,.F.);
#1319=CARTESIAN_POINT('',(2.470266691,0.,129.99348034));
#1320=DIRECTION('',(0.766044443,0.,0.64278761));
#1321=DIRECTION('',(-0.,-1.,0.));
#1322=AXIS2_PLACEMENT_3D('',#1319,#1320,#1321);
#1323=CIRCLE('',#1322,5.);
#1324=EDGE_CURVE('',#1303,#1312,#1323,.T.);
#1325=ORIENTED_EDGE('',*,*,#1324,.F.);
#1326=EDGE_LOOP('',(#1309,#1310,#1318,#1325));
#1327=FACE_BOUND('',#1326,.T.);
#1328=ADVANCED_FACE('',(#1327),#1301,.F.);
#1329=CARTESIAN_POINT('',(2.470266691,0.,129.99348034));
#1330=DIRECTION('',(0.766044443,0.,0.64278761));
#1331=DIRECTION('',(0.,-1.,0.));
#1332=AXIS2_PLACEMENT_3D('',#1329,#1330,#1331);
#1333=PLANE('',#1332);
#1334=CARTESIAN_POINT('',(0.863297667,-3.741657387,131.908591448));
#1335=VERTEX_POINT('',#1334);
#1336=CARTESIAN_POINT('',(4.077235715,-3.741657387,128.078369232));
#1337=VERTEX_POINT('',#1336);
#1338=CARTESIAN_POINT('',(2.470266691,0.,129.99348034));
#1339=DIRECTION('',(0.766044443,0.,0.64278761));
#1340=DIRECTION('',(-0.,-1.,0.));
#1341=AXIS2_PLACEMENT_3D('',#1338,#1339,#1340);
#1342=CIRCLE('',#1341,4.5);
#1343=EDGE_CURVE('',#1335,#1337,#1342,.T.);
#1344=ORIENTED_EDGE('',*,*,#1343,.F.);
#1345=CARTESIAN_POINT('',(0.863297667,-3.741657387,131.908591448));
#1346=DIRECTION('',(0.,-1.,0.));
#1347=VECTOR('',#1346,0.588469632);
#1348=LINE('',#1345,#1347);
#1349=EDGE_CURVE('',#1335,#1303,#1348,.T.);
#1350=ORIENTED_EDGE('',*,*,#1349,.T.);
#1351=ORIENTED_EDGE('',*,*,#1324,.T.);
#1352=CARTESIAN_POINT('',(4.077235715,-4.330127019,128.078369232));
#1353=DIRECTION('',(0.,1.,0.));
#1354=VECTOR('',#1353,0.588469632);
#1355=LINE('',#1352,#1354);
#1356=EDGE_CURVE('',#1312,#1337,#1355,.T.);
#1357=ORIENTED_EDGE('',*,*,#1356,.T.);
#1358=EDGE_LOOP('',(#1344,#1350,#1351,#1357));
#1359=FACE_BOUND('',#1358,.T.);
#1360=ADVANCED_FACE('',(#1359),#1333,.T.);
#1361=CARTESIAN_POINT('',(2.048942247,0.,129.639947154));
#1362=DIRECTION('',(0.766044443,0.,0.64278761));
#1363=DIRECTION('',(0.64278761,0.,-0.766044443));
#1364=AXIS2_PLACEMENT_3D('',#1361,#1362,#1363);
#1365=CYLINDRICAL_SURFACE('',#1364,4.5);
#1366=CARTESIAN_POINT('',(0.441973223,-3.741657387,131.555058262));
#1367=VERTEX_POINT('',#1366);
#1368=CARTESIAN_POINT('',(0.863297667,-3.741657387,131.908591448));
#1369=DIRECTION('',(-0.766044443,-0.,-0.64278761));
#1370=VECTOR('',#1369,0.55);
#1371=LINE('',#1368,#1370);
#1372=EDGE_CURVE('',#1335,#1367,#1371,.T.);
#1373=ORIENTED_EDGE('',*,*,#1372,.F.);
#1374=ORIENTED_EDGE('',*,*,#1343,.T.);
#1375=CARTESIAN_POINT('',(3.655911271,-3.741657387,127.724836047));
#1376=VERTEX_POINT('',#1375);
#1377=CARTESIAN_POINT('',(3.655911271,-3.741657387,127.724836047));
#1378=DIRECTION('',(0.766044443,0.,0.64278761));
#1379=VECTOR('',#1378,0.55);
#1380=LINE('',#1377,#1379);
#1381=EDGE_CURVE('',#1376,#1337,#1380,.T.);
#1382=ORIENTED_EDGE('',*,*,#1381,.F.);
#1383=CARTESIAN_POINT('',(2.048942247,0.,129.639947154));
#1384=DIRECTION('',(0.766044443,0.,0.64278761));
#1385=DIRECTION('',(-0.,-1.,0.));
#1386=AXIS2_PLACEMENT_3D('',#1383,#1384,#1385);
#1387=CIRCLE('',#1386,4.5);
#1388=EDGE_CURVE('',#1367,#1376,#1387,.T.);
#1389=ORIENTED_EDGE('',*,*,#1388,.F.);
#1390=EDGE_LOOP('',(#1373,#1374,#1382,#1389));
#1391=FACE_BOUND('',#1390,.T.);
#1392=ADVANCED_FACE('',(#1391),#1365,.F.);
#1393=CARTESIAN_POINT('',(2.048942247,0.,129.639947154));
#1394=DIRECTION('',(0.766044443,0.,0.64278761));
#1395=DIRECTION('',(0.,-1.,0.));
#1396=AXIS2_PLACEMENT_3D('',#1393,#1394,#1395);
#1397=PLANE('',#1396);
#1398=CARTESIAN_POINT('',(0.441973223,-3.122498999,131.555058262));
#1399=VERTEX_POINT('',#1398);
#1400=CARTESIAN_POINT('',(3.655911271,-3.122498999,127.724836047));
#1401=VERTEX_POINT('',#1400);
#1402=CARTESIAN_POINT('',(2.048942247,0.,129.639947154));
#1403=DIRECTION('',(0.766044443,0.,0.64278761));
#1404=DIRECTION('',(-0.,-1.,0.));
#1405=AXIS2_PLACEMENT_3D('',#1402,#1403,#1404);
#1406=CIRCLE('',#1405,4.);
#1407=EDGE_CURVE('',#1399,#1401,#1406,.T.);
#1408=ORIENTED_EDGE('',*,*,#1407,.F.);
#1409=CARTESIAN_POINT('',(0.441973223,-3.122498999,131.555058262));
#1410=DIRECTION('',(0.,-1.,0.));
#1411=VECTOR('',#1410,0.619158388);
#1412=LINE('',#1409,#1411);
#1413=EDGE_CURVE('',#1399,#1367,#1412,.T.);
#1414=ORIENTED_EDGE('',*,*,#1413,.T.);
#1415=ORIENTED_EDGE('',*,*,#1388,.T.);
#1416=CARTESIAN_POINT('',(3.655911271,-3.741657387,127.724836047));
#1417=DIRECTION('',(0.,1.,0.));
#1418=VECTOR('',#1417,0.619158388);
#1419=LINE('',#1416,#1418);
#1420=EDGE_CURVE('',#1376,#1401,#1419,.T.);
#1421=ORIENTED_EDGE('',*,*,#1420,.T.);
#1422=EDGE_LOOP('',(#1408,#1414,#1415,#1421));
#1423=FACE_BOUND('',#1422,.T.);
#1424=ADVANCED_FACE('',(#1423),#1397,.T.);
#1425=CARTESIAN_POINT('',(1.627617804,0.,129.286413969));
#1426=DIRECTION('',(0.766044443,0.,0.64278761));
#1427=DIRECTION('',(0.64278761,0.,-0.766044443));
#1428=AXIS2_PLACEMENT_3D('',#1425,#1426,#1427);
#1429=CYLINDRICAL_SURFACE('',#1428,4.);
#1430=CARTESIAN_POINT('',(0.441973223,-3.122498999,131.555058262));
#1431=DIRECTION('',(-0.766044443,-0.,-0.64278761));
#1432=VECTOR('',#1431,0.55);
#1433=LINE('',#1430,#1432);
#1434=EDGE_CURVE('',#1399,#1149,#1433,.T.);
#1435=ORIENTED_EDGE('',*,*,#1434,.F.);
#1436=ORIENTED_EDGE('',*,*,#1407,.T.);
#1437=CARTESIAN_POINT('',(3.234586828,-3.122498999,127.371302861));
#1438=DIRECTION('',(0.766044443,0.,0.64278761));
#1439=VECTOR('',#1438,0.55);
#1440=LINE('',#1437,#1439);
#1441=EDGE_CURVE('',#1157,#1401,#1440,.T.);
#1442=ORIENTED_EDGE('',*,*,#1441,.F.);
#1443=ORIENTED_EDGE('',*,*,#1163,.F.);
#1444=EDGE_LOOP('',(#1435,#1436,#1442,#1443));
#1445=FACE_BOUND('',#1444,.T.);
#1446=ADVANCED_FACE('',(#1445),#1429,.F.);
#1447=CARTESIAN_POINT('',(-0.400675664,-4.25,130.847991892));
#1448=DIRECTION('',(-0.64278761,0.,0.766044443));
#1449=DIRECTION('',(0.766044443,0.,0.64278761));
#1450=AXIS2_PLACEMENT_3D('',#1447,#1448,#1449);
#1451=PLANE('',#1450);
#1452=CARTESIAN_POINT('',(-0.400675664,-2.5,130.847991892));
#1453=VERTEX_POINT('',#1452);
#1454=CARTESIAN_POINT('',(-0.400675664,-2.5,130.847991892));
#1455=DIRECTION('',(0.,-1.,0.));
#1456=VECTOR('',#1455,2.398979486);
#1457=LINE('',#1454,#1456);
#1458=EDGE_CURVE('',#1453,#1229,#1457,.T.);
#1459=ORIENTED_EDGE('',*,*,#1458,.T.);
#1460=ORIENTED_EDGE('',*,*,#1236,.T.);
#1461=ORIENTED_EDGE('',*,*,#1285,.F.);
#1462=ORIENTED_EDGE('',*,*,#1308,.T.);
#1463=ORIENTED_EDGE('',*,*,#1349,.F.);
#1464=ORIENTED_EDGE('',*,*,#1372,.T.);
#1465=ORIENTED_EDGE('',*,*,#1413,.F.);
#1466=ORIENTED_EDGE('',*,*,#1434,.T.);
#1467=ORIENTED_EDGE('',*,*,#1154,.F.);
#1468=CARTESIAN_POINT('',(-0.400675664,-2.5,130.847991892));
#1469=DIRECTION('',(0.766044443,0.,0.64278761));
#1470=VECTOR('',#1469,0.55);
#1471=LINE('',#1468,#1470);
#1472=EDGE_CURVE('',#1453,#1139,#1471,.T.);
#1473=ORIENTED_EDGE('',*,*,#1472,.F.);
#1474=EDGE_LOOP('',(#1459,#1460,#1461,#1462,#1463,#1464,#1465,#1466,#1467,#1473));
#1475=FACE_BOUND('',#1474,.T.);
#1476=ADVANCED_FACE('',(#1475),#1451,.T.);
#1477=CARTESIAN_POINT('',(2.813262384,-4.25,127.017769676));
#1478=DIRECTION('',(0.64278761,0.,-0.766044443));
#1479=DIRECTION('',(-0.766044443,0.,-0.64278761));
#1480=AXIS2_PLACEMENT_3D('',#1477,#1478,#1479);
#1481=PLANE('',#1480);
#1482=ORIENTED_EDGE('',*,*,#1292,.F.);
#1483=ORIENTED_EDGE('',*,*,#1253,.T.);
#1484=CARTESIAN_POINT('',(2.813262384,-2.5,127.017769676));
#1485=VERTEX_POINT('',#1484);
#1486=CARTESIAN_POINT('',(2.813262384,-4.898979486,127.017769676));
#1487=DIRECTION('',(0.,1.,0.));
#1488=VECTOR('',#1487,2.398979486);
#1489=LINE('',#1486,#1488);
#1490=EDGE_CURVE('',#1239,#1485,#1489,.T.);
#1491=ORIENTED_EDGE('',*,*,#1490,.T.);
#1492=CARTESIAN_POINT('',(2.813262384,-2.5,127.017769676));
#1493=DIRECTION('',(0.766044443,0.,0.64278761));
#1494=VECTOR('',#1493,0.55);
#1495=LINE('',#1492,#1494);
#1496=EDGE_CURVE('',#1485,#1166,#1495,.T.);
#1497=ORIENTED_EDGE('',*,*,#1496,.T.);
#1498=ORIENTED_EDGE('',*,*,#1171,.F.);
#1499=ORIENTED_EDGE('',*,*,#1441,.T.);
#1500=ORIENTED_EDGE('',*,*,#1420,.F.);
#1501=ORIENTED_EDGE('',*,*,#1381,.T.);
#1502=ORIENTED_EDGE('',*,*,#1356,.F.);
#1503=ORIENTED_EDGE('',*,*,#1317,.T.);
#1504=EDGE_LOOP('',(#1482,#1483,#1491,#1497,#1498,#1499,#1500,#1501,#1502,#1503));
#1505=FACE_BOUND('',#1504,.T.);
#1506=ADVANCED_FACE('',(#1505),#1481,.T.);
#1507=CARTESIAN_POINT('',(1.20629336,0.,128.932880784));
#1508=DIRECTION('',(0.766044443,0.,0.64278761));
#1509=DIRECTION('',(0.,-1.,0.));
#1510=AXIS2_PLACEMENT_3D('',#1507,#1508,#1509);
#1511=PLANE('',#1510);
#1512=CARTESIAN_POINT('',(-0.400675664,-2.5,130.847991892));
#1513=DIRECTION('',(0.64278761,0.,-0.766044443));
#1514=VECTOR('',#1513,0.050510257);
#1515=LINE('',#1512,#1514);
#1516=EDGE_CURVE('',#1453,#1206,#1515,.T.);
#1517=ORIENTED_EDGE('',*,*,#1516,.T.);
#1518=ORIENTED_EDGE('',*,*,#1212,.T.);
#1519=CARTESIAN_POINT('',(2.780795017,-2.5,127.056462778));
#1520=DIRECTION('',(0.64278761,0.,-0.766044443));
#1521=VECTOR('',#1520,0.050510257);
#1522=LINE('',#1519,#1521);
#1523=EDGE_CURVE('',#1198,#1485,#1522,.T.);
#1524=ORIENTED_EDGE('',*,*,#1523,.T.);
#1525=ORIENTED_EDGE('',*,*,#1490,.F.);
#1526=ORIENTED_EDGE('',*,*,#1245,.F.);
#1527=ORIENTED_EDGE('',*,*,#1458,.F.);
#1528=EDGE_LOOP('',(#1517,#1518,#1524,#1525,#1526,#1527));
#1529=FACE_BOUND('',#1528,.T.);
#1530=ADVANCED_FACE('',(#1529),#1511,.F.);
#1531=CARTESIAN_POINT('',(1.20629336,-2.5,128.932880784));
#1532=DIRECTION('',(0.,-1.,-0.));
#1533=DIRECTION('',(0.64278761,0.,-0.766044443));
#1534=AXIS2_PLACEMENT_3D('',#1531,#1532,#1533);
#1535=PLANE('',#1534);
#1536=ORIENTED_EDGE('',*,*,#1203,.F.);
#1537=ORIENTED_EDGE('',*,*,#1179,.T.);
#1538=ORIENTED_EDGE('',*,*,#1496,.F.);
#1539=ORIENTED_EDGE('',*,*,#1523,.F.);
#1540=EDGE_LOOP('',(#1536,#1537,#1538,#1539));
#1541=FACE_BOUND('',#1540,.T.);
#1542=ADVANCED_FACE('',(#1541),#1535,.F.);
#1543=CARTESIAN_POINT('',(1.20629336,-2.5,128.932880784));
#1544=DIRECTION('',(0.,-1.,-0.));
#1545=DIRECTION('',(0.64278761,0.,-0.766044443));
#1546=AXIS2_PLACEMENT_3D('',#1543,#1544,#1545);
#1547=PLANE('',#1546);
#1548=ORIENTED_EDGE('',*,*,#1472,.T.);
#1549=ORIENTED_EDGE('',*,*,#1146,.T.);
#1550=ORIENTED_EDGE('',*,*,#1218,.F.);
#1551=ORIENTED_EDGE('',*,*,#1516,.F.);
#1552=EDGE_LOOP('',(#1548,#1549,#1550,#1551));
#1553=FACE_BOUND('',#1552,.T.);
#1554=ADVANCED_FACE('',(#1553),#1547,.F.);
#1555=CLOSED_SHELL('',(#1190,#1222,#1264,#1296,#1328,#1360,#1392,#1424,#1446,#1476,#1506,#1530,#1542,#1554));
#1556=MANIFOLD_SOLID_BREP('Corps 24',#1555);
#1132=STYLED_ITEM('',(#566),#1556);
#1558=CARTESIAN_POINT('',(1.20629336,0.,128.932880784));
#1559=DIRECTION('',(0.766044443,0.,0.64278761));
#1560=DIRECTION('',(0.64278761,0.,-0.766044443));
#1561=AXIS2_PLACEMENT_3D('',#1558,#1559,#1560);
#1562=CYLINDRICAL_SURFACE('',#1561,3.5);
#1563=CARTESIAN_POINT('',(0.020648779,2.449489743,131.201525077));
#1564=VERTEX_POINT('',#1563);
#1565=CARTESIAN_POINT('',(0.020648779,-2.449489743,131.201525077));
#1566=VERTEX_POINT('',#1565);
#1567=CARTESIAN_POINT('',(1.627617804,0.,129.286413969));
#1568=DIRECTION('',(0.766044443,-0.,0.64278761));
#1569=DIRECTION('',(-0.,-1.,0.));
#1570=AXIS2_PLACEMENT_3D('',#1567,#1568,#1569);
#1571=CIRCLE('',#1570,3.5);
#1572=EDGE_CURVE('',#1564,#1566,#1571,.T.);
#1573=ORIENTED_EDGE('',*,*,#1572,.T.);
#1574=CARTESIAN_POINT('',(-0.400675664,-2.449489743,130.847991892));
#1575=VERTEX_POINT('',#1574);
#1576=CARTESIAN_POINT('',(0.020648779,-2.449489743,131.201525077));
#1577=DIRECTION('',(-0.766044443,-0.,-0.64278761));
#1578=VECTOR('',#1577,0.55);
#1579=LINE('',#1576,#1578);
#1580=EDGE_CURVE('',#1566,#1575,#1579,.T.);
#1581=ORIENTED_EDGE('',*,*,#1580,.T.);
#1582=CARTESIAN_POINT('',(-0.400675664,2.449489743,130.847991892));
#1583=VERTEX_POINT('',#1582);
#1584=CARTESIAN_POINT('',(1.20629336,0.,128.932880784));
#1585=DIRECTION('',(0.766044443,-0.,0.64278761));
#1586=DIRECTION('',(-0.,-1.,0.));
#1587=AXIS2_PLACEMENT_3D('',#1584,#1585,#1586);
#1588=CIRCLE('',#1587,3.5);
#1589=EDGE_CURVE('',#1583,#1575,#1588,.T.);
#1590=ORIENTED_EDGE('',*,*,#1589,.F.);
#1591=CARTESIAN_POINT('',(-0.400675664,2.449489743,130.847991892));
#1592=DIRECTION('',(0.766044443,0.,0.64278761));
#1593=VECTOR('',#1592,0.55);
#1594=LINE('',#1591,#1593);
#1595=EDGE_CURVE('',#1583,#1564,#1594,.T.);
#1596=ORIENTED_EDGE('',*,*,#1595,.T.);
#1597=EDGE_LOOP('',(#1573,#1581,#1590,#1596));
#1598=FACE_BOUND('',#1597,.T.);
#1599=ADVANCED_FACE('',(#1598),#1562,.F.);
#1600=CARTESIAN_POINT('',(0.976480027,0.,128.740044501));
#1601=DIRECTION('',(-0.766044443,0.,-0.64278761));
#1602=DIRECTION('',(-0.64278761,0.,0.766044443));
#1603=AXIS2_PLACEMENT_3D('',#1600,#1601,#1602);
#1604=CYLINDRICAL_SURFACE('',#1603,5.5);
#1605=CARTESIAN_POINT('',(-2.329038493,0.,133.146125221));
#1606=VERTEX_POINT('',#1605);
#1607=CARTESIAN_POINT('',(-0.643740719,0.,134.560257962));
#1608=VERTEX_POINT('',#1607);
#1609=CARTESIAN_POINT('',(-2.329038493,0.,133.146125221));
#1610=DIRECTION('',(0.766044443,-0.,0.64278761));
#1611=VECTOR('',#1610,2.2);
#1612=LINE('',#1609,#1611);
#1613=EDGE_CURVE('',#1606,#1608,#1612,.T.);
#1614=ORIENTED_EDGE('',*,*,#1613,.T.);
#1615=CARTESIAN_POINT('',(-0.257412179,2.5,134.099849537));
#1616=VERTEX_POINT('',#1615);
#1617=CARTESIAN_POINT('',(2.891591135,0.,130.347013525));
#1618=DIRECTION('',(0.766044443,0.,0.64278761));
#1619=DIRECTION('',(0.64278761,0.,-0.766044443));
#1620=AXIS2_PLACEMENT_3D('',#1617,#1618,#1619);
#1621=CIRCLE('',#1620,5.5);
#1622=EDGE_CURVE('',#1616,#1608,#1621,.T.);
#1623=ORIENTED_EDGE('',*,*,#1622,.F.);
#1624=CARTESIAN_POINT('',(-1.942709954,2.5,132.685716796));
#1625=VERTEX_POINT('',#1624);
#1626=CARTESIAN_POINT('',(-1.942709954,2.5,132.685716796));
#1627=DIRECTION('',(0.766044443,-0.,0.64278761));
#1628=VECTOR('',#1627,2.2);
#1629=LINE('',#1626,#1628);
#1630=EDGE_CURVE('',#1625,#1616,#1629,.T.);
#1631=ORIENTED_EDGE('',*,*,#1630,.F.);
#1632=CARTESIAN_POINT('',(1.20629336,0.,128.932880784));
#1633=DIRECTION('',(0.766044443,0.,0.64278761));
#1634=DIRECTION('',(0.64278761,0.,-0.766044443));
#1635=AXIS2_PLACEMENT_3D('',#1632,#1633,#1634);
#1636=CIRCLE('',#1635,5.5);
#1637=EDGE_CURVE('',#1625,#1606,#1636,.T.);
#1638=ORIENTED_EDGE('',*,*,#1637,.T.);
#1639=EDGE_LOOP('',(#1614,#1623,#1631,#1638));
#1640=FACE_BOUND('',#1639,.T.);
#1641=ADVANCED_FACE('',(#1640),#1604,.T.);
#1642=CARTESIAN_POINT('',(2.891591135,0.,130.347013525));
#1643=DIRECTION('',(0.766044443,0.,0.64278761));
#1644=DIRECTION('',(0.64278761,0.,-0.766044443));
#1645=AXIS2_PLACEMENT_3D('',#1642,#1643,#1644);
#1646=PLANE('',#1645);
#1647=ORIENTED_EDGE('',*,*,#1622,.T.);
#1648=CARTESIAN_POINT('',(-0.257412179,-2.5,134.099849537));
#1649=VERTEX_POINT('',#1648);
#1650=CARTESIAN_POINT('',(2.891591135,0.,130.347013525));
#1651=DIRECTION('',(0.766044443,0.,0.64278761));
#1652=DIRECTION('',(0.64278761,0.,-0.766044443));
#1653=AXIS2_PLACEMENT_3D('',#1650,#1651,#1652);
#1654=CIRCLE('',#1653,5.5);
#1655=EDGE_CURVE('',#1608,#1649,#1654,.T.);
#1656=ORIENTED_EDGE('',*,*,#1655,.T.);
#1657=CARTESIAN_POINT('',(0.108239139,-2.5,133.664083266));
#1658=VERTEX_POINT('',#1657);
#1659=CARTESIAN_POINT('',(-0.257412179,-2.5,134.099849537));
#1660=DIRECTION('',(0.64278761,0.,-0.766044443));
#1661=VECTOR('',#1660,0.568852467);
#1662=LINE('',#1659,#1661);
#1663=EDGE_CURVE('',#1649,#1658,#1662,.T.);
#1664=ORIENTED_EDGE('',*,*,#1663,.T.);
#1665=CARTESIAN_POINT('',(0.108239139,2.5,133.664083266));
#1666=VERTEX_POINT('',#1665);
#1667=CARTESIAN_POINT('',(2.891591135,0.,130.347013525));
#1668=DIRECTION('',(0.766044443,0.,0.64278761));
#1669=DIRECTION('',(-0.,-1.,0.));
#1670=AXIS2_PLACEMENT_3D('',#1667,#1668,#1669);
#1671=CIRCLE('',#1670,5.);
#1672=EDGE_CURVE('',#1666,#1658,#1671,.T.);
#1673=ORIENTED_EDGE('',*,*,#1672,.F.);
#1674=CARTESIAN_POINT('',(0.108239139,2.5,133.664083266));
#1675=DIRECTION('',(-0.64278761,-0.,0.766044443));
#1676=VECTOR('',#1675,0.568852467);
#1677=LINE('',#1674,#1676);
#1678=EDGE_CURVE('',#1666,#1616,#1677,.T.);
#1679=ORIENTED_EDGE('',*,*,#1678,.T.);
#1680=EDGE_LOOP('',(#1647,#1656,#1664,#1673,#1679));
#1681=FACE_BOUND('',#1680,.T.);
#1682=ADVANCED_FACE('',(#1681),#1646,.T.);
#1683=CARTESIAN_POINT('',(2.470266691,0.,129.99348034));
#1684=DIRECTION('',(0.766044443,0.,0.64278761));
#1685=DIRECTION('',(0.64278761,0.,-0.766044443));
#1686=AXIS2_PLACEMENT_3D('',#1683,#1684,#1685);
#1687=CYLINDRICAL_SURFACE('',#1686,5.);
#1688=CARTESIAN_POINT('',(-0.313085305,-2.5,133.310550081));
#1689=VERTEX_POINT('',#1688);
#1690=CARTESIAN_POINT('',(-0.313085305,-2.5,133.310550081));
#1691=DIRECTION('',(0.766044443,0.,0.64278761));
#1692=VECTOR('',#1691,0.55);
#1693=LINE('',#1690,#1692);
#1694=EDGE_CURVE('',#1689,#1658,#1693,.T.);
#1695=ORIENTED_EDGE('',*,*,#1694,.F.);
#1696=CARTESIAN_POINT('',(-0.313085305,2.5,133.310550081));
#1697=VERTEX_POINT('',#1696);
#1698=CARTESIAN_POINT('',(2.470266691,0.,129.99348034));
#1699=DIRECTION('',(0.766044443,0.,0.64278761));
#1700=DIRECTION('',(-0.,-1.,0.));
#1701=AXIS2_PLACEMENT_3D('',#1698,#1699,#1700);
#1702=CIRCLE('',#1701,5.);
#1703=EDGE_CURVE('',#1697,#1689,#1702,.T.);
#1704=ORIENTED_EDGE('',*,*,#1703,.F.);
#1705=CARTESIAN_POINT('',(0.108239139,2.5,133.664083266));
#1706=DIRECTION('',(-0.766044443,-0.,-0.64278761));
#1707=VECTOR('',#1706,0.55);
#1708=LINE('',#1705,#1707);
#1709=EDGE_CURVE('',#1666,#1697,#1708,.T.);
#1710=ORIENTED_EDGE('',*,*,#1709,.F.);
#1711=ORIENTED_EDGE('',*,*,#1672,.T.);
#1712=EDGE_LOOP('',(#1695,#1704,#1710,#1711));
#1713=FACE_BOUND('',#1712,.T.);
#1714=ADVANCED_FACE('',(#1713),#1687,.F.);
#1715=CARTESIAN_POINT('',(2.470266691,0.,129.99348034));
#1716=DIRECTION('',(0.766044443,0.,0.64278761));
#1717=DIRECTION('',(0.,-1.,0.));
#1718=AXIS2_PLACEMENT_3D('',#1715,#1716,#1717);
#1719=PLANE('',#1718);
#1720=ORIENTED_EDGE('',*,*,#1703,.T.);
#1721=CARTESIAN_POINT('',(0.065175683,-2.5,132.859756189));
#1722=VERTEX_POINT('',#1721);
#1723=CARTESIAN_POINT('',(-0.313085305,-2.5,133.310550081));
#1724=DIRECTION('',(0.64278761,0.,-0.766044443));
#1725=VECTOR('',#1724,0.588469632);
#1726=LINE('',#1723,#1725);
#1727=EDGE_CURVE('',#1689,#1722,#1726,.T.);
#1728=ORIENTED_EDGE('',*,*,#1727,.T.);
#1729=CARTESIAN_POINT('',(0.065175683,2.5,132.859756189));
#1730=VERTEX_POINT('',#1729);
#1731=CARTESIAN_POINT('',(2.470266691,0.,129.99348034));
#1732=DIRECTION('',(0.766044443,0.,0.64278761));
#1733=DIRECTION('',(-0.,-1.,0.));
#1734=AXIS2_PLACEMENT_3D('',#1731,#1732,#1733);
#1735=CIRCLE('',#1734,4.5);
#1736=EDGE_CURVE('',#1730,#1722,#1735,.T.);
#1737=ORIENTED_EDGE('',*,*,#1736,.F.);
#1738=CARTESIAN_POINT('',(0.065175683,2.5,132.859756189));
#1739=DIRECTION('',(-0.64278761,-0.,0.766044443));
#1740=VECTOR('',#1739,0.588469632);
#1741=LINE('',#1738,#1740);
#1742=EDGE_CURVE('',#1730,#1697,#1741,.T.);
#1743=ORIENTED_EDGE('',*,*,#1742,.T.);
#1744=EDGE_LOOP('',(#1720,#1728,#1737,#1743));
#1745=FACE_BOUND('',#1744,.T.);
#1746=ADVANCED_FACE('',(#1745),#1719,.T.);
#1747=CARTESIAN_POINT('',(2.048942247,0.,129.639947154));
#1748=DIRECTION('',(0.766044443,0.,0.64278761));
#1749=DIRECTION('',(0.64278761,0.,-0.766044443));
#1750=AXIS2_PLACEMENT_3D('',#1747,#1748,#1749);
#1751=CYLINDRICAL_SURFACE('',#1750,4.5);
#1752=CARTESIAN_POINT('',(-0.356148761,-2.5,132.506223004));
#1753=VERTEX_POINT('',#1752);
#1754=CARTESIAN_POINT('',(-0.356148761,-2.5,132.506223004));
#1755=DIRECTION('',(0.766044443,0.,0.64278761));
#1756=VECTOR('',#1755,0.55);
#1757=LINE('',#1754,#1756);
#1758=EDGE_CURVE('',#1753,#1722,#1757,.T.);
#1759=ORIENTED_EDGE('',*,*,#1758,.F.);
#1760=CARTESIAN_POINT('',(-0.356148761,2.5,132.506223004));
#1761=VERTEX_POINT('',#1760);
#1762=CARTESIAN_POINT('',(2.048942247,0.,129.639947154));
#1763=DIRECTION('',(0.766044443,0.,0.64278761));
#1764=DIRECTION('',(-0.,-1.,0.));
#1765=AXIS2_PLACEMENT_3D('',#1762,#1763,#1764);
#1766=CIRCLE('',#1765,4.5);
#1767=EDGE_CURVE('',#1761,#1753,#1766,.T.);
#1768=ORIENTED_EDGE('',*,*,#1767,.F.);
#1769=CARTESIAN_POINT('',(0.065175683,2.5,132.859756189));
#1770=DIRECTION('',(-0.766044443,-0.,-0.64278761));
#1771=VECTOR('',#1770,0.55);
#1772=LINE('',#1769,#1771);
#1773=EDGE_CURVE('',#1730,#1761,#1772,.T.);
#1774=ORIENTED_EDGE('',*,*,#1773,.F.);
#1775=ORIENTED_EDGE('',*,*,#1736,.T.);
#1776=EDGE_LOOP('',(#1759,#1768,#1774,#1775));
#1777=FACE_BOUND('',#1776,.T.);
#1778=ADVANCED_FACE('',(#1777),#1751,.F.);
#1779=CARTESIAN_POINT('',(2.048942247,0.,129.639947154));
#1780=DIRECTION('',(0.766044443,0.,0.64278761));
#1781=DIRECTION('',(0.,-1.,0.));
#1782=AXIS2_PLACEMENT_3D('',#1779,#1780,#1781);
#1783=PLANE('',#1782);
#1784=ORIENTED_EDGE('',*,*,#1767,.T.);
#1785=CARTESIAN_POINT('',(0.041838579,-2.5,132.031920161));
#1786=VERTEX_POINT('',#1785);
#1787=CARTESIAN_POINT('',(-0.356148761,-2.5,132.506223004));
#1788=DIRECTION('',(0.64278761,0.,-0.766044443));
#1789=VECTOR('',#1788,0.619158388);
#1790=LINE('',#1787,#1789);
#1791=EDGE_CURVE('',#1753,#1786,#1790,.T.);
#1792=ORIENTED_EDGE('',*,*,#1791,.T.);
#1793=CARTESIAN_POINT('',(0.041838579,2.5,132.031920161));
#1794=VERTEX_POINT('',#1793);
#1795=CARTESIAN_POINT('',(2.048942247,0.,129.639947154));
#1796=DIRECTION('',(0.766044443,0.,0.64278761));
#1797=DIRECTION('',(-0.,-1.,0.));
#1798=AXIS2_PLACEMENT_3D('',#1795,#1796,#1797);
#1799=CIRCLE('',#1798,4.);
#1800=EDGE_CURVE('',#1794,#1786,#1799,.T.);
#1801=ORIENTED_EDGE('',*,*,#1800,.F.);
#1802=CARTESIAN_POINT('',(0.041838579,2.5,132.031920161));
#1803=DIRECTION('',(-0.64278761,-0.,0.766044443));
#1804=VECTOR('',#1803,0.619158388);
#1805=LINE('',#1802,#1804);
#1806=EDGE_CURVE('',#1794,#1761,#1805,.T.);
#1807=ORIENTED_EDGE('',*,*,#1806,.T.);
#1808=EDGE_LOOP('',(#1784,#1792,#1801,#1807));
#1809=FACE_BOUND('',#1808,.T.);
#1810=ADVANCED_FACE('',(#1809),#1783,.T.);
#1811=CARTESIAN_POINT('',(1.627617804,0.,129.286413969));
#1812=DIRECTION('',(0.766044443,0.,0.64278761));
#1813=DIRECTION('',(0.64278761,0.,-0.766044443));
#1814=AXIS2_PLACEMENT_3D('',#1811,#1812,#1813);
#1815=CYLINDRICAL_SURFACE('',#1814,4.);
#1816=CARTESIAN_POINT('',(-0.379485864,-2.5,131.678386976));
#1817=VERTEX_POINT('',#1816);
#1818=CARTESIAN_POINT('',(-0.379485864,-2.5,131.678386976));
#1819=DIRECTION('',(0.766044443,0.,0.64278761));
#1820=VECTOR('',#1819,0.55);
#1821=LINE('',#1818,#1820);
#1822=EDGE_CURVE('',#1817,#1786,#1821,.T.);
#1823=ORIENTED_EDGE('',*,*,#1822,.F.);
#1824=CARTESIAN_POINT('',(-0.379485864,2.5,131.678386976));
#1825=VERTEX_POINT('',#1824);
#1826=CARTESIAN_POINT('',(1.627617804,0.,129.286413969));
#1827=DIRECTION('',(0.766044443,0.,0.64278761));
#1828=DIRECTION('',(-0.,-1.,0.));
#1829=AXIS2_PLACEMENT_3D('',#1826,#1827,#1828);
#1830=CIRCLE('',#1829,4.);
#1831=EDGE_CURVE('',#1825,#1817,#1830,.T.);
#1832=ORIENTED_EDGE('',*,*,#1831,.F.);
#1833=CARTESIAN_POINT('',(0.041838579,2.5,132.031920161));
#1834=DIRECTION('',(-0.766044443,-0.,-0.64278761));
#1835=VECTOR('',#1834,0.55);
#1836=LINE('',#1833,#1835);
#1837=EDGE_CURVE('',#1794,#1825,#1836,.T.);
#1838=ORIENTED_EDGE('',*,*,#1837,.F.);
#1839=ORIENTED_EDGE('',*,*,#1800,.T.);
#1840=EDGE_LOOP('',(#1823,#1832,#1838,#1839));
#1841=FACE_BOUND('',#1840,.T.);
#1842=ADVANCED_FACE('',(#1841),#1815,.F.);
#1843=CARTESIAN_POINT('',(1.627617804,0.,129.286413969));
#1844=DIRECTION('',(0.766044443,0.,0.64278761));
#1845=DIRECTION('',(0.,-1.,0.));
#1846=AXIS2_PLACEMENT_3D('',#1843,#1844,#1845);
#1847=PLANE('',#1846);
#1848=ORIENTED_EDGE('',*,*,#1831,.T.);
#1849=CARTESIAN_POINT('',(0.020648779,-2.5,131.201525077));
#1850=VERTEX_POINT('',#1849);
#1851=CARTESIAN_POINT('',(-0.379485864,-2.5,131.678386976));
#1852=DIRECTION('',(0.64278761,0.,-0.766044443));
#1853=VECTOR('',#1852,0.622498999);
#1854=LINE('',#1851,#1853);
#1855=EDGE_CURVE('',#1817,#1850,#1854,.T.);
#1856=ORIENTED_EDGE('',*,*,#1855,.T.);
#1857=CARTESIAN_POINT('',(0.020648779,-2.449489743,131.201525077));
#1858=DIRECTION('',(0.,-1.,0.));
#1859=VECTOR('',#1858,0.050510257);
#1860=LINE('',#1857,#1859);
#1861=EDGE_CURVE('',#1566,#1850,#1860,.T.);
#1862=ORIENTED_EDGE('',*,*,#1861,.F.);
#1863=ORIENTED_EDGE('',*,*,#1572,.F.);
#1864=CARTESIAN_POINT('',(0.020648779,2.5,131.201525077));
#1865=VERTEX_POINT('',#1864);
#1866=CARTESIAN_POINT('',(0.020648779,2.5,131.201525077));
#1867=DIRECTION('',(0.,-1.,0.));
#1868=VECTOR('',#1867,0.050510257);
#1869=LINE('',#1866,#1868);
#1870=EDGE_CURVE('',#1865,#1564,#1869,.T.);
#1871=ORIENTED_EDGE('',*,*,#1870,.F.);
#1872=CARTESIAN_POINT('',(0.020648779,2.5,131.201525077));
#1873=DIRECTION('',(-0.64278761,-0.,0.766044443));
#1874=VECTOR('',#1873,0.622498999);
#1875=LINE('',#1872,#1874);
#1876=EDGE_CURVE('',#1865,#1825,#1875,.T.);
#1877=ORIENTED_EDGE('',*,*,#1876,.T.);
#1878=EDGE_LOOP('',(#1848,#1856,#1862,#1863,#1871,#1877));
#1879=FACE_BOUND('',#1878,.T.);
#1880=ADVANCED_FACE('',(#1879),#1847,.T.);
#1881=CARTESIAN_POINT('',(-1.525553981,-2.5,132.188569667));
#1882=DIRECTION('',(0.,-1.,-0.));
#1883=DIRECTION('',(0.64278761,0.,-0.766044443));
#1884=AXIS2_PLACEMENT_3D('',#1881,#1882,#1883);
#1885=PLANE('',#1884);
#1886=ORIENTED_EDGE('',*,*,#1663,.F.);
#1887=CARTESIAN_POINT('',(-1.942709954,-2.5,132.685716796));
#1888=VERTEX_POINT('',#1887);
#1889=CARTESIAN_POINT('',(-0.257412179,-2.5,134.099849537));
#1890=DIRECTION('',(-0.766044443,0.,-0.64278761));
#1891=VECTOR('',#1890,2.2);
#1892=LINE('',#1889,#1891);
#1893=EDGE_CURVE('',#1649,#1888,#1892,.T.);
#1894=ORIENTED_EDGE('',*,*,#1893,.T.);
#1895=CARTESIAN_POINT('',(-0.400675664,-2.5,130.847991892));
#1896=VERTEX_POINT('',#1895);
#1897=CARTESIAN_POINT('',(-1.942709954,-2.5,132.685716796));
#1898=DIRECTION('',(0.64278761,0.,-0.766044443));
#1899=VECTOR('',#1898,2.398979486);
#1900=LINE('',#1897,#1899);
#1901=EDGE_CURVE('',#1888,#1896,#1900,.T.);
#1902=ORIENTED_EDGE('',*,*,#1901,.T.);
#1903=CARTESIAN_POINT('',(-0.400675664,-2.5,130.847991892));
#1904=DIRECTION('',(0.766044443,0.,0.64278761));
#1905=VECTOR('',#1904,0.55);
#1906=LINE('',#1903,#1905);
#1907=EDGE_CURVE('',#1896,#1850,#1906,.T.);
#1908=ORIENTED_EDGE('',*,*,#1907,.T.);
#1909=ORIENTED_EDGE('',*,*,#1855,.F.);
#1910=ORIENTED_EDGE('',*,*,#1822,.T.);
#1911=ORIENTED_EDGE('',*,*,#1791,.F.);
#1912=ORIENTED_EDGE('',*,*,#1758,.T.);
#1913=ORIENTED_EDGE('',*,*,#1727,.F.);
#1914=ORIENTED_EDGE('',*,*,#1694,.T.);
#1915=EDGE_LOOP('',(#1886,#1894,#1902,#1908,#1909,#1910,#1911,#1912,#1913,#1914));
#1916=FACE_BOUND('',#1915,.T.);
#1917=ADVANCED_FACE('',(#1916),#1885,.T.);
#1918=CARTESIAN_POINT('',(-1.525553981,2.5,132.188569667));
#1919=DIRECTION('',(-0.,1.,0.));
#1920=DIRECTION('',(-0.64278761,-0.,0.766044443));
#1921=AXIS2_PLACEMENT_3D('',#1918,#1919,#1920);
#1922=PLANE('',#1921);
#1923=CARTESIAN_POINT('',(-0.400675664,2.5,130.847991892));
#1924=VERTEX_POINT('',#1923);
#1925=CARTESIAN_POINT('',(-0.400675664,2.5,130.847991892));
#1926=DIRECTION('',(-0.64278761,-0.,0.766044443));
#1927=VECTOR('',#1926,2.398979486);
#1928=LINE('',#1925,#1927);
#1929=EDGE_CURVE('',#1924,#1625,#1928,.T.);
#1930=ORIENTED_EDGE('',*,*,#1929,.T.);
#1931=ORIENTED_EDGE('',*,*,#1630,.T.);
#1932=ORIENTED_EDGE('',*,*,#1678,.F.);
#1933=ORIENTED_EDGE('',*,*,#1709,.T.);
#1934=ORIENTED_EDGE('',*,*,#1742,.F.);
#1935=ORIENTED_EDGE('',*,*,#1773,.T.);
#1936=ORIENTED_EDGE('',*,*,#1806,.F.);
#1937=ORIENTED_EDGE('',*,*,#1837,.T.);
#1938=ORIENTED_EDGE('',*,*,#1876,.F.);
#1939=CARTESIAN_POINT('',(-0.400675664,2.5,130.847991892));
#1940=DIRECTION('',(0.766044443,0.,0.64278761));
#1941=VECTOR('',#1940,0.55);
#1942=LINE('',#1939,#1941);
#1943=EDGE_CURVE('',#1924,#1865,#1942,.T.);
#1944=ORIENTED_EDGE('',*,*,#1943,.F.);
#1945=EDGE_LOOP('',(#1930,#1931,#1932,#1933,#1934,#1935,#1936,#1937,#1938,#1944));
#1946=FACE_BOUND('',#1945,.T.);
#1947=ADVANCED_FACE('',(#1946),#1922,.T.);
#1948=CARTESIAN_POINT('',(1.20629336,0.,128.932880784));
#1949=DIRECTION('',(0.766044443,0.,0.64278761));
#1950=DIRECTION('',(0.,-1.,0.));
#1951=AXIS2_PLACEMENT_3D('',#1948,#1949,#1950);
#1952=PLANE('',#1951);
#1953=CARTESIAN_POINT('',(-0.400675664,2.5,130.847991892));
#1954=DIRECTION('',(0.,-1.,0.));
#1955=VECTOR('',#1954,0.050510257);
#1956=LINE('',#1953,#1955);
#1957=EDGE_CURVE('',#1924,#1583,#1956,.T.);
#1958=ORIENTED_EDGE('',*,*,#1957,.T.);
#1959=ORIENTED_EDGE('',*,*,#1589,.T.);
#1960=CARTESIAN_POINT('',(-0.400675664,-2.449489743,130.847991892));
#1961=DIRECTION('',(0.,-1.,0.));
#1962=VECTOR('',#1961,0.050510257);
#1963=LINE('',#1960,#1962);
#1964=EDGE_CURVE('',#1575,#1896,#1963,.T.);
#1965=ORIENTED_EDGE('',*,*,#1964,.T.);
#1966=ORIENTED_EDGE('',*,*,#1901,.F.);
#1967=CARTESIAN_POINT('',(1.20629336,0.,128.932880784));
#1968=DIRECTION('',(0.766044443,0.,0.64278761));
#1969=DIRECTION('',(0.64278761,0.,-0.766044443));
#1970=AXIS2_PLACEMENT_3D('',#1967,#1968,#1969);
#1971=CIRCLE('',#1970,5.5);
#1972=EDGE_CURVE('',#1606,#1888,#1971,.T.);
#1973=ORIENTED_EDGE('',*,*,#1972,.F.);
#1974=ORIENTED_EDGE('',*,*,#1637,.F.);
#1975=ORIENTED_EDGE('',*,*,#1929,.F.);
#1976=EDGE_LOOP('',(#1958,#1959,#1965,#1966,#1973,#1974,#1975));
#1977=FACE_BOUND('',#1976,.T.);
#1978=ADVANCED_FACE('',(#1977),#1952,.F.);
#1979=CARTESIAN_POINT('',(-0.400675664,0.,130.847991892));
#1980=DIRECTION('',(-0.64278761,0.,0.766044443));
#1981=DIRECTION('',(0.766044443,0.,0.64278761));
#1982=AXIS2_PLACEMENT_3D('',#1979,#1980,#1981);
#1983=PLANE('',#1982);
#1984=ORIENTED_EDGE('',*,*,#1580,.F.);
#1985=ORIENTED_EDGE('',*,*,#1861,.T.);
#1986=ORIENTED_EDGE('',*,*,#1907,.F.);
#1987=ORIENTED_EDGE('',*,*,#1964,.F.);
#1988=EDGE_LOOP('',(#1984,#1985,#1986,#1987));
#1989=FACE_BOUND('',#1988,.T.);
#1990=ADVANCED_FACE('',(#1989),#1983,.F.);
#1991=CARTESIAN_POINT('',(-0.400675664,0.,130.847991892));
#1992=DIRECTION('',(-0.64278761,0.,0.766044443));
#1993=DIRECTION('',(0.766044443,0.,0.64278761));
#1994=AXIS2_PLACEMENT_3D('',#1991,#1992,#1993);
#1995=PLANE('',#1994);
#1996=ORIENTED_EDGE('',*,*,#1943,.T.);
#1997=ORIENTED_EDGE('',*,*,#1870,.T.);
#1998=ORIENTED_EDGE('',*,*,#1595,.F.);
#1999=ORIENTED_EDGE('',*,*,#1957,.F.);
#2000=EDGE_LOOP('',(#1996,#1997,#1998,#1999));
#2001=FACE_BOUND('',#2000,.T.);
#2002=ADVANCED_FACE('',(#2001),#1995,.F.);
#2003=CARTESIAN_POINT('',(0.976480027,0.,128.740044501));
#2004=DIRECTION('',(-0.766044443,0.,-0.64278761));
#2005=DIRECTION('',(-0.64278761,0.,0.766044443));
#2006=AXIS2_PLACEMENT_3D('',#2003,#2004,#2005);
#2007=CYLINDRICAL_SURFACE('',#2006,5.5);
#2008=ORIENTED_EDGE('',*,*,#1613,.F.);
#2009=ORIENTED_EDGE('',*,*,#1972,.T.);
#2010=ORIENTED_EDGE('',*,*,#1893,.F.);
#2011=ORIENTED_EDGE('',*,*,#1655,.F.);
#2012=EDGE_LOOP('',(#2008,#2009,#2010,#2011));
#2013=FACE_BOUND('',#2012,.T.);
#2014=ADVANCED_FACE('',(#2013),#2007,.T.);
#2015=CLOSED_SHELL('',(#1599,#1641,#1682,#1714,#1746,#1778,#1810,#1842,#1880,#1917,#1947,#1978,#1990,#2002,#2014));
#2016=MANIFOLD_SOLID_BREP('Corps 23',#2015);
#1557=STYLED_ITEM('',(#566),#2016);
#2018=CARTESIAN_POINT('',(1.191780351,0.,127.55002527));
#2019=DIRECTION('',(-0.64278761,-0.,0.766044443));
#2020=DIRECTION('',(0.,-1.,-0.));
#2021=AXIS2_PLACEMENT_3D('',#2018,#2019,#2020);
#2022=PLANE('',#2021);
#2023=CARTESIAN_POINT('',(-0.033890758,-1.05,126.521565094));
#2024=VERTEX_POINT('',#2023);
#2025=CARTESIAN_POINT('',(-0.033890758,1.05,126.521565094));
#2026=VERTEX_POINT('',#2025);
#2027=CARTESIAN_POINT('',(-0.033890758,-1.05,126.521565094));
#2028=DIRECTION('',(-0.,1.,0.));
#2029=VECTOR('',#2028,2.1);
#2030=LINE('',#2027,#2029);
#2031=EDGE_CURVE('',#2024,#2026,#2030,.T.);
#2032=ORIENTED_EDGE('',*,*,#2031,.F.);
#2033=CARTESIAN_POINT('',(1.191780351,-1.05,127.55002527));
#2034=VERTEX_POINT('',#2033);
#2035=CARTESIAN_POINT('',(1.191780351,-1.05,127.55002527));
#2036=DIRECTION('',(-0.766044443,0.,-0.64278761));
#2037=VECTOR('',#2036,1.6);
#2038=LINE('',#2035,#2037);
#2039=EDGE_CURVE('',#2034,#2024,#2038,.T.);
#2040=ORIENTED_EDGE('',*,*,#2039,.F.);
#2041=CARTESIAN_POINT('',(1.191780351,1.05,127.55002527));
#2042=VERTEX_POINT('',#2041);
#2043=CARTESIAN_POINT('',(1.191780351,-1.05,127.55002527));
#2044=DIRECTION('',(-0.,1.,0.));
#2045=VECTOR('',#2044,2.1);
#2046=LINE('',#2043,#2045);
#2047=EDGE_CURVE('',#2034,#2042,#2046,.T.);
#2048=ORIENTED_EDGE('',*,*,#2047,.T.);
#2049=CARTESIAN_POINT('',(1.191780351,1.05,127.55002527));
#2050=DIRECTION('',(-0.766044443,0.,-0.64278761));
#2051=VECTOR('',#2050,1.6);
#2052=LINE('',#2049,#2051);
#2053=EDGE_CURVE('',#2042,#2026,#2052,.T.);
#2054=ORIENTED_EDGE('',*,*,#2053,.T.);
#2055=EDGE_LOOP('',(#2032,#2040,#2048,#2054));
#2056=FACE_BOUND('',#2055,.T.);
#2057=ADVANCED_FACE('',(#2056),#2022,.T.);
#2058=CARTESIAN_POINT('',(0.516853361,-1.05,128.354371935));
#2059=DIRECTION('',(0.,1.,0.));
#2060=DIRECTION('',(0.766044443,0.,0.64278761));
#2061=AXIS2_PLACEMENT_3D('',#2058,#2059,#2060);
#2062=PLANE('',#2061);
#2063=CARTESIAN_POINT('',(-1.383744738,-1.05,128.130258425));
#2064=VERTEX_POINT('',#2063);
#2065=CARTESIAN_POINT('',(-1.383744738,-1.05,128.130258425));
#2066=DIRECTION('',(0.64278761,0.,-0.766044443));
#2067=VECTOR('',#2066,2.1);
#2068=LINE('',#2065,#2067);
#2069=EDGE_CURVE('',#2064,#2024,#2068,.T.);
#2070=ORIENTED_EDGE('',*,*,#2069,.F.);
#2071=CARTESIAN_POINT('',(-0.158073629,-1.05,129.1587186));
#2072=VERTEX_POINT('',#2071);
#2073=CARTESIAN_POINT('',(-0.158073629,-1.05,129.1587186));
#2074=DIRECTION('',(-0.766044443,0.,-0.64278761));
#2075=VECTOR('',#2074,1.6);
#2076=LINE('',#2073,#2075);
#2077=EDGE_CURVE('',#2072,#2064,#2076,.T.);
#2078=ORIENTED_EDGE('',*,*,#2077,.F.);
#2079=CARTESIAN_POINT('',(-0.158073629,-1.05,129.1587186));
#2080=DIRECTION('',(0.64278761,0.,-0.766044443));
#2081=VECTOR('',#2080,2.1);
#2082=LINE('',#2079,#2081);
#2083=EDGE_CURVE('',#2072,#2034,#2082,.T.);
#2084=ORIENTED_EDGE('',*,*,#2083,.T.);
#2085=ORIENTED_EDGE('',*,*,#2039,.T.);
#2086=EDGE_LOOP('',(#2070,#2078,#2084,#2085));
#2087=FACE_BOUND('',#2086,.T.);
#2088=ADVANCED_FACE('',(#2087),#2062,.T.);
#2089=CARTESIAN_POINT('',(-0.158073629,-0.,129.1587186));
#2090=DIRECTION('',(0.64278761,0.,-0.766044443));
#2091=DIRECTION('',(-0.,1.,0.));
#2092=AXIS2_PLACEMENT_3D('',#2089,#2090,#2091);
#2093=PLANE('',#2092);
#2094=CARTESIAN_POINT('',(-1.383744738,1.05,128.130258425));
#2095=VERTEX_POINT('',#2094);
#2096=CARTESIAN_POINT('',(-1.383744738,1.05,128.130258425));
#2097=DIRECTION('',(0.,-1.,-0.));
#2098=VECTOR('',#2097,2.1);
#2099=LINE('',#2096,#2098);
#2100=EDGE_CURVE('',#2095,#2064,#2099,.T.);
#2101=ORIENTED_EDGE('',*,*,#2100,.F.);
#2102=CARTESIAN_POINT('',(-0.158073629,1.05,129.1587186));
#2103=VERTEX_POINT('',#2102);
#2104=CARTESIAN_POINT('',(-0.158073629,1.05,129.1587186));
#2105=DIRECTION('',(-0.766044443,0.,-0.64278761));
#2106=VECTOR('',#2105,1.6);
#2107=LINE('',#2104,#2106);
#2108=EDGE_CURVE('',#2103,#2095,#2107,.T.);
#2109=ORIENTED_EDGE('',*,*,#2108,.F.);
#2110=CARTESIAN_POINT('',(-0.158073629,1.05,129.1587186));
#2111=DIRECTION('',(0.,-1.,-0.));
#2112=VECTOR('',#2111,2.1);
#2113=LINE('',#2110,#2112);
#2114=EDGE_CURVE('',#2103,#2072,#2113,.T.);
#2115=ORIENTED_EDGE('',*,*,#2114,.T.);
#2116=ORIENTED_EDGE('',*,*,#2077,.T.);
#2117=EDGE_LOOP('',(#2101,#2109,#2115,#2116));
#2118=FACE_BOUND('',#2117,.T.);
#2119=ADVANCED_FACE('',(#2118),#2093,.T.);
#2120=CARTESIAN_POINT('',(0.516853361,1.05,128.354371935));
#2121=DIRECTION('',(0.,-1.,-0.));
#2122=DIRECTION('',(0.64278761,0.,-0.766044443));
#2123=AXIS2_PLACEMENT_3D('',#2120,#2121,#2122);
#2124=PLANE('',#2123);
#2125=CARTESIAN_POINT('',(-0.033890758,1.05,126.521565094));
#2126=DIRECTION('',(-0.64278761,-0.,0.766044443));
#2127=VECTOR('',#2126,2.1);
#2128=LINE('',#2125,#2127);
#2129=EDGE_CURVE('',#2026,#2095,#2128,.T.);
#2130=ORIENTED_EDGE('',*,*,#2129,.F.);
#2131=ORIENTED_EDGE('',*,*,#2053,.F.);
#2132=CARTESIAN_POINT('',(1.191780351,1.05,127.55002527));
#2133=DIRECTION('',(-0.64278761,-0.,0.766044443));
#2134=VECTOR('',#2133,2.1);
#2135=LINE('',#2132,#2134);
#2136=EDGE_CURVE('',#2042,#2103,#2135,.T.);
#2137=ORIENTED_EDGE('',*,*,#2136,.T.);
#2138=ORIENTED_EDGE('',*,*,#2108,.T.);
#2139=EDGE_LOOP('',(#2130,#2131,#2137,#2138));
#2140=FACE_BOUND('',#2139,.T.);
#2141=ADVANCED_FACE('',(#2140),#2124,.T.);
#2142=CARTESIAN_POINT('',(0.516853361,0.,128.354371935));
#2143=DIRECTION('',(-0.766044443,0.,-0.64278761));
#2144=DIRECTION('',(-0.64278761,0.,0.766044443));
#2145=AXIS2_PLACEMENT_3D('',#2142,#2143,#2144);
#2146=CYLINDRICAL_SURFACE('',#2145,2.);
#2147=CARTESIAN_POINT('',(-1.994392967,0.,128.858000646));
#2148=VERTEX_POINT('',#2147);
#2149=CARTESIAN_POINT('',(-0.768721858,0.,129.886460821));
#2150=VERTEX_POINT('',#2149);
#2151=CARTESIAN_POINT('',(-1.994392967,0.,128.858000646));
#2152=DIRECTION('',(0.766044443,-0.,0.64278761));
#2153=VECTOR('',#2152,1.6);
#2154=LINE('',#2151,#2153);
#2155=EDGE_CURVE('',#2148,#2150,#2154,.T.);
#2156=ORIENTED_EDGE('',*,*,#2155,.T.);
#2157=CARTESIAN_POINT('',(1.80242858,-0.,126.822283049));
#2158=VERTEX_POINT('',#2157);
#2159=CARTESIAN_POINT('',(0.516853361,0.,128.354371935));
#2160=DIRECTION('',(0.766044443,0.,0.64278761));
#2161=DIRECTION('',(0.64278761,-0.,-0.766044443));
#2162=AXIS2_PLACEMENT_3D('',#2159,#2160,#2161);
#2163=CIRCLE('',#2162,2.);
#2164=EDGE_CURVE('',#2158,#2150,#2163,.T.);
#2165=ORIENTED_EDGE('',*,*,#2164,.F.);
#2166=CARTESIAN_POINT('',(0.516853361,0.,128.354371935));
#2167=DIRECTION('',(0.766044443,0.,0.64278761));
#2168=DIRECTION('',(0.64278761,-0.,-0.766044443));
#2169=AXIS2_PLACEMENT_3D('',#2166,#2167,#2168);
#2170=CIRCLE('',#2169,2.);
#2171=EDGE_CURVE('',#2150,#2158,#2170,.T.);
#2172=ORIENTED_EDGE('',*,*,#2171,.F.);
#2173=ORIENTED_EDGE('',*,*,#2155,.F.);
#2174=CARTESIAN_POINT('',(0.576757471,-0.,125.793822873));
#2175=VERTEX_POINT('',#2174);
#2176=CARTESIAN_POINT('',(-0.708817748,0.,127.32591176));
#2177=DIRECTION('',(0.766044443,0.,0.64278761));
#2178=DIRECTION('',(0.64278761,-0.,-0.766044443));
#2179=AXIS2_PLACEMENT_3D('',#2176,#2177,#2178);
#2180=CIRCLE('',#2179,2.);
#2181=EDGE_CURVE('',#2148,#2175,#2180,.T.);
#2182=ORIENTED_EDGE('',*,*,#2181,.T.);
#2183=CARTESIAN_POINT('',(-0.708817748,0.,127.32591176));
#2184=DIRECTION('',(0.766044443,0.,0.64278761));
#2185=DIRECTION('',(0.64278761,-0.,-0.766044443));
#2186=AXIS2_PLACEMENT_3D('',#2183,#2184,#2185);
#2187=CIRCLE('',#2186,2.);
#2188=EDGE_CURVE('',#2175,#2148,#2187,.T.);
#2189=ORIENTED_EDGE('',*,*,#2188,.T.);
#2190=EDGE_LOOP('',(#2156,#2165,#2172,#2173,#2182,#2189));
#2191=FACE_BOUND('',#2190,.T.);
#2192=ADVANCED_FACE('',(#2191),#2146,.T.);
#2193=CARTESIAN_POINT('',(0.516853361,0.,128.354371935));
#2194=DIRECTION('',(0.766044443,0.,0.64278761));
#2195=DIRECTION('',(0.64278761,0.,-0.766044443));
#2196=AXIS2_PLACEMENT_3D('',#2193,#2194,#2195);
#2197=PLANE('',#2196);
#2198=ORIENTED_EDGE('',*,*,#2047,.F.);
#2199=ORIENTED_EDGE('',*,*,#2083,.F.);
#2200=ORIENTED_EDGE('',*,*,#2114,.F.);
#2201=ORIENTED_EDGE('',*,*,#2136,.F.);
#2202=EDGE_LOOP('',(#2198,#2199,#2200,#2201));
#2203=FACE_BOUND('',#2202,.T.);
#2204=ORIENTED_EDGE('',*,*,#2164,.T.);
#2205=ORIENTED_EDGE('',*,*,#2171,.T.);
#2206=EDGE_LOOP('',(#2204,#2205));
#2207=FACE_BOUND('',#2206,.T.);
#2208=ADVANCED_FACE('',(#2203,#2207),#2197,.T.);
#2209=CARTESIAN_POINT('',(-0.708817748,0.,127.32591176));
#2210=DIRECTION('',(0.766044443,0.,0.64278761));
#2211=DIRECTION('',(0.64278761,0.,-0.766044443));
#2212=AXIS2_PLACEMENT_3D('',#2209,#2210,#2211);
#2213=PLANE('',#2212);
#2214=ORIENTED_EDGE('',*,*,#2031,.T.);
#2215=ORIENTED_EDGE('',*,*,#2129,.T.);
#2216=ORIENTED_EDGE('',*,*,#2100,.T.);
#2217=ORIENTED_EDGE('',*,*,#2069,.T.);
#2218=EDGE_LOOP('',(#2214,#2215,#2216,#2217));
#2219=FACE_BOUND('',#2218,.T.);
#2220=ORIENTED_EDGE('',*,*,#2181,.F.);
#2221=ORIENTED_EDGE('',*,*,#2188,.F.);
#2222=EDGE_LOOP('',(#2220,#2221));
#2223=FACE_BOUND('',#2222,.T.);
#2224=ADVANCED_FACE('',(#2219,#2223),#2213,.F.);
#2225=CLOSED_SHELL('',(#2057,#2088,#2119,#2141,#2192,#2208,#2224));
#2226=MANIFOLD_SOLID_BREP('Corps 17',#2225);
#2017=STYLED_ITEM('',(#566),#2226);
#35=SHAPE_REPRESENTATION('Hat2',(#15),#33);
#36=ADVANCED_BREP_SHAPE_REPRESENTATION('Hat2',(#127,#559,#1131,#1556,#2016,#2226),#33);
#2234=SHAPE_REPRESENTATION_RELATIONSHIP('','',#35,#36);
#2235=CARTESIAN_POINT('',(0.,0.,0.));
#2236=DIRECTION('',(0.,0.,1.));
#2237=DIRECTION('',(1.,0.,0.));
#2238=AXIS2_PLACEMENT_3D('',#2235,#2236,#2237);
#2240=MAPPED_ITEM('',#2239,#2238);
#2239=REPRESENTATION_MAP(#2238,#35);
#2241=APPLICATION_CONTEXT('Managed model based 3d engineering');
#2242=APPLICATION_PROTOCOL_DEFINITION('international standard','ap242_managed_model_based_3d_engineering',2014,#2241);
#2243=PRODUCT_CONTEXT('',#2241,'mechanical');
#2244=PRODUCT_DEFINITION_CONTEXT('part definition',#2241,'design');
#43=PRODUCT('Hat2','Hat2','',(#2243));
#2245=PRODUCT_RELATED_PRODUCT_CATEGORY('part','',(#43));
#2246=PRODUCT_DEFINITION_FORMATION_WITH_SPECIFIED_SOURCE('','',#43,.NOT_KNOWN.);
#44=PRODUCT_DEFINITION('design','',#2246,#2244);
#42=PRODUCT_DEFINITION_SHAPE('','',#44);
#2247=SHAPE_DEFINITION_REPRESENTATION(#42,#35);
#34=DRAUGHTING_MODEL('',(#2240),#33);
#16=SHAPE_REPRESENTATION('root',(#15,#48),#10);
#2248=CARTESIAN_POINT('',(0.,0.,0.));
#2249=DIRECTION('',(0.,0.,1.));
#2250=DIRECTION('',(1.,0.,0.));
#2251=AXIS2_PLACEMENT_3D('',#2248,#2249,#2250);
#2253=MAPPED_ITEM('',#2252,#2251);
#2252=REPRESENTATION_MAP(#2251,#16);
#24=PRODUCT('root','root','',(#2243));
#2254=PRODUCT_RELATED_PRODUCT_CATEGORY('part','',(#24));
#2255=PRODUCT_DEFINITION_FORMATION_WITH_SPECIFIED_SOURCE('','',#24,.NOT_KNOWN.);
#25=PRODUCT_DEFINITION('design','',#2255,#2244);
#23=PRODUCT_DEFINITION_SHAPE('','',#25);
#2256=SHAPE_DEFINITION_REPRESENTATION(#23,#16);
#11=DRAUGHTING_MODEL('',(#2253),#10);
#2257=DESCRIPTIVE_REPRESENTATION_ITEM('KEY','/Users/yohannbelair/Library/Containers/com.shapr3d.shapr/Data/tmp/7D0F5EBB-54DA-4CB4-BB3E-D6101DE1FCCD.tmp');
#2258=PROPERTY_DEFINITION('KEY','',#25);
#2259=REPRESENTATION('',(#2257),#10);
#2260=PROPERTY_DEFINITION_REPRESENTATION(#2258,#2259);
#2261=GENERAL_PROPERTY('','KEY','');
#2262=GENERAL_PROPERTY_ASSOCIATION('','',#2261,#2258);
#1=MECHANICAL_DESIGN_GEOMETRIC_PRESENTATION_REPRESENTATION('',(#54,#135,#567,#1132,#1557,#2017),#10);
ENDSEC;
END-ISO-10303-21;
